<svg width="32" height="32" viewBox="0 0 32 32" fill="none" xmlns="http://www.w3.org/2000/svg">
<path d="M16.3658 5.33337C16.8721 5.33337 17.2905 5.70958 17.3567 6.19768L17.3658 6.33337L17.365 23.912L23.6897 17.5614C24.0794 17.17 24.7126 17.1687 25.1039 17.5583C25.4597 17.9126 25.4932 18.4681 25.2036 18.8602L25.107 18.9726L17.075 27.0392C17.0236 27.0908 16.968 27.1356 16.9093 27.1736C16.8916 27.1844 16.8736 27.1953 16.8551 27.2057C16.8393 27.2152 16.8229 27.2238 16.8063 27.232C16.7821 27.2433 16.7572 27.2543 16.7317 27.2643C16.7121 27.2724 16.693 27.2792 16.6738 27.2854C16.6499 27.2928 16.6245 27.3 16.5987 27.3061C16.5807 27.3107 16.5633 27.3143 16.5459 27.3175C16.52 27.3219 16.4932 27.3257 16.4661 27.3284C16.4454 27.3307 16.4249 27.3321 16.4044 27.3329C16.3919 27.3331 16.3789 27.3334 16.3658 27.3334L16.3271 27.3329C16.3074 27.3321 16.2878 27.3308 16.2683 27.3288L16.3658 27.3334C16.3027 27.3334 16.241 27.3275 16.1811 27.3164C16.1668 27.3138 16.1521 27.3107 16.1375 27.3072C16.1074 27.3001 16.0784 27.2919 16.05 27.2825C16.0359 27.2778 16.0208 27.2724 16.0058 27.2667C15.9757 27.255 15.947 27.2423 15.9191 27.2283C15.906 27.2218 15.8922 27.2145 15.8786 27.2069C15.8564 27.1944 15.8353 27.1816 15.8147 27.1679C15.8001 27.1583 15.785 27.1477 15.7701 27.1366L15.7585 27.1279C15.7233 27.101 15.69 27.0718 15.6587 27.0405L15.6578 27.0393L7.62444 18.9726C7.23472 18.5813 7.23603 17.9481 7.62737 17.5584C7.98312 17.2041 8.53874 17.173 8.92962 17.4643L9.04158 17.5613L15.365 23.9094L15.3658 6.33337C15.3658 5.78109 15.8135 5.33337 16.3658 5.33337Z" fill="#443F80"/>
</svg>
