<svg width="32" height="32" viewBox="0 0 32 32" fill="none" xmlns="http://www.w3.org/2000/svg">
<path d="M16.3656 27.3334C15.8594 27.3334 15.441 26.9572 15.3748 26.4691L15.3656 26.3334L15.3664 8.75471L9.04173 15.1054C8.65205 15.4967 8.01889 15.4981 7.62752 15.1084C7.27174 14.7541 7.23827 14.1987 7.52789 13.8066L7.62448 13.6942L15.6565 5.62753C15.7078 5.57594 15.7634 5.53113 15.8221 5.4931C15.8398 5.48236 15.8579 5.47142 15.8763 5.46106C15.8921 5.45152 15.9086 5.44291 15.9251 5.43478C15.9493 5.42349 15.9742 5.41246 15.9997 5.40245C16.0193 5.39431 16.0384 5.38752 16.0576 5.38132C16.0815 5.37395 16.1069 5.36679 16.1327 5.36064C16.1508 5.35606 16.1681 5.35243 16.1855 5.34927C16.2114 5.34482 16.2382 5.34104 16.2654 5.33834C16.2861 5.33601 16.3066 5.3346 16.3271 5.33383C16.3395 5.33363 16.3526 5.33337 16.3656 5.33337L16.4044 5.33387C16.424 5.33464 16.4436 5.33598 16.4632 5.3379L16.3656 5.33337C16.4287 5.33337 16.4905 5.33922 16.5503 5.3504C16.5646 5.35299 16.5793 5.35608 16.5939 5.3595C16.624 5.3666 16.653 5.37481 16.6814 5.38426C16.6956 5.3889 16.7107 5.39431 16.7256 5.40009C16.7557 5.41177 16.7844 5.42447 16.8123 5.43845C16.8255 5.44494 16.8392 5.45221 16.8528 5.45982C16.8751 5.47232 16.8962 5.48519 16.9167 5.4988C16.9313 5.50841 16.9465 5.51904 16.9614 5.53015L16.9729 5.53881C17.0081 5.56575 17.0415 5.59497 17.0727 5.62627L17.0737 5.62747L25.107 13.6941C25.4967 14.0855 25.4954 14.7186 25.1041 15.1083C24.7483 15.4626 24.1927 15.4938 23.8018 15.2025L23.6899 15.1054L17.3664 8.75737L17.3656 26.3334C17.3656 26.8857 16.9179 27.3334 16.3656 27.3334Z" fill="#443F80"/>
</svg>
