<svg width="48" height="48" viewBox="0 0 48 48" fill="none" xmlns="http://www.w3.org/2000/svg">
<circle cx="24" cy="24" r="24" fill="#443F80"/>
<path fill-rule="evenodd" clip-rule="evenodd" d="M23.7808 14.0002C26.3947 14.0002 28.554 15.9919 28.8202 18.5392L28.8945 18.54C30.3445 18.54 32.1075 19.503 32.7025 22.204L33.4915 28.311C33.7745 30.282 33.4205 31.863 32.4375 32.997C31.4595 34.125 29.9115 34.722 27.9605 34.722H19.6125C17.4695 34.722 15.9765 34.197 15.0475 33.118C14.1145 32.036 13.8025 30.413 14.1205 28.295L14.8965 22.269C15.4065 19.506 17.2715 18.54 18.7155 18.54C18.8402 17.3905 19.3585 16.2969 20.1808 15.4772C21.1258 14.5382 22.4288 14.0002 23.7598 14.0002H23.7808ZM28.8945 20.04H18.7155C18.2745 20.04 16.8005 20.218 16.3775 22.502L15.6055 28.502C15.3545 30.185 15.5485 31.403 16.1835 32.14C16.8105 32.868 17.9325 33.222 19.6125 33.222H27.9605C29.0085 33.222 30.4395 33.013 31.3035 32.015C31.9895 31.224 32.2255 30.046 32.0055 28.513L31.2265 22.461C30.8945 20.97 30.0185 20.04 28.8945 20.04ZM23.7778 15.5002H23.7628C22.8218 15.5002 21.9048 15.8792 21.2398 16.5402C20.6981 17.0795 20.3438 17.7884 20.2292 18.5396L27.3085 18.5399C27.0516 16.8216 25.5657 15.5002 23.7778 15.5002Z" fill="white"/>
<path d="M23.9974 31.168C23.0054 31.168 22.2094 30.896 21.6094 30.352C21.0094 29.8 20.7094 28.968 20.7094 27.856V25.744C20.7094 24.664 21.0094 23.844 21.6094 23.284C22.2094 22.716 23.0054 22.432 23.9974 22.432C24.9974 22.432 25.7934 22.716 26.3854 23.284C26.9854 23.844 27.2854 24.664 27.2854 25.744V27.856C27.2854 28.968 26.9854 29.8 26.3854 30.352C25.7934 30.896 24.9974 31.168 23.9974 31.168ZM23.9974 29.8C24.5974 29.8 25.0374 29.636 25.3174 29.308C25.6054 28.98 25.7494 28.512 25.7494 27.904V25.672C25.7494 25.056 25.5894 24.592 25.2694 24.28C24.9574 23.96 24.5334 23.8 23.9974 23.8C23.4454 23.8 23.0134 23.964 22.7014 24.292C22.3974 24.62 22.2454 25.08 22.2454 25.672V27.904C22.2454 28.536 22.3894 29.012 22.6774 29.332C22.9734 29.644 23.4134 29.8 23.9974 29.8Z" fill="white"/>
</svg>
