<svg width="44" height="40" viewBox="0 0 44 40" fill="none" xmlns="http://www.w3.org/2000/svg">
<g clip-path="url(#clip0)">
<path d="M9.25118 4.98977C9.3161 5.16856 9.3161 5.47737 9.28364 5.88371L9.26741 6.01374C9.25118 6.12752 9.25118 6.20879 9.25118 6.25754L9.23496 7.68785V7.78538V7.85039C9.23496 8.19171 9.21872 8.46802 9.17003 8.66307C9.1538 8.72808 9.13757 8.7931 9.10511 8.85811C8.91035 9.39448 8.47213 9.78456 7.80668 10.0446C7.2224 10.2722 6.54072 10.3859 5.74544 10.3859C5.69675 10.3859 5.63183 10.3859 5.55068 10.3859H5.51822L5.33969 10.3697C5.16115 10.3534 4.9664 10.3534 4.78785 10.3209L4.60932 10.3047H4.57687C4.46326 10.2884 4.3821 10.2722 4.33342 10.2559L4.2198 10.2397C3.94389 10.1909 3.66797 10.1259 3.40828 10.0446C3.29467 10.0121 3.18106 9.96336 3.08368 9.93084L2.9863 9.89834C2.45069 9.7033 1.98002 9.36198 1.55804 8.85811C1.13605 8.35425 0.795212 7.81788 0.567988 7.28152C0.292073 6.68014 0.146001 6.01374 0.11354 5.31483C0.0810798 4.63218 0.178461 3.96579 0.389454 3.33191C0.454376 3.15312 0.519297 2.99058 0.584219 2.82804C0.811442 2.30793 1.13605 1.85283 1.52557 1.44649C1.93133 1.04015 2.38577 0.731334 2.90514 0.520037L2.93761 0.48753L3.08368 0.438769L3.09991 0.422515C3.29467 0.341248 3.53813 0.276233 3.79781 0.211219L3.92765 0.178712L3.96012 0.162458H3.97634C4.99885 -0.0650911 6.03758 -0.0488375 7.07633 0.211219C7.10878 0.227473 7.14125 0.227473 7.1737 0.243727C7.92029 0.438769 8.4559 0.828855 8.79674 1.36522C8.89412 1.52776 8.9428 1.67404 8.9428 1.82032C8.9428 1.9341 8.87788 2.08038 8.76427 2.27542C8.58574 2.58424 8.39098 2.74678 8.17998 2.76303C8.11506 2.77928 8.06637 2.76303 8.00145 2.74678H7.98523H7.95276L7.758 2.68176L7.80668 2.66551C7.79046 2.66551 7.79046 2.66551 7.77423 2.64926C7.74176 2.633 7.70931 2.61674 7.69307 2.60049C7.57946 2.53547 7.41717 2.48672 7.2224 2.4217C7.18994 2.40545 7.12501 2.40545 7.06009 2.37295C6.60564 2.24291 6.1512 2.19416 5.71299 2.19416C4.95016 2.22666 4.31718 2.45422 3.79781 2.8768C3.24598 3.31564 2.90514 3.96579 2.80777 4.82723C2.74285 5.3636 2.7753 5.8512 2.92138 6.32256C2.9863 6.46884 3.03499 6.61512 3.11614 6.7614C3.39206 7.28152 3.76536 7.6716 4.26849 7.9154C4.77163 8.15921 5.29099 8.22423 5.85905 8.1267C6.19989 8.06169 6.44335 7.93166 6.57319 7.73662C6.67057 7.59033 6.70303 7.41154 6.70303 7.20025C6.6868 6.98895 6.62188 6.81016 6.50827 6.64763C6.34597 6.45258 6.05382 6.33881 5.64807 6.33881C5.6156 6.33881 5.53446 6.33881 5.43707 6.35506C5.37215 6.37131 5.29099 6.37131 5.22607 6.35506C5.14493 6.35506 5.08001 6.33881 5.01508 6.32256C4.95016 6.30631 4.90146 6.27379 4.85278 6.20879C4.80409 6.14377 4.77163 6.0625 4.73917 5.96498C4.65801 5.57489 4.62556 5.28233 4.64179 5.08729C4.62556 5.07103 4.62556 5.03852 4.62556 4.98977L4.64179 4.97351C4.70671 4.6647 4.86901 4.45339 5.09623 4.33962C5.22607 4.2746 5.4046 4.25835 5.64807 4.25835C5.77791 4.25835 5.95644 4.25835 6.19989 4.2421H6.21613L6.36219 4.22585H6.37842H6.41089C6.6868 4.2096 6.91403 4.2096 7.10878 4.22585C7.20617 4.22585 7.35223 4.22585 7.547 4.2096C7.92029 4.19334 8.17998 4.19334 8.37474 4.2421C8.50459 4.2746 8.61821 4.30712 8.73182 4.37212C8.84543 4.43714 8.95904 4.51841 9.05641 4.63218C9.13757 4.72971 9.20249 4.85974 9.25118 4.98977Z" fill="#42407C"/>
<path d="M18.5011 8.77693C18.6147 9.05324 18.6308 9.29705 18.5498 9.50835C18.4848 9.70339 18.3387 9.88218 18.0953 10.0122C17.6895 10.256 17.2351 10.3048 16.7319 10.1422C16.5534 10.0772 16.4074 9.99595 16.2613 9.88218C16.1153 9.76841 16.0015 9.65462 15.9367 9.5571C15.8718 9.45958 15.7582 9.3133 15.6283 9.11826L15.1901 8.45187L14.7032 7.72045L14.6382 7.63918C14.4273 7.29786 14.2325 7.08657 14.0377 6.98905C13.9078 6.92403 13.7942 6.92403 13.7132 6.94028C13.632 6.97279 13.5346 7.05406 13.4534 7.16783C13.3074 7.37913 13.2262 7.63918 13.1937 7.93175C13.1613 8.22431 13.1613 8.50062 13.1937 8.74443C13.21 9.00449 13.2262 9.19953 13.2262 9.32956C13.2262 9.5246 13.1937 9.68714 13.1289 9.80091C13.0477 9.93094 12.9178 10.0447 12.7393 10.126C12.5284 10.2235 12.2686 10.2723 11.9765 10.2723C11.376 10.2723 10.9702 10.1097 10.7592 9.78466C10.6781 9.65462 10.6294 9.44333 10.6131 9.15077C10.5969 8.97198 10.5969 8.77693 10.5807 8.56564V8.53314V8.28933C10.5645 8.09429 10.5645 7.89924 10.5645 7.68795V7.44414V7.41164C10.5645 7.11907 10.5645 6.66397 10.5807 6.07884C10.5969 5.47747 10.5969 5.02236 10.5969 4.71355V2.17799C10.5969 1.64163 10.6456 1.23528 10.743 0.942721H10.7592V0.910214L10.7754 0.877707C10.8241 0.763931 10.8728 0.682664 10.9378 0.61765C11.0189 0.503875 11.1812 0.422607 11.4247 0.373847C11.4896 0.357593 11.5383 0.341339 11.5708 0.325085C11.733 0.292579 11.8953 0.243818 12.0576 0.211311H12.0739L12.1713 0.195057C12.1875 0.195057 12.2037 0.195057 12.22 0.195057L12.3011 0.178803C12.6581 0.11379 13.0801 0.0812823 13.567 0.0812823C14.5571 0.0487752 15.3523 0.130043 15.9529 0.292579C16.5697 0.471368 17.089 0.780185 17.5272 1.23528L17.5435 1.25154L17.6895 1.41407H17.6733C17.933 1.7229 18.1278 2.06422 18.2576 2.43805L18.3226 2.63309V2.66559C18.4036 2.94191 18.4362 3.21822 18.4199 3.49453C18.4199 3.6083 18.4199 3.73834 18.4036 3.85211C18.3226 4.56726 18.0142 5.20115 17.511 5.73753C17.4786 5.75378 17.4461 5.80253 17.3811 5.86755C17.2351 5.99757 17.1377 6.11135 17.089 6.19262C17.0079 6.30639 16.9591 6.42017 16.9591 6.51769C16.9591 6.63147 16.9754 6.71274 17.0241 6.77774C17.0566 6.84276 17.1377 6.94028 17.2351 7.08657C17.3 7.15158 17.3325 7.20034 17.3487 7.23285L18.0953 8.19181C18.3063 8.41935 18.4362 8.61439 18.5011 8.77693ZM14.1189 4.81107C14.2488 4.82732 14.3948 4.81107 14.5571 4.77857C15.0765 4.6973 15.4335 4.46974 15.6121 4.11216C15.7419 3.86836 15.7743 3.6083 15.7419 3.29949C15.7094 3.05568 15.6121 2.86064 15.4822 2.69811C15.3362 2.51932 15.1089 2.40554 14.8493 2.32428C14.6707 2.27551 14.411 2.24301 14.0864 2.22675C14.0377 2.22675 14.0053 2.22675 13.9728 2.22675C13.8592 2.22675 13.7781 2.24301 13.7132 2.25926C13.5184 2.34053 13.3885 2.4868 13.3074 2.73061C13.2262 2.97442 13.1937 3.20197 13.1937 3.44576C13.21 3.68957 13.2262 3.91713 13.2749 4.12842C13.2912 4.22594 13.3236 4.30721 13.3561 4.37222C13.3722 4.43724 13.4048 4.46974 13.421 4.50225C13.567 4.68103 13.7781 4.77856 14.0702 4.81107H14.1189Z" fill="#42407C"/>
<path d="M29.3922 4.6485C29.4084 4.8923 29.4084 5.10361 29.3922 5.2824C29.3759 5.39617 29.3597 5.50994 29.3273 5.63997L29.2948 5.75374C29.2948 5.77 29.2948 5.78625 29.2948 5.81876C29.0838 6.61518 28.6942 7.34659 28.1262 8.02924C27.5581 8.71189 26.9089 9.26451 26.1624 9.6546C25.3671 10.0609 24.5717 10.256 23.7603 10.256C23.2408 10.256 22.7378 10.1747 22.2671 10.0122C21.7639 9.83339 21.3095 9.55708 20.9038 9.21576C20.8713 9.18324 20.8226 9.13449 20.7739 9.10197C20.1085 8.48434 19.6702 7.68792 19.4754 6.7127C19.2807 5.73749 19.3618 4.77853 19.7351 3.80332C20.0922 2.86061 20.6441 2.06419 21.4068 1.4303L21.4394 1.41404L21.553 1.31652C21.7477 1.17025 21.9424 1.04021 22.1535 0.910185H22.1372L22.2671 0.845171L22.3158 0.812663C23.0136 0.438831 23.7278 0.260043 24.4907 0.227535C25.2535 0.211282 25.9839 0.357564 26.6817 0.682635L26.7141 0.698888L26.8602 0.763903C26.8765 0.780156 26.8765 0.780157 26.9089 0.79641C26.9252 0.812663 26.9414 0.812663 26.9576 0.812663C27.3146 1.00771 27.6393 1.2515 27.9314 1.52782C27.9477 1.54408 27.9477 1.54408 27.9638 1.56033C27.9801 1.57658 27.9801 1.57658 27.9801 1.59283V1.57658L28.0937 1.70661L28.1262 1.72286V1.73912C28.3534 1.98292 28.5644 2.25923 28.7429 2.56805C28.9214 2.87686 29.0676 3.18569 29.1812 3.51075C29.2948 3.83582 29.3597 4.1609 29.4084 4.48597L29.4246 4.56723V4.6485H29.3922ZM22.965 6.35513C23.0786 6.58268 23.2408 6.77772 23.4356 6.94026C23.6304 7.1028 23.8576 7.20032 24.0848 7.23282C24.4907 7.31409 24.8477 7.21657 25.156 6.94026C25.2209 6.87524 25.2859 6.81022 25.3508 6.74521C25.4644 6.61518 25.5456 6.45265 25.6429 6.29011C25.7891 5.99755 25.9027 5.70498 25.9676 5.39617C26.0325 5.08734 26.0325 4.76228 25.9838 4.42096C25.9189 4.07963 25.7891 3.78706 25.5619 3.54326C25.2697 3.23444 24.9125 3.10442 24.5068 3.16942C24.1498 3.23444 23.8089 3.41323 23.4843 3.7058C23.1598 3.99836 22.9487 4.33969 22.8514 4.69726C22.8027 4.90856 22.7702 5.11986 22.7702 5.3149C22.754 5.5587 22.7864 5.77 22.8351 5.9813C22.8676 6.12757 22.9 6.24135 22.965 6.35513Z" fill="#42407C"/>
<path d="M42.5396 0.877634C42.6532 1.10518 42.6857 1.43026 42.6046 1.88536L42.5396 2.40547C42.3448 3.83578 42.1663 4.90851 42.0365 5.62368V5.67243L42.004 5.81872C41.9553 6.06252 41.9066 6.27381 41.8579 6.48511L41.8255 6.63139L41.8093 6.68016C41.6307 7.42781 41.4359 8.12672 41.225 8.74435C40.9977 9.41075 40.7055 9.8496 40.3485 10.0609C40.105 10.1909 39.7966 10.2559 39.4072 10.2559H39.3909C38.6444 10.2559 38.0925 10.1422 37.7679 9.89836L37.7354 9.86585L37.5406 9.71957H37.5893C37.5732 9.71957 37.5732 9.71957 37.5732 9.70331C37.492 9.60579 37.4271 9.44325 37.3459 9.19946C37.3134 9.10193 37.281 9.00441 37.2648 8.92314V8.90689C37.2323 8.82562 37.1998 8.71185 37.1512 8.56556C36.9239 7.8179 36.7616 7.24902 36.6805 6.85894C36.648 6.71266 36.6156 6.61514 36.5831 6.56637C36.5181 6.46885 36.4532 6.43635 36.3883 6.46885C36.3235 6.48511 36.2747 6.53387 36.2423 6.63139C36.1449 6.92395 36.0475 7.26528 35.9339 7.63912C35.8527 7.93168 35.7716 8.28925 35.6741 8.67934L35.6092 9.02067C35.5281 9.44325 35.382 9.73582 35.1873 9.86585C35.0412 9.99588 34.7977 10.0772 34.4569 10.1259C33.97 10.1909 33.5804 10.2072 33.2883 10.1909C33.0448 10.1747 32.8176 10.1097 32.6228 10.0121C32.4282 9.91461 32.282 9.81709 32.1684 9.70331C32.0548 9.58954 31.9575 9.44325 31.8438 9.24821C31.7302 9.05317 31.6653 8.87438 31.6166 8.74435C31.5679 8.61433 31.503 8.41929 31.4219 8.15923L31.3731 7.99669V7.98044L31.357 7.94793C31.2758 7.63912 31.1784 7.28154 31.081 6.8752L31.0323 6.69641V6.6639C30.9999 6.50137 30.935 6.25756 30.8701 5.94874L30.8051 5.67243C30.6753 5.11981 30.5617 4.55093 30.4643 3.98207C30.4318 3.85203 30.3994 3.67324 30.3345 3.41319C30.2695 3.13688 30.237 2.94184 30.2046 2.7793C30.1721 2.63301 30.1397 2.43797 30.1073 2.19417C30.0747 1.95036 30.0585 1.73907 30.0747 1.54403C30.091 1.34899 30.1071 1.15394 30.1397 0.975155C30.2046 0.715097 30.3506 0.520055 30.5617 0.390027L30.5941 0.373773L30.7889 0.276252V0.308759C30.9511 0.243744 31.1459 0.227491 31.3731 0.227491C31.7465 0.227491 32.0548 0.308759 32.2983 0.487548C32.2983 0.503802 32.3146 0.503802 32.3307 0.520055V0.487548L32.4931 0.68259L32.5092 0.698844V0.715098C32.6391 0.877634 32.7366 1.08893 32.769 1.34899C32.9799 2.56801 33.3208 4.32339 33.7752 6.64764C33.7915 6.6639 33.7915 6.68016 33.7915 6.69641C33.8078 6.71266 33.8239 6.72891 33.8564 6.72891C33.9375 6.71266 34.0187 6.64764 34.116 6.48511C34.2135 6.33883 34.2784 6.22505 34.3108 6.12753C34.3758 5.93249 34.4407 5.62368 34.5056 5.21733C34.538 5.0548 34.5543 4.92477 34.5705 4.82724C34.6841 4.19336 34.8789 3.59197 35.1548 3.02311V3.00685L35.1711 2.99059C35.2035 2.90932 35.236 2.86057 35.2521 2.8118C35.3171 2.69803 35.3983 2.60051 35.4795 2.51924C35.6093 2.40547 35.7879 2.35671 35.9825 2.3242L35.9664 2.30795H36.1611H36.1936C36.4857 2.3242 36.7616 2.40547 37.0376 2.55175C37.5569 2.8118 37.914 3.21815 38.1088 3.77076C38.1898 3.99832 38.2548 4.33964 38.336 4.79474C38.4658 5.49364 38.6281 5.98125 38.8066 6.29006C38.8716 6.40385 38.9365 6.46885 39.0014 6.48511C39.0825 6.53387 39.1474 6.53387 39.1962 6.46885C39.2286 6.4526 39.2449 6.40385 39.261 6.32258C39.326 5.98125 39.3909 5.57491 39.4558 5.10356L39.4721 5.00603C39.5045 4.71347 39.5533 4.42091 39.5857 4.11209C39.6506 3.72201 39.7156 3.28316 39.7966 2.79555H39.7805L39.7966 2.76305L39.8291 2.58426C39.8941 2.25919 39.959 1.91786 40.0239 1.54403L40.1213 0.991408C40.1862 0.715098 40.2674 0.520055 40.3647 0.40628C40.6406 0.12997 41.0951 0.0812092 41.7281 0.243744C42.1338 0.40628 42.3935 0.585069 42.5396 0.877634Z" fill="#42407C"/>
<path d="M12.5454 15.6359C12.6591 15.8634 12.6915 16.1885 12.6103 16.6436L12.5454 17.1637C12.3507 18.594 12.1722 19.6668 12.0423 20.3819V20.4307L12.0098 20.577C11.9611 20.8208 11.9124 21.0321 11.8638 21.2434L11.8313 21.3897L11.8151 21.4384C11.6366 22.186 11.4418 22.885 11.2308 23.5026C11.0036 24.169 10.7114 24.6079 10.3543 24.8192C10.1109 24.9492 9.80251 25.0141 9.41299 25.0141H9.39676C8.65017 25.0141 8.09833 24.9004 7.77374 24.6567L7.74127 24.6241L7.54651 24.4778H7.59521C7.57897 24.4778 7.57897 24.4778 7.57897 24.4616C7.49782 24.3641 7.4329 24.2016 7.35174 23.9577C7.31929 23.8602 7.28682 23.7627 7.2706 23.6815V23.6651C7.23813 23.5839 7.20568 23.4701 7.15698 23.3239C6.92976 22.5762 6.76746 22.0073 6.68631 21.6172C6.65384 21.4709 6.62138 21.3733 6.58893 21.3247C6.52401 21.2272 6.45909 21.1946 6.39416 21.2272C6.32924 21.2434 6.28054 21.2921 6.24809 21.3897C6.1507 21.6823 6.05332 22.0235 5.93971 22.3973C5.85856 22.6899 5.77741 23.0475 5.68003 23.4376L5.61511 23.7789C5.53395 24.2016 5.38789 24.494 5.19312 24.6241C5.04705 24.7541 4.8036 24.8354 4.46276 24.8842C3.97585 24.9492 3.58632 24.9655 3.29418 24.9492C3.05073 24.9329 2.8235 24.8679 2.62873 24.7704C2.43398 24.6729 2.2879 24.5754 2.17429 24.4616C2.06067 24.3477 1.9633 24.2016 1.84969 24.0065C1.73608 23.8114 1.67116 23.6327 1.62247 23.5026C1.57377 23.3725 1.50885 23.1776 1.4277 22.9175L1.379 22.7549L1.36278 22.7225C1.28163 22.4136 1.18424 22.0561 1.08686 21.6497L1.03817 21.4709V21.4221C1.00571 21.2596 0.94079 21.0159 0.875869 20.7071L0.810948 20.4307C0.681106 19.878 0.567494 19.3092 0.470113 18.7403C0.437652 18.6103 0.405191 18.4315 0.34027 18.1714C0.275349 17.8952 0.242889 17.7001 0.210428 17.5376C0.177968 17.3913 0.145507 17.1962 0.113047 16.9524C0.080586 16.7087 0.0643557 16.4973 0.080586 16.3023C0.0968162 16.1073 0.113047 15.9122 0.145507 15.7335C0.210428 15.4733 0.356501 15.2783 0.567494 15.1483L0.599954 15.1321L0.794718 15.0345V15.1157C0.95702 15.0507 1.15178 15.0345 1.379 15.0345C1.7523 15.0345 2.06067 15.1157 2.30414 15.2946C2.30414 15.3108 2.32036 15.3108 2.33659 15.3271V15.2783L2.4989 15.4733L2.51512 15.4896V15.5059C2.64497 15.6684 2.74235 15.8797 2.77481 16.1397C2.98581 17.3587 3.32664 19.1141 3.78109 21.4384C3.79732 21.4547 3.79732 21.4709 3.79732 21.4872C3.81355 21.5034 3.82977 21.5196 3.86224 21.5196C3.94339 21.5034 4.02454 21.4384 4.12193 21.2759C4.2193 21.1296 4.28422 21.0159 4.31669 20.9183C4.38161 20.7233 4.44653 20.4145 4.51145 20.0081C4.54391 19.8456 4.56014 19.7155 4.57638 19.618C4.68999 18.9841 4.88475 18.3827 5.16066 17.8139V17.7976L5.17689 17.7813C5.20935 17.7001 5.24181 17.6513 5.25805 17.6026C5.32297 17.4888 5.40411 17.3913 5.48527 17.31C5.61511 17.1962 5.79364 17.1475 5.9884 17.1149L5.97217 17.0987H6.16693H6.1994C6.49154 17.1149 6.76746 17.1962 7.04337 17.3425C7.56274 17.6026 7.9198 18.0089 8.11457 18.5616C8.19572 18.7891 8.26064 19.1304 8.3418 19.5855C8.47164 20.2844 8.63394 20.772 8.81247 21.0809C8.87739 21.1946 8.94231 21.2596 9.00723 21.2759C9.08839 21.3247 9.15331 21.3247 9.202 21.2596C9.23445 21.2434 9.25069 21.1946 9.26692 21.1133C9.33184 20.772 9.39676 20.3657 9.46168 19.8944L9.47792 19.7968C9.51037 19.5042 9.55906 19.2116 9.59153 18.9028C9.65645 18.5128 9.72137 18.0739 9.80251 17.5864H9.81875L9.83498 17.5538L9.86743 17.3751C9.93236 17.0499 9.99728 16.7087 10.0622 16.3348L10.1596 15.7821C10.2245 15.5059 10.3057 15.3108 10.403 15.197C10.679 14.9208 11.1334 14.872 11.7663 15.0345C12.1559 15.1808 12.3994 15.3596 12.5454 15.6359Z" fill="#F7E300"/>
<path d="M16.4903 23.8439C16.4903 23.909 16.4903 23.9739 16.4742 24.0389V24.0553V24.0877L16.4579 24.2665V24.2502C16.4417 24.3315 16.4092 24.3965 16.393 24.4453C16.2794 24.6891 16.0684 24.8516 15.7438 24.9329L15.76 24.9492L15.5977 24.9654H15.549C15.4679 24.9817 15.403 24.9817 15.3542 24.9817C15.3218 24.9817 15.2894 24.9817 15.2569 24.9817C15.1433 24.9654 15.0134 24.9654 14.8674 24.9329C14.4615 24.8842 14.1857 24.7704 14.0395 24.5754C13.9585 24.4615 13.8935 24.2665 13.8773 24.0065C13.8123 23.3075 13.7637 22.5436 13.7637 21.6822V21.6334V21.4872C13.7637 21.2596 13.7637 21.0321 13.7637 20.7883V20.642V20.5932C13.7799 20.2194 13.7799 19.6668 13.7962 18.919C13.8286 17.8139 13.8286 16.9849 13.8286 16.4323V16.2535C13.8286 15.7659 13.9585 15.4083 14.2019 15.1808C14.3479 15.0507 14.5751 14.9532 14.8349 14.8882H14.8186L15.0297 14.8557H15.0621C15.5977 14.8232 15.9872 14.9532 16.2307 15.2458C16.4092 15.4571 16.4903 15.8471 16.4579 16.3998L16.4417 16.5136C16.4255 16.8712 16.4255 17.4075 16.4092 18.1065V18.2202C16.393 18.8866 16.4092 19.9106 16.4417 21.2758C16.4742 22.4461 16.4903 23.2913 16.4903 23.8439Z" fill="#F7E300"/>
<path d="M25.5451 16.2371C25.5289 16.5785 25.4315 16.8386 25.2205 17.0173C25.0907 17.131 24.9284 17.1961 24.7337 17.2286C24.5389 17.2611 24.2305 17.2773 23.8248 17.2611H23.7761C23.7436 17.2611 23.6949 17.2611 23.5976 17.2449C23.3053 17.2286 23.0781 17.2286 22.9483 17.2611C22.9158 17.2773 22.8834 17.2773 22.8672 17.3099C22.8022 17.3424 22.7697 17.4236 22.7373 17.5049C22.6724 17.6837 22.64 17.9763 22.6724 18.3826V18.5289L22.6886 18.6589C22.6886 18.7564 22.6886 18.9189 22.6886 19.1628V19.4228L22.7048 19.6504C22.7048 19.8779 22.7048 20.0568 22.7048 20.1705C22.7048 20.9181 22.7048 21.6658 22.7048 22.3972C22.7048 22.4622 22.7048 22.5435 22.7048 22.6898C22.7048 23.5187 22.6237 24.1038 22.4452 24.4452C22.3802 24.6402 22.2991 24.7702 22.1855 24.8515C22.0719 24.9328 21.9258 24.9816 21.7311 24.9978C21.6175 25.014 21.5039 25.014 21.4064 25.014C21.0007 25.014 20.676 24.9328 20.4488 24.7865C20.3189 24.689 20.2053 24.5589 20.1404 24.3802C20.0755 24.2014 20.0268 24.0552 20.0268 23.9413C20.0107 23.8275 20.0107 23.6813 20.0107 23.4862V23.2587V23.1937C20.0268 22.9173 20.0268 22.6248 20.0268 22.316V22.2673V22.2022V22.1046L20.0431 18.9189C20.0431 18.8377 20.0431 18.724 20.0593 18.5451C20.0917 18.09 20.0755 17.765 19.9944 17.6025C19.9295 17.4236 19.7509 17.2773 19.4588 17.1636C19.3127 17.1148 19.1018 17.0986 18.842 17.1148H18.8096C18.5336 17.131 18.274 17.1474 17.998 17.1636C17.8032 17.1636 17.6572 17.131 17.5599 17.0661C17.43 16.9848 17.3326 16.806 17.3002 16.546C17.2515 16.2371 17.2515 15.9933 17.3002 15.7984C17.3814 15.5058 17.5436 15.2945 17.7708 15.1969C17.8032 15.1806 17.8358 15.1806 17.9007 15.1482H17.9494L18.0955 15.1156C18.1604 15.0994 18.2252 15.0994 18.2902 15.0994H19.5237H19.686H19.7023L24.0033 15.0832C24.1169 15.0832 24.1981 15.0832 24.2468 15.0832C24.5389 15.0669 24.7824 15.0994 24.9609 15.1806V15.1644L25.0745 15.2457H25.0907L25.1069 15.2619H25.1232L25.1394 15.2782C25.4153 15.5058 25.5451 15.8146 25.5451 16.2371Z" fill="#F7E300"/>
<path d="M34.959 19.2767C34.9752 21.1297 34.9915 22.5275 34.9915 23.4702C34.9915 24.2179 34.7967 24.673 34.4072 24.8517C34.1638 24.9655 33.823 24.998 33.3685 24.9493C32.979 24.9167 32.703 24.803 32.5407 24.6404C32.3785 24.4779 32.2973 24.2341 32.281 23.9253C32.2649 23.6978 32.2649 23.4214 32.281 23.0801L32.2973 22.8525C32.2973 22.8201 32.2973 22.7713 32.2973 22.7062C32.2973 22.6413 32.2973 22.5925 32.2973 22.5437C32.3135 22.2511 32.3297 22.0398 32.3297 21.8935V21.8611C32.3459 21.6823 32.3297 21.5685 32.281 21.5035C32.135 21.2273 31.7293 21.0646 31.0638 21.0322C30.9177 21.0159 30.6905 21.0159 30.3984 21.0159C30.3658 21.0159 30.3497 21.0159 30.3334 21.0159H30.1711H30.1224C30.09 21.0159 30.0574 21.0159 30.0574 20.9996C29.7329 20.9834 29.4894 21.0484 29.3272 21.1785C29.1486 21.3085 29.035 21.5197 29.0025 21.7961C28.9701 21.9749 28.9862 22.2349 29.0188 22.5763C29.035 22.8038 29.0512 22.9826 29.0512 23.1126C29.0512 23.6652 28.9862 24.1366 28.8726 24.5267C28.8402 24.6404 28.8077 24.7218 28.759 24.7867C28.6941 24.8679 28.5968 24.9167 28.4669 24.933C28.4345 24.9493 28.3857 24.9493 28.3371 24.9655C28.1748 24.9818 28.0125 24.998 27.8501 24.998C27.7528 24.998 27.6555 24.998 27.558 24.9818C27.2659 24.9655 27.0224 24.9005 26.8439 24.803C26.4544 24.5755 26.2759 24.1041 26.292 23.3564C26.3083 22.8201 26.3245 22.2349 26.3408 21.6011C26.3569 21.3247 26.3569 21.0322 26.3569 20.6908C26.3732 19.9107 26.3732 18.7404 26.3732 17.1963C26.3732 16.725 26.3732 16.3186 26.3732 15.9773C26.3732 15.7335 26.3895 15.5547 26.4381 15.441C26.568 15.1322 26.8439 14.9695 27.2821 14.9371C28.0774 14.872 28.5805 15.0021 28.824 15.3271C28.8889 15.4246 28.9376 15.5709 28.9701 15.7822C29.0025 16.0261 29.0188 16.3349 29.0188 16.6925V16.7412V16.92C29.0188 17.05 29.0188 17.1312 29.0188 17.1638C29.0025 17.5051 29.0025 17.749 29.0188 17.9277C29.0188 17.9765 29.0188 18.0415 29.035 18.1066C29.0837 18.4804 29.2297 18.7242 29.457 18.8379C29.5868 18.9029 29.8302 18.9355 30.1549 18.9029C30.2685 18.8867 30.3497 18.8867 30.3984 18.8867C30.512 18.8867 30.7229 18.8867 31.0313 18.9029C31.2098 18.9029 31.3397 18.9029 31.4209 18.9191C31.6805 18.9191 31.8753 18.8704 32.0051 18.7566C32.135 18.6429 32.2323 18.4804 32.2649 18.2691C32.3297 17.9277 32.3297 17.3588 32.2973 16.5949C32.281 16.2211 32.2649 15.9611 32.2649 15.7984C32.2649 15.6035 32.2973 15.4572 32.3459 15.3597C32.4271 15.2134 32.5894 15.1158 32.8654 15.0346C33.401 14.8883 33.8391 14.8883 34.18 15.0021C34.5208 15.1322 34.748 15.3597 34.8616 15.7172L34.8779 15.766L34.9266 15.9123H34.9103C34.9428 16.091 34.9591 16.3674 34.9428 16.7087V16.8062V16.8387C34.9266 16.985 34.9266 17.115 34.9266 17.18C34.9266 17.6839 34.9428 18.3828 34.959 19.2767Z" fill="#F7E300"/>
<path d="M8.60158 35.0263C8.61781 35.7577 8.55289 36.4079 8.43927 36.9931C8.32566 37.5781 8.09844 38.082 7.74137 38.4884C7.72514 38.5046 7.70891 38.5208 7.67644 38.5534L7.51415 38.7484V38.7322C7.40054 38.8459 7.28693 38.9597 7.17332 39.0572H7.18954L7.01101 39.171L6.97855 39.1872C6.21573 39.7236 5.32306 39.9999 4.31678 40.0324C4.30055 40.0324 4.2681 40.0324 4.25186 40.0324C4.08955 40.0324 3.91102 40.0162 3.70004 39.9837H3.60265L3.53773 39.9675C3.21312 39.9187 2.90475 39.8374 2.59637 39.7236H2.58015L2.51523 39.6911L2.43407 39.6586C2.20684 39.5448 2.01209 39.4474 1.83355 39.3335C1.08696 38.8296 0.583822 38.1146 0.324137 37.2043L0.307908 37.1556L0.259216 37.0093C0.194295 36.798 0.161835 36.5704 0.129374 36.3267L0.113144 36.1804V36.1316C0.0806834 35.8715 0.0644531 35.6115 0.0644531 35.3351L0.0806834 31.0279C0.0806834 30.7517 0.0969137 30.5566 0.145604 30.4265C0.226755 30.1828 0.405289 30.004 0.648742 29.874C0.892197 29.7439 1.15188 29.6789 1.4278 29.6789H1.49272L1.70372 29.6951L1.68748 29.7115C1.97962 29.7439 2.22308 29.8577 2.40161 30.0203C2.59637 30.199 2.72622 30.4753 2.7749 30.8816L2.79114 31.0767V31.1255C2.80737 31.3693 2.80737 31.7269 2.7749 32.1982C2.75868 32.442 2.74245 32.6045 2.74245 32.6859C2.74245 33.0597 2.74245 33.596 2.72622 34.3111C2.70998 35.0751 2.70998 35.6603 2.70998 36.0341C2.70998 36.473 2.83983 36.863 3.09951 37.2043C3.3592 37.5456 3.73249 37.7407 4.20317 37.7732C4.65761 37.8056 5.03092 37.6757 5.30683 37.3994C5.72881 37.0093 5.93981 36.3753 5.92358 35.514V35.3189L5.90735 34.3599L5.89112 31.6293C5.87489 31.1255 5.92358 30.7517 6.02096 30.5241C6.08588 30.3779 6.16704 30.2316 6.28065 30.1177C6.39426 30.004 6.5241 29.8902 6.67018 29.8089C6.81624 29.7277 6.97855 29.6789 7.12462 29.6789C7.25446 29.6627 7.40054 29.6627 7.54661 29.7115H7.57907L7.82252 29.7764H7.79006C7.98483 29.874 8.16336 30.0039 8.27697 30.1828V30.134L8.37435 30.3453V30.3615L8.39058 30.4103C8.47173 30.6054 8.50419 30.8816 8.52042 31.2555C8.53666 31.8568 8.55289 32.7508 8.55289 33.9373C8.60158 34.4087 8.60158 34.7663 8.60158 35.0263Z" fill="#EF7669"/>
<path d="M42.6537 39.7885H13.7313C13.3743 39.7885 13.082 39.496 13.082 39.1384C13.082 38.7809 13.3743 38.4883 13.7313 38.4883H41.9882V15.5545C41.9882 15.1969 42.2803 14.9043 42.6374 14.9043C42.9945 14.9043 43.2866 15.1969 43.2866 15.5545V39.1547C43.3028 39.496 43.0107 39.7885 42.6537 39.7885Z" fill="#F7E300"/>
</g>
<defs>
<clipPath id="clip0">
<rect width="43.3251" height="40" fill="white" transform="translate(0.0800781)"/>
</clipPath>
</defs>
</svg>
