<svg width="24" height="24" viewBox="0 0 24 24" fill="none" xmlns="http://www.w3.org/2000/svg">
<path fill-rule="evenodd" clip-rule="evenodd" d="M12.4275 3C14.6849 3 16.5498 4.7287 16.7797 6.93965L16.8438 6.94041C18.0961 6.94041 19.6187 7.77627 20.1325 10.1207L20.814 15.4214C21.0584 17.1321 20.7526 18.5044 19.9037 19.4887C19.0591 20.4677 17.7222 20.9859 16.0372 20.9859H8.82762C6.97686 20.9859 5.68746 20.5302 4.88515 19.5937C4.07938 18.6545 3.80993 17.2458 4.08456 15.4075L4.75474 10.1771C5.19519 7.77887 6.80586 6.94041 8.05295 6.94041C8.16061 5.94266 8.60826 4.99347 9.31842 4.28199C10.1346 3.46697 11.2599 3 12.4094 3H12.4275ZM16.8438 8.24237H8.05295C7.67209 8.24237 6.39909 8.39687 6.03378 10.3793L5.36705 15.5871C5.15028 17.0479 5.31783 18.1051 5.86623 18.7448C6.40773 19.3767 7.37672 19.684 8.82762 19.684H16.0372C16.9423 19.684 18.1782 19.5026 18.9243 18.6363C19.5168 17.9498 19.7206 16.9273 19.5306 15.5967L18.8578 10.3437C18.5711 9.04958 17.8146 8.24237 16.8438 8.24237ZM12.4249 4.30196H12.412C11.5993 4.30196 10.8073 4.63092 10.233 5.20465C9.76518 5.67271 9.45921 6.28804 9.36024 6.94001L15.4741 6.94025C15.2522 5.44887 13.969 4.30196 12.4249 4.30196Z" fill="#42407C"/>
<path d="M12.6106 18.14C11.784 18.14 11.1206 17.9133 10.6206 17.46C10.1206 17 9.87062 16.3067 9.87062 15.38V13.62C9.87062 12.72 10.1206 12.0367 10.6206 11.57C11.1206 11.0967 11.784 10.86 12.6106 10.86C13.444 10.86 14.1073 11.0967 14.6006 11.57C15.1006 12.0367 15.3506 12.72 15.3506 13.62V15.38C15.3506 16.3067 15.1006 17 14.6006 17.46C14.1073 17.9133 13.444 18.14 12.6106 18.14ZM12.6106 17C13.1106 17 13.4773 16.8633 13.7106 16.59C13.9506 16.3167 14.0706 15.9267 14.0706 15.42V13.56C14.0706 13.0467 13.9373 12.66 13.6706 12.4C13.4106 12.1333 13.0573 12 12.6106 12C12.1506 12 11.7906 12.1367 11.5306 12.41C11.2773 12.6833 11.1506 13.0667 11.1506 13.56V15.42C11.1506 15.9467 11.2706 16.3433 11.5106 16.61C11.7573 16.87 12.124 17 12.6106 17Z" fill="#42407C"/>
</svg>
