<svg width="160" height="123" viewBox="0 0 160 123" fill="none" xmlns="http://www.w3.org/2000/svg">
<path d="M25.5681 34.5996L85.437 0.619921L85.437 52.3983L25.3682 87.0002L25.5681 34.5996Z" fill="#507E79"/>
<path d="M30.0681 83.5655L90.4442 49.2929L135.286 75.1821L75.1484 109.823L30.0681 83.5655Z" fill="#2E4946"/>
<path d="M85.437 0.619822L145.693 34.7886L145.693 87.1868L85.437 52.3982L85.437 0.619822Z" fill="#67A39C"/>
<path d="M85.4365 70.197L145.692 35.4084L145.692 87.1868L85.8682 122L85.4365 70.197Z" fill="#8AD6CE"/>
<path d="M25.5679 34.5993L85.8235 69.3879L85.8682 122L25.3682 87.0002L25.5679 34.5993Z" fill="#72BDB5"/>
<path d="M85.3682 69.5002L145.692 34.6934L159.868 55.7283L99.9994 90.5169L85.3682 69.5002Z" fill="#B8EFE9"/>
<path d="M25.3687 34.5002L86.0498 69.4388L74.9017 92.2235L14.8686 57.7193L25.3687 34.5002Z" fill="#67A39C"/>
</svg>
