<svg width="25" height="24" viewBox="0 0 25 24" fill="none" xmlns="http://www.w3.org/2000/svg">
<path fill-rule="evenodd" clip-rule="evenodd" d="M10.0328 7.3493L12.9992 10.3155L15.964 7.35264C16.4294 6.88723 17.1824 6.88723 17.6478 7.35264C18.1132 7.81805 18.1132 8.57097 17.6478 9.03638L14.6829 11.9993L17.6509 14.969C18.1164 15.4344 18.1164 16.1874 17.6509 16.6528C17.419 16.8863 17.1125 17.0022 16.8091 17.0022C16.5041 17.0022 16.1991 16.8863 15.9672 16.6528L12.9992 13.683L10.036 16.6482C9.80407 16.8817 9.49909 16.9976 9.19411 16.9976C8.88913 16.9976 8.58415 16.8817 8.35224 16.6482C7.88682 16.1828 7.88682 15.4298 8.35224 14.9644L11.3155 11.9993L8.34906 9.03304C7.88365 8.56763 7.88365 7.81471 8.34906 7.3493C8.81606 6.88389 9.56898 6.88389 10.0328 7.3493Z" fill="#42407C"/>
</svg>
