<svg width="24" height="24" viewBox="0 0 24 24" fill="none" xmlns="http://www.w3.org/2000/svg">
<g opacity="0.6">
<path fill-rule="evenodd" clip-rule="evenodd" d="M8.77398 11.5988C8.79198 11.6148 8.80898 11.6298 8.82598 11.6478C9.90498 12.7538 10.5 14.2188 10.5 15.7738V19.7578L12.736 18.5398C12.912 18.4438 13.021 18.2558 13.021 18.0488V15.7618C13.021 14.2128 13.61 12.7528 14.679 11.6528L19.516 6.50775C19.829 6.17476 20.001 5.73776 20.001 5.27676V4.34076C20.001 3.87676 19.635 3.49976 19.187 3.49976H4.31598C3.86698 3.49976 3.50098 3.87676 3.50098 4.34076V5.27676C3.50098 5.73776 3.67298 6.17476 3.98598 6.50675L8.77398 11.5988ZM10.147 21.5008C9.94498 21.5008 9.74498 21.4468 9.56298 21.3388C9.21098 21.1288 8.99998 20.7578 8.99998 20.3458V15.7738C8.99998 14.6388 8.57698 13.5698 7.80598 12.7508C7.78298 12.7318 7.75998 12.7108 7.73998 12.6888L2.89398 7.53575C2.31798 6.92375 2.00098 6.12076 2.00098 5.27676V4.34076C2.00098 3.04976 3.03998 1.99976 4.31598 1.99976H19.187C20.462 1.99976 21.501 3.04976 21.501 4.34076V5.27676C21.501 6.11976 21.184 6.92175 20.61 7.53475L15.763 12.6888C14.96 13.5168 14.521 14.6058 14.521 15.7618V18.0488C14.521 18.8048 14.112 19.4968 13.454 19.8568L10.693 21.3608C10.521 21.4538 10.334 21.5008 10.147 21.5008Z" fill="#42407C"/>
</g>
</svg>
