<svg width="48" height="48" viewBox="0 0 48 48" fill="none" xmlns="http://www.w3.org/2000/svg">
<circle cx="24" cy="23.9995" r="24" fill="#CA76C8"/>
<path fill-rule="evenodd" clip-rule="evenodd" d="M19.465 13.0655C20.638 13.0115 21.012 12.9995 24 12.9995C26.988 12.9995 27.362 13.0125 28.534 13.0655C29.706 13.1185 30.506 13.3055 31.206 13.5765C31.939 13.8535 32.604 14.2865 33.154 14.8465C33.714 15.3955 34.146 16.0595 34.422 16.7935C34.694 17.4935 34.88 18.2935 34.934 19.4635C34.988 20.6385 35 21.0125 35 23.9995C35 26.9875 34.987 27.3615 34.934 28.5345C34.881 29.7045 34.694 30.5045 34.422 31.2045C34.146 31.9386 33.7133 32.6037 33.154 33.1535C32.604 33.7135 31.939 34.1455 31.206 34.4215C30.506 34.6935 29.706 34.8795 28.536 34.9335C27.362 34.9875 26.988 34.9995 24 34.9995C21.012 34.9995 20.638 34.9865 19.465 34.9335C18.295 34.8805 17.495 34.6935 16.795 34.4215C16.0609 34.1455 15.3958 33.7128 14.846 33.1535C14.2864 32.6042 13.8533 31.9394 13.577 31.2055C13.306 30.5055 13.12 29.7055 13.066 28.5355C13.012 27.3605 13 26.9865 13 23.9995C13 21.0115 13.013 20.6375 13.066 19.4655C13.119 18.2935 13.306 17.4935 13.577 16.7935C13.8537 16.0596 14.2871 15.3948 14.847 14.8455C15.396 14.286 16.0605 13.853 16.794 13.5765C17.494 13.3055 18.294 13.1195 19.464 13.0655H19.465ZM28.445 15.0455C27.285 14.9925 26.937 14.9815 24 14.9815C21.063 14.9815 20.715 14.9925 19.555 15.0455C18.482 15.0945 17.9 15.2735 17.512 15.4245C16.999 15.6245 16.632 15.8615 16.247 16.2465C15.882 16.6016 15.6012 17.0338 15.425 17.5115C15.274 17.8995 15.095 18.4815 15.046 19.5545C14.993 20.7145 14.982 21.0625 14.982 23.9995C14.982 26.9365 14.993 27.2845 15.046 28.4445C15.095 29.5175 15.274 30.0995 15.425 30.4875C15.601 30.9645 15.882 31.3975 16.247 31.7525C16.602 32.1175 17.035 32.3985 17.512 32.5745C17.9 32.7255 18.482 32.9045 19.555 32.9535C20.715 33.0065 21.062 33.0175 24 33.0175C26.938 33.0175 27.285 33.0065 28.445 32.9535C29.518 32.9045 30.1 32.7255 30.488 32.5745C31.001 32.3745 31.368 32.1375 31.753 31.7525C32.118 31.3975 32.399 30.9645 32.575 30.4875C32.726 30.0995 32.905 29.5175 32.954 28.4445C33.007 27.2845 33.018 26.9365 33.018 23.9995C33.018 21.0625 33.007 20.7145 32.954 19.5545C32.905 18.4815 32.726 17.8995 32.575 17.5115C32.375 16.9985 32.138 16.6315 31.753 16.2465C31.3979 15.8816 30.9657 15.6007 30.488 15.4245C30.1 15.2735 29.518 15.0945 28.445 15.0455ZM22.595 27.3905C23.3797 27.7171 24.2534 27.7612 25.0669 27.5152C25.8805 27.2692 26.5834 26.7484 27.0556 26.0418C27.5278 25.3351 27.7401 24.4864 27.656 23.6406C27.572 22.7949 27.197 22.0045 26.595 21.4045C26.2112 21.021 25.7472 20.7273 25.2363 20.5447C24.7255 20.362 24.1804 20.2949 23.6405 20.3481C23.1006 20.4014 22.5792 20.5737 22.1138 20.8526C21.6485 21.1316 21.2507 21.5103 20.9493 21.9614C20.6479 22.4125 20.4502 22.9248 20.3705 23.4615C20.2908 23.9981 20.3312 24.5458 20.4885 25.065C20.6459 25.5843 20.9165 26.0621 21.2807 26.4642C21.645 26.8663 22.0938 27.1827 22.595 27.3905ZM20.002 20.0015C20.527 19.4765 21.1503 19.06 21.8363 18.7759C22.5223 18.4917 23.2575 18.3455 24 18.3455C24.7425 18.3455 25.4777 18.4917 26.1637 18.7759C26.8497 19.06 27.473 19.4765 27.998 20.0015C28.523 20.5265 28.9395 21.1498 29.2236 21.8358C29.5078 22.5218 29.654 23.257 29.654 23.9995C29.654 24.742 29.5078 25.4772 29.2236 26.1632C28.9395 26.8492 28.523 27.4725 27.998 27.9975C26.9377 29.0578 25.4995 29.6535 24 29.6535C22.5005 29.6535 21.0623 29.0578 20.002 27.9975C18.9417 26.9372 18.346 25.4991 18.346 23.9995C18.346 22.5 18.9417 21.0618 20.002 20.0015ZM30.908 19.1875C31.0381 19.0648 31.1423 18.9172 31.2143 18.7535C31.2863 18.5898 31.3248 18.4133 31.3274 18.2344C31.33 18.0556 31.2967 17.8781 31.2295 17.7123C31.1622 17.5466 31.0624 17.396 30.936 17.2696C30.8095 17.1431 30.6589 17.0433 30.4932 16.976C30.3275 16.9088 30.1499 16.8755 29.9711 16.8781C29.7922 16.8807 29.6157 16.9192 29.452 16.9912C29.2883 17.0633 29.1407 17.1674 29.018 17.2975C28.7793 17.5505 28.6486 17.8866 28.6537 18.2344C28.6588 18.5823 28.7992 18.9144 29.0452 19.1604C29.2911 19.4063 29.6233 19.5467 29.9711 19.5518C30.3189 19.5569 30.655 19.4262 30.908 19.1875Z" fill="white"/>
</svg>
