<svg width="46" height="48" viewBox="0 0 46 48" fill="none" xmlns="http://www.w3.org/2000/svg">
<path d="M22 48C35.2548 48 46 37.2548 46 24C46 10.7452 35.2548 0 22 0H0V48H22Z" fill="#DFDFDF"/>
<path d="M26.1434 16.6745C26.4182 16.9494 26.4432 17.3795 26.2183 17.6826L26.1434 17.7694L19.4653 24.4478L26.1434 31.1261C26.4182 31.401 26.4432 31.8311 26.2183 32.1342L26.1434 32.221C25.8685 32.4959 25.4384 32.5208 25.1353 32.296L25.0485 32.221L17.8227 24.9952C17.5478 24.7203 17.5228 24.2902 17.7477 23.9871L17.8227 23.9003L25.0485 16.6745C25.3508 16.3722 25.841 16.3722 26.1434 16.6745Z" fill="#CA76C8"/>
</svg>
