<svg width="66" height="60" viewBox="0 0 66 60" fill="none" xmlns="http://www.w3.org/2000/svg">
<g clip-path="url(#clip0)">
<path d="M13.8246 7.48478C13.9225 7.75296 13.9225 8.21618 13.8735 8.82569L13.8491 9.02073C13.8246 9.1914 13.8246 9.3133 13.8246 9.38643L13.8001 11.5319V11.6782V11.7757C13.8001 12.2877 13.7757 12.7022 13.7023 12.9947C13.6778 13.0922 13.6533 13.1898 13.6044 13.2873C13.3108 14.0918 12.6501 14.677 11.647 15.067C10.7661 15.4084 9.73849 15.579 8.53957 15.579C8.46616 15.579 8.36829 15.579 8.24596 15.579H8.19702L7.92787 15.5547C7.65873 15.5303 7.36512 15.5303 7.09596 15.4815L6.82682 15.4571H6.7779C6.60662 15.4328 6.48427 15.4084 6.41088 15.384L6.23961 15.3596C5.82366 15.2865 5.4077 15.1889 5.01621 15.067C4.84494 15.0183 4.67366 14.9452 4.52687 14.8964L4.38006 14.8476C3.57261 14.5551 2.86305 14.0431 2.2269 13.2873C1.59073 12.5315 1.07691 11.7269 0.73436 10.9224C0.318407 10.0203 0.0981983 9.02073 0.0492628 7.97237C0.000327371 6.9484 0.147134 5.94881 0.465214 4.99798C0.563086 4.7298 0.660956 4.48599 0.758828 4.24219C1.10138 3.46202 1.59073 2.77937 2.17795 2.16986C2.78964 1.56035 3.47474 1.09712 4.25771 0.780177L4.30665 0.731418L4.52687 0.658276L4.55133 0.633895C4.84494 0.511994 5.21196 0.414472 5.60344 0.316951L5.79918 0.26819L5.84812 0.24381H5.87258C7.41405 -0.0975145 8.97998 -0.0731341 10.5459 0.316951C10.5949 0.341332 10.6438 0.341332 10.6927 0.365712C11.8182 0.658276 12.6257 1.2434 13.1395 2.04795C13.2863 2.29176 13.3597 2.51119 13.3597 2.7306C13.3597 2.90127 13.2618 3.12069 13.0906 3.41325C12.8214 3.87648 12.5278 4.12029 12.2097 4.14466C12.1119 4.16904 12.0385 4.14466 11.9406 4.12029H11.9161H11.8672L11.5736 4.02276L11.647 3.99838C11.6225 3.99838 11.6225 3.99838 11.598 3.97401C11.5491 3.94963 11.5002 3.92523 11.4757 3.90086C11.3044 3.80333 11.0598 3.7302 10.7661 3.63267C10.7172 3.6083 10.6193 3.6083 10.5215 3.55954C9.83635 3.36449 9.15126 3.29136 8.49064 3.29136C7.34064 3.34011 6.3864 3.68145 5.60344 4.31532C4.77153 4.97359 4.25771 5.94881 4.11091 7.24097C4.01304 8.04552 4.06197 8.77692 4.28219 9.48396C4.38006 9.70339 4.45346 9.9228 4.57579 10.1422C4.99175 10.9224 5.55451 11.5075 6.313 11.8732C7.0715 12.2389 7.85447 12.3365 8.71084 12.1902C9.22466 12.0927 9.59169 11.8976 9.78743 11.605C9.93424 11.3856 9.98316 11.1174 9.98316 10.8005C9.9587 10.4835 9.86083 10.2154 9.68956 9.97157C9.44488 9.679 9.00446 9.50834 8.39277 9.50834C8.34383 9.50834 8.2215 9.50834 8.07469 9.53271C7.97682 9.55709 7.85447 9.55709 7.7566 9.53271C7.63427 9.53271 7.5364 9.50834 7.43851 9.48396C7.34064 9.45958 7.26724 9.41081 7.19385 9.3133C7.12044 9.21578 7.0715 9.09387 7.02258 8.94759C6.90023 8.36246 6.8513 7.92362 6.87576 7.63106C6.8513 7.60666 6.8513 7.55791 6.8513 7.48478L6.87576 7.46038C6.97363 6.99717 7.21831 6.68021 7.56086 6.50955C7.7566 6.41203 8.02574 6.38765 8.39277 6.38765C8.58851 6.38765 8.85765 6.38765 9.22466 6.36327H9.24914L9.46934 6.3389H9.4938H9.54275C9.9587 6.31452 10.3013 6.31452 10.5949 6.3389C10.7417 6.3389 10.9619 6.3389 11.2555 6.31452C11.8182 6.29013 12.2097 6.29013 12.5033 6.36327C12.6991 6.41203 12.8704 6.4608 13.0416 6.55831C13.2129 6.65583 13.3842 6.77774 13.531 6.94839C13.6533 7.09469 13.7512 7.28973 13.8246 7.48478Z" fill="#443F80"/>
<path d="M27.7714 13.1654C27.9427 13.5799 27.967 13.9456 27.8448 14.2625C27.7469 14.5551 27.5266 14.8233 27.1596 15.0183C26.5479 15.384 25.8629 15.4572 25.1043 15.2133C24.8352 15.1158 24.6151 14.9939 24.3948 14.8233C24.1747 14.6526 24.0033 14.4819 23.9055 14.3357C23.8077 14.1894 23.6364 13.9699 23.4406 13.6774L22.7799 12.6778L22.0459 11.5807L21.948 11.4588C21.63 10.9468 21.3363 10.6298 21.0427 10.4836C20.8469 10.386 20.6757 10.386 20.5534 10.4104C20.431 10.4592 20.2843 10.5811 20.1619 10.7517C19.9418 11.0687 19.8194 11.4588 19.7703 11.8976C19.7215 12.3365 19.7215 12.7509 19.7703 13.1166C19.7949 13.5067 19.8194 13.7993 19.8194 13.9943C19.8194 14.2869 19.7703 14.5307 19.6726 14.7014C19.5502 14.8964 19.3545 15.0671 19.0853 15.189C18.7673 15.3353 18.3758 15.4084 17.9354 15.4084C17.03 15.4084 16.4183 15.1646 16.1002 14.677C15.9779 14.4819 15.9045 14.165 15.88 13.7262C15.8556 13.458 15.8556 13.1654 15.8311 12.8485V12.7997V12.434C15.8066 12.1414 15.8066 11.8489 15.8066 11.5319V11.1662V11.1175C15.8066 10.6786 15.8066 9.99596 15.8311 9.11826C15.8556 8.2162 15.8556 7.53354 15.8556 7.07032V3.26699C15.8556 2.46244 15.929 1.85293 16.0758 1.41408H16.1002V1.36532L16.1247 1.31656C16.1981 1.1459 16.2715 1.024 16.3694 0.926475C16.4917 0.755813 16.7364 0.63391 17.1034 0.56077C17.2013 0.536389 17.2747 0.512009 17.3237 0.487628C17.5683 0.438869 17.813 0.365727 18.0576 0.316966H18.0821L18.229 0.292585C18.2534 0.292585 18.2779 0.292585 18.3024 0.292585L18.4246 0.268205C18.9629 0.170684 19.5991 0.121924 20.3331 0.121924C21.8258 0.0731629 23.0246 0.195065 23.9299 0.438869C24.8597 0.707052 25.6426 1.17028 26.3033 1.85293L26.3278 1.8773L26.5479 2.12111H26.5234C26.915 2.58434 27.2086 3.09633 27.4044 3.65708L27.5023 3.94964V3.99839C27.6245 4.41287 27.6735 4.82733 27.649 5.2418C27.649 5.41245 27.649 5.6075 27.6245 5.77816C27.5023 6.85089 27.0374 7.80172 26.2788 8.60629C26.2299 8.63066 26.1809 8.7038 26.083 8.80132C25.8629 8.99636 25.716 9.16703 25.6426 9.28893C25.5204 9.45959 25.4469 9.63025 25.4469 9.77653C25.4469 9.9472 25.4714 10.0691 25.5447 10.1666C25.5938 10.2641 25.716 10.4104 25.8629 10.6298C25.9608 10.7274 26.0097 10.8005 26.0342 10.8493L27.1596 12.2877C27.4778 12.629 27.6735 12.9216 27.7714 13.1654ZM21.1651 7.2166C21.3609 7.24098 21.581 7.2166 21.8258 7.16785C22.6087 7.04594 23.147 6.70461 23.4161 6.16825C23.6119 5.80254 23.6607 5.41245 23.6119 4.94923C23.5629 4.58353 23.4161 4.29097 23.2203 4.04716C23.0002 3.77898 22.6575 3.6083 22.2662 3.48642C21.997 3.41327 21.6055 3.36452 21.1161 3.34012C21.0427 3.34012 20.9938 3.34012 20.9448 3.34012C20.7735 3.34012 20.6513 3.36452 20.5534 3.38889C20.2598 3.5108 20.064 3.73021 19.9418 4.09592C19.8194 4.46162 19.7703 4.80296 19.7703 5.16865C19.7949 5.53436 19.8194 5.87569 19.8927 6.19262C19.9173 6.3389 19.9661 6.46081 20.0151 6.55833C20.0395 6.65586 20.0885 6.70461 20.113 6.75337C20.3331 7.02155 20.6513 7.16785 21.0917 7.2166H21.1651Z" fill="#443F80"/>
<path d="M44.1892 6.97287C44.2136 7.33858 44.2136 7.65553 44.1892 7.92372C44.1647 8.09437 44.1402 8.26503 44.0913 8.46008L44.0423 8.63074C44.0423 8.65512 44.0423 8.67949 44.0423 8.72826C43.7243 9.9229 43.137 11.02 42.2807 12.044C41.4242 13.068 40.4456 13.8969 39.3201 14.482C38.1212 15.0915 36.9222 15.3841 35.6989 15.3841C34.9158 15.3841 34.1574 15.2622 33.4479 15.0184C32.6893 14.7502 32.0043 14.3357 31.3926 13.8238C31.3436 13.775 31.2702 13.7019 31.1968 13.6531C30.1936 12.7266 29.5329 11.532 29.2393 10.0692C28.9458 8.60636 29.068 7.16792 29.6308 5.7051C30.1691 4.29104 31.0011 3.09641 32.151 2.14558L32.2 2.12118L32.3713 1.9749C32.6648 1.75549 32.9584 1.56044 33.2766 1.3654H33.2521L33.4479 1.26788L33.5212 1.21912C34.5733 0.658369 35.6499 0.390186 36.8 0.341425C37.9499 0.317045 39.051 0.536468 40.1031 1.02407L40.1519 1.04845L40.3722 1.14598C40.3967 1.17036 40.3967 1.17036 40.4456 1.19474C40.4701 1.21912 40.4946 1.21912 40.5189 1.21912C41.0572 1.51168 41.5467 1.87738 41.9871 2.29186C42.0116 2.31624 42.0116 2.31624 42.0359 2.34061C42.0604 2.36499 42.0604 2.36499 42.0604 2.38937V2.36499L42.2317 2.56004L42.2807 2.58442V2.6088C42.6232 2.9745 42.9412 3.38897 43.2104 3.8522C43.4795 4.31542 43.6998 4.77865 43.8711 5.26625C44.0423 5.75386 44.1402 6.24147 44.2136 6.72908L44.2381 6.85097V6.97287H44.1892ZM34.4999 9.53281C34.6712 9.87414 34.9158 10.1667 35.2095 10.4105C35.5031 10.6543 35.8456 10.8006 36.1881 10.8493C36.8 10.9713 37.3383 10.825 37.803 10.4105C37.9009 10.313 37.9988 10.2155 38.0967 10.1179C38.2679 9.9229 38.3903 9.67909 38.5371 9.43529C38.7573 8.99645 38.9286 8.55759 39.0265 8.09437C39.1244 7.63114 39.1244 7.14354 39.051 6.63156C38.9531 6.11957 38.7573 5.68071 38.4148 5.31502C37.9744 4.85178 37.436 4.65675 36.8243 4.75426C36.286 4.85178 35.7723 5.11997 35.2828 5.55882C34.7936 5.99766 34.4754 6.50965 34.3287 7.04602C34.2553 7.36296 34.2063 7.67991 34.2063 7.97247C34.1819 8.33818 34.2308 8.65512 34.3041 8.97207C34.3532 9.19148 34.402 9.36215 34.4999 9.53281Z" fill="#443F80"/>
<path d="M64.008 1.31645C64.1792 1.65777 64.2281 2.14539 64.1058 2.82803L64.008 3.60821C63.7143 5.75367 63.4452 7.36276 63.2494 8.43551V8.50865L63.2005 8.72807C63.127 9.09378 63.0536 9.41072 62.9802 9.72766L62.9314 9.94708L62.9069 10.0202C62.6377 11.1417 62.3441 12.1901 62.0261 13.1165C61.6834 14.1161 61.243 14.7744 60.7047 15.0913C60.3377 15.2864 59.8728 15.3839 59.2856 15.3839H59.2611C58.1357 15.3839 57.3037 15.2132 56.8143 14.8475L56.7654 14.7988L56.4718 14.5794H56.5452C56.5208 14.5794 56.5208 14.5794 56.5208 14.555C56.3984 14.4087 56.3005 14.1649 56.1781 13.7992C56.1293 13.6529 56.0804 13.5066 56.0559 13.3847V13.3603C56.0069 13.2384 55.958 13.0678 55.8846 12.8483C55.542 11.7269 55.2973 10.8735 55.1751 10.2884C55.1261 10.069 55.0772 9.92271 55.0282 9.84956C54.9303 9.70328 54.8324 9.65452 54.7345 9.70328C54.6368 9.72766 54.5633 9.80081 54.5144 9.94708C54.3677 10.3859 54.2208 10.8979 54.0495 11.4587C53.9271 11.8975 53.8049 12.4339 53.658 13.019L53.5601 13.531C53.4378 14.1649 53.2176 14.6037 52.9241 14.7988C52.7038 14.9938 52.3368 15.1157 51.823 15.1889C51.0889 15.2864 50.5016 15.3108 50.0612 15.2864C49.6942 15.262 49.3517 15.1645 49.058 15.0182C48.7645 14.8719 48.5442 14.7256 48.373 14.555C48.2017 14.3843 48.055 14.1649 47.8836 13.8723C47.7123 13.5798 47.6144 13.3116 47.5411 13.1165C47.4677 12.9215 47.3698 12.6289 47.2476 12.2388L47.174 11.995V11.9707L47.1497 11.9219C47.0273 11.4587 46.8805 10.9223 46.7336 10.3128L46.6603 10.0446V9.99586C46.6114 9.75205 46.5135 9.38634 46.4156 8.92311L46.3177 8.50865C46.122 7.67972 45.9507 6.8264 45.804 5.9731C45.7549 5.77805 45.7061 5.50986 45.6082 5.11978C45.5103 4.70531 45.4613 4.41275 45.4124 4.16895C45.3634 3.94952 45.3145 3.65696 45.2657 3.29125C45.2166 2.92554 45.1921 2.60861 45.2166 2.31605C45.2412 2.02349 45.2655 1.73091 45.3145 1.46273C45.4124 1.07265 45.6325 0.780083 45.9507 0.58504L45.9996 0.560659L46.2932 0.414378V0.463139C46.5378 0.365617 46.8315 0.341236 47.174 0.341236C47.7368 0.341236 48.2017 0.463139 48.5688 0.731322C48.5688 0.755702 48.5933 0.755702 48.6176 0.780083V0.731322L48.8624 1.02389L48.8868 1.04827V1.07265C49.0825 1.31645 49.2294 1.63339 49.2783 2.02349C49.5963 3.85201 50.1102 6.48509 50.7953 9.97146C50.8198 9.99586 50.8198 10.0202 50.8198 10.0446C50.8443 10.069 50.8686 10.0934 50.9177 10.0934C51.0399 10.069 51.1623 9.97146 51.309 9.72766C51.456 9.50824 51.5538 9.33757 51.6027 9.19129C51.7006 8.89873 51.7985 8.43551 51.8964 7.826C51.9452 7.58219 51.9697 7.38716 51.9942 7.24086C52.1655 6.29003 52.4592 5.38796 52.875 4.53466V4.51028L52.8996 4.48589C52.9484 4.36398 52.9974 4.29085 53.0218 4.2177C53.1197 4.04705 53.2421 3.90077 53.3645 3.77886C53.5602 3.60821 53.8294 3.53506 54.1229 3.4863L54.0985 3.46193H54.392H54.441C54.8814 3.4863 55.2973 3.60821 55.7134 3.82762C56.4963 4.2177 57.0346 4.82722 57.3282 5.65614C57.4505 5.99747 57.5484 6.50946 57.6708 7.19211C57.8665 8.24046 58.1112 8.97188 58.3803 9.4351C58.4782 9.60577 58.5761 9.70328 58.674 9.72766C58.7962 9.80081 58.8941 9.80081 58.9676 9.70328C59.0165 9.6789 59.041 9.60577 59.0653 9.48387C59.1632 8.97188 59.2611 8.36236 59.359 7.65534L59.3835 7.50905C59.4324 7.07021 59.5059 6.63137 59.5548 6.16813C59.6526 5.58301 59.7505 4.92474 59.8728 4.19333H59.8484L59.8728 4.14457L59.9218 3.87639C60.0197 3.38878 60.1176 2.87679 60.2154 2.31605L60.3622 1.48711C60.4601 1.07265 60.5825 0.780083 60.7292 0.609421C61.1451 0.194954 61.8303 0.121814 62.7845 0.365617C63.3961 0.609421 63.7877 0.877603 64.008 1.31645Z" fill="#443F80"/>
<path d="M18.791 23.4539C18.9624 23.7952 19.0113 24.2829 18.8889 24.9656L18.791 25.7457C18.4975 27.8912 18.2284 29.5004 18.0326 30.573V30.6462L17.9836 30.8656C17.9102 31.2313 17.8368 31.5483 17.7634 31.8652L17.7144 32.0847L17.6901 32.1577C17.4209 33.2792 17.1272 34.3276 16.8092 35.254C16.4666 36.2536 16.0262 36.9119 15.4879 37.2289C15.1209 37.424 14.656 37.5213 14.0688 37.5213H14.0443C12.9188 37.5213 12.0869 37.3508 11.5975 36.9851L11.5486 36.9363L11.255 36.7168H11.3284C11.3039 36.7168 11.3039 36.7168 11.3039 36.6925C11.1816 36.5463 11.0837 36.3025 10.9614 35.9367C10.9124 35.7904 10.8635 35.6442 10.839 35.5223V35.4978C10.7901 35.3759 10.7412 35.2053 10.6678 34.9859C10.3252 33.8644 10.0805 33.0111 9.95821 32.426C9.90927 32.2065 9.86032 32.0601 9.8114 31.9871C9.71353 31.8409 9.61566 31.792 9.51778 31.8409C9.41991 31.8652 9.3465 31.9383 9.29758 32.0847C9.15076 32.5235 9.00395 33.0354 8.83268 33.5961C8.71035 34.035 8.58802 34.5714 8.44121 35.1565L8.34334 35.6685C8.22099 36.3025 8.00079 36.7412 7.70716 36.9363C7.48696 37.1313 7.11995 37.2532 6.60613 37.3264C5.87209 37.424 5.28486 37.4483 4.84445 37.424C4.47743 37.3995 4.13489 37.3019 3.84126 37.1557C3.54766 37.0095 3.32744 36.8632 3.15617 36.6925C2.98489 36.5217 2.8381 36.3025 2.66682 36.0099C2.49555 35.7172 2.39768 35.4491 2.32427 35.254C2.25087 35.0589 2.153 34.7665 2.03065 34.3763L1.95725 34.1325L1.93278 34.0839C1.81045 33.6205 1.66364 33.0843 1.51683 32.4747L1.44343 32.2065V32.1333C1.3945 31.8896 1.29662 31.5239 1.19875 31.0607L1.10088 30.6462C0.90514 29.8172 0.733866 28.964 0.58706 28.1106C0.538124 27.9155 0.489188 27.6474 0.391317 27.2572C0.293445 26.8429 0.244511 26.5503 0.195575 26.3065C0.14664 26.0871 0.0977042 25.7944 0.0487687 25.4288C-0.000166791 25.0631 -0.0246346 24.7461 -0.00016679 24.4535C0.0243009 24.1611 0.0487687 23.8684 0.0977042 23.6003C0.195575 23.2101 0.415785 22.9175 0.733866 22.7226L0.7828 22.6983L1.07641 22.5519V22.6737C1.32109 22.5762 1.6147 22.5519 1.95725 22.5519C2.52001 22.5519 2.98489 22.6737 3.35192 22.942C3.35192 22.9664 3.37638 22.9664 3.40084 22.9907V22.9175L3.64553 23.2101L3.66999 23.2345V23.259C3.86574 23.5028 4.01254 23.8197 4.06148 24.2097C4.37956 26.0382 4.89339 28.6713 5.57849 32.1577C5.60295 32.1822 5.60295 32.2065 5.60295 32.2309C5.62741 32.2552 5.65187 32.2796 5.70082 32.2796C5.82315 32.2552 5.9455 32.1577 6.09231 31.9139C6.2391 31.6945 6.33697 31.5239 6.38591 31.3775C6.48378 31.0851 6.58165 30.6219 6.67952 30.0123C6.72846 29.7685 6.75292 29.5734 6.77741 29.4272C6.94868 28.4763 7.24228 27.5742 7.65824 26.721V26.6965L7.6827 26.6721C7.73164 26.5503 7.78057 26.4771 7.80505 26.404C7.90292 26.2333 8.02525 26.0871 8.1476 25.9652C8.34334 25.7944 8.61248 25.7214 8.90608 25.6725L8.88162 25.6482H9.17523H9.22417C9.66459 25.6725 10.0805 25.7944 10.4965 26.0139C11.2795 26.404 11.8177 27.0135 12.1114 27.8425C12.2337 28.1838 12.3316 28.6957 12.4539 29.3783C12.6497 30.4268 12.8943 31.1581 13.1635 31.6215C13.2613 31.792 13.3592 31.8896 13.4571 31.9139C13.5794 31.9871 13.6773 31.9871 13.7507 31.8896C13.7996 31.8652 13.8241 31.792 13.8486 31.6701C13.9464 31.1581 14.0443 30.5487 14.1422 29.8417L14.1667 29.6953C14.2156 29.2564 14.289 28.8176 14.3379 28.3544C14.4358 27.7693 14.5337 27.111 14.656 26.3797H14.6805L14.7049 26.3308L14.7539 26.0627C14.8518 25.575 14.9496 25.0631 15.0475 24.5024L15.1943 23.6733C15.2922 23.259 15.4145 22.9664 15.5613 22.7956C15.9773 22.3813 16.6624 22.3081 17.6165 22.5519C18.2038 22.7713 18.5709 23.0396 18.791 23.4539Z" fill="white"/>
<path d="M24.7365 35.766C24.7365 35.8636 24.7365 35.961 24.7122 36.0585V36.083V36.1317L24.6876 36.3998V36.3755C24.6631 36.4974 24.6143 36.5949 24.5898 36.6681C24.4185 37.0338 24.1005 37.2775 23.6111 37.3994L23.6356 37.4239L23.3908 37.4483H23.3174C23.1952 37.4726 23.0973 37.4726 23.0238 37.4726C22.9749 37.4726 22.926 37.4726 22.877 37.4726C22.7058 37.4483 22.51 37.4483 22.2899 37.3994C21.678 37.3264 21.2621 37.1556 21.0419 36.8632C20.9196 36.6924 20.8217 36.3998 20.7972 36.0098C20.6993 34.9614 20.626 33.8155 20.626 32.5235V32.4503V32.2308C20.626 31.8895 20.626 31.5482 20.626 31.1826V30.9631V30.8899C20.6505 30.3292 20.6505 29.5003 20.675 28.3787C20.7239 26.721 20.7239 25.4774 20.7239 24.6486V24.3804C20.7239 23.649 20.9196 23.1126 21.2867 22.7712C21.5068 22.5762 21.8493 22.4299 22.2408 22.3324H22.2163L22.5345 22.2837H22.5834C23.3908 22.2348 23.9781 22.4299 24.3451 22.8688C24.6143 23.1858 24.7365 23.7708 24.6876 24.5999L24.6631 24.7704C24.6388 25.3068 24.6388 26.1114 24.6143 27.1598V27.3304C24.5898 28.33 24.6143 29.866 24.6631 31.9139C24.7122 33.6693 24.7365 34.937 24.7365 35.766Z" fill="white"/>
<path d="M38.3899 24.3559C38.3654 24.868 38.2187 25.2581 37.9005 25.5262C37.7049 25.6968 37.4601 25.7944 37.1666 25.8432C36.8729 25.8919 36.408 25.9162 35.7964 25.8919H35.723C35.674 25.8919 35.6006 25.8919 35.4538 25.8676C35.0133 25.8432 34.6708 25.8432 34.475 25.8919C34.4261 25.9162 34.3773 25.9162 34.3528 25.9651C34.2549 26.0138 34.2058 26.1357 34.157 26.2576C34.0591 26.5258 34.0102 26.9647 34.0591 27.5741V27.7936L34.0836 27.9886C34.0836 28.1349 34.0836 28.3786 34.0836 28.7445V29.1345L34.108 29.4758C34.108 29.8171 34.108 30.0854 34.108 30.2559C34.108 31.3774 34.108 32.4989 34.108 33.5961C34.108 33.6936 34.108 33.8155 34.108 34.0349C34.108 35.2783 33.9857 36.156 33.7166 36.6681C33.6187 36.9605 33.4963 37.1556 33.325 37.2775C33.1538 37.3994 32.9337 37.4726 32.64 37.4969C32.4688 37.5213 32.2975 37.5213 32.1506 37.5213C31.5389 37.5213 31.0495 37.3994 30.707 37.1799C30.5112 37.0337 30.34 36.8386 30.2421 36.5705C30.1442 36.3024 30.0708 36.083 30.0708 35.9122C30.0465 35.7415 30.0465 35.5222 30.0465 35.2296V34.8883V34.7907C30.0708 34.3762 30.0708 33.9374 30.0708 33.4742V33.4011V33.3036V33.1572L30.0953 28.3786C30.0953 28.2568 30.0953 28.0862 30.1198 27.8179C30.1687 27.1353 30.1442 26.6477 30.022 26.404C29.9241 26.1357 29.6549 25.9162 29.2145 25.7457C28.9942 25.6725 28.6762 25.6481 28.2847 25.6725H28.2358C27.8198 25.6968 27.4284 25.7213 27.0124 25.7457C26.7187 25.7457 26.4986 25.6968 26.3518 25.5994C26.1561 25.4774 26.0092 25.2093 25.9603 24.8193C25.8869 24.3559 25.8869 23.9902 25.9603 23.6978C26.0827 23.2589 26.3273 22.942 26.6698 22.7956C26.7187 22.7712 26.7677 22.7712 26.8656 22.7225H26.939L27.1593 22.6737C27.2572 22.6493 27.3549 22.6493 27.4528 22.6493H29.3124H29.557H29.5816L36.0655 22.625C36.2368 22.625 36.3592 22.625 36.4325 22.625C36.8729 22.6006 37.24 22.6493 37.5091 22.7712V22.7469L37.6804 22.8688H37.7049L37.7292 22.8931H37.7537L37.7783 22.9176C38.1941 23.2589 38.3899 23.7221 38.3899 24.3559Z" fill="white"/>
<path d="M52.5809 28.9151C52.6055 31.6945 52.63 33.7912 52.63 35.2053C52.63 36.3268 52.3363 37.0095 51.7492 37.2776C51.3821 37.4483 50.8684 37.497 50.1832 37.424C49.596 37.3751 49.18 37.2045 48.9353 36.9606C48.6907 36.7168 48.5683 36.3512 48.5438 35.888C48.5195 35.5466 48.5195 35.1321 48.5438 34.6201L48.5683 34.2788C48.5683 34.2301 48.5683 34.1569 48.5683 34.0593C48.5683 33.962 48.5683 33.8888 48.5683 33.8156C48.5928 33.3767 48.6172 33.0597 48.6172 32.8403V32.7916C48.6417 32.5235 48.6172 32.3528 48.5438 32.2552C48.3237 31.8409 47.712 31.5969 46.7088 31.5482C46.4886 31.5239 46.146 31.5239 45.7056 31.5239C45.6566 31.5239 45.6323 31.5239 45.6077 31.5239H45.3631H45.2896C45.2407 31.5239 45.1917 31.5239 45.1917 31.4994C44.7024 31.475 44.3354 31.5726 44.0908 31.7677C43.8216 31.9628 43.6504 32.2796 43.6014 32.6941C43.5525 32.9624 43.5768 33.3524 43.6259 33.8644C43.6504 34.2057 43.6747 34.4739 43.6747 34.6689C43.6747 35.4978 43.5768 36.2049 43.4056 36.79C43.3567 36.9606 43.3077 37.0827 43.2343 37.18C43.1364 37.3019 42.9897 37.3751 42.7939 37.3995C42.7451 37.424 42.6715 37.424 42.5982 37.4483C42.3535 37.4727 42.1089 37.497 41.8641 37.497C41.7174 37.497 41.5706 37.497 41.4237 37.4727C40.9833 37.4483 40.6163 37.3508 40.3471 37.2045C39.76 36.8632 39.4908 36.1561 39.5152 35.0346C39.5397 34.2301 39.5642 33.3524 39.5887 32.4016C39.6131 31.9871 39.6131 31.5482 39.6131 31.0362C39.6376 29.866 39.6376 28.1106 39.6376 25.7944C39.6376 25.0874 39.6376 24.4778 39.6376 23.966C39.6376 23.6003 39.6621 23.332 39.7355 23.1614C39.9312 22.6982 40.3471 22.4543 41.0078 22.4056C42.2068 22.3081 42.9652 22.5032 43.3322 22.9907C43.4301 23.1369 43.5035 23.3564 43.5525 23.6733C43.6014 24.0392 43.6259 24.5024 43.6259 25.0388V25.1118V25.3801C43.6259 25.575 43.6259 25.6969 43.6259 25.7457C43.6014 26.2576 43.6014 26.6234 43.6259 26.8916C43.6259 26.9648 43.6259 27.0623 43.6504 27.1598C43.7238 27.7206 43.9439 28.0862 44.2866 28.2568C44.4822 28.3544 44.8492 28.4032 45.3386 28.3544C45.5099 28.33 45.6323 28.33 45.7056 28.33C45.8769 28.33 46.1949 28.33 46.6598 28.3544C46.929 28.3544 47.1247 28.3544 47.2471 28.3787C47.6385 28.3787 47.9322 28.3057 48.1279 28.1349C48.3237 27.9644 48.4704 27.7206 48.5195 27.4036C48.6172 26.8916 48.6172 26.0382 48.5683 24.8924C48.5438 24.3316 48.5195 23.9416 48.5195 23.6977C48.5195 23.4052 48.5683 23.1858 48.6417 23.0396C48.7641 22.8201 49.0087 22.6737 49.4248 22.5518C50.2322 22.3324 50.8927 22.3324 51.4067 22.5032C51.9204 22.6982 52.2629 23.0396 52.4342 23.5758L52.4587 23.649L52.5321 23.8684H52.5076C52.5566 24.1365 52.5811 24.551 52.5566 25.0631V25.2093V25.258C52.5321 25.4774 52.5321 25.6725 52.5321 25.7701C52.5321 26.5259 52.5566 27.5742 52.5809 28.9151Z" fill="white"/>
<path d="M12.8456 52.5396C12.8701 53.6367 12.7722 54.612 12.6009 55.4897C12.4297 56.3673 12.0871 57.1231 11.5488 57.7327C11.5244 57.757 11.4999 57.7814 11.4509 57.8302L11.2063 58.1227V58.0984C11.035 58.2689 10.8637 58.4397 10.6925 58.5859H10.7169L10.4478 58.7566L10.3988 58.781C9.24886 59.5855 7.90313 60 6.38613 60.0487C6.36166 60.0487 6.31274 60.0487 6.28826 60.0487C6.04358 60.0487 5.77444 60.0244 5.45637 59.9757H5.30956L5.21169 59.9513C4.72233 59.8781 4.25745 59.7562 3.79255 59.5855H3.76809L3.67022 59.5368L3.54787 59.488C3.20532 59.3174 2.91172 59.1712 2.64257 59.0004C1.51705 58.2446 0.758554 57.1719 0.367069 55.8065L0.342603 55.7335L0.269199 55.5141C0.171328 55.1971 0.122392 54.8558 0.0734569 54.4901L0.0489891 54.2707V54.1975C5.36349e-05 53.8073 -0.0244141 53.4173 -0.0244141 53.0028L5.36311e-05 46.542C5.36311e-05 46.1277 0.0245214 45.835 0.0979246 45.6399C0.220263 45.2743 0.489409 45.0062 0.856424 44.8111C1.22344 44.616 1.61493 44.5185 2.03088 44.5185H2.12875L2.44684 44.5428L2.42236 44.5673C2.86277 44.616 3.2298 44.7867 3.49894 45.0305C3.79255 45.2986 3.9883 45.7131 4.06169 46.3226L4.08617 46.6152V46.6884C4.11064 47.0541 4.11064 47.5905 4.06169 48.2974C4.03723 48.6631 4.01277 48.9069 4.01277 49.0289C4.01277 49.5897 4.01277 50.3942 3.9883 51.4668C3.96382 52.6128 3.96382 53.4905 3.96382 54.0513C3.96382 54.7095 4.15958 55.2946 4.55105 55.8065C4.94254 56.3186 5.50529 56.6112 6.21485 56.6599C6.89995 56.7086 7.46272 56.5137 7.87867 56.0991C8.51482 55.5141 8.83291 54.5631 8.80845 53.2711V52.9785L8.78397 51.54L8.7595 47.4441C8.73504 46.6884 8.80845 46.1277 8.95524 45.7863C9.05311 45.5669 9.17546 45.3475 9.34673 45.1767C9.51801 45.0062 9.71374 44.8354 9.93396 44.7135C10.1542 44.5917 10.3988 44.5185 10.6191 44.5185C10.8148 44.4941 11.035 44.4941 11.2552 44.5673H11.3042L11.6712 44.6647H11.6222C11.9158 44.8111 12.185 45.006 12.3563 45.2743V45.2011L12.5031 45.5181V45.5424L12.5275 45.6156C12.6499 45.9082 12.6988 46.3226 12.7233 46.8833C12.7478 47.7854 12.7722 49.1263 12.7722 50.9061C12.8456 51.6132 12.8456 52.1496 12.8456 52.5396Z" fill="#EF7669"/>
<path d="M64.179 59.683H20.5775C20.0392 59.683 19.5986 59.2442 19.5986 58.7078C19.5986 58.1716 20.0392 57.7327 20.5775 57.7327H63.1758V23.3319C63.1758 22.7955 63.6162 22.3567 64.1545 22.3567C64.6927 22.3567 65.1331 22.7955 65.1331 23.3319V58.7323C65.1576 59.2442 64.7173 59.683 64.179 59.683Z" fill="white"/>
</g>
<defs>
<clipPath id="clip0">
<rect width="65.3143" height="60" fill="white"/>
</clipPath>
</defs>
</svg>
