<svg width="66" height="60" viewBox="0 0 66 60" fill="none" xmlns="http://www.w3.org/2000/svg">
<path d="M13.8241 7.48476C13.922 7.75294 13.922 8.21616 13.873 8.82568L13.8486 9.02071C13.8241 9.19139 13.8241 9.31329 13.8241 9.38642L13.7997 11.5319V11.6782V11.7757C13.7997 12.2877 13.7752 12.7021 13.7018 12.9947C13.6773 13.0922 13.6528 13.1898 13.6039 13.2873C13.3103 14.0918 12.6497 14.6769 11.6465 15.067C10.7656 15.4084 9.738 15.579 8.53908 15.579C8.46567 15.579 8.3678 15.579 8.24547 15.579H8.19653L7.92738 15.5546C7.65824 15.5303 7.36464 15.5303 7.09548 15.4815L6.82633 15.4571H6.77741C6.60613 15.4327 6.48379 15.4084 6.4104 15.384L6.23912 15.3596C5.82317 15.2865 5.40721 15.1889 5.01572 15.067C4.84445 15.0183 4.67317 14.9451 4.52638 14.8964L4.37957 14.8476C3.57212 14.5551 2.86256 14.0431 2.22641 13.2873C1.59024 12.5315 1.07642 11.7269 0.733872 10.9224C0.317919 10.0203 0.09771 9.02071 0.0487745 7.97236C-0.00016091 6.94838 0.146646 5.9488 0.464725 4.99797C0.562597 4.72979 0.660468 4.48598 0.75834 4.24217C1.10089 3.462 1.59024 2.77936 2.17746 2.16984C2.78916 1.56033 3.47425 1.09711 4.25722 0.780162L4.30616 0.731402L4.52638 0.658261L4.55084 0.63388C4.84445 0.511979 5.21148 0.414457 5.60295 0.316936L5.79869 0.268175L5.84763 0.243794H5.87209C7.41356 -0.0975298 8.97949 -0.0731494 10.5454 0.316936C10.5944 0.341317 10.6433 0.341317 10.6922 0.365697C11.8178 0.658261 12.6252 1.24339 13.139 2.04794C13.2858 2.29175 13.3592 2.51117 13.3592 2.73059C13.3592 2.90126 13.2614 3.12067 13.0901 3.41323C12.8209 3.87647 12.5273 4.12027 12.2092 4.14465C12.1114 4.16902 12.038 4.14465 11.9401 4.12027H11.9156H11.8667L11.5731 4.02275L11.6465 3.99837C11.622 3.99837 11.622 3.99837 11.5976 3.97399C11.5486 3.94961 11.4997 3.92522 11.4752 3.90084C11.3039 3.80332 11.0593 3.73019 10.7656 3.63266C10.7167 3.60828 10.6188 3.60828 10.521 3.55953C9.83587 3.36448 9.15077 3.29134 8.49015 3.29134C7.34016 3.3401 6.38592 3.68143 5.60295 4.31531C4.77104 4.97357 4.25722 5.9488 4.11042 7.24096C4.01256 8.04551 4.06148 8.77691 4.2817 9.48395C4.37957 9.70337 4.45297 9.92278 4.5753 10.1422C4.99126 10.9224 5.55403 11.5075 6.31251 11.8732C7.07101 12.2389 7.85398 12.3364 8.71035 12.1902C9.22417 12.0926 9.5912 11.8976 9.78694 11.605C9.93375 11.3856 9.98268 11.1174 9.98268 10.8005C9.95821 10.4835 9.86034 10.2153 9.68907 9.97156C9.44439 9.67898 9.00397 9.50832 8.39228 9.50832C8.34334 9.50832 8.22101 9.50832 8.0742 9.5327C7.97633 9.55708 7.85398 9.55708 7.75611 9.5327C7.63378 9.5327 7.53591 9.50832 7.43802 9.48395C7.34016 9.45957 7.26675 9.4108 7.19336 9.31329C7.11996 9.21576 7.07101 9.09386 7.02209 8.94758C6.89974 8.36244 6.85081 7.9236 6.87528 7.63104C6.85081 7.60665 6.85081 7.55789 6.85081 7.48476L6.87528 7.46037C6.97315 6.99715 7.21782 6.6802 7.56037 6.50954C7.75611 6.41201 8.02525 6.38764 8.39228 6.38764C8.58802 6.38764 8.85716 6.38764 9.22417 6.36326H9.24865L9.46885 6.33888H9.49332H9.54226C9.95821 6.31451 10.3008 6.31451 10.5944 6.33888C10.7412 6.33888 10.9614 6.33888 11.255 6.31451C11.8177 6.29011 12.2092 6.29011 12.5028 6.36326C12.6986 6.41201 12.8699 6.46078 13.0412 6.55829C13.2124 6.65582 13.3837 6.77772 13.5305 6.94838C13.6528 7.09468 13.7507 7.28971 13.8241 7.48476Z" fill="white"/>
<path d="M27.7709 13.1654C27.9422 13.5798 27.9665 13.9455 27.8443 14.2625C27.7464 14.5551 27.5261 14.8232 27.1591 15.0183C26.5475 15.384 25.8624 15.4571 25.1039 15.2133C24.8347 15.1158 24.6146 14.9939 24.3943 14.8232C24.1742 14.6526 24.0028 14.4819 23.9051 14.3356C23.8072 14.1894 23.6359 13.9699 23.4401 13.6774L22.7795 12.6778L22.0454 11.5807L21.9475 11.4588C21.6295 10.9468 21.3359 10.6298 21.0422 10.4835C20.8464 10.386 20.6752 10.386 20.5529 10.4104C20.4305 10.4592 20.2838 10.5811 20.1614 10.7517C19.9413 11.0687 19.8189 11.4588 19.7699 11.8976C19.721 12.3365 19.721 12.7509 19.7699 13.1166C19.7944 13.5067 19.8189 13.7993 19.8189 13.9943C19.8189 14.2869 19.7699 14.5307 19.6721 14.7013C19.5497 14.8964 19.354 15.0671 19.0848 15.189C18.7668 15.3352 18.3753 15.4084 17.9349 15.4084C17.0295 15.4084 16.4178 15.1646 16.0998 14.677C15.9774 14.4819 15.904 14.165 15.8796 13.7261C15.8551 13.458 15.8551 13.1654 15.8306 12.8484V12.7997V12.434C15.8062 12.1414 15.8062 11.8488 15.8062 11.5319V11.1662V11.1174C15.8062 10.6786 15.8062 9.99594 15.8306 9.11824C15.8551 8.21618 15.8551 7.53352 15.8551 7.0703V3.26697C15.8551 2.46242 15.9285 1.85291 16.0753 1.41406H16.0998V1.3653L16.1242 1.31654C16.1976 1.14588 16.271 1.02398 16.3689 0.926456C16.4912 0.755794 16.7359 0.633891 17.1029 0.560751C17.2008 0.53637 17.2742 0.51199 17.3232 0.487609C17.5679 0.43885 17.8125 0.365708 18.0571 0.316947H18.0816L18.2285 0.292566C18.2529 0.292566 18.2774 0.292566 18.3019 0.292566L18.4241 0.268186C18.9624 0.170665 19.5986 0.121904 20.3327 0.121904C21.8253 0.0731438 23.0241 0.195046 23.9294 0.43885C24.8592 0.707033 25.6421 1.17026 26.3028 1.85291L26.3273 1.87728L26.5475 2.12109H26.5229C26.9145 2.58432 27.2081 3.09631 27.4039 3.65706L27.5018 3.94962V3.99837C27.624 4.41285 27.6731 4.82731 27.6485 5.24178C27.6485 5.41243 27.6485 5.60748 27.624 5.77814C27.5018 6.85087 27.0369 7.8017 26.2783 8.60627C26.2295 8.63064 26.1804 8.70378 26.0825 8.8013C25.8624 8.99634 25.7155 9.16701 25.6421 9.28891C25.5199 9.45957 25.4464 9.63023 25.4464 9.77651C25.4464 9.94718 25.4709 10.0691 25.5443 10.1666C25.5933 10.2641 25.7155 10.4104 25.8624 10.6298C25.9603 10.7274 26.0092 10.8005 26.0337 10.8493L27.1591 12.2877C27.4773 12.629 27.6731 12.9216 27.7709 13.1654ZM21.1646 7.21658C21.3604 7.24096 21.5805 7.21658 21.8253 7.16783C22.6082 7.04593 23.1465 6.70459 23.4156 6.16823C23.6114 5.80252 23.6603 5.41243 23.6114 4.94922C23.5624 4.58351 23.4156 4.29095 23.2199 4.04714C22.9997 3.77896 22.6571 3.60828 22.2657 3.4864C21.9965 3.41325 21.605 3.3645 21.1156 3.3401C21.0422 3.3401 20.9933 3.3401 20.9443 3.3401C20.7731 3.3401 20.6508 3.3645 20.5529 3.38887C20.2593 3.51078 20.0635 3.73019 19.9413 4.0959C19.8189 4.4616 19.7699 4.80294 19.7699 5.16863C19.7944 5.53434 19.8189 5.87567 19.8923 6.1926C19.9168 6.33888 19.9656 6.46079 20.0147 6.55831C20.039 6.65584 20.088 6.70459 20.1125 6.75335C20.3327 7.02153 20.6508 7.16783 21.0912 7.21658H21.1646Z" fill="white"/>
<path d="M44.1887 6.97277C44.2131 7.33848 44.2131 7.65544 44.1887 7.92362C44.1642 8.09428 44.1397 8.26493 44.0908 8.45999L44.0418 8.63064C44.0418 8.65502 44.0418 8.6794 44.0418 8.72817C43.7238 9.9228 43.1365 11.0199 42.2802 12.0439C41.4238 13.0679 40.4451 13.8968 39.3196 14.4819C38.1207 15.0914 36.9217 15.384 35.6984 15.384C34.9153 15.384 34.1569 15.2621 33.4474 15.0183C32.6888 14.7501 32.0038 14.3356 31.3921 13.8237C31.3431 13.7749 31.2697 13.7018 31.1963 13.653C30.1931 12.7265 29.5324 11.5319 29.2388 10.0691C28.9453 8.60627 29.0675 7.16783 29.6303 5.70501C30.1686 4.29095 31.0006 3.09631 32.1505 2.14548L32.1995 2.12109L32.3708 1.97481C32.6643 1.7554 32.9579 1.56035 33.2761 1.3653H33.2516L33.4474 1.26778L33.5207 1.21902C34.5728 0.658274 35.6494 0.390091 36.7995 0.34133C37.9494 0.316949 39.0505 0.536373 40.1026 1.02398L40.1514 1.04836L40.3717 1.14588C40.3962 1.17026 40.3962 1.17026 40.4451 1.19464C40.4696 1.21902 40.4941 1.21902 40.5184 1.21902C41.0567 1.51159 41.5462 1.87728 41.9866 2.29176C42.0111 2.31614 42.0111 2.31614 42.0354 2.34052C42.0599 2.36489 42.0599 2.36489 42.0599 2.38927V2.36489L42.2312 2.55995L42.2802 2.58432V2.6087C42.6227 2.97441 42.9407 3.38887 43.2099 3.85211C43.479 4.31532 43.6993 4.77856 43.8706 5.26615C44.0418 5.75376 44.1397 6.24137 44.2131 6.72899L44.2376 6.85087V6.97277H44.1887ZM34.4994 9.53272C34.6707 9.87405 34.9153 10.1666 35.209 10.4104C35.5026 10.6542 35.8451 10.8005 36.1876 10.8493C36.7995 10.9712 37.3378 10.8249 37.8025 10.4104C37.9004 10.3129 37.9983 10.2154 38.0962 10.1178C38.2674 9.9228 38.3898 9.679 38.5366 9.43519C38.7568 8.99635 38.9281 8.55749 39.026 8.09428C39.1239 7.63104 39.1239 7.14345 39.0505 6.63146C38.9526 6.11947 38.7568 5.68061 38.4143 5.31492C37.9739 4.85169 37.4355 4.65665 36.8238 4.75416C36.2855 4.85169 35.7718 5.11987 35.2823 5.55873C34.7931 5.99757 34.4749 6.50956 34.3282 7.04592C34.2548 7.36286 34.2058 7.67981 34.2058 7.97237C34.1814 8.33808 34.2303 8.65502 34.3036 8.97197C34.3527 9.19139 34.4015 9.36206 34.4994 9.53272Z" fill="white"/>
<path d="M64.008 1.31655C64.1792 1.65787 64.2281 2.14548 64.1058 2.82813L64.008 3.6083C63.7143 5.75376 63.4452 7.36286 63.2494 8.43561V8.50874L63.2005 8.72817C63.127 9.09388 63.0536 9.41081 62.9802 9.72775L62.9314 9.94718L62.9069 10.0203C62.6377 11.1418 62.3441 12.1902 62.0261 13.1166C61.6834 14.1162 61.243 14.7745 60.7047 15.0914C60.3377 15.2865 59.8728 15.384 59.2856 15.384H59.2611C58.1357 15.384 57.3037 15.2133 56.8143 14.8476L56.7654 14.7989L56.4718 14.5795H56.5452C56.5208 14.5795 56.5208 14.5795 56.5208 14.5551C56.3984 14.4088 56.3005 14.165 56.1781 13.7993C56.1293 13.653 56.0804 13.5067 56.0559 13.3848V13.3604C56.0069 13.2385 55.958 13.0679 55.8846 12.8484C55.542 11.727 55.2973 10.8736 55.1751 10.2885C55.1261 10.0691 55.0772 9.9228 55.0282 9.84965C54.9303 9.70337 54.8324 9.65462 54.7345 9.70337C54.6368 9.72775 54.5633 9.8009 54.5144 9.94718C54.3677 10.386 54.2208 10.898 54.0495 11.4588C53.9271 11.8976 53.8049 12.434 53.658 13.0191L53.5601 13.5311C53.4378 14.165 53.2176 14.6038 52.9241 14.7989C52.7038 14.9939 52.3368 15.1158 51.823 15.189C51.0889 15.2865 50.5016 15.3109 50.0612 15.2865C49.6942 15.2621 49.3517 15.1646 49.058 15.0183C48.7645 14.872 48.5442 14.7257 48.373 14.5551C48.2017 14.3844 48.055 14.165 47.8836 13.8724C47.7123 13.5799 47.6144 13.3117 47.5411 13.1166C47.4677 12.9216 47.3698 12.629 47.2476 12.2389L47.174 11.9951V11.9708L47.1497 11.922C47.0273 11.4588 46.8805 10.9224 46.7336 10.3129L46.6603 10.0447V9.99595C46.6114 9.75215 46.5135 9.38644 46.4156 8.9232L46.3177 8.50874C46.122 7.67981 45.9507 6.8265 45.804 5.97319C45.7549 5.77814 45.7061 5.50996 45.6082 5.11987C45.5103 4.70541 45.4613 4.41285 45.4124 4.16904C45.3634 3.94962 45.3145 3.65706 45.2657 3.29135C45.2166 2.92564 45.1921 2.6087 45.2166 2.31614C45.2412 2.02358 45.2655 1.731 45.3145 1.46283C45.4124 1.07274 45.6325 0.780178 45.9507 0.585135L45.9996 0.560755L46.2932 0.414473V0.463234C46.5378 0.365712 46.8315 0.341331 47.174 0.341331C47.7368 0.341331 48.2017 0.463234 48.5688 0.731417C48.5688 0.755798 48.5933 0.755798 48.6176 0.780178V0.731417L48.8624 1.02398L48.8868 1.04836V1.07274C49.0825 1.31655 49.2294 1.63349 49.2783 2.02358C49.5963 3.85211 50.1102 6.48518 50.7953 9.97156C50.8198 9.99595 50.8198 10.0203 50.8198 10.0447C50.8443 10.0691 50.8686 10.0935 50.9177 10.0935C51.0399 10.0691 51.1623 9.97156 51.309 9.72775C51.456 9.50834 51.5538 9.33767 51.6027 9.19139C51.7006 8.89883 51.7985 8.43561 51.8964 7.82609C51.9452 7.58229 51.9697 7.38725 51.9942 7.24096C52.1655 6.29013 52.4592 5.38806 52.875 4.53475V4.51038L52.8996 4.48598C52.9484 4.36408 52.9974 4.29095 53.0218 4.2178C53.1197 4.04714 53.2421 3.90086 53.3645 3.77896C53.5602 3.6083 53.8294 3.53515 54.1229 3.4864L54.0985 3.46202H54.392H54.441C54.8814 3.4864 55.2973 3.6083 55.7134 3.82771C56.4963 4.2178 57.0346 4.82731 57.3282 5.65624C57.4505 5.99757 57.5484 6.50956 57.6708 7.1922C57.8665 8.24056 58.1112 8.97197 58.3803 9.43519C58.4782 9.60587 58.5761 9.70337 58.674 9.72775C58.7962 9.8009 58.8941 9.8009 58.9676 9.70337C59.0165 9.679 59.041 9.60587 59.0653 9.48396C59.1632 8.97197 59.2611 8.36246 59.359 7.65544L59.3835 7.50914C59.4324 7.0703 59.5059 6.63146 59.5548 6.16823C59.6526 5.58311 59.7505 4.92484 59.8728 4.19342H59.8484L59.8728 4.14467L59.9218 3.87648C60.0197 3.38887 60.1176 2.87688 60.2154 2.31614L60.3622 1.48721C60.4601 1.07274 60.5825 0.780178 60.7292 0.609516C61.1451 0.19505 61.8303 0.121909 62.7845 0.365712C63.3961 0.609516 63.7877 0.877699 64.008 1.31655Z" fill="white"/>
<path d="M18.791 23.4538C18.9624 23.7951 19.0113 24.2829 18.8889 24.9655L18.791 25.7457C18.4975 27.8911 18.2284 29.5003 18.0326 30.5729V30.6461L17.9836 30.8655C17.9102 31.2312 17.8368 31.5482 17.7634 31.8651L17.7144 32.0846L17.6901 32.1576C17.4209 33.2791 17.1272 34.3275 16.8092 35.2539C16.4666 36.2535 16.0262 36.9118 15.4879 37.2288C15.1209 37.4239 14.656 37.5213 14.0688 37.5213H14.0443C12.9188 37.5213 12.0869 37.3507 11.5975 36.985L11.5486 36.9362L11.255 36.7167H11.3284C11.3039 36.7167 11.3039 36.7167 11.3039 36.6924C11.1816 36.5462 11.0837 36.3024 10.9614 35.9366C10.9124 35.7903 10.8635 35.6441 10.839 35.5222V35.4977C10.7901 35.3758 10.7412 35.2053 10.6678 34.9858C10.3252 33.8643 10.0805 33.011 9.95821 32.4259C9.90927 32.2065 9.86032 32.0601 9.8114 31.987C9.71353 31.8408 9.61566 31.7919 9.51778 31.8408C9.41991 31.8651 9.3465 31.9382 9.29758 32.0846C9.15076 32.5234 9.00395 33.0353 8.83268 33.5961C8.71035 34.0349 8.58802 34.5713 8.44121 35.1564L8.34334 35.6685C8.22099 36.3024 8.00079 36.7411 7.70716 36.9362C7.48696 37.1313 7.11995 37.2531 6.60613 37.3263C5.87209 37.4239 5.28486 37.4482 4.84445 37.4239C4.47743 37.3994 4.13489 37.3018 3.84126 37.1556C3.54766 37.0094 3.32744 36.8631 3.15617 36.6924C2.98489 36.5217 2.8381 36.3024 2.66682 36.0098C2.49555 35.7171 2.39768 35.449 2.32427 35.2539C2.25087 35.0589 2.153 34.7664 2.03065 34.3762L1.95725 34.1325L1.93278 34.0838C1.81045 33.6204 1.66364 33.0842 1.51683 32.4746L1.44343 32.2065V32.1333C1.3945 31.8895 1.29662 31.5238 1.19875 31.0606L1.10088 30.6461C0.90514 29.8171 0.733866 28.9639 0.58706 28.1105C0.538124 27.9154 0.489188 27.6473 0.391317 27.2571C0.293445 26.8428 0.244511 26.5502 0.195575 26.3064C0.14664 26.087 0.0977042 25.7943 0.0487687 25.4287C-0.000166791 25.063 -0.0246346 24.7461 -0.00016679 24.4534C0.0243009 24.161 0.0487687 23.8683 0.0977042 23.6002C0.195575 23.2101 0.415785 22.9174 0.733866 22.7225L0.7828 22.6982L1.07641 22.5518V22.6737C1.32109 22.5761 1.6147 22.5518 1.95725 22.5518C2.52001 22.5518 2.98489 22.6737 3.35192 22.9419C3.35192 22.9663 3.37638 22.9663 3.40084 22.9906V22.9174L3.64553 23.2101L3.66999 23.2344V23.2589C3.86574 23.5027 4.01254 23.8197 4.06148 24.2097C4.37956 26.0381 4.89339 28.6713 5.57849 32.1576C5.60295 32.1821 5.60295 32.2065 5.60295 32.2308C5.62741 32.2551 5.65187 32.2795 5.70082 32.2795C5.82315 32.2551 5.9455 32.1576 6.09231 31.9138C6.2391 31.6944 6.33697 31.5238 6.38591 31.3774C6.48378 31.085 6.58165 30.6218 6.67952 30.0122C6.72846 29.7684 6.75292 29.5733 6.77741 29.4271C6.94868 28.4762 7.24228 27.5741 7.65824 26.7209V26.6964L7.6827 26.6721C7.73164 26.5502 7.78057 26.477 7.80505 26.4039C7.90292 26.2332 8.02525 26.087 8.1476 25.9651C8.34334 25.7943 8.61248 25.7213 8.90608 25.6725L8.88162 25.6481H9.17523H9.22417C9.66459 25.6725 10.0805 25.7943 10.4965 26.0138C11.2795 26.4039 11.8177 27.0134 12.1114 27.8424C12.2337 28.1837 12.3316 28.6956 12.4539 29.3782C12.6497 30.4267 12.8943 31.158 13.1635 31.6214C13.2613 31.7919 13.3592 31.8895 13.4571 31.9138C13.5794 31.987 13.6773 31.987 13.7507 31.8895C13.7996 31.8651 13.8241 31.7919 13.8486 31.6701C13.9464 31.158 14.0443 30.5486 14.1422 29.8416L14.1667 29.6952C14.2156 29.2563 14.289 28.8175 14.3379 28.3543C14.4358 27.7692 14.5337 27.1109 14.656 26.3796H14.6805L14.7049 26.3307L14.7539 26.0626C14.8518 25.5749 14.9496 25.063 15.0475 24.5023L15.1943 23.6733C15.2922 23.2589 15.4145 22.9663 15.5613 22.7955C15.9773 22.3812 16.6624 22.308 17.6165 22.5518C18.2038 22.7712 18.5709 23.0395 18.791 23.4538Z" fill="#F7E300"/>
<path d="M24.737 35.766C24.737 35.8635 24.737 35.9609 24.7126 36.0585V36.083V36.1317L24.6881 36.3998V36.3754C24.6636 36.4973 24.6148 36.5949 24.5902 36.6681C24.419 37.0337 24.101 37.2775 23.6116 37.3994L23.6361 37.4239L23.3913 37.4482H23.3179C23.1957 37.4726 23.0978 37.4726 23.0242 37.4726C22.9754 37.4726 22.9265 37.4726 22.8775 37.4726C22.7062 37.4482 22.5105 37.4482 22.2904 37.3994C21.6785 37.3263 21.2626 37.1556 21.0424 36.8631C20.9201 36.6924 20.8222 36.3998 20.7977 36.0098C20.6998 34.9613 20.6265 33.8155 20.6265 32.5234V32.4502V32.2308C20.6265 31.8895 20.6265 31.5482 20.6265 31.1825V30.9631V30.8899C20.651 30.3291 20.651 29.5003 20.6755 28.3786C20.7244 26.7209 20.7244 25.4774 20.7244 24.6485V24.3804C20.7244 23.6489 20.9201 23.1125 21.2872 22.7712C21.5073 22.5761 21.8498 22.4299 22.2413 22.3323H22.2168L22.535 22.2837H22.5838C23.3913 22.2348 23.9786 22.4299 24.3456 22.8687C24.6148 23.1857 24.737 23.7708 24.6881 24.5998L24.6636 24.7704C24.6393 25.3068 24.6393 26.1113 24.6148 27.1598V27.3303C24.5902 28.3299 24.6148 29.8659 24.6636 31.9138C24.7126 33.6693 24.737 34.937 24.737 35.766Z" fill="#F7E300"/>
<path d="M38.3899 24.3559C38.3654 24.8679 38.2187 25.2581 37.9005 25.5262C37.7049 25.6968 37.4601 25.7943 37.1666 25.8432C36.8729 25.8919 36.408 25.9162 35.7964 25.8919H35.723C35.674 25.8919 35.6006 25.8919 35.4539 25.8675C35.0133 25.8432 34.6708 25.8432 34.475 25.8919C34.4261 25.9162 34.3773 25.9162 34.3528 25.9651C34.2549 26.0138 34.2058 26.1357 34.157 26.2575C34.0591 26.5258 34.0102 26.9647 34.0591 27.5741V27.7935L34.0836 27.9886C34.0836 28.1349 34.0836 28.3786 34.0836 28.7445V29.1345L34.108 29.4758C34.108 29.8171 34.108 30.0854 34.108 30.2559C34.108 31.3774 34.108 32.4989 34.108 33.5961C34.108 33.6936 34.108 33.8155 34.108 34.0349C34.108 35.2783 33.9857 36.156 33.7166 36.6681C33.6187 36.9605 33.4963 37.1556 33.325 37.2775C33.1538 37.3994 32.9337 37.4726 32.64 37.4969C32.4688 37.5213 32.2975 37.5213 32.1506 37.5213C31.5389 37.5213 31.0495 37.3994 30.707 37.1799C30.5112 37.0337 30.34 36.8386 30.2421 36.5705C30.1442 36.3024 30.0708 36.083 30.0708 35.9122C30.0465 35.7415 30.0465 35.5222 30.0465 35.2296V34.8883V34.7907C30.0708 34.3762 30.0708 33.9374 30.0708 33.4742V33.4011V33.3036V33.1572L30.0953 28.3786C30.0953 28.2567 30.0953 28.0862 30.1198 27.8179C30.1687 27.1353 30.1442 26.6477 30.022 26.4039C29.9241 26.1357 29.6549 25.9162 29.2145 25.7457C28.9942 25.6725 28.6762 25.6481 28.2847 25.6725H28.2358C27.8198 25.6968 27.4284 25.7213 27.0124 25.7457C26.7187 25.7457 26.4986 25.6968 26.3518 25.5994C26.1561 25.4774 26.0092 25.2093 25.9603 24.8193C25.8869 24.3559 25.8869 23.9902 25.9603 23.6978C26.0827 23.2589 26.3273 22.9419 26.6698 22.7955C26.7187 22.7712 26.7677 22.7712 26.8656 22.7225H26.939L27.1593 22.6737C27.2572 22.6493 27.3549 22.6493 27.4528 22.6493H29.3124H29.557H29.5816L36.0655 22.625C36.2368 22.625 36.3592 22.625 36.4325 22.625C36.8729 22.6006 37.24 22.6493 37.5091 22.7712V22.7469L37.6804 22.8687H37.7049L37.7292 22.8931H37.7537L37.7783 22.9176C38.1941 23.2589 38.3899 23.7221 38.3899 24.3559Z" fill="#F7E300"/>
<path d="M52.5814 28.915C52.6059 31.6944 52.6305 33.7911 52.6305 35.2053C52.6305 36.3267 52.3368 37.0094 51.7497 37.2775C51.3826 37.4482 50.8689 37.4969 50.1837 37.4239C49.5965 37.375 49.1805 37.2045 48.9358 36.9605C48.6912 36.7167 48.5688 36.3511 48.5443 35.8879C48.52 35.5466 48.52 35.1321 48.5443 34.62L48.5688 34.2787C48.5688 34.23 48.5688 34.1568 48.5688 34.0593C48.5688 33.9619 48.5688 33.8887 48.5688 33.8155C48.5933 33.3766 48.6177 33.0597 48.6177 32.8402V32.7915C48.6422 32.5234 48.6177 32.3527 48.5443 32.2551C48.3242 31.8408 47.7125 31.5969 46.7093 31.5482C46.489 31.5238 46.1465 31.5238 45.7061 31.5238C45.6571 31.5238 45.6328 31.5238 45.6082 31.5238H45.3636H45.2901C45.2412 31.5238 45.1922 31.5238 45.1922 31.4993C44.7029 31.475 44.3359 31.5725 44.0913 31.7676C43.8221 31.9627 43.6509 32.2795 43.6018 32.694C43.553 32.9623 43.5773 33.3523 43.6264 33.8644C43.6509 34.2057 43.6752 34.4738 43.6752 34.6689C43.6752 35.4977 43.5773 36.2049 43.4061 36.79C43.3572 36.9605 43.3082 37.0826 43.2348 37.1799C43.1369 37.3018 42.9902 37.375 42.7944 37.3994C42.7456 37.4239 42.672 37.4239 42.5986 37.4482C42.354 37.4726 42.1094 37.4969 41.8646 37.4969C41.7178 37.4969 41.5711 37.4969 41.4242 37.4726C40.9838 37.4482 40.6168 37.3507 40.3476 37.2045C39.7605 36.8632 39.4913 36.156 39.5157 35.0345C39.5402 34.23 39.5647 33.3523 39.5892 32.4015C39.6136 31.987 39.6136 31.5482 39.6136 31.0361C39.6381 29.8659 39.6381 28.1105 39.6381 25.7943C39.6381 25.0874 39.6381 24.4778 39.6381 23.9659C39.6381 23.6002 39.6626 23.3319 39.736 23.1614C39.9317 22.6982 40.3476 22.4542 41.0083 22.4055C42.2073 22.308 42.9657 22.5031 43.3327 22.9906C43.4306 23.1369 43.504 23.3563 43.553 23.6733C43.6018 24.0391 43.6264 24.5023 43.6264 25.0387V25.1117V25.38C43.6264 25.5749 43.6264 25.6968 43.6264 25.7457C43.6018 26.2575 43.6018 26.6234 43.6264 26.8915C43.6264 26.9647 43.6264 27.0622 43.6509 27.1598C43.7242 27.7205 43.9444 28.0862 44.287 28.2567C44.4826 28.3543 44.8497 28.4031 45.3391 28.3543C45.5104 28.3299 45.6328 28.3299 45.7061 28.3299C45.8774 28.3299 46.1954 28.3299 46.6603 28.3543C46.9294 28.3543 47.1252 28.3543 47.2476 28.3786C47.639 28.3786 47.9326 28.3056 48.1284 28.1349C48.3242 27.9643 48.4709 27.7205 48.52 27.4035C48.6177 26.8915 48.6177 26.0381 48.5688 24.8923C48.5443 24.3315 48.52 23.9415 48.52 23.6976C48.52 23.4051 48.5688 23.1857 48.6422 23.0395C48.7646 22.8201 49.0092 22.6737 49.4253 22.5518C50.2327 22.3323 50.8932 22.3323 51.4071 22.5031C51.9209 22.6982 52.2634 23.0395 52.4347 23.5757L52.4592 23.6489L52.5326 23.8683H52.5081C52.5571 24.1365 52.5816 24.551 52.5571 25.063V25.2093V25.2579C52.5326 25.4774 52.5326 25.6725 52.5326 25.77C52.5326 26.5258 52.5571 27.5741 52.5814 28.915Z" fill="#F7E300"/>
<path d="M12.8456 52.5396C12.8701 53.6367 12.7722 54.612 12.6009 55.4897C12.4297 56.3673 12.0871 57.1231 11.5488 57.7327C11.5244 57.757 11.4999 57.7814 11.4509 57.8302L11.2063 58.1227V58.0984C11.035 58.2689 10.8637 58.4397 10.6925 58.5859H10.7169L10.4478 58.7566L10.3988 58.781C9.24886 59.5855 7.90313 60 6.38613 60.0487C6.36166 60.0487 6.31274 60.0487 6.28826 60.0487C6.04358 60.0487 5.77444 60.0244 5.45637 59.9757H5.30956L5.21169 59.9513C4.72233 59.8781 4.25745 59.7562 3.79255 59.5855H3.76809L3.67022 59.5368L3.54787 59.488C3.20532 59.3174 2.91172 59.1712 2.64257 59.0004C1.51705 58.2446 0.758554 57.1719 0.367069 55.8065L0.342603 55.7335L0.269199 55.5141C0.171328 55.1971 0.122392 54.8558 0.0734569 54.4901L0.0489891 54.2707V54.1975C5.36349e-05 53.8073 -0.0244141 53.4173 -0.0244141 53.0028L5.36311e-05 46.542C5.36311e-05 46.1277 0.0245214 45.835 0.0979246 45.6399C0.220263 45.2743 0.489409 45.0062 0.856424 44.8111C1.22344 44.616 1.61493 44.5185 2.03088 44.5185H2.12875L2.44684 44.5428L2.42236 44.5673C2.86277 44.616 3.2298 44.7867 3.49894 45.0305C3.79255 45.2986 3.9883 45.7131 4.06169 46.3226L4.08617 46.6152V46.6884C4.11064 47.0541 4.11064 47.5905 4.06169 48.2974C4.03723 48.6631 4.01277 48.9069 4.01277 49.0289C4.01277 49.5897 4.01277 50.3942 3.9883 51.4668C3.96382 52.6128 3.96382 53.4905 3.96382 54.0513C3.96382 54.7095 4.15958 55.2946 4.55105 55.8065C4.94254 56.3186 5.50529 56.6112 6.21485 56.6599C6.89995 56.7086 7.46272 56.5137 7.87867 56.0991C8.51482 55.5141 8.83291 54.5631 8.80845 53.2711V52.9785L8.78397 51.54L8.7595 47.4441C8.73504 46.6884 8.80845 46.1277 8.95524 45.7863C9.05311 45.5669 9.17546 45.3475 9.34673 45.1767C9.51801 45.0062 9.71374 44.8354 9.93396 44.7135C10.1542 44.5917 10.3988 44.5185 10.6191 44.5185C10.8148 44.4941 11.035 44.4941 11.2552 44.5673H11.3042L11.6712 44.6647H11.6222C11.9158 44.8111 12.185 45.006 12.3563 45.2743V45.2011L12.5031 45.5181V45.5424L12.5275 45.6156C12.6499 45.9082 12.6988 46.3226 12.7233 46.8833C12.7478 47.7854 12.7722 49.1263 12.7722 50.9061C12.8456 51.6132 12.8456 52.1496 12.8456 52.5396Z" fill="#EF7669"/>
<path d="M64.179 59.683H20.5775C20.0392 59.683 19.5986 59.2442 19.5986 58.7078C19.5986 58.1716 20.0392 57.7327 20.5775 57.7327H63.1758V23.3319C63.1758 22.7955 63.6162 22.3567 64.1545 22.3567C64.6927 22.3567 65.1331 22.7955 65.1331 23.3319V58.7323C65.1576 59.2442 64.7173 59.683 64.179 59.683Z" fill="#F7E300"/>
</svg>
