<svg width="25" height="24" viewBox="0 0 25 24" fill="none" xmlns="http://www.w3.org/2000/svg">
<path fill-rule="evenodd" clip-rule="evenodd" d="M19.8341 11.5C20.3171 11.5 20.709 11.836 20.709 12.25C20.709 12.664 20.3171 13 19.8341 13H5.6601C5.17713 13 4.78516 12.664 4.78516 12.25C4.78516 11.836 5.17713 11.5 5.6601 11.5H19.8341Z" fill="#42407C"/>
<path fill-rule="evenodd" clip-rule="evenodd" d="M19.8341 7C20.3171 7 20.709 7.336 20.709 7.75C20.709 8.164 20.3171 8.5 19.8341 8.5H5.6601C5.17713 8.5 4.78516 8.164 4.78516 7.75C4.78516 7.336 5.17713 7 5.6601 7H19.8341Z" fill="#42407C"/>
<path fill-rule="evenodd" clip-rule="evenodd" d="M19.8341 16C20.3171 16 20.709 16.336 20.709 16.75C20.709 17.164 20.3171 17.5 19.8341 17.5H5.6601C5.17713 17.5 4.78516 17.164 4.78516 16.75C4.78516 16.336 5.17713 16 5.6601 16H19.8341Z" fill="#42407C"/>
</svg>
