<svg width="46" height="48" viewBox="0 0 46 48" fill="none" xmlns="http://www.w3.org/2000/svg">
<path d="M24 0C10.7452 0 0 10.7452 0 24C0 37.2548 10.7452 48 24 48H46L46 0H24Z" fill="#DFDFDF"/>
<path d="M19.8566 31.3255C19.5818 31.0506 19.5568 30.6205 19.7817 30.3174L19.8566 30.2306L26.5347 23.5522L19.8566 16.8739C19.5818 16.599 19.5568 16.1689 19.7817 15.8658L19.8566 15.779C20.1315 15.5041 20.5616 15.4792 20.8647 15.704L20.9515 15.779L28.1773 23.0048C28.4522 23.2797 28.4772 23.7098 28.2523 24.0129L28.1773 24.0997L20.9515 31.3255C20.6492 31.6278 20.159 31.6278 19.8566 31.3255Z" fill="#CA76C8"/>
</svg>
