<?xml version="1.0" encoding="UTF-8" standalone="no"?>
<!DOCTYPE svg PUBLIC "-//W3C//DTD SVG 1.1//EN" "http://www.w3.org/Graphics/SVG/1.1/DTD/svg11.dtd">
<svg width="100%" height="100%" viewBox="0 0 238 185" version="1.1" xmlns="http://www.w3.org/2000/svg" xmlns:xlink="http://www.w3.org/1999/xlink" xml:space="preserve" xmlns:serif="http://www.serif.com/" style="fill-rule:evenodd;clip-rule:evenodd;stroke-linejoin:round;stroke-miterlimit:2;">
    <rect x="0" y="0" width="238" height="185" style="fill:none;"/>
    <clipPath id="_clip1">
        <rect x="0" y="0" width="238" height="185"/>
    </clipPath>
    <g clip-path="url(#_clip1)">
        <g>
            <path d="M196.029,110.907C217.501,110.907 234.907,93.5 234.907,72.029C234.907,50.557 217.501,33.151 196.029,33.151C174.557,33.151 157.151,50.557 157.151,72.029C157.151,93.5 174.557,110.907 196.029,110.907Z" style="fill:white;fill-rule:nonzero;"/>
            <path d="M196.029,113.353C173.237,113.353 154.705,94.82 154.705,72.029C154.705,49.237 173.237,30.705 196.029,30.705C218.82,30.705 237.353,49.237 237.353,72.029C237.353,94.82 218.82,113.353 196.029,113.353ZM196.029,35.597C175.942,35.597 159.597,51.943 159.597,72.029C159.597,92.115 175.942,108.46 196.029,108.46C216.115,108.46 232.46,92.115 232.46,72.029C232.46,51.943 216.115,35.597 196.029,35.597Z" style="fill:rgb(205,200,251);fill-rule:nonzero;"/>
            <path d="M125.757,247.799C178.299,247.799 220.894,205.204 220.894,152.662C220.894,100.119 178.299,57.525 125.757,57.525C73.214,57.525 30.62,100.119 30.62,152.662C30.62,205.204 73.214,247.799 125.757,247.799Z" style="fill:white;fill-rule:nonzero;"/>
            <path d="M125.756,250.245C71.943,250.245 28.173,206.475 28.173,152.662C28.173,98.849 71.943,55.079 125.756,55.079C179.569,55.079 223.338,98.849 223.338,152.662C223.338,206.475 179.569,250.245 125.756,250.245ZM125.756,59.971C74.648,59.971 33.065,101.554 33.065,152.662C33.065,203.77 74.648,245.352 125.756,245.352C176.863,245.352 218.446,203.77 218.446,152.662C218.446,101.554 176.863,59.971 125.756,59.971Z" style="fill:rgb(205,200,251);fill-rule:nonzero;"/>
            <path d="M160.547,151.194C177.489,151.194 191.224,137.46 191.224,120.518C191.224,103.576 177.489,89.842 160.547,89.842C143.605,89.842 129.871,103.576 129.871,120.518C129.871,137.46 143.605,151.194 160.547,151.194Z" style="fill:white;fill-rule:nonzero;"/>
            <path d="M160.949,131.942C172.567,131.942 181.985,122.524 181.985,110.906C181.985,99.289 172.567,89.871 160.949,89.871C149.331,89.871 139.913,99.289 139.913,110.906C139.913,122.524 149.331,131.942 160.949,131.942Z" style="fill:rgb(68,63,128);fill-rule:nonzero;"/>
            <path d="M154.331,84C153.295,84 152.345,83.338 152,82.302L142.619,53.669C142.187,52.374 142.907,50.993 144.173,50.561C145.468,50.13 146.849,50.849 147.281,52.115L156.662,80.748C157.094,82.043 156.374,83.424 155.108,83.856C154.849,83.971 154.59,84 154.331,84Z" style="fill:rgb(68,63,128);fill-rule:nonzero;"/>
            <path d="M170.187,85.842C169.669,85.842 169.151,85.669 168.719,85.353C167.885,84.748 167.54,83.683 167.827,82.676L176.518,53.353C176.892,52.057 178.273,51.309 179.568,51.683C180.863,52.057 181.612,53.439 181.237,54.734L174.446,77.669L193.525,65.18C194.648,64.432 196.173,64.748 196.921,65.899C197.669,67.022 197.353,68.547 196.201,69.295L171.511,85.439C171.137,85.698 170.676,85.842 170.187,85.842Z" style="fill:rgb(68,63,128);fill-rule:nonzero;"/>
            <path d="M73.41,84C72.748,84 72.115,83.741 71.626,83.223L52.288,62.647C51.367,61.669 51.396,60.115 52.403,59.194C53.381,58.273 54.935,58.302 55.856,59.309L75.194,79.885C76.115,80.863 76.086,82.417 75.079,83.338C74.619,83.799 74.014,84 73.41,84Z" style="fill:rgb(68,63,128);fill-rule:nonzero;"/>
            <path d="M89.641,81.151L89.583,81.151C88.547,81.122 87.655,80.461 87.31,79.482L77.497,50.676C77.065,49.381 77.756,48 79.022,47.568C80.317,47.137 81.698,47.827 82.13,49.094L89.785,71.54L98.562,49.007C99.051,47.741 100.461,47.108 101.727,47.597C102.993,48.086 103.626,49.496 103.137,50.763L91.943,79.568C91.54,80.518 90.648,81.151 89.641,81.151Z" style="fill:rgb(68,63,128);fill-rule:nonzero;"/>
            <path d="M160.547,93.525C167.742,93.525 174.533,96.345 179.626,101.439C184.72,106.532 187.54,113.324 187.54,120.518C187.54,127.712 184.72,134.504 179.626,139.597C174.533,144.691 167.742,147.511 160.547,147.511C153.353,147.511 146.562,144.691 141.468,139.597C136.375,134.504 133.555,127.712 133.555,120.518C133.555,113.324 136.375,106.532 141.468,101.439C146.562,96.345 153.353,93.525 160.547,93.525ZM160.547,89.842C152.691,89.842 144.864,92.835 138.85,98.82C126.878,110.791 126.878,130.216 138.85,142.187C144.835,148.173 152.691,151.165 160.547,151.165C168.403,151.165 176.231,148.173 182.245,142.187C194.216,130.216 194.216,110.791 182.245,98.82C176.26,92.863 168.403,89.842 160.547,89.842Z" style="fill:rgb(68,63,128);fill-rule:nonzero;"/>
            <path d="M87.568,149.496C104.51,149.496 118.244,135.762 118.244,118.82C118.244,101.878 104.51,88.144 87.568,88.144C70.626,88.144 56.892,101.878 56.892,118.82C56.892,135.762 70.626,149.496 87.568,149.496Z" style="fill:white;fill-rule:nonzero;"/>
            <path d="M87.972,130.245C99.589,130.245 109.007,120.826 109.007,109.209C109.007,97.591 99.589,88.173 87.972,88.173C76.354,88.173 66.936,97.591 66.936,109.209C66.936,120.826 76.354,130.245 87.972,130.245Z" style="fill:rgb(68,63,128);fill-rule:nonzero;"/>
            <path d="M87.568,91.827C94.762,91.827 101.553,94.647 106.647,99.741C111.741,104.835 114.561,111.626 114.561,118.82C114.561,126.014 111.741,132.806 106.647,137.899C101.553,142.993 94.762,145.813 87.568,145.813C80.374,145.813 73.582,142.993 68.489,137.899C57.956,127.367 57.956,110.245 68.489,99.741C73.582,94.619 80.374,91.827 87.568,91.827ZM87.568,88.144C79.712,88.144 71.884,91.137 65.87,97.122C53.899,109.094 53.899,128.518 65.87,140.489C71.856,146.475 79.712,149.468 87.568,149.468C95.424,149.468 103.251,146.475 109.266,140.489C121.237,128.518 121.237,109.094 109.266,97.122C103.28,91.137 95.424,88.144 87.568,88.144Z" style="fill:rgb(68,63,128);fill-rule:nonzero;"/>
            <path d="M122.331,176.058L122.187,176.058C111.05,176 103.539,168.95 101.036,161.986L101.007,161.899C100.719,161.094 100.518,160.317 100.403,159.54C100.029,156.719 100.777,153.928 102.504,151.655C104.23,149.41 106.734,147.942 109.554,147.568C111.137,147.367 112.691,147.511 114.245,148L114.36,148.029C115.108,148.288 115.77,148.547 116.374,148.777C118.475,149.554 119.885,150.072 121.87,150.072L121.986,150.072C123.367,150.072 124.806,149.583 126.302,149.094C127.683,148.633 129.122,148.173 130.59,148.029C133.669,147.626 136.834,148.489 139.252,150.446C141.554,152.288 142.964,154.878 143.252,157.755C143.655,162.072 141.065,165.899 140.547,166.619L140.316,166.935C138.245,169.899 133.87,176.058 122.331,176.058ZM110.964,148.115C110.532,148.115 110.101,148.144 109.669,148.201C107.022,148.547 104.662,149.928 103.021,152.058C101.381,154.187 100.691,156.835 101.036,159.482C101.122,160.201 101.324,160.95 101.611,161.698L101.64,161.784C104.057,168.576 111.367,175.396 122.216,175.453L122.36,175.453C133.583,175.453 137.842,169.496 139.885,166.619L140.115,166.302C140.604,165.612 143.079,161.957 142.705,157.842C142.446,155.137 141.122,152.691 138.935,150.964C136.633,149.122 133.64,148.288 130.734,148.691C129.295,148.835 127.914,149.295 126.561,149.727C125.007,150.245 123.539,150.705 122.043,150.734C119.885,150.763 118.417,150.216 116.201,149.381C115.626,149.18 114.993,148.921 114.302,148.691L114.187,148.662C113.122,148.288 112.057,148.115 110.964,148.115Z" style="fill:rgb(216,111,205);fill-rule:nonzero;"/>
            <path d="M142.964,157.813C142.417,151.77 136.662,147.568 130.647,148.374C127.597,148.662 124.719,150.388 122.014,150.417C119.309,150.446 117.727,149.554 114.273,148.345L114.245,148.345C112.806,147.856 111.223,147.683 109.612,147.885C103.942,148.633 99.971,153.842 100.719,159.482C100.835,160.288 101.036,161.036 101.295,161.755C101.295,161.784 101.324,161.813 101.324,161.842C103.683,168.403 110.906,175.655 122.187,175.683C134.101,175.741 138.302,169.237 140.317,166.417C141.41,164.978 143.309,161.496 142.964,157.813ZM134.791,159.741C134.59,159.942 130.043,164.547 121.583,164.547L121.122,164.547C112.374,164.374 108.259,159.424 108.086,159.223C107.338,158.302 107.367,157.007 108.115,156.086C108.863,155.194 110.158,154.964 111.194,155.54C111.194,155.54 114.475,157.237 121.468,157.266C128.921,157.237 131.856,155.885 131.885,155.885C132.95,155.309 134.245,155.626 134.964,156.604C135.741,157.525 135.655,158.878 134.791,159.741Z" style="fill:rgb(216,111,205);fill-rule:nonzero;"/>
            <path d="M121.612,164.547L121.151,164.547C112.403,164.374 108.288,159.424 108.115,159.223C107.367,158.302 107.396,157.007 108.144,156.086C108.892,155.194 110.187,154.964 111.223,155.54C111.223,155.54 114.504,157.237 121.497,157.266L121.583,157.266C128.979,157.266 131.885,155.885 131.914,155.885C132.979,155.309 134.274,155.626 134.993,156.604C135.712,157.583 135.597,158.935 134.763,159.799C134.619,159.942 130.043,164.547 121.612,164.547Z" style="fill:rgb(68,63,128);fill-rule:nonzero;"/>
            <path d="M8.748,149.439C13.58,149.439 17.496,145.522 17.496,140.691C17.496,135.859 13.58,131.942 8.748,131.942C3.917,131.942 0,135.859 0,140.691C0,145.522 3.917,149.439 8.748,149.439Z" style="fill:rgb(68,63,128);fill-rule:nonzero;"/>
            <path d="M127.482,34.935C137.129,34.935 144.95,27.115 144.95,17.468C144.95,7.821 137.129,0 127.482,0C117.835,0 110.015,7.821 110.015,17.468C110.015,27.115 117.835,34.935 127.482,34.935Z" style="fill:rgb(205,200,251);fill-rule:nonzero;"/>
            <path d="M185.87,186.101C194.405,186.101 201.323,179.182 201.323,170.647C201.323,162.113 194.405,155.194 185.87,155.194C177.336,155.194 170.417,162.113 170.417,170.647C170.417,179.182 177.336,186.101 185.87,186.101Z" style="fill:rgb(247,227,0);fill-rule:nonzero;"/>
            <path d="M45.411,206.043C60.827,206.043 73.324,193.546 73.324,178.129C73.324,162.713 60.827,150.216 45.411,150.216C29.994,150.216 17.497,162.713 17.497,178.129C17.497,193.546 29.994,206.043 45.411,206.043Z" style="fill:rgb(205,200,251);fill-rule:nonzero;"/>
        </g>
    </g>
</svg>
