<?xml version="1.0" encoding="UTF-8" standalone="no"?>
<!DOCTYPE svg PUBLIC "-//W3C//DTD SVG 1.1//EN" "http://www.w3.org/Graphics/SVG/1.1/DTD/svg11.dtd">
<svg width="100%" height="100%" viewBox="0 0 1440 1622" version="1.1" xmlns="http://www.w3.org/2000/svg" xmlns:xlink="http://www.w3.org/1999/xlink" xml:space="preserve" xmlns:serif="http://www.serif.com/" style="fill-rule:evenodd;clip-rule:evenodd;stroke-linejoin:round;stroke-miterlimit:2;">
    <g transform="matrix(1,0,0,1,0,170)">
        <path d="M0,101.438L0,97.115C20.85,75.587 42.661,55.937 62.394,43.784C114.085,11.95 162.185,-1.405 210.073,0.718C257.938,2.84 305.441,20.417 355.96,50.19C402.866,77.835 444.092,114.713 483.37,149.85L486.038,152.236C526.178,188.136 564.319,221.902 604.673,242.16C661.066,270.47 727.724,268.131 790.126,252.048C821.047,244.079 847.618,234.659 872.39,225.877C886.464,220.887 899.956,216.104 913.336,211.909C950.172,200.361 985.785,193.426 1029.21,199.515C1038.15,200.769 1046.82,201.993 1055.23,203.18L1055.27,203.186C1174.33,219.995 1241.56,229.487 1311.7,215.031C1358.42,205.402 1401.72,200.152 1440,198.267L1440,201.27C1401.92,203.154 1358.82,208.382 1312.3,217.97C1241.64,232.535 1173.87,222.965 1055.13,206.196L1055.09,206.191C1046.59,204.991 1037.83,203.754 1028.79,202.486C985.973,196.482 950.837,203.297 914.233,214.772C901.063,218.901 887.655,223.653 873.617,228.627C848.74,237.444 821.887,246.96 790.874,254.953C728.119,271.127 660.631,273.608 603.327,244.841C562.55,224.37 524.108,190.309 484.039,154.473L481.459,152.165L481.458,152.165C442.117,116.972 401.083,80.266 354.437,52.775C304.165,23.148 257.145,5.808 209.94,3.715C162.759,1.624 115.246,14.758 63.967,46.338C43.825,58.743 21.388,79.153 0,101.438ZM1440,1265.16L1440,1268.74C1412.43,1250.68 1376.69,1230.19 1330.34,1207.35C1270.9,1178.05 1178.67,1171.51 1084.63,1172.88C1037.66,1173.56 990.313,1176.21 946.493,1178.94C938.245,1179.45 930.12,1179.97 922.146,1180.48C887.774,1182.67 856.199,1184.68 829.546,1185.5C784.904,1186.88 754.206,1156.5 723.079,1125.69L721.217,1123.85C720.321,1122.97 719.425,1122.08 718.528,1121.2C685.624,1088.75 651.317,1057.29 598.515,1060.5C584.001,1061.38 562.975,1063.96 538.082,1067.01L538.063,1067.01C530.771,1067.91 523.147,1068.84 515.259,1069.79C480.473,1073.95 440.611,1078.3 401.567,1080.16C362.537,1082.01 324.245,1081.37 292.622,1075.54C261.068,1069.72 235.775,1058.65 223.241,1039.32C213.818,1024.78 194.246,1014.24 170.26,1005.85C148.461,998.23 123.334,992.477 99.531,987.026C97.215,986.496 94.911,985.969 92.624,985.443C66.933,979.533 43.252,973.782 28.133,966.121C20.585,962.296 14.897,957.865 12.281,952.451C9.596,946.892 10.305,940.653 14.735,933.695C22.831,920.976 31.813,905.659 41.494,889.151L41.513,889.119C43.697,885.395 45.916,881.612 48.168,877.783C60.404,856.986 73.612,834.901 87.405,814.203C101.195,793.51 115.596,774.16 130.228,758.847C144.84,743.556 159.801,732.16 174.733,727.567C233.819,709.393 310.869,716.796 387.442,729.199C410.476,732.93 433.464,737.112 455.927,741.199L455.928,741.199C508.315,750.73 557.851,759.742 598.482,761.304C628.426,762.456 643.028,758.214 650.256,751.947C657.386,745.764 657.696,737.316 657.943,728.474L657.952,728.148C658.186,719.672 658.437,710.616 666.703,705.144C670.82,702.418 676.775,700.681 685.345,700.154C693.926,699.626 705.252,700.304 720.219,702.517C752.848,707.341 796.772,697.641 841.242,680.04C885.663,662.458 930.402,637.085 964.586,610.811C1023.92,565.21 1048.09,517.227 1067.84,478.008L1068.72,476.263C1088.63,436.765 1104.66,405.939 1149.21,397.03C1178.02,391.267 1206.81,383.248 1235.69,374.997L1237.41,374.505C1239.75,373.838 1242.08,373.169 1244.41,372.501C1270.39,365.061 1296.43,357.6 1322.56,351.618C1361.42,342.72 1400.53,337.074 1440,339.63L1440,342.636C1400.87,340.076 1362.01,345.662 1323.23,354.543C1297.19,360.505 1271.22,367.943 1245.24,375.385L1245.23,375.386C1242.33,376.218 1239.42,377.051 1236.51,377.882C1207.64,386.132 1178.74,394.183 1149.79,399.971C1106.84,408.562 1091.37,437.986 1071.4,477.613L1070.5,479.401C1050.72,518.68 1026.29,567.17 966.414,613.19C931.999,639.641 887.013,665.151 842.346,682.829C797.728,700.489 753.202,710.426 719.781,705.484C704.918,703.287 693.82,702.638 685.529,703.148C677.228,703.659 671.863,705.325 668.359,707.645C661.489,712.194 661.19,719.643 660.942,728.558L660.936,728.746C660.697,737.341 660.426,747.099 652.221,754.214C644.054,761.296 628.39,765.457 598.367,764.302C557.513,762.731 507.629,753.656 455.13,744.105C432.718,740.028 409.829,735.864 386.962,732.16C310.353,719.751 233.952,712.49 175.615,730.434C161.41,734.804 146.878,745.765 132.397,760.919C117.938,776.052 103.648,795.238 89.902,815.866C76.159,836.49 62.987,858.512 50.754,879.305C48.502,883.132 46.281,886.919 44.095,890.647C34.412,907.158 25.395,922.536 17.265,935.306C13.22,941.661 12.875,946.782 14.983,951.146C17.161,955.655 22.115,959.708 29.489,963.445C44.211,970.905 67.485,976.582 93.297,982.519C95.587,983.046 97.897,983.575 100.221,984.107L100.224,984.107C123.992,989.549 149.284,995.34 171.25,1003.02C195.298,1011.43 215.745,1022.24 225.759,1037.68C237.59,1055.94 261.807,1066.8 293.166,1072.59C324.455,1078.36 362.478,1079.01 401.424,1077.16C440.356,1075.31 480.131,1070.97 514.902,1066.81C522.755,1065.87 530.358,1064.94 537.64,1064.04C562.557,1060.99 583.719,1058.39 598.334,1057.5C652.608,1054.21 687.792,1086.67 720.634,1119.06C722.05,1120.46 723.462,1121.85 724.87,1123.24L724.907,1123.28L724.908,1123.28C756.327,1154.35 786.136,1183.84 829.454,1182.5C856.05,1181.68 887.559,1179.68 921.923,1177.49C929.905,1176.98 938.042,1176.46 946.306,1175.95C990.133,1173.21 1037.54,1170.56 1084.59,1169.88C1178.6,1168.51 1271.51,1175 1331.66,1204.66C1377.17,1227.09 1412.53,1247.27 1440,1265.16Z" style="fill:rgb(66,64,124);fill-opacity:0.3;"/>
        <rect x="0" y="-170" width="1440" height="1622" style="fill:none;"/>
    </g>
</svg>
