<svg width="1440" height="160" viewBox="0 0 1440 160" fill="none" xmlns="http://www.w3.org/2000/svg">
<path fill-rule="evenodd" clip-rule="evenodd" d="M0 0V159.43C0 159.43 92.5674 127.664 158 114.5C242.5 97.5 306.183 86.7471 367.5 82C445 76 534.466 81.5469 589 89.5C646 97.8125 688 92.5 732.5 81C751.853 75.9985 768.843 71.0913 787.21 65.7856L787.282 65.7651C811.129 58.8765 837.306 51.3145 874 42C937.98 25.7588 995 22 1028.5 22C1068.5 22 1129.38 22.3916 1183 30C1257 40.5 1293.37 48.4668 1348 64C1381.2 73.4385 1418.21 85.2065 1440 92.2729V0H0Z" fill="#443F80"/>
</svg>
