<svg width="1440" height="114" viewBox="0 0 1440 114" fill="none" xmlns="http://www.w3.org/2000/svg">
<path fill-rule="evenodd" clip-rule="evenodd" d="M0 42.5C0 42.5 88.2032 25.5515 148.966 22C312.717 12.429 362.525 20.2629 486.76 39.803C492.327 40.6787 498.043 41.5779 503.926 42.5C547.433 49.3193 584.386 56.686 620.425 63.8704C668.687 73.4915 715.309 82.7854 773.834 90C793.822 92.4641 811.77 94.7732 828.344 96.9055C905.94 106.889 953.435 113 1039.32 113C1156.33 113 1269.4 91 1347.08 52C1424.76 13 1440 0 1440 0V114H0V42.5Z" fill="#443F80"/>
</svg>
