<svg width="1440" height="870" viewBox="0 0 1440 870" fill="none" xmlns="http://www.w3.org/2000/svg">
<path d="M1149.68 428.873C1167.9 428.873 1182.67 414.099 1182.67 395.875C1182.67 377.651 1167.9 362.878 1149.68 362.878C1131.45 362.878 1116.68 377.651 1116.68 395.875C1116.68 414.099 1131.45 428.873 1149.68 428.873Z" fill="#443F80"/>
<path d="M1181.71 184.844C1217.5 184.844 1246.51 155.834 1246.51 120.048C1246.51 84.2619 1217.5 55.2517 1181.71 55.2517C1145.93 55.2517 1116.92 84.2619 1116.92 120.048C1116.92 155.834 1145.93 184.844 1181.71 184.844Z" fill="white"/>
<path d="M1181.71 188.921C1143.73 188.921 1112.84 158.034 1112.84 120.048C1112.84 82.0623 1143.73 51.175 1181.71 51.175C1219.7 51.175 1250.59 82.0623 1250.59 120.048C1250.59 158.034 1219.7 188.921 1181.71 188.921ZM1181.71 59.3285C1148.24 59.3285 1121 86.5707 1121 120.048C1121 153.525 1148.24 180.767 1181.71 180.767C1215.19 180.767 1242.43 153.525 1242.43 120.048C1242.43 86.5707 1215.19 59.3285 1181.71 59.3285Z" fill="#70D9CE"/>
<path d="M1064.59 412.998C1152.16 412.998 1223.15 342.008 1223.15 254.437C1223.15 166.866 1152.16 95.8755 1064.59 95.8755C977.021 95.8755 906.031 166.866 906.031 254.437C906.031 342.008 977.021 412.998 1064.59 412.998Z" fill="white"/>
<path d="M1064.59 417.074C974.905 417.074 901.955 344.125 901.955 254.436C901.955 164.748 974.905 91.7986 1064.59 91.7986C1154.28 91.7986 1227.23 164.748 1227.23 254.436C1227.23 344.125 1154.28 417.074 1064.59 417.074ZM1064.59 99.9521C979.413 99.9521 910.109 169.257 910.109 254.436C910.109 339.616 979.413 408.921 1064.59 408.921C1149.77 408.921 1219.08 339.616 1219.08 254.436C1219.08 169.257 1149.77 99.9521 1064.59 99.9521Z" fill="#70D9CE"/>
<path d="M1122.58 251.991C1150.82 251.991 1173.71 229.1 1173.71 200.863C1173.71 172.627 1150.82 149.736 1122.58 149.736C1094.34 149.736 1071.45 172.627 1071.45 200.863C1071.45 229.1 1094.34 251.991 1122.58 251.991Z" fill="white"/>
<path d="M1123.25 219.904C1142.61 219.904 1158.31 204.207 1158.31 184.844C1158.31 165.481 1142.61 149.784 1123.25 149.784C1103.89 149.784 1088.19 165.481 1088.19 184.844C1088.19 204.207 1103.89 219.904 1123.25 219.904Z" fill="#443F80"/>
<path d="M1112.22 140C1110.49 140 1108.91 138.897 1108.33 137.17L1092.7 89.4485C1091.98 87.2902 1093.18 84.988 1095.29 84.2686C1097.45 83.5492 1099.75 84.7482 1100.47 86.8585L1116.1 134.58C1116.82 136.739 1115.62 139.041 1113.51 139.76C1113.08 139.952 1112.65 140 1112.22 140Z" fill="#443F80"/>
<path d="M1138.64 143.07C1137.78 143.07 1136.92 142.782 1136.2 142.254C1134.81 141.247 1134.23 139.472 1134.71 137.794L1149.2 88.9209C1149.82 86.7627 1152.12 85.5156 1154.28 86.1391C1156.44 86.7626 1157.68 89.0648 1157.06 91.2231L1145.74 129.449L1177.54 108.633C1179.41 107.386 1181.95 107.914 1183.2 109.832C1184.45 111.703 1183.92 114.245 1182 115.492L1140.85 142.398C1140.23 142.83 1139.46 143.07 1138.64 143.07Z" fill="#443F80"/>
<path d="M977.35 140C976.247 140 975.192 139.568 974.376 138.705L942.146 104.412C940.611 102.782 940.659 100.192 942.338 98.6569C943.968 97.1222 946.558 97.1701 948.093 98.8488L980.323 133.141C981.858 134.772 981.81 137.362 980.132 138.897C979.364 139.664 978.357 140 977.35 140Z" fill="#443F80"/>
<path d="M1004.4 135.252C1004.35 135.252 1004.35 135.252 1004.3 135.252C1002.58 135.204 1001.09 134.101 1000.51 132.47L984.16 84.4603C983.44 82.302 984.591 79.9999 986.702 79.2804C988.86 78.561 991.162 79.7121 991.882 81.8224L1004.64 119.232L1019.27 81.6785C1020.08 79.5682 1022.43 78.5131 1024.54 79.3284C1026.65 80.1437 1027.71 82.4939 1026.89 84.6042L1008.24 132.614C1007.57 134.197 1006.08 135.252 1004.4 135.252Z" fill="#443F80"/>
<path d="M1122.58 155.875C1134.57 155.875 1145.89 160.576 1154.38 169.065C1162.87 177.554 1167.57 188.873 1167.57 200.863C1167.57 212.854 1162.87 224.173 1154.38 232.662C1145.89 241.151 1134.57 245.851 1122.58 245.851C1110.59 245.851 1099.27 241.151 1090.78 232.662C1082.29 224.173 1077.59 212.854 1077.59 200.863C1077.59 188.873 1082.29 177.554 1090.78 169.065C1099.27 160.576 1110.59 155.875 1122.58 155.875ZM1122.58 149.736C1109.48 149.736 1096.44 154.724 1086.42 164.7C1066.46 184.652 1066.46 217.026 1086.42 236.979C1096.39 246.955 1109.48 251.943 1122.58 251.943C1135.67 251.943 1148.72 246.955 1158.74 236.979C1178.69 217.026 1178.69 184.652 1158.74 164.7C1148.77 154.772 1135.67 149.736 1122.58 149.736Z" fill="#443F80"/>
<path d="M1000.95 249.161C1029.18 249.161 1052.07 226.27 1052.07 198.034C1052.07 169.797 1029.18 146.906 1000.95 146.906C972.711 146.906 949.82 169.797 949.82 198.034C949.82 226.27 972.711 249.161 1000.95 249.161Z" fill="white"/>
<path d="M1001.62 217.074C1020.98 217.074 1036.68 201.377 1036.68 182.014C1036.68 162.651 1020.98 146.954 1001.62 146.954C982.255 146.954 966.559 162.651 966.559 182.014C966.559 201.377 982.255 217.074 1001.62 217.074Z" fill="#443F80"/>
<path d="M1000.95 153.046C1012.94 153.046 1024.26 157.746 1032.75 166.235C1041.24 174.724 1045.94 186.043 1045.94 198.034C1045.94 210.024 1041.24 221.343 1032.75 229.832C1024.26 238.321 1012.94 243.022 1000.95 243.022C988.957 243.022 977.638 238.321 969.149 229.832C951.595 212.278 951.595 183.741 969.149 166.235C977.638 157.698 988.957 153.046 1000.95 153.046ZM1000.95 146.906C987.854 146.906 974.808 151.895 964.784 161.871C944.832 181.823 944.832 214.197 964.784 234.149C974.76 244.125 987.854 249.113 1000.95 249.113C1014.04 249.113 1027.09 244.125 1037.11 234.149C1057.06 214.197 1057.06 181.823 1037.11 161.871C1027.13 151.895 1014.04 146.906 1000.95 146.906Z" fill="#443F80"/>
<path d="M1058.89 293.429C1058.79 293.429 1058.74 293.429 1058.65 293.429C1040.08 293.333 1027.57 281.583 1023.39 269.976L1023.35 269.832C1022.87 268.489 1022.53 267.194 1022.34 265.899C1021.72 261.199 1022.96 256.547 1025.84 252.758C1028.72 249.017 1032.89 246.571 1037.59 245.947C1040.23 245.611 1042.82 245.851 1045.41 246.667L1045.6 246.715C1046.85 247.146 1047.95 247.578 1048.96 247.962C1052.46 249.257 1054.81 250.12 1058.12 250.12C1058.17 250.12 1058.21 250.12 1058.31 250.12C1060.61 250.12 1063.01 249.304 1065.5 248.489C1067.81 247.722 1070.2 246.954 1072.65 246.715C1077.78 246.043 1083.06 247.482 1087.09 250.743C1090.92 253.813 1093.27 258.129 1093.75 262.926C1094.42 270.12 1090.11 276.499 1089.25 277.698L1088.86 278.225C1085.41 283.165 1078.12 293.429 1058.89 293.429ZM1039.94 246.858C1039.22 246.858 1038.5 246.906 1037.78 247.002C1033.37 247.578 1029.44 249.88 1026.7 253.429C1023.97 256.978 1022.82 261.391 1023.39 265.803C1023.54 267.002 1023.87 268.249 1024.35 269.496L1024.4 269.64C1028.43 280.959 1040.61 292.326 1058.69 292.422C1058.79 292.422 1058.84 292.422 1058.93 292.422C1077.64 292.422 1084.74 282.494 1088.14 277.698L1088.53 277.17C1089.34 276.019 1093.47 269.928 1092.84 263.069C1092.41 258.561 1090.2 254.484 1086.56 251.607C1082.72 248.537 1077.73 247.146 1072.89 247.818C1070.49 248.057 1068.19 248.825 1065.94 249.544C1063.35 250.408 1060.9 251.175 1058.41 251.223C1054.81 251.271 1052.36 250.36 1048.67 248.969C1047.71 248.633 1046.66 248.201 1045.5 247.818L1045.31 247.77C1043.54 247.146 1041.76 246.858 1039.94 246.858Z" fill="#D86FCD"/>
<path d="M1093.27 263.022C1092.36 252.95 1082.77 245.947 1072.75 247.29C1067.66 247.77 1062.87 250.648 1058.36 250.696C1053.85 250.744 1051.21 249.257 1045.46 247.242C1045.46 247.242 1045.46 247.242 1045.41 247.242C1043.01 246.427 1040.37 246.139 1037.69 246.475C1028.24 247.722 1021.62 256.403 1022.87 265.803C1023.06 267.146 1023.39 268.393 1023.82 269.592C1023.82 269.64 1023.87 269.688 1023.87 269.736C1027.81 280.672 1039.84 292.758 1058.65 292.806C1078.5 292.902 1085.5 282.062 1088.86 277.362C1090.68 274.964 1093.85 269.161 1093.27 263.022ZM1079.65 266.235C1079.32 266.571 1071.74 274.245 1057.64 274.245C1057.4 274.245 1057.11 274.245 1056.87 274.245C1042.29 273.957 1035.43 265.708 1035.14 265.372C1033.9 263.837 1033.94 261.679 1035.19 260.144C1036.44 258.657 1038.6 258.273 1040.32 259.233C1040.32 259.233 1045.79 262.062 1057.45 262.11C1069.87 262.062 1074.76 259.808 1074.81 259.808C1076.58 258.849 1078.74 259.377 1079.94 261.007C1081.24 262.542 1081.09 264.796 1079.65 266.235Z" fill="#D86FCD"/>
<path d="M1057.68 274.245C1057.45 274.245 1057.16 274.245 1056.92 274.245C1042.34 273.957 1035.48 265.707 1035.19 265.372C1033.94 263.837 1033.99 261.679 1035.24 260.144C1036.49 258.657 1038.64 258.273 1040.37 259.233C1040.37 259.233 1045.84 262.062 1057.49 262.11C1057.54 262.11 1057.59 262.11 1057.64 262.11C1069.96 262.11 1074.81 259.808 1074.86 259.808C1076.63 258.849 1078.79 259.377 1079.99 261.007C1081.19 262.638 1080.99 264.892 1079.6 266.331C1079.36 266.571 1071.74 274.245 1057.68 274.245Z" fill="#443F80"/>
<path d="M869.58 249.065C877.633 249.065 884.161 242.537 884.161 234.484C884.161 226.432 877.633 219.904 869.58 219.904C861.528 219.904 855 226.432 855 234.484C855 242.537 861.528 249.065 869.58 249.065Z" fill="#443F80"/>
<path d="M1067.47 58.2254C1083.55 58.2254 1096.58 45.1912 1096.58 29.1127C1096.58 13.0342 1083.55 0 1067.47 0C1051.39 0 1038.36 13.0342 1038.36 29.1127C1038.36 45.1912 1051.39 58.2254 1067.47 58.2254Z" fill="#70D9CE"/>
<path d="M1164.78 310.168C1179.01 310.168 1190.54 298.637 1190.54 284.412C1190.54 270.188 1179.01 258.657 1164.78 258.657C1150.56 258.657 1139.03 270.188 1139.03 284.412C1139.03 298.637 1150.56 310.168 1164.78 310.168Z" fill="#F7E300"/>
<path d="M930.683 343.405C956.377 343.405 977.206 322.576 977.206 296.882C977.206 271.189 956.377 250.36 930.683 250.36C904.989 250.36 884.16 271.189 884.16 296.882C884.16 322.576 904.989 343.405 930.683 343.405Z" fill="#70D9CE"/>
<path d="M1063.87 467.482C1075.71 467.482 1085.31 457.883 1085.31 446.043C1085.31 434.203 1075.71 424.604 1063.87 424.604C1052.03 424.604 1042.43 434.203 1042.43 446.043C1042.43 457.883 1052.03 467.482 1063.87 467.482Z" fill="#70D9CE"/>
<path d="M1101.71 500C1118.96 500 1132.94 486.021 1132.94 468.777C1132.94 451.533 1118.96 437.554 1101.71 437.554C1084.47 437.554 1070.49 451.533 1070.49 468.777C1070.49 486.021 1084.47 500 1101.71 500Z" fill="#70D9CE"/>
<path d="M1045.31 456.787C1051.11 467.77 1055.86 473.669 1066.17 482.59C1076.49 491.559 1086.27 498.993 1100.47 499.952C1114.66 500.959 1111.59 462.782 1111.59 462.782L1114.85 440.432C1114.85 440.432 1109.82 438.273 1100.75 435.779C1091.69 433.285 1077.68 428.777 1072.03 426.139C1066.37 423.501 1060.56 434.724 1056.05 436.403C1051.55 438.082 1045.31 456.787 1045.31 456.787Z" fill="#70D9CE"/>
<path d="M231 294.038C140.333 293.314 0 303 0 303V869.961H1440V342C1440 342 1305 347.961 1197.5 363.5C1111.5 375.93 1030.56 383.01 932.5 377.5C822.547 371.321 767 354.5 650 333.038C488.36 303.388 395.332 295.351 231 294.038Z" fill="#443F80"/>
</svg>
