<svg width="587" height="508" viewBox="0 0 587 508" fill="none" xmlns="http://www.w3.org/2000/svg">
<path d="M92.4575 175.554C126.361 175.554 153.846 148.069 153.846 114.166C153.846 80.2618 126.361 52.7773 92.4575 52.7773C58.5537 52.7773 31.0693 80.2618 31.0693 114.166C31.0693 148.069 58.5537 175.554 92.4575 175.554Z" fill="white"/>
<path d="M92.4571 177.54C57.5043 177.54 29.083 149.118 29.083 114.166C29.083 79.2126 57.5043 50.7914 92.4571 50.7914C127.41 50.7914 155.831 79.2126 155.831 114.166C155.831 149.118 127.41 177.54 92.4571 177.54ZM92.4571 58.2939C61.6527 58.2939 36.5855 83.3611 36.5855 114.166C36.5855 144.97 61.6527 170.037 92.4571 170.037C123.262 170.037 148.329 144.97 148.329 114.166C148.329 83.3611 123.262 58.2939 92.4571 58.2939Z" fill="#70D9CE"/>
<path d="M37.9533 301.816C61.7407 361.483 141.664 391.493 231.915 358.527C319.606 326.531 357.604 240.737 330.242 169.463C302.88 98.1896 214.439 66.7232 131.955 97.4393C42.9844 130.583 9.17902 229.572 37.9533 301.816Z" fill="white"/>
<path d="M158.7 375.871C141.18 375.871 124.365 373.443 108.875 368.501C73.1716 357.203 46.7363 333.989 34.4675 303.229C19.33 265.275 20.8306 220.613 38.5718 180.629C56.5337 140.159 89.2358 109.355 130.632 93.9529C171.454 78.7272 214.969 77.9328 253.055 91.7021C291.539 105.56 320.181 132.745 333.773 168.184C347.057 202.827 345.601 241.09 329.713 275.999C311.795 315.321 277.505 345.905 233.196 362.101C208.128 371.237 182.796 375.871 158.7 375.871ZM196.124 89.4072C175.206 89.4072 153.89 93.2467 133.236 100.97C93.7373 115.666 62.5798 145.058 45.4564 183.674C28.5537 221.804 27.0974 264.392 41.4404 300.448C52.8707 329.09 77.6289 350.715 111.125 361.351C146.431 372.517 188.843 370.266 230.592 355.04C273.003 339.594 305.749 310.378 322.829 272.866C337.878 239.81 339.246 203.578 326.712 170.876C313.914 137.512 286.861 111.915 250.451 98.8074C233.284 92.5406 214.881 89.4072 196.124 89.4072Z" fill="#70D9CE"/>
<path d="M128.823 226.703C126.748 226.703 125.071 225.026 125.071 222.952C125.071 194.928 147.844 172.155 175.868 172.155C192.373 172.155 207.908 180.232 217.44 193.736C218.632 195.457 218.235 197.796 216.514 198.988C214.792 200.18 212.453 199.782 211.262 198.061C203.141 186.543 189.902 179.658 175.868 179.658C151.992 179.658 132.618 199.076 132.618 222.908C132.574 225.026 130.897 226.703 128.823 226.703Z" fill="#443F80"/>
<path d="M321.151 196.87C319.695 196.87 318.283 195.987 317.665 194.575C317.003 192.986 316.209 191.441 315.37 189.941C314.532 188.44 313.561 186.984 312.546 185.616C304.116 174.318 290.7 167.786 276.666 168.184C260.072 168.625 244.979 178.731 238.271 193.957C237.432 195.855 235.226 196.693 233.328 195.855C231.43 195.016 230.592 192.809 231.43 190.912C239.33 173.082 257.027 161.211 276.534 160.681C293.039 160.24 308.794 167.875 318.68 181.158C319.872 182.791 321.019 184.468 321.99 186.234C323.005 187.999 323.932 189.853 324.682 191.706C325.476 193.604 324.594 195.81 322.696 196.649C322.122 196.781 321.637 196.87 321.151 196.87Z" fill="#443F80"/>
<path d="M312.766 163.638C312.06 163.638 311.354 163.461 310.736 163.02C308.97 161.917 308.485 159.578 309.588 157.812L334.611 118.932C335.715 117.166 338.054 116.681 339.819 117.784C341.584 118.888 342.07 121.227 340.966 122.992L315.943 161.873C315.193 163.02 314.002 163.638 312.766 163.638Z" fill="#443F80"/>
<path d="M375.478 178.775C375.434 178.775 375.39 178.775 375.39 178.775L330.816 177.584C329.228 177.54 327.86 176.525 327.33 175.024C326.845 173.524 327.33 171.891 328.522 170.876L363.607 142.675C365.24 141.351 367.579 141.616 368.903 143.249C370.183 144.882 369.962 147.221 368.329 148.545L341.232 170.302L375.567 171.185C377.641 171.229 379.274 172.95 379.23 175.024C379.186 177.142 377.508 178.775 375.478 178.775Z" fill="#443F80"/>
<path d="M126.792 177.54C125.865 177.54 124.938 177.187 124.188 176.525L90.6917 144.661C89.1912 143.249 89.1471 140.866 90.5593 139.321C91.9715 137.82 94.3547 137.776 95.8993 139.189L129.396 171.052C130.896 172.464 130.94 174.848 129.528 176.392C128.778 177.187 127.763 177.54 126.792 177.54Z" fill="#443F80"/>
<path d="M68.5816 211.213C66.9046 211.213 65.4041 210.109 64.9627 208.432C64.4331 206.446 65.6247 204.372 67.6107 203.798L107.197 193.118L69.6849 175.51C67.7872 174.627 66.9928 172.376 67.8755 170.523C68.7581 168.625 71.0089 167.831 72.8624 168.713L119.643 190.691C121.055 191.353 121.938 192.854 121.805 194.442C121.673 196.031 120.57 197.355 119.025 197.752L69.5525 211.124C69.2436 211.169 68.8905 211.213 68.5816 211.213Z" fill="#443F80"/>
<path d="M259.366 229.881C257.733 221.584 251.598 219.421 244.008 220.304C240.477 220.701 235.755 221.584 231.165 221.76C224.148 222.025 221.456 220.569 214.439 222.378C207.157 224.276 204.024 230.675 205.348 238.575C205.833 241.487 206.936 245.636 211.041 250.799C217.175 258.523 226.355 263.863 235.843 263.156C246.303 262.406 253.099 255.345 256.806 246.783C259.719 240.119 260.072 233.411 259.366 229.881ZM240.256 244.886C237.167 247.975 232.71 248.99 228.12 247.181C225.516 246.165 223.265 243.606 222.206 241.973C220.882 239.943 220.264 238.178 220.529 236.545C220.971 234.117 223.663 234.161 227.193 234.161C230.724 234.161 235.887 234.029 239.594 233.279C242.949 232.573 244.361 233.058 244.89 234.912C245.508 237.339 243.169 241.973 240.256 244.886Z" fill="#D86FCD"/>
<path d="M147.623 298.418C162.954 298.418 175.382 285.99 175.382 270.659C175.382 255.328 162.954 242.9 147.623 242.9C132.292 242.9 119.863 255.328 119.863 270.659C119.863 285.99 132.292 298.418 147.623 298.418Z" fill="#70D9CE"/>
<path d="M81.9983 267.349C89.4079 267.349 95.4145 261.342 95.4145 253.933C95.4145 246.523 89.4079 240.517 81.9983 240.517C74.5887 240.517 68.582 246.523 68.582 253.933C68.582 261.342 74.5887 267.349 81.9983 267.349Z" fill="#443F80"/>
<path d="M141.18 444.408C156.608 444.408 169.116 431.901 169.116 416.472C169.116 401.044 156.608 388.537 141.18 388.537C125.751 388.537 113.244 401.044 113.244 416.472C113.244 431.901 125.751 444.408 141.18 444.408Z" fill="#443F80"/>
<path d="M72.8622 408.352C84.2934 408.352 93.5602 399.085 93.5602 387.654C93.5602 376.223 84.2934 366.956 72.8622 366.956C61.4309 366.956 52.1641 376.223 52.1641 387.654C52.1641 399.085 61.4309 408.352 72.8622 408.352Z" fill="#70D9CE"/>
<path d="M30.1424 455C46.7896 455 60.2849 441.505 60.2849 424.858C60.2849 408.21 46.7896 394.715 30.1424 394.715C13.4952 394.715 0 408.21 0 424.858C0 441.505 13.4952 455 30.1424 455Z" fill="#70D9CE"/>
<path d="M41.9701 452.573C56.5779 445.6 63.9922 438.759 72.3332 430.021C84.8226 416.958 90.8246 403.63 92.943 392.641C95.0613 381.652 69.5528 368.28 69.5528 368.28C69.5528 368.28 66.2429 367.971 62.9771 369.471C58.2108 371.678 49.5609 377.018 39.2339 383.329C26.9651 390.831 17.1235 396.039 10.8126 401.688C1.19175 410.25 2.69225 427.241 2.69225 427.241C7.63507 438.803 41.9701 452.573 41.9701 452.573Z" fill="#70D9CE"/>
<path d="M337.79 357.512C352 357.512 363.519 345.992 363.519 331.782C363.519 317.573 352 306.053 337.79 306.053C323.58 306.053 312.061 317.573 312.061 331.782C312.061 345.992 323.58 357.512 337.79 357.512Z" fill="#70D9CE"/>
<path d="M214.351 68.5767C229.146 68.5767 241.139 56.5832 241.139 41.7884C241.139 26.9936 229.146 15 214.351 15C199.556 15 187.562 26.9936 187.562 41.7884C187.562 56.5832 199.556 68.5767 214.351 68.5767Z" fill="#70D9CE"/>
<path d="M330.905 289.812C351.964 289.812 369.035 272.741 369.035 251.682C369.035 230.623 351.964 213.552 330.905 213.552C309.846 213.552 292.774 230.623 292.774 251.682C292.774 272.741 309.846 289.812 330.905 289.812Z" fill="#F7E300"/>
<path d="M316.775 285.507L434.87 261.558L406.69 347.7L287.925 372.575L316.775 285.507Z" fill="#985596"/>
<path d="M434.87 261.558L516.519 351.196L488.002 438.369L406.69 347.7L434.87 261.558Z" fill="#AD65AB"/>
<path d="M374.723 266.409C379.268 269.63 385.562 268.557 388.783 264.012C392.003 259.468 390.93 253.174 386.385 249.953C381.841 246.733 375.547 247.806 372.326 252.35C369.106 256.895 370.179 263.189 374.723 266.409Z" fill="#CFC7FF"/>
<path d="M395.024 287.79C399.568 291.01 405.863 289.937 409.083 285.393C412.304 280.849 411.23 274.554 406.686 271.334C402.142 268.113 395.847 269.187 392.627 273.731C389.407 278.275 390.48 284.57 395.024 287.79Z" fill="#CFC7FF"/>
<path d="M415.608 309.851C420.152 313.071 426.447 311.998 429.667 307.454C432.888 302.91 431.814 296.615 427.27 293.395C422.726 290.174 416.431 291.248 413.211 295.792C409.991 300.336 411.064 306.631 415.608 309.851Z" fill="#CFC7FF"/>
<path d="M427.55 336.807C432.094 340.027 438.388 338.954 441.609 334.409C444.829 329.865 443.756 323.571 439.212 320.35C434.667 317.13 428.373 318.203 425.152 322.748C421.932 327.292 423.005 333.586 427.55 336.807Z" fill="#CFC7FF"/>
<path d="M449.234 412.346C443.462 397.236 441.631 381.567 440.891 363.412C440.169 345.366 434.521 319.805 423.942 305.122C423.878 305.077 423.86 304.968 423.86 304.968C418.104 296.864 410.392 290.441 406.379 286.639C398.545 279.171 390.069 272.877 383.432 262.233C371.876 243.791 378.692 226.871 378.156 212.215C377.728 197.539 368.204 187.724 358.389 182.78C343.038 174.967 334.833 180.46 333.285 186.836C331.809 192.976 337.485 199.298 340.987 202.738C345.229 206.894 349.106 210.887 351.08 216.214C355.367 227.876 343.601 245.696 330.511 266.602C322.01 280.22 321.191 294.491 325.992 307.187L315.098 322.559C312.702 325.939 313.501 330.626 316.882 333.021C320.263 335.417 324.949 334.618 327.345 331.237L334.26 321.479C335.329 322.81 336.442 324.079 337.601 325.283C338.294 326.062 339.033 326.777 339.836 327.538L333.96 335.829C331.564 339.21 332.363 343.896 335.743 346.292C339.124 348.688 343.81 347.889 346.206 344.508L351.495 337.045C353.663 338.582 355.832 340.119 358.155 341.574L352.776 349.164C350.38 352.544 351.179 357.231 354.56 359.626C357.94 362.022 362.627 361.223 365.022 357.842L371.305 348.976C373.809 350.176 376.313 351.375 378.779 352.357L371.592 362.498C369.196 365.879 369.995 370.565 373.376 372.961C376.757 375.356 381.443 374.557 383.839 371.177L394.054 356.762C395.2 356.903 396.345 357.044 397.427 357.14C405.255 357.992 407.283 356.076 412.865 358.882C415.004 359.919 416.245 361.277 417.978 365.188C420.948 372.083 423.709 386.305 429.432 400.133C440.032 425.467 461.959 434.682 461.959 434.682C461.959 434.682 455.007 427.456 449.234 412.346Z" fill="#71D9CE"/>
<path d="M358.003 303.523C360.681 305.42 364.389 304.788 366.286 302.111C368.183 299.433 367.551 295.725 364.874 293.828C362.197 291.93 358.488 292.563 356.591 295.24C354.694 297.917 355.326 301.626 358.003 303.523Z" fill="#F7E300"/>
<path d="M386.48 314.313C392.574 318.632 401.016 317.193 405.334 311.098C409.653 305.004 408.214 296.563 402.12 292.244C396.025 287.925 387.584 289.365 383.265 295.459C378.946 301.553 380.386 309.994 386.48 314.313Z" fill="#F7E300"/>
<path d="M408.233 330.399C410.91 332.296 414.618 331.664 416.516 328.987C418.413 326.31 417.781 322.601 415.103 320.704C412.426 318.807 408.718 319.439 406.821 322.116C404.923 324.794 405.556 328.502 408.233 330.399Z" fill="#F7E300"/>
<path d="M364.795 279.878C368.565 282.55 373.786 281.659 376.457 277.89C379.128 274.121 378.238 268.9 374.468 266.229C370.699 263.558 365.478 264.448 362.807 268.217C360.136 271.986 361.026 277.207 364.795 279.878Z" fill="#F7E300"/>
<path d="M385.16 353.359C387.487 355.643 391.216 355.589 393.475 353.256L506.983 237.676C509.267 235.351 509.212 231.624 506.877 229.365C504.549 227.081 500.82 227.135 498.561 229.468L385.054 345.048C382.769 347.373 382.824 351.1 385.16 353.359Z" fill="url(#paint0_linear)"/>
<path d="M520.249 278.914C522.533 276.588 522.478 272.861 520.143 270.603L495.162 246.21C492.834 243.926 489.105 243.98 486.846 246.313C484.562 248.639 484.617 252.366 486.953 254.624L511.942 278.992C514.244 281.267 517.965 281.239 520.249 278.914Z" fill="#71D9CE"/>
<path d="M500.132 299.515C502.416 297.189 502.362 293.462 500.026 291.203L475.037 266.836C472.709 264.552 468.98 264.606 466.721 266.939C464.437 269.264 464.492 272.992 466.828 275.25L491.817 299.618C494.127 301.868 497.848 301.84 500.132 299.515Z" fill="#71D9CE"/>
<path d="M480.015 320.116C482.299 317.79 482.244 314.063 479.909 311.805L454.92 287.437C452.592 285.153 448.863 285.207 446.604 287.54C444.32 289.866 444.375 293.593 446.71 295.851L471.7 320.219C474.01 322.469 477.739 322.416 480.015 320.116Z" fill="#71D9CE"/>
<path d="M459.897 340.716C462.181 338.391 462.126 334.664 459.791 332.405L434.801 308.038C432.474 305.754 428.745 305.807 426.486 308.141C424.202 310.466 424.257 314.193 426.592 316.452L451.582 340.82C453.892 343.07 457.621 343.017 459.897 340.716Z" fill="#71D9CE"/>
<path d="M439.781 361.317C442.065 358.992 442.01 355.265 439.674 353.006L414.685 328.639C412.358 326.355 408.629 326.408 406.37 328.742C404.086 331.067 404.141 334.794 406.476 337.053L431.465 361.421C433.776 363.671 437.505 363.618 439.781 361.317Z" fill="#71D9CE"/>
<path d="M414.578 382.054C416.906 384.338 420.635 384.284 422.894 381.951L538.516 263.548C540.8 261.222 540.745 257.495 538.409 255.237C536.082 252.953 532.353 253.006 530.094 255.34L414.472 373.743C412.188 376.068 412.243 379.795 414.578 382.054Z" fill="#F7E300"/>
<path d="M431.745 293.622L404.755 280.237C402.46 279.091 401.504 276.313 402.638 273.986L410.812 257.467C411.952 255.178 414.73 254.233 417.063 255.373L444.053 268.758C446.347 269.904 447.304 272.682 446.17 275.009L437.979 291.55C436.839 293.839 434.062 294.784 431.745 293.622Z" fill="white"/>
<path d="M403.393 280.696C402.442 279.995 401.746 279.041 401.355 277.903C400.857 276.449 400.951 274.886 401.645 273.527L409.813 256.969C411.222 254.131 414.672 252.967 417.518 254.383L444.53 267.784C447.377 269.201 448.554 272.652 447.146 275.49L438.955 292.031C438.283 293.406 437.087 294.429 435.632 294.921C434.178 295.414 432.613 295.315 431.25 294.618L404.26 281.233C403.94 281.065 403.658 280.891 403.393 280.696ZM444.115 270.062C443.96 269.948 443.767 269.84 443.574 269.732L416.562 256.33C414.819 255.454 412.653 256.171 411.804 257.926L403.613 274.467C403.194 275.314 403.128 276.285 403.422 277.182C403.717 278.079 404.361 278.825 405.227 279.225L432.223 292.648C433.072 293.07 434.044 293.14 434.941 292.849C435.838 292.557 436.583 291.916 436.98 291.053L445.171 274.512C445.951 272.944 445.464 271.056 444.115 270.062Z" fill="#71D9CE"/>
<path d="M432.406 293.974L414.463 285.076C412.51 284.113 411.717 281.762 412.696 279.831L421.564 261.953C422.521 260.006 424.872 259.222 426.809 260.206L444.752 269.104C446.705 270.066 447.498 272.418 446.519 274.349L437.667 292.205C436.71 294.152 434.359 294.936 432.406 293.974Z" fill="white"/>
<path d="M413.25 285.611C411.325 284.193 410.629 281.572 411.719 279.35L420.566 261.456C421.168 260.267 422.185 259.35 423.437 258.947C424.706 258.521 426.073 258.611 427.265 259.216L445.208 268.114C447.69 269.331 448.704 272.355 447.495 274.83L438.649 292.724C438.047 293.913 437.03 294.83 435.777 295.233C434.509 295.659 433.141 295.57 431.95 294.964L414.006 286.066C413.73 285.931 413.471 285.773 413.25 285.611ZM444.666 270.333C444.533 270.235 444.384 270.159 444.235 270.084L426.308 261.163C425.63 260.834 424.855 260.773 424.166 261.014C423.455 261.238 422.868 261.758 422.54 262.434L413.694 280.328C413.006 281.726 413.578 283.404 414.979 284.096L432.923 292.995C433.601 293.324 434.375 293.385 435.064 293.144C435.775 292.92 436.363 292.4 436.69 291.724L445.537 273.83C446.133 272.603 445.75 271.131 444.666 270.333Z" fill="#71D9CE"/>
<path d="M420.886 281.172C420.149 279.439 420.228 277.525 421.183 275.441C421.371 275.001 421.731 274.281 422.209 273.307C422.687 272.333 423.047 271.613 423.312 271.161C424.351 269.241 425.792 268.025 427.632 267.612C429.488 267.177 431.522 267.519 433.75 268.616C435.256 269.351 436.434 270.253 437.339 271.294C438.206 272.34 438.777 273.372 438.98 274.44C439.199 275.486 439.127 276.418 438.762 277.237C438.687 277.386 438.583 277.48 438.414 277.525C438.266 277.586 438.107 277.571 437.98 277.511L434.329 275.706C434.18 275.63 434.069 275.549 434.013 275.439C433.957 275.33 433.901 275.221 433.877 275.068C433.894 274.536 433.795 274.021 433.537 273.491C433.279 272.961 432.781 272.526 432.02 272.17C430.194 271.267 428.794 271.732 427.804 273.586C427.556 274.015 427.228 274.692 426.776 275.583C426.325 276.474 426.003 277.189 425.777 277.635C424.871 279.653 425.33 281.113 427.178 282.032C428.072 282.487 428.935 282.612 429.69 282.421C430.445 282.229 431.049 281.688 431.495 280.758L431.704 280.334L429.603 279.297C429.432 279.205 429.315 279.085 429.247 278.899C429.18 278.713 429.194 278.554 429.286 278.383L430.183 276.563C430.275 276.392 430.394 276.276 430.58 276.209C430.766 276.142 430.926 276.157 431.097 276.249L437.065 279.217C437.236 279.309 437.353 279.429 437.42 279.615C437.488 279.801 437.473 279.96 437.382 280.13L436.033 282.842C435.371 284.157 434.504 285.15 433.407 285.804C432.311 286.459 431.063 286.764 429.702 286.713C428.318 286.646 426.888 286.272 425.376 285.499C423.12 284.347 421.623 282.904 420.886 281.172Z" fill="#F7E300"/>
<path d="M433.752 375.425L417.672 368.792L422.416 357.29L438.496 363.923C441.658 365.227 443.218 368.868 441.891 372.084C440.555 375.169 436.914 376.729 433.752 375.425Z" fill="#CFC7FF"/>
<path d="M393.332 393.005L399.965 376.924L411.466 381.668L404.834 397.749C403.529 400.91 399.888 402.47 396.672 401.143C393.511 399.839 392.028 396.166 393.332 393.005Z" fill="#CFC7FF"/>
<path d="M375.889 385.81L382.521 369.729L394.023 374.473L387.39 390.554C386.086 393.715 382.445 395.275 379.229 393.948C376.122 392.667 374.585 388.971 375.889 385.81Z" fill="#CFC7FF"/>
<path d="M371.174 349.613L387.255 356.246L391.999 344.744L375.919 338.111C372.757 336.807 369.084 338.29 367.757 341.506C366.476 344.613 368.013 348.309 371.174 349.613Z" fill="#CFC7FF"/>
<path d="M392.525 386.612C379.006 381.036 372.515 365.537 378.113 351.965L385.78 333.377L434.839 353.613L427.172 372.2C421.573 385.773 406.043 392.188 392.525 386.612Z" fill="#CFC7FF"/>
<path d="M394.504 381.815C383.983 377.476 378.955 365.388 383.295 354.867L389.253 340.422L427.41 356.161L421.429 370.661C417.089 381.181 405.024 386.155 394.504 381.815Z" fill="#F7E300"/>
<path d="M403.003 361.21C422.752 369.357 445.365 359.951 453.511 340.202C461.657 320.453 452.251 297.84 432.503 289.694C412.754 281.548 390.14 290.954 381.994 310.702C373.848 330.451 383.254 353.064 403.003 361.21Z" fill="#CFC7FF"/>
<path d="M447.518 322.103C455.195 325.269 463.985 321.613 467.151 313.936C470.318 306.259 466.662 297.469 458.985 294.303C451.308 291.136 442.518 294.792 439.351 302.469C436.185 310.146 439.841 318.936 447.518 322.103Z" fill="#CFC7FF"/>
<path d="M398.95 302.069C406.626 305.236 415.417 301.579 418.583 293.903C421.75 286.226 418.093 277.436 410.417 274.269C402.74 271.103 393.95 274.759 390.783 282.436C387.617 290.112 391.273 298.903 398.95 302.069Z" fill="#CFC7FF"/>
<path d="M409.006 346.656C412.829 348.233 417.207 346.412 418.784 342.589C420.361 338.765 418.54 334.388 414.717 332.811C410.893 331.234 406.515 333.054 404.938 336.878C403.361 340.701 405.182 345.079 409.006 346.656Z" fill="#F7E300"/>
<path d="M397.002 377.311L516.18 352.227L488.001 438.369L369.527 463.729L397.002 377.311Z" fill="#CA76C8"/>
<path d="M316.774 285.506L398.086 376.175L369.528 463.729L287.924 372.575L316.774 285.506Z" fill="#AD65AB"/>
<path d="M468.016 367.573C468.915 366.062 469.602 364.31 469.987 362.348C470.904 357.76 470.22 352.484 468.06 347.546C465.899 342.608 462.505 338.519 458.515 336.061C454.373 333.514 450.027 332.987 446.354 334.6C442.65 336.213 440.1 339.721 439.153 344.491C438.236 349.079 438.92 354.354 441.08 359.292C443.241 364.23 446.635 368.319 450.625 370.777C454.767 373.325 459.113 373.851 462.786 372.238C464.954 371.295 466.727 369.69 468.016 367.573ZM443.452 340.674C444.471 339.011 445.823 337.769 447.449 337.069C450.31 335.821 453.75 336.291 457.106 338.359C460.643 340.517 463.643 344.155 465.591 348.611C467.538 353.068 468.159 357.74 467.33 361.815C466.561 365.709 464.551 368.522 461.691 369.769C458.83 371.017 455.39 370.548 452.034 368.479C448.497 366.321 445.497 362.684 443.55 358.227C441.602 353.771 440.981 349.098 441.81 345.023C442.135 343.363 442.703 341.913 443.452 340.674Z" fill="#F7E300"/>
<path d="M465.159 369.575C468.756 363.65 466.97 354.216 460.427 346.882C452.884 338.436 441.806 335.975 435.764 341.367C429.692 346.789 430.912 358.065 438.455 366.511C445.997 374.957 457.076 377.418 463.118 371.996C463.959 371.299 464.62 370.452 465.159 369.575ZM436.02 345.287C436.44 344.592 436.98 343.956 437.581 343.411C442.541 338.988 451.87 341.365 458.413 348.699C464.956 356.034 466.26 365.59 461.33 370.012C456.371 374.435 447.042 372.058 440.499 364.724C434.773 358.291 433.053 350.184 436.02 345.287Z" fill="#F7E300"/>
<path d="M463.148 372.147C463.238 371.996 463.358 371.814 463.448 371.633C465.364 368.097 465.197 363.724 463.008 359.389C460.881 355.205 457.096 351.48 452.351 348.934C442.377 343.574 431.133 345.035 427.3 352.167C425.383 355.704 425.551 360.076 427.739 364.411C429.866 368.595 433.651 372.321 438.396 374.866L439.025 373.688L438.396 374.866C443.141 377.412 448.333 378.538 453.006 378.007C457.558 377.477 461.17 375.412 463.148 372.147ZM429.867 353.093C433.224 347.59 442.571 346.77 451.063 351.322C455.325 353.628 458.716 356.933 460.57 360.635C462.363 364.157 462.527 367.625 461.06 370.375C459.593 373.126 456.613 374.887 452.664 375.354C448.534 375.823 443.945 374.815 439.654 372.539C435.392 370.233 432.001 366.928 430.147 363.226C428.354 359.704 428.19 356.236 429.657 353.485C429.717 353.334 429.777 353.214 429.867 353.093Z" fill="#F7E300"/>
<path d="M397.269 376.114L516.571 351.038L528.706 393.747L410.172 419.042L397.269 376.114Z" fill="#EB9CE9"/>
<path d="M316.497 285.232L398.436 376.383L367.489 408.222L286.392 318.147L316.497 285.232Z" fill="#985596"/>
<path d="M488.289 392.62C488.296 394.369 488.635 396.238 489.336 398.105C490.951 402.502 494.285 406.621 498.701 409.741C503.146 412.801 508.159 414.531 512.834 414.513C517.721 414.524 521.665 412.699 523.974 409.403C526.284 406.106 526.629 401.762 524.953 397.184C523.337 392.786 520.004 388.667 515.588 385.547C511.173 382.458 506.129 380.758 501.454 380.746C496.568 380.734 492.624 382.559 490.314 385.856C488.964 387.821 488.28 390.116 488.289 392.62ZM523.285 402.679C523.292 404.61 522.787 406.391 521.767 407.843C519.967 410.413 516.805 411.813 512.854 411.798C508.722 411.784 504.252 410.263 500.26 407.503C496.298 404.714 493.298 401.045 491.866 397.16C490.494 393.456 490.722 389.986 492.522 387.416C494.322 384.845 497.483 383.445 501.434 383.46C505.567 383.474 510.036 384.995 514.028 387.755C517.99 390.545 520.99 394.213 522.423 398.098C523.002 399.694 523.279 401.232 523.285 402.679Z" fill="#F7E300"/>
<path d="M489.665 389.417C489.692 396.324 496.143 403.448 505.565 406.277C516.405 409.553 527.128 405.862 529.451 398.071C531.774 390.281 524.862 381.319 514.022 378.043C503.181 374.797 492.458 378.458 490.105 386.249C489.808 387.306 489.661 388.362 489.665 389.417ZM527.207 394.883C527.21 395.697 527.092 396.512 526.854 397.297C524.948 403.638 515.73 406.509 506.309 403.68C496.887 400.851 490.796 393.394 492.702 387.023C494.608 380.682 503.826 377.811 513.247 380.64C521.491 383.142 527.185 389.152 527.207 394.883Z" fill="#F7E300"/>
<path d="M490.045 386.158C490.045 386.339 490.046 386.551 490.047 386.732C490.274 390.742 492.67 394.382 496.842 396.93C500.833 399.388 505.995 400.574 511.393 400.282C522.701 399.666 531.511 392.544 531.088 384.432C530.861 380.421 528.464 376.781 524.292 374.233C520.301 371.776 515.139 370.589 509.742 370.881L509.807 372.238L509.742 370.881C504.344 371.174 499.344 372.942 495.675 375.852C492.007 378.701 490.03 382.358 490.045 386.158ZM528.375 385.015C528.4 391.44 520.851 397.049 511.232 397.598C506.377 397.858 501.788 396.82 498.251 394.663C494.865 392.594 492.924 389.737 492.761 386.6C492.598 383.494 494.215 380.412 497.312 377.987C500.56 375.441 505.048 373.885 509.873 373.595C514.728 373.335 519.316 374.373 522.853 376.531C526.239 378.599 528.181 381.457 528.374 384.593C528.374 384.714 528.375 384.865 528.375 385.015Z" fill="#F7E300"/>
<path d="M489.186 382.603C489.192 384.201 489.53 385.768 490.199 387.244C491.902 390.887 495.501 393.376 500.3 394.202C504.917 394.999 510.162 394.194 515.04 391.883C519.917 389.603 523.915 386.088 526.252 382.038C528.679 377.806 529.084 373.491 527.381 369.848C523.945 362.502 512.807 360.404 502.541 365.209C494.351 369.04 489.161 376.148 489.186 382.603ZM525.71 374.53C525.718 376.49 525.123 378.574 523.894 380.659C521.827 384.257 518.249 387.347 513.854 389.415C509.458 391.483 504.786 392.224 500.712 391.516C496.818 390.838 493.915 388.918 492.607 386.088C489.809 380.067 494.754 371.814 503.666 367.647C512.578 363.481 522.114 364.982 524.912 370.974C525.46 372.088 525.705 373.293 525.71 374.53Z" fill="#71D9CE"/>
<path d="M486.754 377.394C486.764 380.109 487.558 382.639 489.165 384.684C491.68 387.841 495.728 389.424 500.583 389.104C505.257 388.814 510.165 386.805 514.405 383.441C518.645 380.076 521.705 375.752 523.045 371.252C524.444 366.572 523.824 362.261 521.309 359.134C518.793 355.977 514.746 354.394 509.891 354.714C505.217 355.004 500.308 357.013 496.069 360.378C490.115 365.166 486.732 371.694 486.754 377.394ZM521.096 366.525C521.101 367.791 520.895 369.149 520.478 370.538C519.287 374.494 516.557 378.365 512.738 381.366C508.95 384.397 504.583 386.193 500.452 386.45C496.502 386.707 493.24 385.483 491.3 383.047C487.178 377.845 490.098 368.665 497.796 362.542C501.585 359.512 505.951 357.715 510.082 357.458C514.033 357.202 517.295 358.426 519.234 360.861C520.447 362.395 521.088 364.323 521.096 366.525Z" fill="#71D9CE"/>
<path d="M481.813 371.2C481.824 373.975 482.648 376.505 484.254 378.52C489.315 384.894 500.624 384.338 509.494 377.276C518.365 370.245 521.459 359.314 516.398 352.97C513.882 349.813 509.835 348.23 504.98 348.55C500.306 348.839 495.398 350.849 491.158 354.213C486.918 357.577 483.858 361.902 482.518 366.401C482.072 368.032 481.807 369.662 481.813 371.2ZM516.185 360.36C516.204 365.216 513.18 370.928 507.827 375.171C500.13 381.294 490.511 382.024 486.389 376.853C484.449 374.417 484.014 370.98 485.145 367.176C486.336 363.22 489.066 359.349 492.885 356.348C496.674 353.317 501.04 351.521 505.171 351.264C509.122 351.007 512.384 352.231 514.323 354.667C515.566 356.261 516.177 358.219 516.185 360.36Z" fill="#71D9CE"/>
<path d="M476.091 365.673C476.109 370.498 477.934 374.412 481.2 376.692C484.497 379.002 488.841 379.347 493.419 377.67C497.817 376.055 501.966 372.721 505.056 368.306C511.565 359.021 511.431 347.681 504.777 343.032C501.481 340.722 497.136 340.377 492.558 342.053C488.161 343.669 484.012 347.002 480.922 351.418C477.832 355.833 476.102 360.847 476.12 365.552C476.09 365.582 476.091 365.612 476.091 365.673ZM507.142 354.062C507.158 358.043 505.697 362.603 502.788 366.746C499.998 370.708 496.33 373.678 492.444 375.111C488.71 376.482 485.27 376.224 482.7 374.454C480.159 372.685 478.76 369.553 478.745 365.632C478.745 365.602 478.745 365.572 478.744 365.542C478.759 361.41 480.28 356.94 483.069 352.948C485.859 348.986 489.527 346.016 493.413 344.584C497.147 343.212 500.587 343.47 503.157 345.24C505.819 347.099 507.128 350.322 507.142 354.062Z" fill="#71D9CE"/>
<path d="M468.743 360.875C468.765 366.545 471.016 371.392 475.247 373.668C482.41 377.501 492.586 372.516 497.946 362.512C500.491 357.766 501.587 352.574 501.057 347.902C500.495 343.048 498.219 339.347 494.652 337.46C491.086 335.544 486.743 335.711 482.409 337.93C478.224 340.057 474.529 343.841 471.954 348.587C469.768 352.697 468.728 356.984 468.743 360.875ZM498.472 350.264C498.486 353.853 497.475 357.688 495.558 361.254C490.917 369.928 482.368 374.425 476.535 371.28C470.702 368.136 469.7 358.549 474.341 349.874C476.617 345.613 479.922 342.222 483.624 340.338C487.146 338.545 490.614 338.381 493.365 339.848C496.115 341.315 497.876 344.294 498.343 348.244C498.436 348.907 498.469 349.57 498.472 350.264Z" fill="#CFC7FF"/>
<path d="M461.371 357.284C461.377 358.973 461.565 360.631 461.933 362.198C463.067 366.929 465.764 370.357 469.51 371.821C473.256 373.284 477.566 372.604 481.628 369.904C485.538 367.295 488.78 363.09 490.751 358.076C494.903 347.534 492.116 336.535 484.534 333.579C476.982 330.622 467.445 336.781 463.323 347.293C462.009 350.616 461.358 354.027 461.371 357.284ZM489.959 348.126C489.97 350.961 489.408 354.07 488.214 357.121C486.452 361.621 483.571 365.372 480.111 367.678C476.802 369.862 473.396 370.449 470.496 369.314C467.596 368.179 465.474 365.412 464.554 361.585C463.604 357.547 464.038 352.84 465.8 348.339C469.384 339.187 477.326 333.727 483.518 336.146C487.626 337.729 489.937 342.455 489.959 348.126Z" fill="#CFC7FF"/>
<path d="M453.188 355.204C453.195 356.893 453.382 358.551 453.75 360.118C454.884 364.849 457.582 368.277 461.327 369.741C465.073 371.204 469.384 370.524 473.445 367.824C477.356 365.215 480.597 361.01 482.568 355.996C486.72 345.453 483.933 334.455 476.351 331.498C468.8 328.542 459.262 334.701 455.14 345.213C453.826 348.536 453.176 351.947 453.188 355.204ZM481.776 346.015C481.787 348.85 481.226 351.959 480.031 355.01C478.269 359.511 475.388 363.262 471.928 365.568C468.619 367.752 465.213 368.338 462.313 367.203C459.413 366.068 457.291 363.302 456.372 359.475C455.421 355.437 455.855 350.73 457.618 346.229C461.202 337.076 469.143 331.617 475.336 334.036C479.444 335.649 481.754 340.345 481.776 346.015Z" fill="#CFC7FF"/>
<path d="M485.111 397.277C485.131 402.404 487.536 408.276 492.048 413.085C495.773 417.022 500.338 419.718 504.926 420.696C509.696 421.703 513.945 420.722 516.86 417.966C519.805 415.21 521.026 411.043 520.313 406.22C519.632 401.577 517.231 396.851 513.536 392.915C505.783 384.65 494.645 382.461 488.725 388.033C486.29 390.335 485.097 393.627 485.111 397.277ZM517.82 408.733C517.831 411.719 516.876 414.256 515.012 415.982C512.728 418.132 509.353 418.839 505.489 418.04C501.414 417.181 497.363 414.783 494.032 411.237C487.309 404.085 485.764 394.56 490.602 390.017C495.441 385.474 504.829 387.61 511.583 394.762C514.914 398.308 517.072 402.492 517.661 406.592C517.754 407.346 517.817 408.039 517.82 408.733Z" fill="#F7E300"/>
<path d="M473.164 365.231C475.832 360.847 476.863 354.6 475.511 348.121C474.405 342.847 471.944 338.151 468.524 334.937C464.982 331.603 460.874 330.201 456.926 331C452.979 331.83 449.762 334.738 447.819 339.209C445.966 343.529 445.564 348.809 446.64 354.083C448.945 365.174 457.269 372.863 465.225 371.203C468.54 370.557 471.276 368.345 473.164 365.231ZM451.285 338.381C452.843 335.812 454.978 334.175 457.449 333.652C460.493 333.007 463.755 334.171 466.661 336.904C469.658 339.758 471.876 343.942 472.859 348.674C474.857 358.287 471.181 367.229 464.702 368.581C458.223 369.933 451.29 363.174 449.322 353.56C448.339 348.798 448.683 344.092 450.327 340.285C450.595 339.59 450.925 338.956 451.285 338.381Z" fill="#CFC7FF"/>
<path d="M281.476 404.292C296.32 404.292 308.353 392.259 308.353 377.415C308.353 362.572 296.32 350.539 281.476 350.539C266.633 350.539 254.6 362.572 254.6 377.415C254.6 392.259 266.633 404.292 281.476 404.292Z" fill="#F7E300"/>
<path d="M199.699 355.305C209.741 355.305 217.882 347.164 217.882 337.122C217.882 327.08 209.741 318.94 199.699 318.94C189.657 318.94 181.517 327.08 181.517 337.122C181.517 347.164 189.657 355.305 199.699 355.305Z" fill="#F7E300"/>
<path d="M289.155 351.642C279.887 349.126 268.766 348.906 256.497 345.508C248.73 343.345 239.903 340.212 232.842 336.505C224.104 331.915 212.718 323.044 208.04 320.97C196.963 316.027 178.383 334.254 183.282 344.801C188.048 355.084 198.816 367.706 213.424 379.445C234.519 396.436 259.322 404.998 280.902 404.204C303.278 403.365 289.155 351.642 289.155 351.642Z" fill="#F7E300"/>
<path d="M543.412 102.904L555.779 100.912C559.255 100.361 561.075 96.5263 559.427 93.4569L553.373 82.4141C552.68 81.1471 552.973 79.5002 554.129 78.5686L563.822 70.5158C566.538 68.257 566.201 64.0218 563.157 62.2608L552.919 56.1577C551.636 55.4076 551.12 53.8041 551.625 52.4154L555.883 41.2978C557.154 38.0413 554.753 34.4933 551.252 34.3981L539.103 34.0865C537.619 34.0414 536.401 32.9845 536.18 31.4966L534.334 19.4697C533.785 15.9908 530.016 14.1306 526.897 15.7708L515.894 21.6796C514.628 22.3745 512.993 22.0308 512.052 20.9254L504.214 11.2692C502.009 8.56338 497.788 8.85063 495.936 11.8248L489.576 22.2869C488.826 23.5708 487.223 24.0882 485.847 23.5319L474.455 19.1083C471.202 17.8371 467.667 20.1906 467.57 23.694L467.23 36.2225C467.185 37.7078 466.128 38.9272 464.693 39.1593L452.315 41.2022C448.89 41.7635 447.019 45.588 448.718 48.6681L454.771 59.7109C455.465 60.9779 455.172 62.6248 454.016 63.5564L444.322 71.6092C441.607 73.868 441.944 78.1032 444.987 79.8642L455.226 85.9673C456.509 86.7174 457.025 88.3209 456.52 89.7096L452.262 100.827C450.991 104.084 453.392 107.632 456.893 107.727L469.042 108.039C470.526 108.084 471.744 109.14 471.965 110.628L473.811 122.655C474.36 126.134 478.129 127.994 481.248 126.354L492.251 120.445C493.517 119.751 495.152 120.094 496.093 121.2L503.972 130.918C506.177 133.623 510.398 133.336 512.25 130.362L518.61 119.9C519.359 118.616 520.962 118.099 522.338 118.655L533.73 123.079C536.984 124.35 540.519 121.996 540.615 118.493L540.955 105.964C540.92 104.355 541.976 103.136 543.412 102.904Z" fill="#F7E300"/>
<defs>
<linearGradient id="paint0_linear" x1="506.73" y1="229.199" x2="385.389" y2="353.572" gradientUnits="userSpaceOnUse">
<stop stop-color="#CFC7FF"/>
<stop offset="0.1867" stop-color="#D0C2FC"/>
<stop offset="0.4212" stop-color="#D1B2F3"/>
<stop offset="0.6812" stop-color="#D498E5"/>
<stop offset="0.9578" stop-color="#D775D0"/>
<stop offset="0.9994" stop-color="#D86FCD"/>
</linearGradient>
</defs>
</svg>
