<svg width="300" height="300" viewBox="0 0 300 300" fill="none" xmlns="http://www.w3.org/2000/svg">
<path d="M164 108.5C161.138 112.805 159.651 115.274 160.721 120.332C161.325 123.184 162.239 126.672 160.952 128.872C159.611 131.165 158.193 132.157 155.541 132.297C152.977 132.432 150.639 131.927 148.923 130.017C145.483 126.187 144.983 121.691 145.105 116.538C145.199 112.629 146.609 108.595 148.217 105.975C150.629 102.047 151.968 99.9495 155.109 96.7152C160.251 91.4195 163.988 89.6505 171.014 87.3875C178.154 85.0878 183.743 84.2203 191.909 85.0675C199.681 85.8736 204.821 86.9474 211.618 90.8001C218.022 94.4298 221.812 96.918 225.247 103.428C227.143 107.022 227.969 109.36 228.151 113.419C228.318 117.171 228.292 119.562 227.421 123.216C225.609 130.816 224.27 134.594 220.596 141.489C217.255 147.762 213.814 151.27 209.059 156.553C204.304 161.836 190.905 169.336 190.09 171.7C189.765 172.645 196.872 173.912 200.637 176.391C205.16 179.369 207.544 181.6 210.501 186.136C213.999 191.502 215.909 195.65 216.667 202.01C217.451 208.594 217.701 211.299 216.509 217.821C215.138 225.322 213.396 231.325 208.722 237.35C206.689 239.969 205.148 241.134 202.505 243.131L202.497 243.138C195.197 248.654 189.648 250.141 180.592 251.456C170.468 252.927 164.608 252.389 154.677 249.931C148.422 248.383 144.192 247.165 138.929 243.448C132.643 239.009 129.718 234.745 127.547 227.363C126.166 222.665 125.946 219.719 126.566 214.862C127.185 210.019 127.141 206.449 130.638 203.043C132.718 201.018 134.254 199.526 137.157 199.472C139.304 199.432 140.542 200.115 142.357 201.264C144.649 202.715 145.569 204.157 146.889 206.527C149.058 210.421 148.908 213.317 148.832 217.773C148.768 221.529 144.971 224.376 147.157 227.244C149.343 230.113 151.069 231.236 154.053 233.322C157.038 235.408 163.691 237.03 170.142 237.279C177.236 237.552 180.565 236.922 186.781 233.492C191.68 230.789 193.568 229.391 196.674 224.737C199.818 220.028 201.187 216.244 202.327 212.935C203.78 208.717 203.563 203.881 202.144 199.651C200.163 193.744 197.315 189.8 191.514 187.527C180.333 183.146 175.752 182.625 163.623 177.917C161.688 177.166 160.612 174.094 160.36 172.034C160.076 169.708 160.869 168.205 162.315 166.361C165.227 162.644 170.165 164.055 174.686 162.691C183.955 159.895 188.744 158.213 196.295 152.155C203.011 146.768 206.072 142.771 211.24 136.022L211.482 135.705C214.366 131.939 217.12 123.791 215.78 117.09C214.77 112.035 211.96 108.561 207.5 105.975C201.813 102.678 198.386 101.812 194.5 101C190.615 100.188 185.015 99.9279 179 100.5C172.986 101.072 167.364 103.441 164 108.5Z" fill="#F7E300"/>
<path d="M164.371 205.041L146.651 214.042L140.213 201.368L157.933 192.367C161.417 190.597 165.734 191.956 167.534 195.5C169.213 198.954 167.855 203.272 164.371 205.041Z" fill="#CFC7FF"/>
<path d="M149.52 253.163L140.52 235.443L153.194 229.005L162.195 246.725C163.964 250.209 162.606 254.526 159.062 256.327C155.578 258.096 151.29 256.647 149.52 253.163Z" fill="#CFC7FF"/>
<path d="M130.298 262.927L121.297 245.207L133.971 238.769L142.972 256.489C144.742 259.973 143.383 264.29 139.839 266.091C136.415 267.83 132.067 266.411 130.298 262.927Z" fill="#CFC7FF"/>
<path d="M95.4125 240.069L113.132 231.068L106.694 218.393L88.9746 227.394C85.4907 229.164 84.0415 233.452 85.8417 236.996C87.5808 240.42 91.9286 241.838 95.4125 240.069Z" fill="#CFC7FF"/>
<path d="M143.378 249.105C128.481 256.672 110.215 250.761 102.617 235.805L92.2129 215.322L146.274 187.861L156.678 208.344C164.275 223.301 158.275 241.538 143.378 249.105Z" fill="#CFC7FF"/>
<path d="M140.693 243.818C129.1 249.707 114.879 245.067 108.99 233.474L100.904 217.556L142.951 196.198L151.068 212.176C156.956 223.769 152.286 237.93 140.693 243.818Z" fill="#F7E300"/>
<path d="M129.16 221.113C150.922 210.059 159.603 183.456 148.549 161.693C137.494 139.931 110.891 131.25 89.1288 142.305C67.3665 153.359 58.6859 179.962 69.7403 201.725C80.7946 223.487 107.398 232.168 129.16 221.113Z" fill="#CFC7FF"/>
<path d="M128.398 153.415C136.857 149.118 140.231 138.777 135.934 130.317C131.637 121.858 121.296 118.484 112.837 122.781C104.377 127.078 101.003 137.419 105.3 145.878C109.597 154.338 119.938 157.712 128.398 153.415Z" fill="#CFC7FF"/>
<path d="M74.8781 180.601C83.3376 176.304 86.7119 165.962 82.4148 157.503C78.1178 149.044 67.7766 145.669 59.3172 149.966C50.8577 154.263 47.4834 164.605 51.7805 173.064C56.0775 181.523 66.4187 184.898 74.8781 180.601Z" fill="#CFC7FF"/>
<path d="M121.013 205.075C125.226 202.935 126.907 197.785 124.767 193.572C122.627 189.358 117.476 187.678 113.263 189.818C109.05 191.958 107.37 197.108 109.51 201.322C111.65 205.535 116.8 207.215 121.013 205.075Z" fill="#F7E300"/>
</svg>
