<svg width="300" height="300" viewBox="0 0 300 300" fill="none" xmlns="http://www.w3.org/2000/svg">
<path d="M133 151C125.089 159.431 121.849 165.374 115.613 176.178C114.071 178.849 110.512 181.624 107.485 181.029C104.846 180.51 102.453 177.041 103.199 174.457C105.776 165.533 108.214 161.381 112.546 154.004L112.559 153.981C117.482 145.596 120.25 141.166 128.555 136.108C134.066 132.751 141.2 130.445 150.632 130.116C158.887 129.828 164.725 132.433 168.5 133.5C172.276 134.567 179.181 138.574 182.705 142.307C186.23 146.039 191.101 152.054 192.429 160.859C193.806 169.986 192.646 176.02 189 184.5C184.723 194.45 179.374 199.326 171.422 206.576L171.185 206.792C153.883 222.566 122.586 239.176 123.024 242.047C123.317 243.973 162.681 250.126 166.26 249.909C167.454 249.837 168.905 247.864 169.993 246.385C171.438 244.42 173.04 243.477 175.477 243.578C178.217 243.692 181.006 246.282 182.777 248.378C184.547 250.473 184.171 252.62 183.037 256.549C181.743 261.028 178.057 266.513 173.395 266.557C168.804 266.6 161.095 262.973 152.865 261.146C132.016 256.518 128.114 256.051 105.016 251.032C102.364 250.456 97.0953 248.626 95.9641 245.514C95.1309 243.222 99.5643 238.965 101.677 237.747C119.49 227.478 121.476 227.484 135.746 217.775C145.786 210.945 151.32 206.899 160.458 198.902C169.487 191 175.397 185.303 177.5 176.178C179.5 167.5 178.003 160.794 172.5 153.981C168.07 148.497 163.126 146.298 156.19 145.033C147.426 143.436 139.096 144.504 133 151Z" fill="#DE5252"/>
<path d="M157.038 94.4899L145.596 88.3911C143.053 87.0094 140.025 86.7337 137.237 87.5829L125.021 91.3041C122.234 92.1533 119.905 94.0607 118.533 96.6352L112.434 108.077L108.112 109.394C101.409 111.436 97.6186 118.546 99.6605 125.249C101.702 131.953 108.813 135.743 115.516 133.701L168.765 117.48C175.468 115.438 179.258 108.327 177.216 101.624C175.174 94.9212 168.064 91.1312 161.361 93.1731L157.038 94.4899Z" fill="#F7E300"/>
<path d="M128.596 142.483C135.049 140.518 138.686 133.693 136.721 127.241C134.755 120.788 127.931 117.151 121.478 119.116C115.026 121.082 111.388 127.906 113.354 134.359C115.32 140.811 122.144 144.449 128.596 142.483Z" fill="#71D9CE"/>
<path d="M162.833 132.054C169.285 130.089 172.923 123.264 170.957 116.812C168.992 110.359 162.167 106.722 155.715 108.687C149.262 110.653 145.625 117.477 147.59 123.93C149.556 130.382 156.38 134.02 162.833 132.054Z" fill="#71D9CE"/>
</svg>
