<svg width="1440" height="151" viewBox="0 0 1440 151" fill="none" xmlns="http://www.w3.org/2000/svg">
<path fill-rule="evenodd" clip-rule="evenodd" d="M0 14.5698C0 14.5698 92.5674 46.3361 158 59.5C242.5 76.5 306.183 87.2529 367.5 92C445 98 534.466 92.4529 589 84.5C661 74 681 77 725.5 88.5C745.224 93.5973 763.868 99.4804 784.174 105.888C809.681 113.937 837.811 122.813 874 132C937.98 148.241 990.5 150.5 1024 150.5C1063.29 150.5 1116.93 142.887 1169.64 135.406L1169.64 135.406L1172.5 135C1235.94 125.999 1271.45 119.937 1315.58 112.405C1322.92 111.151 1330.51 109.856 1338.5 108.5C1371.09 102.971 1418.71 98.0858 1440 96.0312V0H0V14.5698Z" fill="#443F80"/>
</svg>
