<svg width="172" height="156" viewBox="0 0 172 156" fill="none" xmlns="http://www.w3.org/2000/svg">
<path d="M30.7 66.5994L90.5689 32.6197L90.5689 84.3981L30.5 119L30.7 66.5994Z" fill="#9B5248"/>
<path d="M90.5684 32.6196L150.824 66.7884L150.824 119.187L90.5684 84.398L90.5684 32.6196Z" fill="#C56A5D"/>
<path d="M58.772 45.9372C61.8114 46.8787 65.0386 45.1779 65.98 42.1384C66.9214 39.099 65.2206 35.8718 62.1811 34.9304C59.1417 33.989 55.9146 35.6898 54.9732 38.7292C54.0317 41.7687 55.7325 44.9958 58.772 45.9372Z" fill="#CFC7FF"/>
<path d="M73.5923 53.9407C76.6317 54.8821 79.8589 53.1813 80.8003 50.1418C81.7417 47.1024 80.0409 43.8752 77.0015 42.9338C73.962 41.9924 70.7349 43.6932 69.7935 46.7327C68.852 49.7721 70.5528 52.9992 73.5923 53.9407Z" fill="#CFC7FF"/>
<path d="M88.688 62.2629C91.7274 63.2043 94.9546 61.5035 95.896 58.4641C96.8374 55.4246 95.1366 52.1975 92.0972 51.2561C89.0577 50.3147 85.8306 52.0155 84.8892 55.0549C83.9478 58.0944 85.6485 61.3215 88.688 62.2629Z" fill="#CFC7FF"/>
<path d="M99.9595 74.7782C102.999 75.7196 106.226 74.0188 107.167 70.9794C108.109 67.9399 106.408 64.7128 103.369 63.7714C100.329 62.8299 97.1021 64.5307 96.1607 67.5702C95.2192 70.6096 96.92 73.8368 99.9595 74.7782Z" fill="#CFC7FF"/>
<path d="M125.152 111.943C119.333 104.764 115.556 96.5807 111.929 86.8546C108.332 77.1842 100.725 64.3082 92.3731 58.2148C92.3304 58.2015 92.301 58.1457 92.301 58.1457C87.7365 54.7682 82.4079 52.6502 79.5537 51.2986C73.9732 48.6351 68.2535 46.7232 62.7588 42.1225C53.2085 34.1617 53.9043 23.7639 51.0096 15.9009C48.1709 8.00838 41.2559 4.37042 35.0483 3.4296C25.3252 1.91417 21.8461 6.35368 22.138 10.091C22.4268 13.687 26.6319 16.1116 29.1448 17.3575C32.1859 18.8604 35.0004 20.34 37.0184 22.882C41.4179 28.4526 38.1945 40.2183 34.8 53.8947C32.6031 62.799 34.6932 70.6933 39.5548 76.7343L36.3703 87.0159C35.6699 89.277 36.9362 91.6797 39.1973 92.38C41.4584 93.0803 43.8611 91.8141 44.5614 89.553L46.5831 83.0257C47.3997 83.5591 48.2296 84.0499 49.0726 84.4981C49.5876 84.7978 50.1158 85.0549 50.6866 85.3253L48.9688 90.8713C48.2685 93.1324 49.5348 95.5351 51.7958 96.2354C54.0569 96.9358 56.4596 95.6695 57.1599 93.4084L58.706 88.4169C60.1565 88.8662 61.607 89.3155 63.1266 89.6926L61.5541 94.7694C60.8538 97.0305 62.1201 99.4332 64.3812 100.134C66.6423 100.834 69.0449 99.5676 69.7453 97.3065L71.582 91.3764C73.1544 91.5829 74.7269 91.7895 76.2405 91.8842L74.1395 98.6675C73.4391 100.929 74.7054 103.331 76.9665 104.032C79.2276 104.732 81.6302 103.466 82.3306 101.205L85.3169 91.5629C85.964 91.4361 86.6111 91.3092 87.2156 91.1691C91.6173 90.2415 92.3784 88.8408 95.9073 89.3728C97.2532 89.5559 98.1684 90.0731 99.8035 91.8887C102.641 95.1053 106.666 102.337 112.23 108.829C122.485 120.702 136.028 121.811 136.028 121.811C136.028 121.811 130.97 119.122 125.152 111.943Z" fill="#71D9CE"/>
<path d="M56.2856 69.059C58.0763 69.6136 59.9775 68.6116 60.5321 66.8209C61.0868 65.0302 60.0848 63.129 58.2941 62.5743C56.5034 62.0197 54.6021 63.0217 54.0475 64.8124C53.4929 66.6031 54.4949 68.5043 56.2856 69.059Z" fill="#F7E300"/>
<path d="M73.664 69.8597C77.7402 71.1222 82.068 68.8413 83.3306 64.7652C84.5931 60.689 82.3122 56.3611 78.236 55.0986C74.1599 53.8361 69.832 56.117 68.5695 60.1932C67.307 64.2693 69.5879 68.5972 73.664 69.8597Z" fill="#F7E300"/>
<path d="M88.3334 74.7302C90.1241 75.2849 92.0254 74.2828 92.58 72.4922C93.1346 70.7015 92.1326 68.8002 90.3419 68.2456C88.5512 67.691 86.65 68.693 86.0954 70.4837C85.5407 72.2743 86.5427 74.1756 88.3334 74.7302Z" fill="#F7E300"/>
<path d="M55.7732 55.014C58.2943 55.7949 60.9711 54.3842 61.7519 51.8631C62.5328 49.342 61.1221 46.6652 58.601 45.8843C56.0799 45.1035 53.4031 46.5142 52.6223 49.0353C51.8414 51.5564 53.2521 54.2332 55.7732 55.014Z" fill="#F7E300"/>
<path d="M79.8837 91.295C81.553 92.1217 83.5683 91.4303 84.3804 89.762L125.483 6.84329C126.31 5.17499 125.618 3.16102 123.949 2.34941C122.28 1.52278 120.264 2.21415 119.452 3.88244L78.3496 86.8012C77.5225 88.4695 78.2143 90.4834 79.8837 91.295Z" fill="url(#paint0_linear)"/>
<path d="M140.011 26.878C140.838 25.2097 140.146 23.1957 138.477 22.3841L120.58 13.5767C118.91 12.7501 116.895 13.4414 116.083 15.1097C115.256 16.778 115.948 18.792 117.617 19.6036L135.514 28.396C137.168 29.2226 139.184 28.5463 140.011 26.878Z" fill="#71D9CE"/>
<path d="M132.747 41.6371C133.574 39.9688 132.882 37.9548 131.213 37.1432L113.316 28.3509C111.647 27.5242 109.631 28.2156 108.819 29.8839C107.992 31.5522 108.684 33.5662 110.353 34.3778L128.25 43.1701C129.905 43.9817 131.92 43.3054 132.747 41.6371Z" fill="#71D9CE"/>
<path d="M125.483 56.3963C126.311 54.728 125.619 52.714 123.949 51.9024L106.052 43.11C104.383 42.2834 102.368 42.9748 101.556 44.6431C100.729 46.3114 101.42 48.3253 103.09 49.1369L120.987 57.9293C122.641 58.7409 124.656 58.0495 125.483 56.3963Z" fill="#71D9CE"/>
<path d="M118.219 71.1553C119.046 69.487 118.354 67.473 116.685 66.6614L98.7878 57.8691C97.1184 57.0424 95.1032 57.7338 94.291 59.4021C93.4639 61.0704 94.1557 63.0844 95.8251 63.896L113.722 72.6883C115.376 73.4999 117.392 72.8086 118.219 71.1553Z" fill="#71D9CE"/>
<path d="M110.955 85.9145C111.782 84.2462 111.09 82.2322 109.421 81.4206L91.5241 72.6282C89.8548 71.8016 87.8395 72.493 87.0274 74.1613C86.2002 75.8295 86.892 77.8435 88.5614 78.6551L106.458 87.4475C108.113 88.2591 110.128 87.5677 110.955 85.9145Z" fill="#71D9CE"/>
<path d="M100.954 101.651C102.623 102.477 104.639 101.786 105.451 100.118L147.2 15.2901C148.027 13.6218 147.335 11.6078 145.666 10.7962C143.997 9.96956 141.981 10.6609 141.169 12.3292L99.42 97.1567C98.5928 98.825 99.2846 100.839 100.954 101.651Z" fill="#F7E300"/>
<path d="M94.5658 50.5849L77.5334 48.1111C76.0838 47.8964 75.0711 46.5578 75.2733 45.093L76.7778 34.6715C76.9901 33.2266 78.3304 32.2196 79.7998 32.4244L96.8322 34.8982C98.2818 35.113 99.2945 36.4516 99.0922 37.9163L97.5828 48.3527C97.3706 49.7976 96.0303 50.8046 94.5658 50.5849Z" fill="white"/>
<path d="M76.876 48.6021C76.2351 48.3906 75.6877 47.996 75.2737 47.4477C74.7448 46.7463 74.518 45.881 74.6533 45.0199L76.1478 34.5787C76.4082 32.7873 78.075 31.5422 79.8721 31.8058L96.9194 34.2845C98.7165 34.548 99.9687 36.2126 99.7082 38.004L98.1988 48.4403C98.0784 49.3063 97.6103 50.074 96.908 50.5998C96.2057 51.1256 95.3384 51.35 94.4746 51.2132L77.4422 48.7394C77.2386 48.7052 77.0548 48.6611 76.876 48.6021ZM97.0985 35.5951C96.9942 35.5606 96.87 35.5362 96.7459 35.5117L79.6986 33.033C78.5965 32.867 77.5479 33.6409 77.3987 34.7443L75.8893 45.1807C75.8122 45.7151 75.9484 46.2541 76.2677 46.6888C76.587 47.1235 77.0695 47.4144 77.6105 47.4776L94.653 49.9712C95.1891 50.0492 95.7293 49.9146 96.1646 49.5971C96.5998 49.2796 96.8906 48.7991 96.9528 48.2598L98.4622 37.8234C98.6069 36.8337 98.0077 35.895 97.0985 35.5951Z" fill="#71D9CE"/>
<path d="M94.988 50.6581L83.6645 49.0138C82.4334 48.8382 81.5852 47.7021 81.7736 46.4798L83.4135 35.1972C83.5869 33.97 84.7245 33.1267 85.9507 33.3171L97.2743 34.9615C98.5054 35.1371 99.3535 36.2732 99.1651 37.4955L97.5302 48.7632C97.3567 49.9904 96.2191 50.8337 94.988 50.6581Z" fill="white"/>
<path d="M83.1015 49.5197C81.8048 49.0919 80.961 47.7925 81.1586 46.3921L82.7835 35.1046C82.8994 34.3525 83.2885 33.6739 83.8969 33.2324C84.5102 32.776 85.2685 32.5816 86.0231 32.6988L97.3466 34.3431C98.9103 34.5626 99.998 36.0247 99.7812 37.5834L98.1563 48.8709C98.0403 49.6231 97.6512 50.3016 97.0428 50.7432C96.4295 51.1995 95.6713 51.394 94.9167 51.2768L83.5932 49.6325C83.4194 49.6081 83.2506 49.5688 83.1015 49.5197ZM97.4463 35.644C97.3568 35.6145 97.2625 35.5998 97.1682 35.5852L85.8496 33.926C85.4227 33.8675 84.9915 33.9723 84.6601 34.2252C84.3139 34.4733 84.0873 34.8596 84.0295 35.2852L82.4046 46.5726C82.2793 47.4535 82.8879 48.2636 83.7715 48.3904L95.0951 50.0347C95.522 50.0932 95.9532 49.9885 96.2845 49.7355C96.6308 49.4874 96.8574 49.1011 96.9151 48.6755L98.5401 37.3881C98.646 36.6161 98.1766 35.8849 97.4463 35.644Z" fill="#71D9CE"/>
<path d="M86.459 45.7532C85.7512 44.9434 85.4541 43.8902 85.6024 42.5889C85.6261 42.3167 85.6937 41.8615 85.7804 41.2479C85.8672 40.6343 85.9347 40.179 85.998 39.887C86.2211 38.6597 86.7878 37.7433 87.7133 37.1923C88.6437 36.6265 89.8088 36.451 91.2137 36.651C92.1619 36.7826 92.9618 37.063 93.6382 37.4673C94.2948 37.8815 94.7879 38.3406 95.0878 38.8842C95.3927 39.4129 95.5189 39.9321 95.4664 40.4417C95.4519 40.5358 95.4125 40.6051 95.3284 40.6597C95.2592 40.7192 95.17 40.7392 95.0906 40.7294L92.7872 40.3977C92.6928 40.383 92.6183 40.3584 92.5685 40.3091C92.5187 40.2597 92.4688 40.2103 92.4288 40.1313C92.3433 39.8396 92.1983 39.5777 91.9641 39.3357C91.7299 39.0938 91.382 38.9461 90.9055 38.8877C89.7538 38.7218 89.0762 39.2228 88.8678 40.4056C88.8094 40.6827 88.7516 41.1083 88.6647 41.6724C88.5777 42.2366 88.53 42.6819 88.4865 42.964C88.3528 44.2208 88.8618 44.9321 90.0284 45.1029C90.5944 45.1908 91.0852 45.1057 91.4613 44.8675C91.8373 44.6293 92.0688 44.2281 92.1458 43.6442L92.1844 43.377L90.8589 43.1867C90.7497 43.1672 90.6652 43.1228 90.5953 43.0339C90.5255 42.945 90.5053 42.856 90.5247 42.7471L90.6886 41.5991C90.708 41.4902 90.7523 41.406 90.8413 41.3366C90.9303 41.2672 91.0195 41.2472 91.1287 41.2668L94.8966 41.8182C95.0059 41.8377 95.0904 41.8821 95.1602 41.971C95.2301 42.0599 95.2503 42.1489 95.2309 42.2578L94.98 43.97C94.8545 44.8013 94.5597 45.4945 94.0808 46.0446C93.6018 46.5947 92.9783 46.9818 92.23 47.196C91.4669 47.4053 90.6237 47.4565 89.6655 47.3051C88.2357 47.0804 87.1669 46.5631 86.459 45.7532Z" fill="#F7E300"/>
<path d="M110.187 94.6453L100.277 93.9L100.811 86.8123L110.72 87.5575C112.668 87.704 114.162 89.4041 114.013 91.386C113.835 93.2982 112.135 94.7918 110.187 94.6453Z" fill="#CFC7FF"/>
<path d="M91.3631 111.37L92.1084 101.461L99.1962 101.994L98.4509 111.903C98.3044 113.851 96.6043 115.345 94.6224 115.196C92.6741 115.05 91.2166 113.318 91.3631 111.37Z" fill="#CFC7FF"/>
<path d="M80.6141 110.562L81.3594 100.652L88.4472 101.185L87.7019 111.095C87.5554 113.043 85.8553 114.537 83.8734 114.388C81.9587 114.244 80.4676 112.51 80.6141 110.562Z" fill="#CFC7FF"/>
<path d="M71.6243 91.7451L81.5338 92.4904L82.0668 85.4026L72.1574 84.6573C70.2091 84.5108 68.4779 85.9683 68.3289 87.9502C68.1849 89.8649 69.676 91.5986 71.6243 91.7451Z" fill="#CFC7FF"/>
<path d="M89.7887 108.043C81.458 107.416 75.1804 100.154 75.8094 91.7896L76.6709 80.335L106.903 82.6086L106.042 94.0633C105.413 102.428 98.1194 108.669 89.7887 108.043Z" fill="#CFC7FF"/>
<path d="M90.0119 105.086C83.5288 104.599 78.6515 98.9284 79.1391 92.4453L79.8086 83.5436L103.323 85.312L102.651 94.2473C102.163 100.73 96.495 105.574 90.0119 105.086Z" fill="#F7E300"/>
<path d="M90.9665 92.3889C103.137 93.3042 113.744 84.1804 114.66 72.0103C115.575 59.8401 106.451 49.2323 94.2811 48.3171C82.1109 47.4018 71.5031 56.5256 70.5879 68.6957C69.6726 80.8658 78.7964 91.4737 90.9665 92.3889Z" fill="#CFC7FF"/>
<path d="M108.19 63.2475C112.921 63.6033 117.045 60.0567 117.4 55.3259C117.756 50.5951 114.21 46.4717 109.479 46.1159C104.748 45.7601 100.625 49.3067 100.269 54.0375C99.9131 58.7682 103.46 62.8917 108.19 63.2475Z" fill="#CFC7FF"/>
<path d="M78.2608 60.9964C82.9915 61.3522 87.115 57.8056 87.4708 53.0748C87.8266 48.344 84.28 44.2206 79.5492 43.8648C74.8184 43.509 70.695 47.0556 70.3392 51.7864C69.9834 56.5171 73.53 60.6406 78.2608 60.9964Z" fill="#CFC7FF"/>
<path d="M91.641 83.4199C93.9971 83.5971 96.0508 81.8308 96.228 79.4747C96.4052 77.1186 94.6388 75.0649 92.2827 74.8877C89.9266 74.7105 87.873 76.4769 87.6958 78.833C87.5186 81.1891 89.2849 83.2427 91.641 83.4199Z" fill="#F7E300"/>
<path d="M90.5684 102.197L150.824 67.4082L150.824 119.187L91 154L90.5684 102.197Z" fill="#E07C6E"/>
<path d="M30.6997 66.5991L90.9553 101.388L91 154L30.5 119L30.6997 66.5991Z" fill="#C56A5D"/>
<path d="M127.398 84.2961C127.618 83.3157 127.679 82.2424 127.54 81.1088C127.223 78.4546 125.914 75.7115 123.864 73.414C121.814 71.1164 119.245 69.4991 116.642 68.8734C113.94 68.2257 111.487 68.7118 109.779 70.24C108.054 71.7735 107.293 74.1316 107.626 76.8893C107.943 79.5434 109.251 82.2865 111.301 84.5841C113.352 86.8816 115.921 88.4989 118.524 89.1247C121.226 89.7723 123.679 89.2862 125.387 87.7581C126.396 86.8608 127.074 85.6741 127.398 84.2961ZM109.282 74.0533C109.54 72.9694 110.054 72.0549 110.812 71.386C112.144 70.2005 114.095 69.8443 116.285 70.3712C118.589 70.9146 120.864 72.3571 122.713 74.4309C124.562 76.5047 125.729 78.9315 126.003 81.2913C126.277 83.5422 125.685 85.4265 124.353 86.612C123.022 87.7975 121.071 88.1538 118.881 87.6268C116.577 87.0834 114.302 85.6409 112.453 83.5671C110.604 81.4933 109.437 79.0665 109.163 76.7067C109.045 75.7475 109.095 74.8594 109.282 74.0533Z" fill="#F7E300"/>
<path d="M126.202 85.8905C127.103 82.0343 124.458 77.2292 119.602 74.4092C114.006 71.1628 107.554 71.7945 105.231 75.7953C102.897 79.818 105.562 85.7238 111.158 88.9702C116.754 92.2165 123.207 91.5848 125.524 87.5676C125.857 87.0397 126.065 86.4624 126.202 85.8905ZM106.067 77.8783C106.171 77.4262 106.351 76.9852 106.581 76.5823C108.488 73.3 113.976 72.9336 118.831 75.7537C123.687 78.5738 126.092 83.531 124.201 86.8079C122.294 90.0903 116.806 90.4567 111.951 87.6366C107.699 85.1608 105.325 81.0646 106.067 77.8783Z" fill="#F7E300"/>
<path d="M125.568 87.644C125.59 87.546 125.622 87.4262 125.639 87.3118C126.052 85.0512 125.184 82.7067 123.226 80.7417C121.327 78.8476 118.611 77.497 115.582 76.9577C109.214 75.8187 103.368 78.6092 102.554 83.1631C102.141 85.4236 103.009 87.7682 104.967 89.7332C106.866 91.6272 109.582 92.9778 112.611 93.5171L112.743 92.7654L112.611 93.5171C115.639 94.0564 118.659 93.7456 121.102 92.6274C123.479 91.5309 125.073 89.7682 125.568 87.644ZM104.112 83.2094C104.958 79.6255 109.887 77.5199 115.307 78.4829C118.031 78.9781 120.459 80.1702 122.123 81.8513C123.722 83.4452 124.427 85.299 124.119 87.053C123.811 88.807 122.506 90.2923 120.445 91.2477C118.285 92.2356 115.615 92.5034 112.88 92.03C110.157 91.5349 107.729 90.3428 106.064 88.6617C104.465 87.0678 103.76 85.2139 104.068 83.46C104.074 83.3673 104.085 83.2911 104.112 83.2094Z" fill="#F7E300"/>
<path d="M90.5 101.5L150.824 66.6931L165 87.7281L105.131 122.517L90.5 101.5Z" fill="#F9998C"/>
<path d="M30.5005 66.5L91.1817 101.439L80.0335 124.223L20.0004 89.7191L30.5005 66.5Z" fill="#A85A4F"/>
<path d="M128.818 50.9145L145.733 58.8613C145.733 58.8613 146.372 59.0368 145.71 61.5628C145.056 64.0759 141.273 72.1616 141.273 72.1616C141.273 72.1616 139.828 73.4819 138.051 72.6714C136.273 71.861 122.791 65.6024 122.791 65.6024C122.791 65.6024 119.571 64.6507 120.877 61.7712C122.183 58.8917 126.649 51.2207 126.649 51.2207L128.818 50.9145Z" fill="white"/>
<path d="M125.152 63.6427C125.093 63.5073 125.082 63.3856 125.124 63.2432L127.653 53.8918C127.649 53.87 127.667 53.8443 127.671 53.8097C127.703 53.7365 127.76 53.6811 127.856 53.6523C127.939 53.6147 128.03 53.6206 128.103 53.6521L129.881 54.4626C130.139 54.584 130.236 54.7461 130.176 54.9706L128.653 60.4747L130.955 57.9414C131.14 57.7277 131.345 57.6791 131.578 57.7827L132.597 58.2595C132.83 58.3632 132.922 58.5599 132.883 58.8368L132.457 62.2298L135.625 57.4819C135.696 57.379 135.775 57.3196 135.862 57.3037C135.949 57.2878 136.053 57.3026 136.199 57.3658L137.977 58.1762C138.063 58.2167 138.118 58.274 138.134 58.361C138.159 58.4351 138.153 58.5261 138.121 58.5993L138.081 58.6854L132.647 66.713C132.567 66.8288 132.47 66.9139 132.33 66.9506C132.191 66.9873 132.044 66.9805 131.906 66.9045L130.533 66.2786C130.387 66.2155 130.293 66.1315 130.238 66.0178C130.184 65.9041 130.177 65.8043 130.191 65.7004L130.569 61.3048L127.502 64.4497C127.427 64.5308 127.335 64.5813 127.217 64.6141C127.1 64.6468 126.974 64.636 126.828 64.5728L125.467 63.9559C125.317 63.871 125.21 63.7781 125.152 63.6427Z" fill="#71D9CE"/>
<path d="M121.683 65.6923C120.564 64.9189 120.124 63.437 120.71 62.1501L125.463 51.8081C125.787 51.1196 126.351 50.5782 127.058 50.3255C127.773 50.06 128.554 50.086 129.242 50.4098L139.615 55.1461C140.303 55.4699 140.845 56.0341 141.097 56.7409C141.363 57.4566 141.337 58.2368 141.013 58.9253L136.264 69.2891C135.94 69.9776 135.376 70.5189 134.669 70.7716C133.953 71.0372 133.173 71.0111 132.485 70.6873L122.121 65.9382C121.974 65.875 121.824 65.7901 121.683 65.6923ZM139.342 56.4209C139.265 56.3676 139.179 56.3271 139.093 56.2867L128.729 51.5375C128.337 51.3618 127.895 51.3414 127.507 51.491C127.105 51.6317 126.779 51.9385 126.603 52.3303L121.854 62.694C121.485 63.5032 121.838 64.4502 122.647 64.8194L133.011 69.5685C133.403 69.7442 133.845 69.7646 134.233 69.615C134.634 69.4743 134.96 69.1675 135.136 68.7758L139.885 58.412C140.061 58.0203 140.081 57.5783 139.932 57.1898C139.807 56.8754 139.599 56.5987 139.342 56.4209Z" fill="#CFC7FF"/>
<path d="M122.001 65.8363C121.448 65.454 121.037 64.9224 120.796 64.2808C120.489 63.4603 120.517 62.5674 120.89 61.78L125.296 52.1868C126.052 50.5428 127.999 49.8164 129.643 50.5726L145.244 57.7254C146.888 58.4815 147.615 60.428 146.859 62.072L142.461 71.6523C141.705 73.2964 139.758 74.0227 138.114 73.2666L122.513 66.1137C122.332 66.0457 122.156 65.943 122.001 65.8363ZM145.023 59.0358C144.933 58.9735 144.821 58.9153 144.709 58.857L129.121 51.7131C128.114 51.2452 126.892 51.6931 126.437 52.709L122.039 62.2893C121.814 62.7799 121.792 63.3347 121.974 63.8408C122.156 64.347 122.535 64.761 123.035 64.9732L138.637 72.126C139.644 72.594 140.865 72.146 141.32 71.1301L145.718 61.5498C146.137 60.6417 145.82 59.5869 145.023 59.0358Z" fill="#CFC7FF"/>
<path d="M142.855 94.2944C143.169 95.243 143.685 96.1975 144.398 97.0869C146.056 99.1876 148.598 100.832 151.549 101.742C154.507 102.613 157.536 102.662 160.071 101.822C162.726 100.96 164.544 99.2689 165.212 97.0687C165.881 94.8685 165.297 92.4482 163.573 90.2602C161.915 88.1595 159.373 86.5149 156.422 85.6053C153.475 84.712 150.435 84.6849 147.894 85.5087C145.239 86.3704 143.422 88.0618 142.753 90.262C142.369 91.5691 142.405 92.9368 142.855 94.2944ZM163.644 93.5405C163.991 94.5873 164.033 95.6445 163.737 96.6139C163.216 98.3293 161.748 99.6509 159.6 100.345C157.354 101.071 154.656 101.039 151.999 100.25C149.352 99.4385 147.072 97.9797 145.604 96.1245C144.201 94.3566 143.708 92.4323 144.229 90.7168C144.75 89.0014 146.218 87.6798 148.366 86.9861C150.612 86.2599 153.309 86.2919 155.967 87.0811C158.614 87.8922 160.894 89.351 162.362 91.2062C162.96 91.9701 163.384 92.7554 163.644 93.5405Z" fill="#F7E300"/>
<path d="M143.033 92.3115C144.274 96.057 149.043 98.7789 154.661 98.6415C161.129 98.4948 166.296 94.5861 166.173 89.9434C166.05 85.3008 160.706 81.6625 154.238 81.8092C147.775 81.9723 142.603 85.8647 142.709 90.5128C142.735 91.1394 142.843 91.739 143.033 92.3115ZM164.388 88.6108C164.534 89.0524 164.615 89.5157 164.625 89.9843C164.717 93.766 160.221 96.9621 154.603 97.0994C148.985 97.2367 144.354 94.2699 144.257 90.4719C144.165 86.6902 148.661 83.4941 154.279 83.3568C159.199 83.251 163.358 85.5031 164.388 88.6108Z" fill="#F7E300"/>
<path d="M142.66 90.4745C142.693 90.5726 142.731 90.6871 142.763 90.7852C143.599 92.9227 145.547 94.4735 148.264 95.1158C150.868 95.7415 153.882 95.4689 156.761 94.3514C162.791 92.008 166.31 86.5762 164.639 82.2469C163.804 80.1095 161.856 78.5586 159.138 77.9163C156.534 77.2906 153.52 77.5633 150.642 78.6807L150.918 79.4059L150.642 78.6807C147.763 79.7981 145.362 81.6466 143.887 83.878C142.401 86.0768 141.977 88.4136 142.66 90.4745ZM163.27 83.0455C164.424 86.5293 161.322 90.9157 156.196 92.9228C153.606 93.9264 150.931 94.1778 148.627 93.6343C146.421 93.1128 144.859 91.9059 144.214 90.232C143.573 88.5744 143.904 86.6134 145.155 84.7466C146.466 82.7873 148.627 81.1455 151.195 80.1311C153.785 79.1275 156.461 78.8761 158.765 79.4196C160.97 79.9411 162.532 81.148 163.194 82.8165C163.216 82.8819 163.243 82.9637 163.27 83.0455Z" fill="#F7E300"/>
<path d="M141.562 88.6963C141.85 89.5632 142.311 90.3541 142.937 91.0363C144.509 92.7119 146.905 93.4244 149.657 93.0205C152.306 92.6328 155.011 91.2644 157.249 89.1433C159.492 87.0385 161.039 84.4203 161.588 81.8058C162.154 79.0769 161.608 76.6621 160.036 74.9865C156.865 71.6081 150.445 72.447 145.724 76.8796C141.958 80.4148 140.402 85.1961 141.562 88.6963ZM159.96 77.8252C160.313 78.8884 160.359 80.1254 160.063 81.4762C159.579 83.7965 158.186 86.1099 156.166 88.0135C154.147 89.917 151.742 91.1497 149.404 91.4889C147.169 91.812 145.252 91.2855 144.039 89.9812C141.45 87.2086 142.669 81.849 146.768 78.0038C150.867 74.1586 156.312 73.28 158.895 76.0362C159.39 76.5438 159.738 77.1546 159.96 77.8252Z" fill="#71D9CE"/>
<path d="M139.317 86.3002C139.805 87.7723 140.685 89.0053 141.921 89.8302C143.847 91.0977 146.326 91.2382 148.905 90.202C151.392 89.2147 153.7 87.2516 155.405 84.6718C157.109 82.0921 158.002 79.2003 157.931 76.5193C157.859 73.7293 156.757 71.4988 154.836 70.2477C152.909 68.9802 150.43 68.8397 147.851 69.8759C145.365 70.8632 143.056 72.8263 141.352 75.4061C138.97 79.0635 138.292 83.2089 139.317 86.3002ZM156.033 74.2983C156.261 74.9852 156.39 75.7592 156.41 76.5875C156.466 78.9469 155.672 81.5338 154.131 83.8414C152.612 86.16 150.56 87.9109 148.363 88.7844C146.264 89.6253 144.275 89.5401 142.789 88.5621C139.627 86.4697 139.582 80.9663 142.674 76.2747C144.193 73.9562 146.245 72.2052 148.442 71.3318C150.542 70.4909 152.53 70.5761 154.016 71.554C154.947 72.1713 155.637 73.1043 156.033 74.2983Z" fill="#71D9CE"/>
<path d="M135.534 83.8144C136.033 85.3191 136.93 86.5467 138.16 87.3553C142.04 89.9175 148.082 87.6069 151.644 82.1969C155.211 76.8033 154.95 70.3187 151.075 67.7727C149.148 66.5053 146.669 66.3647 144.09 67.4009C141.604 68.3883 139.296 70.3513 137.591 72.9311C135.886 75.5109 134.993 78.4027 135.065 81.0837C135.112 82.0482 135.258 82.9802 135.534 83.8144ZM152.272 71.8233C153.145 74.4567 152.517 78.0954 150.365 81.3501C147.273 86.0416 142.18 88.1469 139.023 86.0708C137.537 85.0929 136.69 83.3042 136.629 81.0373C136.573 78.6779 137.368 76.0911 138.908 73.7834C140.427 71.4649 142.479 69.7139 144.676 68.8405C146.775 67.9996 148.764 68.0848 150.25 69.0627C151.208 69.7073 151.887 70.6621 152.272 71.8233Z" fill="#71D9CE"/>
<path d="M131.445 81.8295C132.312 84.4464 133.998 86.2475 136.177 86.9052C138.377 87.5738 140.797 86.9895 142.985 85.266C145.086 83.6078 146.747 81.0606 147.64 78.1144C149.525 71.9168 147.438 65.7832 143 64.4405C140.8 63.7719 138.379 64.3561 136.191 66.0796C134.091 67.7379 132.43 70.285 131.536 73.2313C130.643 76.1776 130.594 79.2071 131.44 81.7586C131.429 81.7804 131.434 81.7968 131.445 81.8295ZM146.243 70.0094C146.958 72.1684 146.975 74.9038 146.132 77.6704C145.32 80.3171 143.856 82.5813 142.001 84.0492C140.217 85.4574 138.303 85.9281 136.593 85.4238C134.9 84.9141 133.584 83.4624 132.879 81.3361C132.874 81.3198 132.868 81.3034 132.863 81.2871C132.136 79.0409 132.168 76.3437 132.974 73.6806C133.785 71.0339 135.249 68.7697 137.105 67.3018C138.889 65.8936 140.802 65.4229 142.512 65.9272C144.288 66.4643 145.571 67.9813 146.243 70.0094Z" fill="#71D9CE"/>
<path d="M126.603 80.5295C127.622 83.6044 129.705 85.8366 132.407 86.3208C136.977 87.1298 141.617 82.6153 142.75 76.2312C143.29 73.2026 142.962 70.1888 141.844 67.7457C140.677 65.21 138.784 63.6047 136.512 63.2139C134.235 62.8067 131.907 63.669 129.948 65.6435C128.054 67.5419 126.719 70.2531 126.164 73.2871C125.707 75.9072 125.904 78.4195 126.603 80.5295ZM140.86 69.4877C141.505 71.434 141.638 73.6956 141.231 75.9725C140.251 81.5068 136.408 85.4669 132.682 84.7956C128.956 84.1244 126.709 79.0966 127.689 73.5622C128.168 70.8441 129.36 68.416 131.035 66.7352C132.629 65.136 134.483 64.4309 136.237 64.7391C137.991 65.0473 139.476 66.3522 140.432 68.4135C140.6 68.7571 140.736 69.1115 140.86 69.4877Z" fill="#CFC7FF"/>
<path d="M121.962 79.8896C122.266 80.8055 122.662 81.6726 123.14 82.4581C124.596 84.8254 126.67 86.2076 128.964 86.3369C131.257 86.4662 133.477 85.3313 135.203 83.1439C136.863 81.0326 137.876 78.1737 138.056 75.1009C138.437 68.6392 134.971 63.1625 130.329 62.9037C125.703 62.6395 121.618 67.6781 121.248 74.118C121.124 76.1556 121.377 78.1231 121.962 79.8896ZM135.858 69.8389C136.367 71.3763 136.615 73.164 136.508 75.0328C136.351 77.7896 135.453 80.3381 133.984 82.2045C132.575 83.9784 130.83 84.9017 129.053 84.8005C127.277 84.6993 125.634 83.574 124.455 81.6594C123.221 79.6357 122.621 77.0028 122.778 74.246C123.099 68.6397 126.441 64.2646 130.233 64.4783C132.745 64.608 134.839 66.7639 135.858 69.8389Z" fill="#CFC7FF"/>
<path d="M117.151 80.2133C117.454 81.1293 117.85 81.9963 118.329 82.7818C119.785 85.1491 121.858 86.5313 124.152 86.6606C126.446 86.79 128.666 85.655 130.391 83.4676C132.051 81.3563 133.064 78.4974 133.244 75.4246C133.626 68.9629 130.159 63.4862 125.517 63.2274C120.891 62.9633 116.807 68.0018 116.436 74.4417C116.313 76.4794 116.565 78.4469 117.151 80.2133ZM131.041 70.1462C131.551 71.6837 131.798 73.4714 131.691 75.3401C131.534 78.097 130.636 80.6455 129.167 82.5119C127.758 84.2858 126.013 85.209 124.237 85.1079C122.46 85.0067 120.817 83.8814 119.638 81.9667C118.404 79.9431 117.804 77.3102 117.962 74.5534C118.282 68.947 121.624 64.572 125.416 64.7856C127.933 64.9317 130.022 67.0713 131.041 70.1462Z" fill="#CFC7FF"/>
<path d="M141.956 97.3878C142.878 100.168 145.227 102.93 148.531 104.739C151.253 106.215 154.211 106.868 156.876 106.584C159.644 106.284 161.777 104.996 162.87 102.982C163.98 100.963 163.902 98.4831 162.659 95.9908C161.464 93.5912 159.321 91.4516 156.616 89.9702C150.938 86.8599 144.502 87.6496 142.277 91.727C141.364 93.4091 141.3 95.4087 141.956 97.3878ZM161.751 97.7983C162.288 99.4175 162.22 100.965 161.515 102.233C160.657 103.806 158.949 104.79 156.709 105.042C154.344 105.299 151.719 104.717 149.28 103.383C144.359 100.694 141.828 95.7965 143.649 92.4704C145.469 89.1443 150.946 88.6362 155.883 91.3202C158.322 92.654 160.237 94.5427 161.285 96.6641C161.469 97.0567 161.627 97.4221 161.751 97.7983Z" fill="#F7E300"/>
<path d="M129.778 82.1097C130.447 79.2557 129.898 75.6803 128.013 72.4022C126.475 69.735 124.305 67.6225 121.877 66.4849C119.361 65.3036 116.882 65.272 114.88 66.4073C112.884 67.559 111.654 69.7092 111.394 72.4822C111.155 75.1572 111.874 78.0954 113.395 80.768C116.617 86.3805 122.502 89.077 126.527 86.7628C128.213 85.8231 129.305 84.1359 129.778 82.1097ZM113.128 71.4172C113.518 69.7451 114.386 68.477 115.636 67.7545C117.174 66.8636 119.152 66.9161 121.215 67.8841C123.349 68.9013 125.297 70.7791 126.671 73.1736C129.463 78.0389 129.056 83.5469 125.778 85.432C122.5 87.317 117.535 84.8782 114.759 80.0075C113.379 77.5967 112.73 74.9801 112.946 72.6211C112.969 72.1961 113.035 71.793 113.128 71.4172Z" fill="#CFC7FF"/>
<path d="M128.356 130.133L122.594 125.714C121.316 124.717 119.669 124.287 118.051 124.5L110.961 125.435C109.343 125.648 107.882 126.488 106.887 127.785L102.468 133.546L99.9597 133.877C96.0693 134.39 93.3232 137.97 93.8362 141.861C94.3492 145.751 97.9295 148.497 101.82 147.984L132.725 143.909C136.615 143.396 139.361 139.816 138.848 135.925C138.335 132.035 134.755 129.289 130.864 129.802L128.356 130.133Z" fill="#F7E300"/>
<path d="M108.241 154.036C111.986 153.542 114.622 150.106 114.128 146.361C113.634 142.616 110.198 139.981 106.453 140.474C102.708 140.968 100.072 144.404 100.566 148.149C101.06 151.894 104.496 154.53 108.241 154.036Z" fill="#71D9CE"/>
<path d="M128.11 151.416C131.855 150.922 134.491 147.486 133.997 143.741C133.503 139.996 130.067 137.361 126.322 137.854C122.577 138.348 119.941 141.784 120.435 145.529C120.929 149.274 124.365 151.91 128.11 151.416Z" fill="#71D9CE"/>
<defs>
<linearGradient id="paint0_linear" x1="123.84" y1="2.28524" x2="80.0457" y2="91.3702" gradientUnits="userSpaceOnUse">
<stop stop-color="#CFC7FF"/>
<stop offset="0.1867" stop-color="#D0C2FC"/>
<stop offset="0.4212" stop-color="#D1B2F3"/>
<stop offset="0.6812" stop-color="#D498E5"/>
<stop offset="0.9578" stop-color="#D775D0"/>
<stop offset="0.9994" stop-color="#D86FCD"/>
</linearGradient>
</defs>
</svg>
