<svg width="165" height="155" viewBox="0 0 165 155" fill="none" xmlns="http://www.w3.org/2000/svg">
<path d="M30.7 66.5994L90.5689 32.6197L90.5689 84.3981L30.5 119L30.7 66.5994Z" fill="#507E79"/>
<path d="M90.5688 32.6196L150.824 66.7884L150.824 119.187L90.5688 84.398L90.5688 32.6196Z" fill="#67A39C"/>
<path d="M58.772 45.9372C61.8114 46.8787 65.0386 45.1779 65.98 42.1384C66.9214 39.099 65.2206 35.8718 62.1811 34.9304C59.1417 33.989 55.9146 35.6898 54.9732 38.7292C54.0317 41.7687 55.7325 44.9958 58.772 45.9372Z" fill="#CFC7FF"/>
<path d="M73.5923 53.9407C76.6317 54.8821 79.8589 53.1813 80.8003 50.1418C81.7417 47.1024 80.0409 43.8752 77.0015 42.9338C73.962 41.9924 70.7349 43.6932 69.7935 46.7327C68.852 49.7721 70.5528 52.9992 73.5923 53.9407Z" fill="#CFC7FF"/>
<path d="M88.688 62.2629C91.7274 63.2043 94.9546 61.5035 95.896 58.4641C96.8374 55.4246 95.1366 52.1975 92.0972 51.2561C89.0577 50.3147 85.8306 52.0155 84.8892 55.0549C83.9478 58.0944 85.6485 61.3215 88.688 62.2629Z" fill="#CFC7FF"/>
<path d="M99.96 74.7782C102.999 75.7196 106.227 74.0188 107.168 70.9794C108.109 67.9399 106.409 64.7128 103.369 63.7714C100.33 62.8299 97.1026 64.5307 96.1611 67.5702C95.2197 70.6096 96.9205 73.8368 99.96 74.7782Z" fill="#CFC7FF"/>
<path d="M125.152 111.943C119.333 104.764 115.556 96.5807 111.929 86.8546C108.332 77.1842 100.725 64.3082 92.3731 58.2148C92.3304 58.2015 92.301 58.1457 92.301 58.1457C87.7365 54.7682 82.4079 52.6502 79.5537 51.2986C73.9732 48.6351 68.2535 46.7232 62.7588 42.1225C53.2085 34.1617 53.9043 23.7639 51.0096 15.9009C48.1709 8.00838 41.2559 4.37042 35.0483 3.4296C25.3252 1.91417 21.8461 6.35368 22.138 10.091C22.4268 13.687 26.6319 16.1116 29.1448 17.3575C32.1859 18.8604 35.0004 20.34 37.0184 22.882C41.4179 28.4526 38.1945 40.2183 34.8 53.8947C32.6031 62.799 34.6932 70.6933 39.5548 76.7343L36.3703 87.0159C35.6699 89.277 36.9362 91.6797 39.1973 92.38C41.4584 93.0803 43.8611 91.8141 44.5614 89.553L46.5831 83.0257C47.3997 83.5591 48.2296 84.0499 49.0726 84.4981C49.5876 84.7978 50.1158 85.0549 50.6866 85.3253L48.9688 90.8713C48.2685 93.1324 49.5348 95.5351 51.7958 96.2354C54.0569 96.9358 56.4596 95.6695 57.1599 93.4084L58.706 88.4169C60.1565 88.8662 61.607 89.3155 63.1266 89.6926L61.5541 94.7694C60.8538 97.0305 62.1201 99.4332 64.3812 100.134C66.6423 100.834 69.0449 99.5676 69.7453 97.3065L71.582 91.3764C73.1544 91.5829 74.7269 91.7895 76.2405 91.8842L74.1395 98.6675C73.4391 100.929 74.7054 103.331 76.9665 104.032C79.2276 104.732 81.6302 103.466 82.3306 101.205L85.3169 91.5629C85.964 91.4361 86.6111 91.3092 87.2156 91.1691C91.6173 90.2415 92.3784 88.8408 95.9073 89.3728C97.2532 89.5559 98.1684 90.0731 99.8035 91.8887C102.641 95.1053 106.666 102.337 112.23 108.829C122.485 120.702 136.028 121.811 136.028 121.811C136.028 121.811 130.97 119.122 125.152 111.943Z" fill="#71D9CE"/>
<path d="M56.2856 69.059C58.0763 69.6136 59.9775 68.6116 60.5321 66.8209C61.0868 65.0302 60.0848 63.129 58.2941 62.5743C56.5034 62.0197 54.6021 63.0217 54.0475 64.8124C53.4929 66.6031 54.4949 68.5043 56.2856 69.059Z" fill="#F7E300"/>
<path d="M73.6645 69.8597C77.7407 71.1222 82.0685 68.8413 83.3311 64.7652C84.5936 60.689 82.3127 56.3611 78.2365 55.0986C74.1603 53.8361 69.8325 56.117 68.57 60.1932C67.3074 64.2693 69.5884 68.5972 73.6645 69.8597Z" fill="#F7E300"/>
<path d="M88.3329 74.7302C90.1236 75.2849 92.0249 74.2828 92.5795 72.4922C93.1341 70.7015 92.1321 68.8002 90.3414 68.2456C88.5508 67.691 86.6495 68.693 86.0949 70.4837C85.5402 72.2743 86.5423 74.1756 88.3329 74.7302Z" fill="#F7E300"/>
<path d="M55.7737 55.014C58.2948 55.7949 60.9716 54.3842 61.7524 51.8631C62.5333 49.342 61.1226 46.6652 58.6015 45.8843C56.0804 45.1035 53.4036 46.5142 52.6227 49.0353C51.8419 51.5564 53.2526 54.2332 55.7737 55.014Z" fill="#F7E300"/>
<path d="M79.8837 91.295C81.553 92.1217 83.5683 91.4303 84.3804 89.762L125.483 6.84329C126.31 5.17499 125.618 3.16102 123.949 2.34941C122.28 1.52278 120.264 2.21415 119.452 3.88244L78.3496 86.8012C77.5225 88.4695 78.2143 90.4834 79.8837 91.295Z" fill="url(#paint0_linear)"/>
<path d="M140.011 26.878C140.838 25.2097 140.147 23.1957 138.477 22.3841L120.58 13.5767C118.911 12.7501 116.896 13.4414 116.084 15.1097C115.256 16.778 115.948 18.792 117.618 19.6036L135.514 28.396C137.169 29.2226 139.184 28.5463 140.011 26.878Z" fill="#71D9CE"/>
<path d="M132.747 41.6371C133.574 39.9688 132.882 37.9548 131.213 37.1432L113.316 28.3509C111.647 27.5242 109.631 28.2156 108.819 29.8839C107.992 31.5522 108.684 33.5662 110.353 34.3778L128.25 43.1701C129.905 43.9817 131.92 43.3054 132.747 41.6371Z" fill="#71D9CE"/>
<path d="M125.483 56.3963C126.311 54.728 125.619 52.714 123.949 51.9024L106.052 43.11C104.383 42.2834 102.368 42.9748 101.556 44.6431C100.729 46.3114 101.42 48.3253 103.09 49.1369L120.987 57.9293C122.641 58.7409 124.656 58.0495 125.483 56.3963Z" fill="#71D9CE"/>
<path d="M118.219 71.1553C119.046 69.487 118.355 67.473 116.685 66.6614L98.7883 57.8691C97.1189 57.0424 95.1037 57.7338 94.2915 59.4021C93.4644 61.0704 94.1562 63.0844 95.8255 63.896L113.722 72.6883C115.377 73.4999 117.392 72.8086 118.219 71.1553Z" fill="#71D9CE"/>
<path d="M110.955 85.9145C111.782 84.2462 111.09 82.2322 109.421 81.4206L91.5241 72.6282C89.8548 71.8016 87.8395 72.493 87.0274 74.1613C86.2002 75.8295 86.892 77.8435 88.5614 78.6551L106.458 87.4475C108.113 88.2591 110.128 87.5677 110.955 85.9145Z" fill="#71D9CE"/>
<path d="M100.954 101.651C102.623 102.477 104.639 101.786 105.451 100.118L147.2 15.2901C148.027 13.6218 147.335 11.6078 145.666 10.7962C143.997 9.96956 141.981 10.6609 141.169 12.3292L99.42 97.1567C98.5928 98.825 99.2846 100.839 100.954 101.651Z" fill="#F7E300"/>
<path d="M110.187 94.6453L100.277 93.9L100.811 86.8123L110.72 87.5575C112.668 87.704 114.162 89.4041 114.013 91.386C113.835 93.2982 112.135 94.7918 110.187 94.6453Z" fill="#CFC7FF"/>
<path d="M91.3631 111.37L92.1084 101.461L99.1962 101.994L98.4509 111.903C98.3044 113.851 96.6043 115.345 94.6224 115.196C92.6741 115.05 91.2166 113.318 91.3631 111.37Z" fill="#CFC7FF"/>
<path d="M80.6136 110.562L81.3589 100.652L88.4467 101.185L87.7014 111.095C87.5549 113.043 85.8548 114.537 83.8729 114.388C81.9582 114.244 80.4671 112.51 80.6136 110.562Z" fill="#CFC7FF"/>
<path d="M71.6243 91.7451L81.5338 92.4904L82.0668 85.4026L72.1574 84.6573C70.2091 84.5108 68.4779 85.9683 68.3289 87.9502C68.1849 89.8649 69.676 91.5986 71.6243 91.7451Z" fill="#CFC7FF"/>
<path d="M89.7892 108.043C81.4585 107.416 75.1809 100.154 75.8099 91.7896L76.6714 80.335L106.904 82.6086L106.042 94.0633C105.413 102.428 98.1198 108.669 89.7892 108.043Z" fill="#CFC7FF"/>
<path d="M90.0114 105.086C83.5283 104.599 78.6511 98.9284 79.1386 92.4453L79.8081 83.5436L103.322 85.312L102.65 94.2473C102.162 100.73 96.4945 105.574 90.0114 105.086Z" fill="#F7E300"/>
<path d="M90.9665 92.3889C103.137 93.3042 113.744 84.1804 114.66 72.0103C115.575 59.8401 106.451 49.2323 94.2811 48.3171C82.1109 47.4018 71.5031 56.5256 70.5879 68.6957C69.6726 80.8658 78.7964 91.4737 90.9665 92.3889Z" fill="#CFC7FF"/>
<path d="M108.19 63.2475C112.921 63.6033 117.045 60.0567 117.4 55.3259C117.756 50.5951 114.21 46.4717 109.479 46.1159C104.748 45.7601 100.625 49.3067 100.269 54.0375C99.9131 58.7682 103.46 62.8917 108.19 63.2475Z" fill="#CFC7FF"/>
<path d="M78.2608 60.9964C82.9915 61.3522 87.115 57.8056 87.4708 53.0748C87.8266 48.344 84.28 44.2206 79.5492 43.8648C74.8184 43.509 70.695 47.0556 70.3392 51.7864C69.9834 56.5171 73.53 60.6406 78.2608 60.9964Z" fill="#CFC7FF"/>
<path d="M91.6405 83.4199C93.9966 83.5971 96.0503 81.8308 96.2275 79.4747C96.4047 77.1186 94.6383 75.0649 92.2822 74.8877C89.9261 74.7105 87.8725 76.4769 87.6953 78.833C87.5181 81.1891 89.2844 83.2427 91.6405 83.4199Z" fill="#F7E300"/>
<path d="M90.5684 102.197L150.824 67.4082L150.824 119.187L91 154L90.5684 102.197Z" fill="#8AD6CE"/>
<path d="M30.6997 66.5991L90.9553 101.388L91 154L30.5 119L30.6997 66.5991Z" fill="#72BDB5"/>
<path d="M90.5 101.5L150.824 66.6931L165 87.7281L105.131 122.517L90.5 101.5Z" fill="#B8EFE9"/>
<path d="M30.5 66.5L91.1812 101.439L80.0331 124.223L19.9999 89.7191L30.5 66.5Z" fill="#67A39C"/>
<defs>
<linearGradient id="paint0_linear" x1="123.84" y1="2.28524" x2="80.0457" y2="91.3702" gradientUnits="userSpaceOnUse">
<stop stop-color="#CFC7FF"/>
<stop offset="0.1867" stop-color="#D0C2FC"/>
<stop offset="0.4212" stop-color="#D1B2F3"/>
<stop offset="0.6812" stop-color="#D498E5"/>
<stop offset="0.9578" stop-color="#D775D0"/>
<stop offset="0.9994" stop-color="#D86FCD"/>
</linearGradient>
</defs>
</svg>
