<svg width="472" height="352" viewBox="0 0 472 352" fill="none" xmlns="http://www.w3.org/2000/svg">
<path d="M137.211 155.771L244.879 94.6628L244.879 187.78L136.852 250.008L137.211 155.771Z" fill="#9B5248"/>
<path d="M244.877 94.6625L353.24 156.111L353.24 250.344L244.877 187.78L244.877 94.6625Z" fill="#C56A5D"/>
<path d="M187.696 118.613C193.162 120.306 198.966 117.247 200.659 111.781C202.352 106.315 199.293 100.511 193.827 98.8184C188.361 97.1254 182.557 100.184 180.864 105.65C179.171 111.116 182.23 116.92 187.696 118.613Z" fill="#CFC7FF"/>
<path d="M214.348 133.006C219.814 134.699 225.618 131.641 227.311 126.175C229.004 120.708 225.945 114.905 220.479 113.212C215.013 111.519 209.21 114.577 207.517 120.044C205.823 125.51 208.882 131.313 214.348 133.006Z" fill="#CFC7FF"/>
<path d="M241.497 147.973C246.963 149.666 252.766 146.607 254.46 141.141C256.153 135.675 253.094 129.871 247.628 128.178C242.162 126.485 236.358 129.544 234.665 135.01C232.972 140.476 236.031 146.28 241.497 147.973Z" fill="#CFC7FF"/>
<path d="M261.768 170.48C267.234 172.173 273.038 169.115 274.731 163.649C276.424 158.183 273.365 152.379 267.899 150.686C262.433 148.993 256.629 152.052 254.936 157.518C253.243 162.984 256.302 168.787 261.768 170.48Z" fill="#CFC7FF"/>
<path d="M307.072 237.317C296.608 224.406 289.815 209.69 283.293 192.198C276.824 174.807 263.143 151.651 248.123 140.693C248.047 140.669 247.994 140.568 247.994 140.568C239.785 134.494 230.202 130.685 225.069 128.255C215.033 123.465 204.747 120.026 194.865 111.753C177.69 97.436 178.942 78.7367 173.736 64.5959C168.631 50.4022 156.195 43.8597 145.031 42.1678C127.545 39.4424 121.289 47.4264 121.813 54.1474C122.333 60.6146 129.895 64.9749 134.414 67.2154C139.883 69.9184 144.945 72.5792 148.574 77.1507C156.486 87.1688 150.689 108.328 144.585 132.924C140.634 148.937 144.393 163.134 153.136 173.998L147.409 192.488C146.149 196.555 148.426 200.876 152.493 202.135C156.559 203.395 160.88 201.117 162.139 197.051L165.775 185.312C167.244 186.272 168.736 187.154 170.252 187.96C171.179 188.499 172.128 188.962 173.155 189.448L170.066 199.422C168.806 203.488 171.084 207.809 175.15 209.069C179.216 210.328 183.537 208.051 184.797 203.985L187.577 195.008C190.185 195.816 192.794 196.624 195.527 197.302L192.699 206.432C191.44 210.498 193.717 214.819 197.783 216.079C201.849 217.338 206.17 215.061 207.43 210.995L210.733 200.33C213.561 200.702 216.389 201.073 219.111 201.243L215.332 213.442C214.073 217.509 216.35 221.83 220.416 223.089C224.483 224.349 228.804 222.071 230.063 218.005L235.434 200.666C236.597 200.438 237.761 200.209 238.848 199.957C246.764 198.289 248.133 195.77 254.479 196.727C256.9 197.056 258.546 197.986 261.486 201.252C266.589 207.036 273.828 220.041 283.834 231.717C302.277 253.069 326.632 255.063 326.632 255.063C326.632 255.063 317.536 250.227 307.072 237.317Z" fill="#71D9CE"/>
<path d="M183.225 160.195C186.445 161.192 189.864 159.39 190.862 156.17C191.859 152.95 190.057 149.53 186.837 148.533C183.616 147.536 180.197 149.338 179.2 152.558C178.202 155.778 180.004 159.197 183.225 160.195Z" fill="#F7E300"/>
<path d="M214.479 161.635C221.809 163.906 229.592 159.804 231.863 152.473C234.133 145.143 230.031 137.359 222.701 135.089C215.37 132.818 207.587 136.92 205.317 144.251C203.046 151.581 207.148 159.365 214.479 161.635Z" fill="#F7E300"/>
<path d="M240.86 170.394C244.08 171.392 247.499 169.59 248.496 166.369C249.494 163.149 247.692 159.73 244.472 158.732C241.251 157.735 237.832 159.537 236.835 162.757C235.837 165.977 237.639 169.397 240.86 170.394Z" fill="#F7E300"/>
<path d="M182.304 134.937C186.838 136.341 191.651 133.804 193.056 129.27C194.46 124.736 191.923 119.922 187.389 118.518C182.855 117.114 178.041 119.651 176.637 124.185C175.233 128.718 177.77 133.532 182.304 134.937Z" fill="#F7E300"/>
<path d="M225.663 200.184C228.665 201.671 232.289 200.427 233.75 197.427L307.668 48.3069C309.156 45.3067 307.912 41.6848 304.91 40.2252C301.907 38.7386 298.283 39.9819 296.823 42.9822L222.904 192.102C221.417 195.102 222.661 198.724 225.663 200.184Z" fill="url(#paint0_linear)"/>
<path d="M333.795 84.3371C335.282 81.3368 334.038 77.7149 331.036 76.2553L298.85 60.4162C295.848 58.9296 292.224 60.173 290.764 63.1732C289.276 66.1734 290.52 69.7954 293.522 71.2549L325.708 87.067C328.683 88.5536 332.307 87.3373 333.795 84.3371Z" fill="#71D9CE"/>
<path d="M320.73 110.88C322.218 107.879 320.974 104.258 317.972 102.798L285.786 86.9859C282.784 85.4993 279.16 86.7427 277.699 89.7429C276.212 92.7431 277.456 96.3651 280.458 97.8246L312.643 113.637C315.618 115.096 319.243 113.88 320.73 110.88Z" fill="#71D9CE"/>
<path d="M307.668 137.422C309.155 134.422 307.911 130.8 304.909 129.341L272.724 113.529C269.721 112.042 266.097 113.285 264.637 116.286C263.149 119.286 264.393 122.908 267.395 124.367L299.581 140.179C302.556 141.639 306.18 140.396 307.668 137.422Z" fill="#71D9CE"/>
<path d="M294.605 163.965C296.093 160.965 294.849 157.343 291.847 155.884L259.661 140.071C256.659 138.585 253.035 139.828 251.574 142.828C250.087 145.829 251.331 149.451 254.333 150.91L286.518 166.722C289.493 168.182 293.118 166.939 294.605 163.965Z" fill="#71D9CE"/>
<path d="M281.541 190.508C283.028 187.507 281.784 183.886 278.782 182.426L246.597 166.614C243.594 165.127 239.97 166.371 238.51 169.371C237.022 172.371 238.266 175.993 241.268 177.453L273.454 193.265C276.429 194.724 280.053 193.481 281.541 190.508Z" fill="#71D9CE"/>
<path d="M263.556 218.807C266.558 220.294 270.182 219.05 271.642 216.05L346.724 63.4975C348.211 60.4972 346.967 56.8753 343.965 55.4157C340.963 53.9291 337.339 55.1725 335.878 58.1727L260.797 210.725C259.309 213.726 260.553 217.348 263.556 218.807Z" fill="#F7E300"/>
<path d="M252.066 126.971L221.435 122.522C218.828 122.136 217.007 119.729 217.371 117.095L220.076 98.3528C220.458 95.7542 222.869 93.9433 225.511 94.3117L256.142 98.7605C258.749 99.1467 260.57 101.554 260.206 104.188L257.492 122.957C257.11 125.555 254.7 127.366 252.066 126.971Z" fill="white"/>
<path d="M220.254 123.405C219.101 123.025 218.117 122.315 217.372 121.329C216.421 120.068 216.013 118.512 216.257 116.963L218.944 98.1856C219.413 94.964 222.41 92.7249 225.642 93.1988L256.3 97.6565C259.532 98.1304 261.784 101.124 261.315 104.346L258.601 123.114C258.384 124.672 257.542 126.052 256.279 126.998C255.016 127.943 253.457 128.347 251.903 128.101L221.272 123.652C220.906 123.591 220.576 123.511 220.254 123.405ZM256.622 100.013C256.434 99.9516 256.211 99.9075 255.988 99.8635L225.33 95.4058C223.348 95.1074 221.462 96.499 221.194 98.4835L218.48 117.252C218.341 118.213 218.586 119.183 219.16 119.964C219.734 120.746 220.602 121.269 221.575 121.383L252.224 125.867C253.188 126.008 254.16 125.765 254.942 125.195C255.725 124.624 256.248 123.76 256.36 122.79L259.074 104.021C259.335 102.241 258.257 100.553 256.622 100.013Z" fill="#71D9CE"/>
<path d="M252.827 127.103L232.463 124.146C230.249 123.83 228.723 121.787 229.062 119.589L232.011 99.2981C232.323 97.0911 234.369 95.5745 236.574 95.9171L256.938 98.8742C259.152 99.19 260.678 101.233 260.339 103.431L257.399 123.695C257.087 125.902 255.041 127.419 252.827 127.103Z" fill="white"/>
<path d="M231.45 125.055C229.118 124.286 227.601 121.949 227.956 119.431L230.878 99.1317C231.087 97.7789 231.786 96.5587 232.881 95.7647C233.983 94.9439 235.347 94.5942 236.704 94.805L257.068 97.7621C259.88 98.1568 261.836 100.786 261.447 103.59L258.524 123.889C258.316 125.241 257.616 126.462 256.522 127.256C255.419 128.076 254.055 128.426 252.698 128.215L232.334 125.258C232.022 125.214 231.718 125.144 231.45 125.055ZM257.248 100.102C257.087 100.049 256.917 100.022 256.747 99.9958L236.392 97.012C235.624 96.9068 234.849 97.0952 234.253 97.5501C233.63 97.9962 233.223 98.691 233.119 99.4563L230.197 119.756C229.971 121.34 231.066 122.796 232.655 123.025L253.019 125.982C253.787 126.087 254.562 125.899 255.158 125.444C255.781 124.998 256.188 124.303 256.292 123.537L259.215 103.238C259.405 101.85 258.561 100.535 257.248 100.102Z" fill="#71D9CE"/>
<path d="M237.489 118.282C236.216 116.825 235.682 114.931 235.949 112.591C235.991 112.102 236.113 111.283 236.269 110.179C236.425 109.076 236.546 108.257 236.66 107.732C237.061 105.525 238.081 103.877 239.745 102.886C241.418 101.868 243.513 101.553 246.04 101.912C247.745 102.149 249.184 102.653 250.4 103.381C251.581 104.125 252.468 104.951 253.007 105.929C253.555 106.879 253.782 107.813 253.688 108.73C253.662 108.899 253.591 109.023 253.44 109.122C253.315 109.229 253.155 109.265 253.012 109.247L248.87 108.65C248.7 108.624 248.566 108.58 248.476 108.491C248.387 108.402 248.297 108.314 248.225 108.171C248.071 107.647 247.811 107.176 247.389 106.741C246.968 106.306 246.343 106.04 245.486 105.935C243.414 105.637 242.196 106.538 241.821 108.665C241.716 109.163 241.612 109.928 241.456 110.943C241.299 111.957 241.214 112.758 241.135 113.266C240.895 115.526 241.81 116.805 243.908 117.112C244.926 117.27 245.809 117.117 246.485 116.689C247.161 116.261 247.578 115.539 247.716 114.489L247.786 114.008L245.402 113.666C245.205 113.631 245.053 113.551 244.928 113.391C244.802 113.232 244.766 113.071 244.801 112.876L245.096 110.811C245.13 110.615 245.21 110.464 245.37 110.339C245.53 110.214 245.691 110.178 245.887 110.213L252.663 111.205C252.86 111.24 253.012 111.32 253.137 111.48C253.263 111.64 253.299 111.8 253.264 111.996L252.813 115.075C252.588 116.57 252.057 117.817 251.196 118.806C250.335 119.795 249.213 120.491 247.868 120.877C246.495 121.253 244.979 121.345 243.256 121.073C240.684 120.669 238.762 119.738 237.489 118.282Z" fill="#F7E300"/>
<path d="M280.159 206.209L262.338 204.869L263.297 192.122L281.118 193.462C284.622 193.726 287.308 196.783 287.04 200.347C286.72 203.786 283.663 206.472 280.159 206.209Z" fill="#CFC7FF"/>
<path d="M246.306 236.287L247.646 218.466L260.393 219.424L259.053 237.245C258.789 240.749 255.732 243.435 252.168 243.167C248.664 242.904 246.043 239.79 246.306 236.287Z" fill="#CFC7FF"/>
<path d="M226.976 234.833L228.316 217.012L241.063 217.971L239.723 235.792C239.459 239.295 236.402 241.982 232.838 241.714C229.394 241.455 226.713 238.337 226.976 234.833Z" fill="#CFC7FF"/>
<path d="M210.81 200.994L228.631 202.334L229.59 189.587L211.769 188.247C208.265 187.983 205.152 190.605 204.884 194.169C204.625 197.612 207.306 200.73 210.81 200.994Z" fill="#CFC7FF"/>
<path d="M243.476 230.302C228.494 229.176 217.204 216.115 218.336 201.073L219.885 180.473L274.254 184.562L272.705 205.162C271.574 220.204 258.457 231.429 243.476 230.302Z" fill="#CFC7FF"/>
<path d="M243.877 224.986C232.218 224.11 223.447 213.912 224.323 202.253L225.527 186.244L267.815 189.424L266.606 205.493C265.729 217.153 255.536 225.863 243.877 224.986Z" fill="#F7E300"/>
<path d="M245.594 202.151C267.481 203.797 286.558 187.389 288.204 165.503C289.85 143.616 273.442 124.539 251.555 122.893C229.668 121.247 210.591 137.655 208.945 159.542C207.299 181.428 223.708 200.505 245.594 202.151Z" fill="#CFC7FF"/>
<path d="M276.57 149.743C285.078 150.383 292.493 144.005 293.133 135.497C293.773 126.99 287.395 119.574 278.887 118.934C270.379 118.294 262.964 124.673 262.324 133.18C261.684 141.688 268.062 149.104 276.57 149.743Z" fill="#CFC7FF"/>
<path d="M222.744 145.695C231.252 146.335 238.667 139.957 239.307 131.449C239.947 122.942 233.569 115.526 225.061 114.886C216.553 114.246 209.138 120.624 208.498 129.132C207.858 137.64 214.236 145.055 222.744 145.695Z" fill="#CFC7FF"/>
<path d="M246.807 186.022C251.044 186.34 254.738 183.164 255.056 178.927C255.375 174.69 252.198 170.996 247.961 170.678C243.724 170.359 240.031 173.536 239.712 177.773C239.393 182.01 242.57 185.703 246.807 186.022Z" fill="#F7E300"/>
<path d="M244.877 219.789L353.24 157.226L353.24 250.344L245.653 312.952L244.877 219.789Z" fill="#E07C6E"/>
<path d="M137.211 155.771L245.574 218.334L245.654 312.952L136.852 250.008L137.211 155.771Z" fill="#C56A5D"/>
<path d="M311.111 187.597C311.506 185.834 311.617 183.904 311.366 181.865C310.796 177.092 308.443 172.159 304.756 168.027C301.069 163.895 296.449 160.986 291.767 159.861C286.909 158.696 282.497 159.571 279.426 162.319C276.324 165.077 274.955 169.317 275.554 174.277C276.123 179.05 278.476 183.983 282.164 188.115C285.851 192.247 290.471 195.156 295.153 196.281C300.011 197.446 304.422 196.571 307.494 193.823C309.31 192.209 310.529 190.075 311.111 187.597ZM278.532 169.177C278.996 167.227 279.92 165.583 281.284 164.38C283.679 162.248 287.188 161.607 291.125 162.555C295.269 163.532 299.36 166.126 302.685 169.856C306.011 173.585 308.11 177.95 308.602 182.193C309.095 186.241 308.031 189.63 305.636 191.762C303.241 193.894 299.732 194.535 295.794 193.587C291.651 192.61 287.56 190.016 284.234 186.286C280.909 182.557 278.81 178.192 278.318 173.949C278.105 172.223 278.196 170.626 278.532 169.177Z" fill="#F7E300"/>
<path d="M308.96 190.465C310.58 183.53 305.822 174.888 297.09 169.817C287.027 163.979 275.423 165.115 271.246 172.31C267.049 179.544 271.842 190.165 281.905 196.003C291.968 201.841 303.573 200.705 307.74 193.481C308.339 192.531 308.714 191.493 308.96 190.465ZM272.748 176.056C272.936 175.243 273.26 174.449 273.673 173.725C277.104 167.822 286.972 167.163 295.704 172.235C304.437 177.306 308.762 186.221 305.361 192.115C301.931 198.018 292.062 198.676 283.33 193.605C275.685 189.152 271.415 181.786 272.748 176.056Z" fill="#F7E300"/>
<path d="M307.82 193.618C307.859 193.442 307.919 193.226 307.948 193.021C308.69 188.955 307.13 184.739 303.608 181.205C300.194 177.799 295.309 175.37 289.862 174.4C278.41 172.352 267.897 177.37 266.432 185.56C265.69 189.625 267.251 193.842 270.772 197.375C274.186 200.782 279.072 203.211 284.519 204.18L284.756 202.828L284.519 204.18C289.965 205.15 295.395 204.591 299.789 202.58C304.064 200.608 306.931 197.438 307.82 193.618ZM269.235 185.643C270.755 179.198 279.62 175.411 289.367 177.143C294.265 178.034 298.632 180.177 301.625 183.201C304.501 186.067 305.769 189.401 305.215 192.555C304.661 195.71 302.314 198.381 298.607 200.099C294.724 201.876 289.921 202.357 285.003 201.506C280.105 200.616 275.739 198.472 272.745 195.448C269.869 192.582 268.601 189.248 269.156 186.094C269.166 185.927 269.186 185.79 269.235 185.643Z" fill="#F7E300"/>
<path d="M244.754 218.536L353.24 155.94L378.734 193.769L271.067 256.332L244.754 218.536Z" fill="#F9998C"/>
<path d="M136.85 155.593L245.978 218.426L225.93 259.401L117.967 197.35L136.85 155.593Z" fill="#A85A4F"/>
<path d="M313.664 127.564L344.084 141.855C344.084 141.855 345.233 142.171 344.041 146.714C342.866 151.233 336.063 165.774 336.063 165.774C336.063 165.774 333.465 168.149 330.268 166.691C327.071 165.234 302.824 153.978 302.824 153.978C302.824 153.978 297.034 152.267 299.383 147.088C301.732 141.91 309.762 128.114 309.762 128.114L313.664 127.564Z" fill="white"/>
<path d="M307.071 150.454C306.966 150.21 306.946 149.992 307.021 149.735L311.569 132.918C311.562 132.879 311.594 132.833 311.602 132.77C311.659 132.639 311.762 132.539 311.935 132.487C312.084 132.42 312.248 132.43 312.379 132.487L315.576 133.944C316.04 134.163 316.215 134.454 316.107 134.858L313.367 144.756L317.507 140.201C317.841 139.816 318.209 139.729 318.627 139.915L320.461 140.773C320.879 140.959 321.045 141.313 320.974 141.811L320.209 147.913L325.905 139.374C326.033 139.189 326.175 139.082 326.332 139.054C326.488 139.025 326.675 139.052 326.938 139.165L330.135 140.623C330.29 140.696 330.39 140.799 330.418 140.955C330.463 141.089 330.452 141.252 330.395 141.384L330.323 141.539L320.55 155.975C320.406 156.184 320.232 156.337 319.981 156.403C319.73 156.469 319.465 156.456 319.218 156.32L316.749 155.194C316.485 155.081 316.316 154.93 316.218 154.725C316.12 154.521 316.108 154.341 316.134 154.154L316.813 146.249L311.297 151.905C311.162 152.051 310.997 152.142 310.786 152.201C310.574 152.26 310.348 152.24 310.085 152.127L307.639 151.017C307.368 150.864 307.176 150.697 307.071 150.454Z" fill="#71D9CE"/>
<path d="M300.832 154.14C298.82 152.749 298.03 150.084 299.083 147.77L307.631 129.171C308.213 127.933 309.228 126.959 310.499 126.505C311.786 126.027 313.189 126.074 314.427 126.656L333.081 135.174C334.32 135.756 335.293 136.771 335.748 138.042C336.225 139.329 336.178 140.732 335.596 141.97L327.055 160.608C326.473 161.847 325.458 162.82 324.187 163.275C322.9 163.752 321.497 163.705 320.259 163.123L301.621 154.582C301.357 154.468 301.087 154.316 300.832 154.14ZM332.591 137.466C332.452 137.371 332.297 137.298 332.142 137.225L313.504 128.684C312.8 128.368 312.005 128.331 311.306 128.601C310.584 128.854 309.998 129.405 309.682 130.11L301.141 148.748C300.477 150.203 301.112 151.906 302.567 152.57L321.205 161.111C321.909 161.427 322.704 161.464 323.403 161.195C324.125 160.941 324.711 160.39 325.027 159.685L333.568 141.047C333.884 140.343 333.921 139.548 333.652 138.849C333.427 138.284 333.053 137.786 332.591 137.466Z" fill="#CFC7FF"/>
<path d="M301.405 154.399C300.411 153.712 299.67 152.756 299.237 151.602C298.685 150.126 298.735 148.521 299.406 147.104L307.331 129.852C308.691 126.896 312.191 125.589 315.148 126.949L343.205 139.813C346.162 141.173 347.468 144.673 346.108 147.63L338.199 164.859C336.84 167.815 333.339 169.122 330.383 167.762L302.325 154.898C301.999 154.776 301.683 154.591 301.405 154.399ZM342.807 142.169C342.645 142.057 342.444 141.953 342.243 141.848L314.209 129C312.398 128.159 310.2 128.964 309.382 130.791L301.473 148.02C301.068 148.903 301.028 149.9 301.356 150.811C301.684 151.721 302.366 152.466 303.264 152.847L331.322 165.711C333.133 166.552 335.33 165.747 336.148 163.92L344.057 146.691C344.81 145.058 344.241 143.16 342.807 142.169Z" fill="#CFC7FF"/>
<path d="M338.909 205.578C339.474 207.284 340.402 209.001 341.683 210.6C344.665 214.378 349.236 217.336 354.544 218.971C359.863 220.539 365.311 220.627 369.87 219.116C374.645 217.566 377.914 214.524 379.116 210.567C380.318 206.611 379.268 202.258 376.168 198.323C373.186 194.545 368.615 191.588 363.307 189.952C358.008 188.345 352.54 188.297 347.971 189.778C343.196 191.328 339.928 194.37 338.725 198.326C338.035 200.677 338.1 203.137 338.909 205.578ZM376.295 204.222C376.919 206.105 376.994 208.006 376.462 209.749C375.525 212.835 372.885 215.211 369.022 216.459C364.983 217.765 360.132 217.707 355.353 216.288C350.593 214.829 346.492 212.206 343.852 208.869C341.329 205.69 340.443 202.229 341.38 199.144C342.316 196.059 344.956 193.683 348.819 192.435C352.859 191.129 357.709 191.186 362.489 192.606C367.248 194.064 371.35 196.688 373.99 200.024C375.065 201.398 375.827 202.811 376.295 204.222Z" fill="#F7E300"/>
<path d="M339.229 202.012C341.462 208.748 350.037 213.643 360.141 213.396C371.773 213.132 381.065 206.103 380.844 197.753C380.623 189.404 371.012 182.861 359.38 183.125C347.758 183.418 338.456 190.418 338.647 198.777C338.694 199.904 338.888 200.982 339.229 202.012ZM377.634 195.357C377.897 196.151 378.043 196.984 378.061 197.827C378.226 204.628 370.141 210.376 360.038 210.623C349.934 210.87 341.604 205.534 341.43 198.704C341.266 191.903 349.35 186.155 359.454 185.908C368.303 185.718 375.782 189.768 377.634 195.357Z" fill="#F7E300"/>
<path d="M338.558 198.709C338.617 198.885 338.685 199.091 338.743 199.267C340.246 203.111 343.749 205.9 348.637 207.055C353.319 208.181 358.739 207.69 363.916 205.681C374.761 201.466 381.089 191.698 378.085 183.912C376.582 180.068 373.079 177.279 368.191 176.124C363.509 174.999 358.089 175.489 352.912 177.499L353.409 178.803L352.912 177.499C347.734 179.508 343.417 182.833 340.764 186.846C338.092 190.8 337.33 195.002 338.558 198.709ZM375.622 185.348C377.699 191.614 372.119 199.502 362.901 203.112C358.244 204.916 353.432 205.369 349.288 204.391C345.321 203.453 342.513 201.283 341.352 198.272C340.201 195.291 340.795 191.765 343.045 188.408C345.403 184.884 349.288 181.931 353.907 180.107C358.565 178.302 363.377 177.85 367.52 178.828C371.487 179.765 374.296 181.936 375.486 184.936C375.525 185.054 375.574 185.201 375.622 185.348Z" fill="#F7E300"/>
<path d="M336.585 195.511C337.101 197.07 337.932 198.492 339.057 199.719C341.883 202.732 346.193 204.014 351.143 203.287C355.906 202.59 360.771 200.129 364.795 196.315C368.829 192.529 371.611 187.821 372.599 183.119C373.617 178.211 372.635 173.868 369.808 170.855C364.106 164.78 352.559 166.288 344.069 174.26C337.297 180.617 334.499 189.216 336.585 195.511ZM369.672 175.96C370.305 177.872 370.389 180.097 369.856 182.526C368.986 186.699 366.48 190.859 362.849 194.283C359.217 197.706 354.892 199.923 350.687 200.533C346.668 201.114 343.221 200.167 341.039 197.821C336.384 192.835 338.576 183.197 345.947 176.282C353.318 169.366 363.111 167.786 367.757 172.743C368.647 173.656 369.272 174.754 369.672 175.96Z" fill="#71D9CE"/>
<path d="M332.545 191.202C333.422 193.849 335.006 196.066 337.228 197.55C340.693 199.829 345.151 200.082 349.789 198.219C354.261 196.443 358.412 192.913 361.477 188.273C364.543 183.634 366.149 178.433 366.02 173.612C365.892 168.594 363.91 164.583 360.454 162.333C356.989 160.054 352.531 159.801 347.893 161.664C343.421 163.44 339.27 166.97 336.205 171.61C331.921 178.187 330.703 185.642 332.545 191.202ZM362.607 169.618C363.017 170.853 363.249 172.245 363.286 173.734C363.386 177.978 361.957 182.63 359.187 186.78C356.455 190.949 352.765 194.098 348.814 195.669C345.038 197.181 341.462 197.028 338.79 195.269C333.103 191.506 333.022 181.609 338.583 173.172C341.315 169.002 345.005 165.853 348.956 164.283C352.732 162.77 356.308 162.924 358.98 164.682C360.654 165.792 361.896 167.47 362.607 169.618Z" fill="#71D9CE"/>
<path d="M325.743 186.731C326.64 189.437 328.253 191.645 330.465 193.099C337.444 197.707 348.309 193.551 354.715 183.822C361.13 174.122 360.661 162.461 353.692 157.882C350.227 155.603 345.769 155.35 341.13 157.213C336.659 158.989 332.508 162.519 329.442 167.159C326.377 171.798 324.77 176.999 324.899 181.82C324.984 183.555 325.246 185.231 325.743 186.731ZM355.845 165.167C357.414 169.902 356.286 176.446 352.414 182.299C346.853 190.737 337.694 194.523 332.017 190.789C329.345 189.03 327.822 185.814 327.712 181.737C327.611 177.494 329.04 172.842 331.811 168.692C334.542 164.522 338.232 161.373 342.184 159.802C345.959 158.29 349.536 158.443 352.208 160.202C353.931 161.361 355.153 163.078 355.845 165.167Z" fill="#71D9CE"/>
<path d="M318.389 183.161C319.948 187.868 322.98 191.107 326.898 192.29C330.855 193.492 335.208 192.441 339.142 189.342C342.92 186.36 345.907 181.779 347.514 176.48C350.904 165.335 347.151 154.304 339.169 151.889C335.212 150.687 330.859 151.738 326.924 154.837C323.146 157.819 320.159 162.4 318.553 167.699C316.946 172.997 316.858 178.445 318.379 183.034C318.359 183.073 318.369 183.103 318.389 183.161ZM345.001 161.904C346.288 165.787 346.319 170.706 344.801 175.682C343.342 180.442 340.709 184.513 337.373 187.153C334.164 189.686 330.723 190.532 327.647 189.625C324.602 188.709 322.235 186.098 320.967 182.274C320.958 182.245 320.948 182.215 320.938 182.186C319.632 178.146 319.69 173.296 321.138 168.507C322.597 163.747 325.23 159.675 328.567 157.035C331.775 154.503 335.216 153.656 338.292 154.563C341.485 155.529 343.792 158.257 345.001 161.904Z" fill="#71D9CE"/>
<path d="M309.682 180.823C311.515 186.353 315.261 190.368 320.12 191.239C328.339 192.693 336.682 184.575 338.721 173.094C339.691 167.647 339.102 162.227 337.091 157.833C334.993 153.273 331.587 150.386 327.502 149.683C323.408 148.951 319.221 150.502 315.697 154.053C312.29 157.467 309.891 162.343 308.892 167.799C308.07 172.511 308.425 177.029 309.682 180.823ZM335.322 160.966C336.482 164.466 336.72 168.533 335.988 172.628C334.226 182.581 327.315 189.703 320.615 188.496C313.914 187.288 309.873 178.247 311.635 168.294C312.496 163.405 314.639 159.039 317.653 156.016C320.519 153.14 323.853 151.872 327.008 152.426C330.162 152.98 332.833 155.327 334.551 159.034C334.854 159.652 335.098 160.289 335.322 160.966Z" fill="#CFC7FF"/>
<path d="M301.336 179.673C301.882 181.32 302.595 182.879 303.455 184.292C306.073 188.549 309.802 191.035 313.928 191.267C318.053 191.5 322.044 189.459 325.148 185.525C328.133 181.728 329.955 176.587 330.278 171.061C330.965 159.44 324.73 149.591 316.382 149.125C308.064 148.65 300.718 157.711 300.051 169.293C299.829 172.957 300.283 176.496 301.336 179.673ZM326.326 161.597C327.243 164.362 327.688 167.577 327.496 170.938C327.213 175.896 325.598 180.479 322.956 183.836C320.422 187.026 317.283 188.686 314.089 188.504C310.895 188.322 307.939 186.298 305.819 182.855C303.601 179.216 302.521 174.481 302.804 169.523C303.38 159.441 309.391 151.573 316.211 151.957C320.728 152.19 324.494 156.067 326.326 161.597Z" fill="#CFC7FF"/>
<path d="M292.682 180.255C293.228 181.902 293.94 183.462 294.8 184.874C297.419 189.132 301.148 191.617 305.273 191.85C309.398 192.083 313.39 190.041 316.494 186.108C319.479 182.311 321.301 177.169 321.624 171.643C322.311 160.023 316.076 150.173 307.728 149.708C299.409 149.233 292.064 158.294 291.397 169.876C291.175 173.54 291.629 177.078 292.682 180.255ZM317.662 162.151C318.579 164.916 319.024 168.131 318.832 171.491C318.549 176.449 316.934 181.032 314.292 184.389C311.758 187.579 308.619 189.239 305.425 189.057C302.231 188.875 299.275 186.852 297.155 183.408C294.937 179.769 293.857 175.034 294.14 170.076C294.716 159.994 300.727 152.126 307.547 152.51C312.073 152.773 315.83 156.621 317.662 162.151Z" fill="#CFC7FF"/>
<path d="M337.292 211.141C338.949 216.142 343.174 221.108 349.116 224.361C354.011 227.016 359.33 228.191 364.123 227.68C369.102 227.14 372.937 224.824 374.904 221.202C376.899 217.57 376.76 213.111 374.524 208.629C372.376 204.314 368.521 200.466 363.656 197.802C353.445 192.208 341.87 193.628 337.869 200.961C336.227 203.986 336.113 207.582 337.292 211.141ZM372.891 211.88C373.857 214.792 373.734 217.574 372.466 219.855C370.923 222.685 367.852 224.453 363.824 224.906C359.57 225.369 354.849 224.322 350.463 221.924C341.613 217.087 337.062 208.28 340.336 202.298C343.609 196.316 353.459 195.403 362.338 200.23C366.724 202.628 370.168 206.025 372.052 209.84C372.384 210.546 372.667 211.203 372.891 211.88Z" fill="#F7E300"/>
<path d="M315.39 183.665C316.594 178.533 315.606 172.103 312.216 166.207C309.451 161.411 305.548 157.612 301.181 155.566C296.657 153.441 292.199 153.385 288.599 155.426C285.009 157.497 282.797 161.364 282.328 166.351C281.898 171.162 283.192 176.446 285.928 181.252C291.721 191.346 302.306 196.195 309.545 192.033C312.576 190.343 314.541 187.309 315.39 183.665ZM285.448 164.436C286.149 161.429 287.711 159.148 289.957 157.849C292.723 156.247 296.28 156.341 299.991 158.082C303.829 159.911 307.331 163.288 309.803 167.595C314.824 176.344 314.092 186.25 308.197 189.64C302.301 193.03 293.372 188.644 288.38 179.885C285.899 175.549 284.731 170.843 285.12 166.601C285.161 165.837 285.28 165.112 285.448 164.436Z" fill="#CFC7FF"/>
<path d="M312.833 270.029L302.472 262.082C300.173 260.289 297.211 259.516 294.301 259.9L281.55 261.581C278.641 261.964 276.013 263.475 274.225 265.806L266.277 276.168L261.766 276.763C254.769 277.685 249.831 284.124 250.753 291.12C251.676 298.117 258.115 303.055 265.111 302.133L320.69 294.804C327.686 293.881 332.625 287.443 331.702 280.446C330.78 273.45 324.341 268.511 317.345 269.434L312.833 270.029Z" fill="#F7E300"/>
<path d="M276.659 313.016C283.394 312.128 288.133 305.949 287.245 299.214C286.357 292.479 280.178 287.739 273.443 288.627C266.708 289.515 261.968 295.695 262.856 302.43C263.744 309.165 269.924 313.904 276.659 313.016Z" fill="#71D9CE"/>
<path d="M312.391 308.305C319.126 307.417 323.866 301.237 322.978 294.502C322.09 287.767 315.91 283.027 309.175 283.916C302.44 284.804 297.7 290.983 298.588 297.718C299.477 304.453 305.656 309.193 312.391 308.305Z" fill="#71D9CE"/>
<defs>
<linearGradient id="paint0_linear" x1="304.714" y1="40.1098" x2="225.954" y2="200.319" gradientUnits="userSpaceOnUse">
<stop stop-color="#CFC7FF"/>
<stop offset="0.1867" stop-color="#D0C2FC"/>
<stop offset="0.4212" stop-color="#D1B2F3"/>
<stop offset="0.6812" stop-color="#D498E5"/>
<stop offset="0.9578" stop-color="#D775D0"/>
<stop offset="0.9994" stop-color="#D86FCD"/>
</linearGradient>
</defs>
</svg>
