<svg width="472" height="352" viewBox="0 0 472 352" fill="none" xmlns="http://www.w3.org/2000/svg">
<path d="M317.611 255.167L333.167 281.556L315.111 257.389L317.611 255.167Z" fill="#67A39C"/>
<path d="M340.945 281.556L323.722 251.556L317.611 255.167L333.167 281.556H340.945Z" fill="#72BDB5"/>
<path d="M167.057 281.278L183.446 253.222L188.723 257.111L175.112 281.278H167.057Z" fill="#72BDB5"/>
<path d="M191.778 258.778L175.111 281.278L188.722 257.111L191.778 258.778Z" fill="#67A39C"/>
<circle cx="252.612" cy="161.278" r="115.278" fill="#72BDB5"/>
<ellipse cx="252.889" cy="161.555" rx="111.667" ry="112.778" fill="#8AD6CE"/>
<circle cx="252.612" cy="161.278" r="101.389" fill="white"/>
<rect x="250.668" y="66" width="3.88889" height="20" fill="#8AD6CE"/>
<rect x="180.668" y="100.417" width="3.88889" height="20" transform="rotate(-45 180.668 100.417)" fill="#8AD6CE"/>
<rect x="197.588" y="211.555" width="3.88889" height="20" transform="rotate(45 197.588 211.555)" fill="#8AD6CE"/>
<rect x="301.223" y="218.194" width="3.88889" height="20" transform="rotate(-45 301.223 218.194)" fill="#8AD6CE"/>
<rect x="250.668" y="235.444" width="3.88889" height="20" fill="#8AD6CE"/>
<rect x="157.334" y="163.778" width="3.88889" height="20" transform="rotate(-90 157.334 163.778)" fill="#8AD6CE"/>
<rect x="327.334" y="163.778" width="3.88889" height="20" transform="rotate(-90 327.334 163.778)" fill="#8AD6CE"/>
<path d="M283.703 200.416C284.317 200.847 285.054 201.192 285.881 201.409C287.818 201.933 290.084 201.788 292.269 201.016C294.439 200.22 296.286 198.895 297.437 197.256C298.651 195.55 298.99 193.719 298.41 192.095C297.829 190.471 296.395 189.275 294.379 188.727C292.442 188.203 290.176 188.348 287.991 189.12C285.818 189.898 283.974 191.241 282.812 192.873C281.598 194.578 281.259 196.409 281.84 198.033C282.193 198.992 282.826 199.8 283.703 200.416ZM295.888 190.671C296.565 191.147 297.062 191.765 297.317 192.481C297.77 193.747 297.477 195.199 296.493 196.577C295.465 198.018 293.826 199.204 291.872 199.917C289.916 200.611 287.89 200.752 286.177 200.29C284.542 199.852 283.385 198.914 282.932 197.648C282.479 196.382 282.773 194.93 283.756 193.552C284.785 192.11 286.424 190.924 288.377 190.212C290.334 189.517 292.359 189.377 294.073 189.838C294.774 190.031 295.38 190.315 295.888 190.671Z" fill="#F7E300"/>
<path d="M282.924 199.143C285.346 200.844 289.434 200.352 292.757 197.759C296.587 194.779 297.952 190.116 295.803 187.374C293.654 184.633 288.809 184.83 284.979 187.809C281.159 190.796 279.784 195.452 281.925 198.204C282.221 198.57 282.554 198.883 282.924 199.143ZM294.133 187.369C294.418 187.57 294.674 187.813 294.889 188.091C296.635 190.328 295.355 194.262 292.033 196.855C288.71 199.449 284.595 199.732 282.839 197.488C281.094 195.251 282.373 191.317 285.695 188.723C288.612 186.46 292.123 185.958 294.133 187.369Z" fill="#F7E300"/>
<path d="M281.878 198.203C281.942 198.247 282.016 198.299 282.079 198.344C283.538 199.258 285.404 199.321 287.328 198.493C289.176 197.707 290.869 196.196 292.104 194.236C294.689 190.129 294.381 185.285 291.44 183.424C289.981 182.51 288.115 182.447 286.191 183.274C284.343 184.061 282.649 185.572 281.415 187.532L281.906 187.845L281.415 187.532C280.18 189.492 279.56 191.678 279.669 193.681C279.757 195.67 280.546 197.267 281.878 198.203ZM290.972 184.517C293.224 186.099 293.316 190.128 291.126 193.628C290.014 195.39 288.515 196.737 286.884 197.439C285.323 198.111 283.843 198.082 282.706 197.362C281.579 196.65 280.902 195.321 280.821 193.638C280.735 191.872 281.303 189.917 282.396 188.158C283.508 186.396 285.007 185.049 286.638 184.347C288.199 183.675 289.679 183.704 290.824 184.413C290.866 184.443 290.919 184.48 290.972 184.517Z" fill="#F7E300"/>
<path d="M284.544 202.681C286.342 203.944 288.991 204.558 291.79 204.171C294.089 203.843 296.162 202.915 297.641 201.553C299.174 200.135 299.883 198.406 299.641 196.704C299.407 194.992 298.252 193.533 296.39 192.587C294.598 191.676 292.351 191.345 290.059 191.662C285.249 192.326 281.725 195.678 282.207 199.129C282.409 200.55 283.265 201.782 284.544 202.681ZM296.651 194.082C297.698 194.817 298.348 195.78 298.49 196.859C298.676 198.19 298.088 199.545 296.851 200.698C295.542 201.91 293.7 202.733 291.635 203.019C287.469 203.599 283.756 201.78 283.366 198.963C282.976 196.146 286.048 193.393 290.221 192.802C292.286 192.516 294.283 192.798 295.863 193.607C296.149 193.761 296.407 193.911 296.651 194.082Z" fill="#F7E300"/>
<path d="M268.445 161C268.445 169.898 261.232 177.111 252.334 177.111C243.436 177.111 236.223 169.898 236.223 161C236.223 152.102 243.436 144.889 252.334 144.889C261.232 144.889 268.445 152.102 268.445 161Z" fill="#42407C"/>
<path d="M261.741 170.851L255.841 176.934L297.033 216.888C298.713 218.518 301.395 218.477 303.025 216.797C304.654 215.117 304.613 212.435 302.933 210.805L261.741 170.851Z" fill="#42407C"/>
<path d="M255.667 144.819L262.075 150.365L314.657 89.6073C316.188 87.8377 315.995 85.1616 314.226 83.6301C312.456 82.0987 309.78 82.2917 308.248 84.0613L255.667 144.819Z" fill="#42407C"/>
<path d="M280.425 197.622C280.985 198.015 281.617 198.285 282.298 198.417C283.994 198.724 285.756 198.082 287.233 196.608C288.655 195.191 289.673 193.158 290.073 190.88C290.483 188.61 290.244 186.342 289.407 184.521C288.528 182.625 287.12 181.414 285.424 181.108C282.005 180.49 278.513 183.865 277.65 188.644C276.962 192.457 278.162 196.032 280.425 197.622ZM286.647 182.851C287.335 183.334 287.916 184.058 288.341 185.005C289.087 186.618 289.281 188.634 288.916 190.683C288.55 192.733 287.652 194.55 286.396 195.799C285.194 196.992 283.804 197.532 282.491 197.289C279.692 196.776 278.031 193.003 278.781 188.855C279.532 184.707 282.419 181.744 285.206 182.25C285.731 182.334 286.214 182.547 286.647 182.851Z" fill="#71D9CE"/>
<path d="M278.001 197.182C278.953 197.851 280.034 198.2 281.147 198.145C282.874 198.047 284.43 197.024 285.52 195.247C286.577 193.541 287.09 191.327 286.963 189.012C286.837 186.696 286.083 184.555 284.841 182.972C283.552 181.324 281.891 180.473 280.174 180.578C278.447 180.676 276.891 181.699 275.801 183.476C274.745 185.182 274.232 187.396 274.358 189.711C274.558 192.979 276.003 195.778 278.001 197.182ZM282.706 182.483C283.15 182.795 283.574 183.203 283.956 183.693C285.044 185.089 285.722 187.002 285.825 189.081C285.947 191.156 285.493 193.128 284.56 194.636C283.672 196.08 282.436 196.918 281.104 196.993C278.264 197.146 275.777 193.851 275.543 189.643C275.422 187.568 275.875 185.596 276.808 184.088C277.697 182.644 278.933 181.806 280.265 181.731C281.101 181.687 281.934 181.94 282.706 182.483Z" fill="#71D9CE"/>
<path d="M274.611 197.376C275.584 198.059 276.672 198.398 277.775 198.335C281.257 198.144 283.863 194.052 283.591 189.202C283.329 184.359 280.274 180.57 276.802 180.768C275.075 180.866 273.519 181.889 272.429 183.666C271.372 185.372 270.859 187.586 270.986 189.902C271.112 192.217 271.866 194.358 273.108 195.941C273.567 196.501 274.071 196.997 274.611 197.376ZM279.333 182.673C281.036 183.869 282.284 186.341 282.442 189.264C282.676 193.471 280.55 197.015 277.721 197.176C276.389 197.251 275.079 196.552 274.029 195.214C272.941 193.818 272.263 191.905 272.16 189.826C272.038 187.751 272.492 185.779 273.425 184.271C274.314 182.826 275.549 181.989 276.881 181.914C277.747 181.874 278.582 182.145 279.333 182.673Z" fill="#71D9CE"/>
<path d="M271.261 198.007C272.953 199.196 274.774 199.527 276.38 198.95C278.004 198.369 279.2 196.936 279.748 194.92C280.272 192.982 280.134 190.706 279.355 188.532C277.721 183.956 273.723 181.195 270.449 182.37C268.825 182.95 267.628 184.384 267.081 186.4C266.557 188.338 266.695 190.614 267.473 192.788C268.252 194.962 269.577 196.808 271.226 197.967C271.229 197.985 271.24 197.993 271.261 198.007ZM274.892 184.274C276.287 185.255 277.52 186.895 278.248 188.939C278.943 190.895 279.073 192.913 278.611 194.627C278.166 196.272 277.224 197.411 275.969 197.871C274.721 198.321 273.279 198.035 271.904 197.069C271.894 197.062 271.883 197.055 271.873 197.047C270.431 196.019 269.245 194.38 268.54 192.416C267.846 190.459 267.716 188.441 268.177 186.728C268.622 185.082 269.565 183.944 270.82 183.483C272.129 183.013 273.58 183.353 274.892 184.274Z" fill="#71D9CE"/>
<path d="M267.763 199.389C269.751 200.785 272.003 201.199 273.847 200.283C276.961 198.728 277.738 193.935 275.568 189.583C274.539 187.518 272.995 185.849 271.23 184.877C269.393 183.871 267.536 183.751 265.993 184.531C264.439 185.303 263.422 186.863 263.125 188.928C262.832 190.918 263.24 193.147 264.262 195.223C265.157 197.005 266.399 198.43 267.763 199.389ZM271.416 186.366C272.674 187.25 273.764 188.553 274.537 190.107C276.42 193.878 275.875 197.98 273.331 199.241C270.787 200.502 267.187 198.478 265.303 194.707C264.377 192.856 264.01 190.86 264.268 189.099C264.513 187.424 265.314 186.17 266.509 185.572C267.703 184.974 269.181 185.096 270.677 185.911C270.932 186.042 271.172 186.195 271.416 186.366Z" fill="#CFC7FF"/>
<path d="M264.682 201.077C265.275 201.493 265.901 201.838 266.54 202.098C268.475 202.873 270.342 202.778 271.781 201.831C273.22 200.884 274.05 199.208 274.112 197.12C274.168 195.106 273.501 192.931 272.236 191C269.578 186.937 265.042 185.188 262.13 187.107C259.226 189.015 259.018 193.875 261.672 197.92C262.509 199.203 263.54 200.275 264.682 201.077ZM268.56 188.813C269.554 189.511 270.502 190.477 271.273 191.651C272.41 193.381 273.008 195.318 272.958 197.099C272.902 198.797 272.263 200.133 271.148 200.866C270.033 201.598 268.54 201.655 266.975 201.029C265.327 200.361 263.789 199.044 262.652 197.313C260.339 193.793 260.397 189.664 262.776 188.098C264.347 187.054 266.572 187.416 268.56 188.813Z" fill="#CFC7FF"/>
<path d="M261.928 203.423C262.521 203.839 263.147 204.184 263.786 204.444C265.721 205.219 267.588 205.124 269.027 204.177C270.466 203.23 271.296 201.554 271.358 199.465C271.414 197.452 270.747 195.277 269.482 193.346C266.824 189.283 262.288 187.534 259.376 189.453C256.472 191.361 256.264 196.221 258.919 200.266C259.755 201.548 260.786 202.621 261.928 203.423ZM265.796 191.151C266.79 191.85 267.738 192.816 268.509 193.989C269.646 195.72 270.244 197.656 270.193 199.437C270.138 201.135 269.499 202.471 268.384 203.204C267.269 203.937 265.776 203.994 264.21 203.367C262.563 202.7 261.025 201.382 259.887 199.651C257.575 196.131 257.632 192.003 260.012 190.436C261.593 189.4 263.808 189.755 265.796 191.151Z" fill="#CFC7FF"/>
<path d="M270.383 198.922C269.511 196.903 267.582 194.995 264.981 193.864C262.863 192.944 260.612 192.642 258.641 193.042C256.598 193.454 255.091 194.543 254.392 196.122C253.705 197.708 253.925 199.552 255.007 201.339C256.059 203.057 257.805 204.505 259.916 205.435C264.365 207.376 269.115 206.37 270.505 203.177C271.1 201.858 271.004 200.353 270.383 198.922ZM255.576 199.923C255.063 198.741 255.02 197.589 255.449 196.596C255.978 195.372 257.192 194.519 258.868 194.18C260.608 193.839 262.62 194.1 264.518 194.928C268.374 196.61 270.591 200.11 269.459 202.71C268.327 205.311 264.246 206.061 260.397 204.368C258.489 203.532 256.928 202.247 256.004 200.729C255.828 200.463 255.688 200.191 255.576 199.923Z" fill="#CFC7FF"/>
<path d="M269.926 201.302C269.62 200.613 269.178 199.939 268.587 199.319C267.21 197.862 265.196 196.794 262.934 196.327C260.673 195.859 258.402 196.033 256.555 196.82C254.638 197.637 253.378 199.026 253.032 200.71C252.679 202.405 253.274 204.165 254.707 205.677C256.084 207.134 258.098 208.202 260.36 208.669C262.622 209.137 264.892 208.963 266.74 208.176C268.656 207.359 269.916 205.97 270.262 204.286C270.469 203.294 270.347 202.277 269.926 201.302ZM254.437 203.229C254.108 202.461 254.009 201.681 254.167 200.939C254.439 199.629 255.455 198.543 257.009 197.882C258.64 197.179 260.655 197.031 262.695 197.454C264.736 197.877 266.524 198.817 267.743 200.116C268.914 201.349 269.4 202.748 269.128 204.058C268.855 205.367 267.839 206.453 266.285 207.115C264.654 207.817 262.639 207.965 260.599 207.542C258.558 207.12 256.771 206.18 255.551 204.881C255.051 204.356 254.685 203.798 254.437 203.229Z" fill="#F7E300"/>
<path d="M269.917 202.797C268.736 200.072 264.996 198.36 260.811 198.832C255.989 199.377 252.385 202.641 252.774 206.089C253.166 209.555 257.411 211.921 262.232 211.376C267.054 210.83 270.658 207.566 270.258 204.11C270.223 203.644 270.09 203.203 269.917 202.797ZM254.208 206.97C254.069 206.652 253.981 206.305 253.939 205.96C253.621 203.13 256.762 200.457 260.947 199.986C265.132 199.514 268.796 201.425 269.122 204.244C269.44 207.074 266.299 209.747 262.114 210.218C258.447 210.627 255.186 209.221 254.208 206.97Z" fill="#F7E300"/>
<path d="M270.319 204.137C270.289 204.068 270.255 203.981 270.214 203.905C269.452 202.359 267.881 201.335 265.824 201.026C263.834 200.734 261.594 201.135 259.529 202.163C255.184 204.323 252.91 208.617 254.455 211.724C255.217 213.27 256.787 214.294 258.845 214.602C260.835 214.895 263.075 214.494 265.14 213.465L264.884 212.954L265.14 213.465C267.205 212.437 268.885 210.9 269.856 209.135C270.798 207.412 270.971 205.637 270.319 204.137ZM255.414 211.055C254.322 208.519 256.35 205.047 260.045 203.205C261.906 202.286 263.902 201.919 265.656 202.188C267.331 202.433 268.584 203.234 269.183 204.429C269.781 205.623 269.659 207.101 268.844 208.597C267.985 210.157 266.496 211.512 264.638 212.449C262.776 213.368 260.781 213.735 259.027 213.467C257.351 213.221 256.098 212.42 255.5 211.226C255.462 211.167 255.434 211.117 255.414 211.055Z" fill="#F7E300"/>
<path d="M274.224 90.4926L265.937 90.9292C264.086 91.0118 262.336 91.8609 261.088 93.2472L255.621 99.3224C254.373 100.709 253.727 102.524 253.825 104.388L254.262 112.675L252.327 114.824C249.327 118.158 249.599 123.308 252.932 126.308C256.266 129.307 261.415 129.036 264.415 125.703L288.246 99.2211C291.246 95.8875 290.975 90.7379 287.641 87.738C284.308 84.7381 279.158 85.0094 276.158 88.343L274.224 90.4926Z" fill="#F7E300"/>
<path d="M274.486 126.196C277.374 122.987 277.114 118.044 273.905 115.156C270.696 112.269 265.753 112.529 262.866 115.738C259.978 118.947 260.238 123.889 263.447 126.777C266.656 129.665 271.598 129.405 274.486 126.196Z" fill="#71D9CE"/>
<path d="M289.808 109.17C292.696 105.961 292.436 101.018 289.227 98.1304C286.018 95.2426 281.076 95.503 278.188 98.712C275.3 101.921 275.56 106.863 278.769 109.751C281.978 112.639 286.921 112.379 289.808 109.17Z" fill="#71D9CE"/>
<path d="M61.9301 289.348C64.5269 290.634 67.6618 289.558 68.9251 286.963L132.862 157.978C134.149 155.383 133.073 152.25 130.476 150.988C127.879 149.702 124.745 150.777 123.481 153.373L59.5439 282.357C58.2572 284.952 59.3333 288.085 61.9301 289.348Z" fill="url(#paint0_linear)"/>
<path d="M155.462 189.143C156.749 186.548 155.672 183.415 153.076 182.153L125.236 168.453C122.639 167.167 119.504 168.242 118.241 170.837C116.954 173.432 118.031 176.565 120.627 177.828L148.467 191.505C151.04 192.791 154.175 191.739 155.462 189.143Z" fill="#71D9CE"/>
<path d="M144.163 212.102C145.45 209.507 144.374 206.374 141.777 205.112L113.937 191.435C111.341 190.149 108.206 191.224 106.942 193.819C105.656 196.414 106.732 199.547 109.329 200.81L137.168 214.487C139.742 215.749 142.876 214.697 144.163 212.102Z" fill="#71D9CE"/>
<path d="M132.862 235.061C134.149 232.466 133.073 229.333 130.476 228.07L102.637 214.393C100.04 213.107 96.9048 214.183 95.6415 216.778C94.3548 219.373 95.431 222.506 98.0278 223.768L125.867 237.445C128.441 238.708 131.576 237.632 132.862 235.061Z" fill="#71D9CE"/>
<path d="M121.563 258.019C122.85 255.424 121.774 252.291 119.177 251.029L91.3377 237.352C88.7409 236.066 85.606 237.141 84.3427 239.737C83.056 242.332 84.1322 245.465 86.729 246.727L114.569 260.404C117.142 261.667 120.277 260.591 121.563 258.019Z" fill="#71D9CE"/>
<path d="M110.263 280.978C111.549 278.383 110.473 275.25 107.876 273.988L80.0369 260.311C77.4401 259.025 74.3052 260.1 73.0419 262.695C71.7552 265.291 72.8314 268.423 75.4282 269.686L103.268 283.363C105.841 284.625 108.976 283.55 110.263 280.978Z" fill="#71D9CE"/>
<path d="M94.7055 305.456C97.3023 306.742 100.437 305.667 101.7 303.072L166.644 171.118C167.931 168.523 166.854 165.39 164.258 164.127C161.661 162.841 158.526 163.917 157.263 166.512L92.3193 298.466C91.0326 301.061 92.1087 304.194 94.7055 305.456Z" fill="#F7E300"/>
<defs>
<linearGradient id="paint0_linear" x1="130.307" y1="150.888" x2="62.1822" y2="289.465" gradientUnits="userSpaceOnUse">
<stop stop-color="#CFC7FF"/>
<stop offset="0.1867" stop-color="#D0C2FC"/>
<stop offset="0.4212" stop-color="#D1B2F3"/>
<stop offset="0.6812" stop-color="#D498E5"/>
<stop offset="0.9578" stop-color="#D775D0"/>
<stop offset="0.9994" stop-color="#D86FCD"/>
</linearGradient>
</defs>
</svg>
