<svg width="472" height="352" viewBox="0 0 472 352" fill="none" xmlns="http://www.w3.org/2000/svg">
<path d="M174.884 189.671C182.417 189.671 188.523 183.564 188.523 176.031C188.523 168.498 182.417 162.392 174.884 162.392C167.351 162.392 161.244 168.498 161.244 176.031C161.244 183.564 167.351 189.671 174.884 189.671Z" fill="#CFC7FF"/>
<path d="M214.003 197.39C221.536 197.39 227.642 191.283 227.642 183.75C227.642 176.217 221.536 170.111 214.003 170.111C206.47 170.111 200.363 176.217 200.363 183.75C200.363 191.283 206.47 197.39 214.003 197.39Z" fill="#CFC7FF"/>
<path d="M253.972 205.637C261.505 205.637 267.611 199.53 267.611 191.997C267.611 184.464 261.505 178.358 253.972 178.358C246.439 178.358 240.332 184.464 240.332 191.997C240.332 199.53 246.439 205.637 253.972 205.637Z" fill="#CFC7FF"/>
<path d="M288.227 226.043C295.76 226.043 301.867 219.937 301.867 212.404C301.867 204.871 295.76 198.764 288.227 198.764C280.695 198.764 274.588 204.871 274.588 212.404C274.588 219.937 280.695 226.043 288.227 226.043Z" fill="#CFC7FF"/>
<path d="M371.229 292.444C353.043 280.284 338.769 264.424 323.755 244.969C308.847 225.62 282.625 201.83 259.469 193.9C259.364 193.9 259.258 193.795 259.258 193.795C246.57 189.354 233.036 188.296 225.635 187.239C211.149 185.124 196.875 184.807 181.227 178.252C154.053 166.938 148.344 142.937 136.29 127.183C124.342 111.323 106.156 107.939 91.4594 110.16C68.4096 113.543 63.6516 126.02 66.9293 134.267C70.1013 142.197 81.309 144.734 87.8645 145.792C95.7944 147.061 103.196 148.435 109.54 152.77C123.391 162.286 124.342 191.151 126.246 224.457C127.514 246.132 137.77 262.521 152.996 272.777V298.259C152.996 303.863 157.543 308.409 163.146 308.409C168.75 308.409 173.297 303.863 173.297 298.259V282.082C175.517 282.716 177.738 283.245 179.958 283.668C181.333 283.985 182.707 284.196 184.187 284.408V298.153C184.187 303.757 188.734 308.304 194.338 308.304C199.942 308.304 204.488 303.757 204.488 298.153V285.782C208.083 285.782 211.678 285.782 215.379 285.571V298.153C215.379 303.757 219.925 308.304 225.529 308.304C231.133 308.304 235.679 303.757 235.679 298.153V283.456C239.38 282.822 243.081 282.187 246.57 281.342V298.153C246.57 303.757 251.116 308.304 256.72 308.304C262.324 308.304 266.871 303.757 266.871 298.153V274.257C268.245 273.517 269.62 272.777 270.889 272.037C280.193 266.856 280.933 263.156 289.286 261.887C292.458 261.358 294.89 261.887 299.859 264.847C308.53 270.134 322.698 283.668 339.827 294.453C371.335 314.119 402.738 307.14 402.738 307.14C402.738 307.14 389.415 304.603 371.229 292.444Z" fill="#71D9CE"/>
<path d="M185.456 243.701C189.894 243.701 193.491 240.103 193.491 235.665C193.491 231.227 189.894 227.629 185.456 227.629C181.018 227.629 177.42 231.227 177.42 235.665C177.42 240.103 181.018 243.701 185.456 243.701Z" fill="#F7E300"/>
<path d="M225.317 233.339C235.42 233.339 243.609 225.149 243.609 215.047C243.609 204.944 235.42 196.755 225.317 196.755C215.215 196.755 207.025 204.944 207.025 215.047C207.025 225.149 215.215 233.339 225.317 233.339Z" fill="#F7E300"/>
<path d="M261.901 234.079C266.339 234.079 269.937 230.481 269.937 226.043C269.937 221.605 266.339 218.007 261.901 218.007C257.463 218.007 253.865 221.605 253.865 226.043C253.865 230.481 257.463 234.079 261.901 234.079Z" fill="#F7E300"/>
<path d="M174.46 212.298C180.708 212.298 185.773 207.233 185.773 200.985C185.773 194.736 180.708 189.671 174.46 189.671C168.212 189.671 163.146 194.736 163.146 200.985C163.146 207.233 168.212 212.298 174.46 212.298Z" fill="#F7E300"/>
<path d="M310.77 91.2031C304.736 84.457 302.551 77.4313 304.611 71.1364C306.991 63.8978 314.449 59.2259 325.616 57.9656C335.212 56.8714 346.865 58.389 358.431 62.1853C370.023 66.0097 380.295 71.6968 387.38 78.2612C395.634 85.9056 398.863 94.0978 396.497 101.324C394.117 108.562 386.659 113.234 375.492 114.495C365.896 115.589 354.243 114.071 342.677 110.275C331.111 106.479 320.84 100.765 313.754 94.2004C312.647 93.2173 311.675 92.215 310.77 91.2031ZM381.666 89.0129C381.013 88.282 380.279 87.5467 379.48 86.7944C373.69 81.424 364.685 76.4752 354.824 73.228C344.949 69.9934 334.783 68.6387 326.921 69.5225C320.807 70.2099 316.488 72.2259 315.652 74.7699C314.816 77.3138 317.093 81.5003 321.614 85.6783C327.404 91.0488 336.409 95.9975 346.27 99.2447C356.145 102.479 366.311 103.834 374.173 102.95C380.287 102.263 384.606 100.247 385.442 97.7029C386.146 95.6056 384.708 92.414 381.666 89.0129Z" fill="url(#paint0_linear)"/>
<path d="M327.84 104.066C339.419 117.013 359.491 117.952 372.671 106.164C385.851 94.3764 387.148 74.3247 375.569 61.3776C363.989 48.4305 343.917 47.4909 330.737 59.2789C317.557 71.0669 316.26 91.1186 327.84 104.066Z" fill="#F7E300"/>
<path d="M326.921 69.522C334.782 68.6382 344.949 69.9929 354.824 73.2275C364.699 76.4621 373.677 81.4094 379.479 86.7939C380.279 87.5462 381.012 88.2815 381.666 89.0123C382.068 89.4621 382.444 89.9103 382.793 90.3571C384.073 85.1138 384.022 79.5691 382.592 74.3215C375.987 69.4265 367.609 65.207 358.43 62.1848C349.251 59.1626 340.017 57.6062 331.79 57.6283C331.301 58.015 330.811 58.4283 330.333 58.8557C326.637 62.1617 323.891 66.1349 322.104 70.4152C323.554 70.0287 325.174 69.7184 326.921 69.522Z" fill="url(#paint1_linear)"/>
<path d="M274.552 142.834C226.487 135.927 181.765 169.408 174.858 217.473C167.95 265.538 201.432 310.26 249.497 317.167C253.728 317.777 257.928 318.068 262.084 318.068C305.136 318.068 342.893 286.362 349.191 242.528C356.098 194.463 322.617 149.742 274.552 142.834Z" fill="#CDC8FB"/>
<path d="M226.261 228.373C226.261 228.373 227.678 231.544 226.278 233.686C224.878 235.828 220.682 235.691 220.197 240.152C219.711 244.613 220.718 246.317 222.745 249.577C224.777 252.836 223.244 254.802 225.514 256.378C227.784 257.955 233.119 258.878 232.068 262.941C231.017 267.004 229.149 274.548 230.134 276.407C231.114 278.266 229.869 278.244 229.542 280.536C229.211 282.833 232.466 285.174 232.201 288.102C231.936 291.03 229.025 293.892 230.924 296.975C232.823 300.057 233.305 298.878 234.157 301.656C235.005 304.434 235.619 305.613 237.125 305.989C238.631 306.36 241.082 306.713 241.974 308.091C242.871 309.469 245.101 306.978 243.595 305.512C242.089 304.046 240.142 304.549 240.711 301.661C241.281 298.777 242.968 297.924 240.672 296.502C238.379 295.08 238.772 293.419 239.713 293.397C240.654 293.375 242.818 292.439 241.007 290.929C239.192 289.418 238.627 289.025 240.027 289.069C241.427 289.113 245.751 290.518 249.558 286.848C253.365 283.178 256.801 278.832 256.801 278.832C256.801 278.832 257.94 276.341 257.525 273.784C257.11 271.227 259.08 270.573 262.467 270.904C265.855 271.235 265.461 269.619 265.461 269.619C265.461 269.619 268.451 272.702 269.472 260.203C269.472 260.203 269.299 258.149 273.146 256.361C276.993 254.572 273.742 250.045 271.556 250.041C271.556 250.041 270.708 247.263 268.893 246.847C267.078 246.432 262.948 246.931 261.266 245.593C259.583 244.259 257.247 243.142 257.247 243.142C257.247 243.142 259.309 234.225 250.565 234.216C250.565 234.216 249.301 227.79 244.907 227.936C240.513 228.086 239.987 228.479 239.355 227.45C238.724 226.421 237.894 222.398 234.811 223.206C231.728 224.014 231.004 227.967 228.009 227.07C225.015 226.169 221.235 226.408 222.131 223.413C223.032 220.419 223.536 216.899 218.858 216.855C218.858 216.855 217.679 216.373 219.627 214.779C221.575 213.185 220.678 210.716 219.565 210.866C218.452 211.016 215.149 213.353 213.572 213.441C212 213.529 206.969 212.65 209.73 206.485C212.49 200.324 225.691 199.723 226.654 202.828C227.612 205.933 226.499 207.178 229.577 207.465C232.66 207.752 231.724 202.307 231.724 202.307L240.124 197.113C240.124 197.113 240.998 196.459 241.612 195.452C242.226 194.446 252.459 189.517 254.672 186.085C256.885 182.653 257.627 180.732 260.533 182.243C263.439 183.753 264.64 184.084 265.386 182.159C266.133 180.238 269.953 185.158 271.508 183.038C273.062 180.918 272.342 178.316 269.132 177.857C265.921 177.393 270.116 174.253 268.831 173.441C267.542 172.632 265.113 175.406 263.867 174.289C262.622 173.171 265.249 169.02 261.054 168.887C256.858 168.755 256.333 169.143 255.038 173.798C253.744 178.453 251.912 173.816 248.608 177.248C245.305 180.675 246.073 178.599 245.746 176.523C245.419 174.448 243.149 172.871 240.831 172.694C238.512 172.518 239.435 168.278 242.845 167.364C246.254 166.449 250.388 164.855 250.388 164.855C250.388 164.855 250.759 167.717 253.206 166.979C255.652 166.237 256.487 163.702 256.487 163.702L258.934 164.056C258.934 164.056 260.594 162.262 261.076 162.179C261.557 162.09 266.583 162.969 266.583 162.969C266.583 162.969 269.423 162.753 266.733 164.082C264.044 165.411 262.405 163.773 262.993 166.198C263.58 168.627 263.779 167.249 265.572 168.909C267.365 170.57 270.227 170.203 270.863 167.951C270.863 167.951 274.555 169.417 275.368 167.037C276.18 164.656 274.255 163.91 274.255 163.91C274.255 163.91 273.928 160.739 270.629 158.703C267.33 156.667 258.982 154.997 258.192 159.414C257.401 163.83 254.058 161.008 254.058 161.008C254.058 161.008 256.072 160.05 256.421 157.599C256.774 155.152 250.216 154.052 250.061 156.216C249.907 158.38 251.479 159.387 249.708 159.758C247.937 160.129 246.298 160.673 244.09 160.823C241.882 160.973 241.643 158.283 241.643 158.283C241.643 158.283 243.326 158.526 245.755 157.939C248.184 157.351 249.606 155.055 246.917 154.202C244.227 153.346 247.089 156.256 241.122 155.399C241.122 155.399 240.38 155.134 239.726 153.169C239.073 151.199 233.588 150.258 231.618 152.003C229.648 153.752 230.699 155.152 232.338 155.7C233.976 156.247 231.635 157.316 234.215 157.842C236.794 158.367 237.841 158.676 237.121 159.352C236.401 160.028 223.505 156.3 223.77 153.372C223.77 153.372 197.88 165.111 187.541 189.234C187.541 189.234 187.802 190.678 189.462 191.071C191.123 191.464 192.196 191.619 191.578 194.812C190.964 198.005 189.997 204.736 194.259 205.504C198.52 206.273 196.383 202.687 195.376 200.982C194.373 199.277 193.72 194.03 196.189 195.32C198.657 196.614 195.027 196.87 198.719 203.804C202.411 210.738 196.701 210.23 201.135 215.238C205.569 220.247 208.042 214.982 209.504 216.753C210.966 218.524 209.566 219.571 212.477 219.991C215.383 220.41 214.159 219.138 215.471 221.982C216.778 224.822 217.693 230.422 226.261 228.373Z" fill="#8AD6CE"/>
<path d="M255.873 187.499C255.873 187.499 253.555 188.413 254.623 189.663C255.697 190.908 258.603 190.237 255.873 187.499Z" fill="#8AD6CE"/>
<path d="M259.288 183.307C259.288 183.307 257.932 182.958 257.711 184.486C257.49 186.015 260.025 186.849 260.816 185.714C261.602 184.575 259.288 183.307 259.288 183.307Z" fill="#8AD6CE"/>
<path d="M263.09 186.196C263.09 186.196 261.951 187.596 260.683 187.724C259.416 187.852 257.755 187.459 258.67 189.777C259.584 192.096 261.642 189.738 261.642 189.738C261.642 189.738 266.169 188.669 263.09 186.196Z" fill="#8AD6CE"/>
<path d="M267.945 183.926C267.945 183.926 263.943 183.506 265.692 186.567C265.692 186.567 266.849 187.203 267.94 188.294C269.031 189.389 271.787 189.782 272.03 188.099C272.269 186.421 271.615 184.451 267.945 183.926Z" fill="#8AD6CE"/>
<path d="M308.514 206.936C308.514 206.936 301.346 204.657 298.983 209.157C296.62 213.657 297.623 214.271 290.954 216.122C284.285 217.972 289.333 221.978 289.333 221.978C289.333 221.978 291.475 223.378 288.914 224.884C286.356 226.39 285.257 230.763 286.436 233.43C287.615 236.098 291.126 242.069 293.617 243.208C296.108 244.348 303.32 245.227 304.831 243.416C306.341 241.601 307.631 241.318 309.552 243.16C311.473 244.997 317.881 243.888 317.157 245.659C316.433 247.431 313.063 251.317 315.66 256.065C318.257 260.813 320.068 264.505 317.051 267.04C314.03 269.575 314.18 272.874 316.892 275.762C316.892 275.762 314.768 281.857 316.733 284.485C318.698 287.108 318.345 290.65 317.621 292.421C316.896 294.192 317.665 293.208 317.665 293.208C317.665 293.208 317.117 295.941 318.584 294.431C320.05 292.925 352.229 264.602 346.827 218.538C346.827 218.538 339.067 219.297 338.303 217.001C337.539 214.704 335.004 213.874 329.89 214.7C324.776 215.526 326.785 213.472 325.018 212.752C323.247 212.028 321.326 212.377 321.326 212.377C321.326 212.377 326.555 203.124 308.514 206.936Z" fill="#8AD6CE"/>
<path d="M311.235 195.612C311.235 195.612 312.171 198.871 309.945 198.081C307.715 197.29 301.925 195.21 301.616 200.629C301.306 206.048 306.156 205.968 310.356 205.01C314.552 204.052 316.68 199.048 316.68 199.048C316.68 199.048 320.898 201.216 322.541 198.482C322.541 198.482 324.308 203.579 326.865 204.259C326.865 204.259 324.458 204.696 324.895 207.099C325.332 209.506 332.368 208.331 330.844 203.738C329.316 199.145 322.192 199.838 326.454 197.33C330.72 194.821 332.659 201.967 332.699 203.848C332.743 205.73 331.162 210.186 334.837 208.53C338.511 206.874 337.729 201.45 338.882 204.272C340.039 207.095 337.871 210.217 341.258 210.548C344.646 210.88 345.542 211.162 345.542 211.162C345.542 211.162 339.726 188.62 327.231 174.488C327.231 174.488 327.143 176.192 323.994 176.365C320.845 176.537 318.897 180.317 321.061 182.658C323.226 184.999 326.525 183.758 326.436 185.463C326.348 187.167 325.756 188.02 323.265 186.88C320.774 185.741 319.18 185.979 318.544 188.232C317.908 190.484 316.879 192.207 315.13 191.332C313.381 190.458 309.274 191.897 311.235 195.612Z" fill="#8AD6CE"/>
<path d="M305.74 182.799C305.74 182.799 302.198 184.632 305.06 187.543C307.922 190.453 308.69 184.005 310.179 184.531C311.663 185.056 311.597 186.606 310.594 187.088C309.587 187.569 307.617 189.314 309.565 189.906C311.508 190.497 316.207 191.487 316.146 188.665C316.084 185.847 313.942 185.538 313.942 185.538C313.942 185.538 311.8 183.042 313.354 180.927C313.354 180.927 313.487 178.917 311.146 178.891C308.805 178.864 308.872 182.782 308.39 182.866C307.904 182.954 305.74 182.799 305.74 182.799Z" fill="#8AD6CE"/>
<path d="M332.081 291.902L324.746 284.568C323.122 282.917 320.869 282 318.538 282H308.322C305.99 282 303.764 282.917 302.113 284.568L294.779 291.902H291.164C285.558 291.902 281 296.46 281 302.066C281 307.672 285.558 312.23 291.164 312.23H335.696C341.302 312.23 345.86 307.672 345.86 302.066C345.86 296.46 341.302 291.902 335.696 291.902H332.081Z" fill="#F7E300"/>
<path d="M299.126 322.001C304.523 322.001 308.897 317.626 308.897 312.23C308.897 306.833 304.523 302.459 299.126 302.459C293.73 302.459 289.355 306.833 289.355 312.23C289.355 317.626 293.73 322.001 299.126 322.001Z" fill="#71D9CE"/>
<path d="M327.759 322.001C333.155 322.001 337.53 317.626 337.53 312.23C337.53 306.833 333.155 302.459 327.759 302.459C322.363 302.459 317.988 306.833 317.988 312.23C317.988 317.626 322.363 322.001 327.759 322.001Z" fill="#71D9CE"/>
<defs>
<linearGradient id="paint0_linear" x1="321.261" y1="53.487" x2="379.843" y2="118.986" gradientUnits="userSpaceOnUse">
<stop stop-color="#CBC3FA"/>
<stop offset="1" stop-color="#71D9CE"/>
</linearGradient>
<linearGradient id="paint1_linear" x1="335.871" y1="53.9294" x2="374.83" y2="97.4893" gradientUnits="userSpaceOnUse">
<stop stop-color="#CBC3FA"/>
<stop offset="1" stop-color="#71D9CE"/>
</linearGradient>
</defs>
</svg>
