<svg width="472" height="352" viewBox="0 0 472 352" fill="none" xmlns="http://www.w3.org/2000/svg">
<path d="M283.577 196.435L289.987 196.412V209.535C289.987 211.086 289.783 212.645 289.359 214.189C289.208 214.719 289.034 215.248 288.829 215.778C287.898 218.23 286.415 220.629 284.357 222.937C283.668 223.709 282.919 224.474 282.094 225.215C281.284 225.964 280.399 226.706 279.445 227.425C278.264 228.326 276.978 229.203 275.585 230.051C274.132 230.937 272.619 231.769 271.03 232.541C269.834 233.124 268.608 233.676 267.336 234.198C248.772 241.865 223.185 242.795 202.775 236.575C201.382 236.151 200.02 235.697 198.681 235.205C196.766 234.509 194.904 233.737 193.118 232.904C191.658 232.215 190.265 231.504 188.964 230.755C187.828 230.112 186.761 229.446 185.747 228.765C184.741 228.083 183.795 227.387 182.902 226.668H182.894C180.238 224.542 178.126 222.271 176.545 219.91C176.204 219.403 175.886 218.888 175.591 218.374C174.32 216.119 173.533 213.803 173.238 211.472C173.139 210.738 173.101 210.004 173.101 209.27L173.094 196.866L178.959 196.843C179.428 196.329 179.92 195.822 180.442 195.322C182.402 193.445 184.756 191.652 187.503 189.972C189.1 188.995 190.787 188.087 192.551 187.247C194.814 186.165 197.197 185.189 199.687 184.334C216.473 178.529 237.844 177.75 256 182.26C258.702 182.926 261.328 183.721 263.848 184.621C265.959 185.378 268.002 186.21 269.955 187.126C272.975 188.541 275.661 190.085 278.007 191.727C280.164 193.218 282.011 194.8 283.577 196.435Z" fill="#F7E300"/>
<path opacity="0.15" d="M173.109 196.858L178.974 196.836C179.443 196.321 179.935 195.814 180.458 195.314C182.418 193.438 184.771 191.644 187.518 189.964C189.115 188.988 190.803 188.08 192.566 187.239C194.829 186.157 197.213 185.181 199.703 184.326C202.049 183.516 204.493 182.812 206.998 182.199L207.043 237.747C205.598 237.384 204.175 236.998 202.775 236.574C201.383 236.151 200.02 235.697 198.681 235.205C196.766 234.508 194.905 233.736 193.119 232.904C191.658 232.215 190.265 231.504 188.964 230.755C187.829 230.111 186.762 229.446 185.747 228.764C184.741 228.083 183.795 227.387 182.902 226.668H182.894C180.238 224.542 178.127 222.271 176.545 219.91C176.204 219.403 175.887 218.888 175.591 218.374C174.32 216.118 173.533 213.803 173.238 211.472C173.139 210.738 173.102 210.004 173.102 209.27L173.109 196.858Z" fill="white"/>
<path d="M269.971 173.095C268.011 172.18 265.968 171.347 263.864 170.59C261.336 169.69 258.71 168.895 256.016 168.229C237.853 163.719 216.482 164.498 199.704 170.303C197.214 171.158 194.83 172.134 192.567 173.216C190.804 174.056 189.116 174.964 187.519 175.941C184.765 177.621 182.411 179.414 180.459 181.291C178.196 183.456 176.463 185.718 175.259 188.049C173.458 191.493 172.8 195.065 173.254 198.591C173.549 200.922 174.336 203.246 175.608 205.493C175.895 206.008 176.221 206.523 176.561 207.03C178.135 209.383 180.254 211.654 182.911 213.788H182.918C183.804 214.499 184.757 215.203 185.764 215.884C186.778 216.565 187.845 217.231 188.98 217.874C190.289 218.624 191.674 219.335 193.142 220.024C194.928 220.864 196.79 221.628 198.705 222.324C200.037 222.816 201.399 223.27 202.799 223.694C223.209 229.915 248.796 228.984 267.36 221.318C268.624 220.796 269.858 220.243 271.054 219.66C272.643 218.888 274.156 218.056 275.609 217.17C277.002 216.323 278.288 215.445 279.469 214.544C280.423 213.826 281.308 213.084 282.118 212.335C282.935 211.593 283.692 210.829 284.381 210.057C286.439 207.756 287.922 205.349 288.853 202.897C289.05 202.368 289.232 201.838 289.383 201.308C290.026 198.985 290.185 196.631 289.852 194.3C289.353 190.774 287.741 187.285 285.031 184.008C283.2 181.791 280.884 179.672 278.061 177.696C275.678 176.054 272.991 174.51 269.971 173.095Z" fill="#F7E300"/>
<path opacity="0.1" d="M269.971 173.095C268.011 172.18 265.968 171.347 263.864 170.59C261.336 169.69 258.71 168.895 256.016 168.229C237.853 163.719 216.482 164.498 199.704 170.303C197.214 171.158 194.83 172.134 192.567 173.216C190.804 174.056 189.116 174.964 187.519 175.941C184.765 177.621 182.411 179.414 180.459 181.291C178.196 183.456 176.463 185.718 175.259 188.049C173.458 191.493 172.8 195.065 173.254 198.591C173.549 200.922 174.336 203.246 175.608 205.493C175.895 206.008 176.221 206.523 176.561 207.03C178.135 209.383 180.254 211.654 182.911 213.788H182.918C183.804 214.499 184.757 215.203 185.764 215.884C186.778 216.565 187.845 217.231 188.98 217.874C190.289 218.624 191.674 219.335 193.142 220.024C194.928 220.864 196.79 221.628 198.705 222.324C200.037 222.816 201.399 223.27 202.799 223.694C223.209 229.915 248.796 228.984 267.36 221.318C268.624 220.796 269.858 220.243 271.054 219.66C272.643 218.888 274.156 218.056 275.609 217.17C277.002 216.323 278.288 215.445 279.469 214.544C280.423 213.826 281.308 213.084 282.118 212.335C282.935 211.593 283.692 210.829 284.381 210.057C286.439 207.756 287.922 205.349 288.853 202.897C289.05 202.368 289.232 201.838 289.383 201.308C290.026 198.985 290.185 196.631 289.852 194.3C289.353 190.774 287.741 187.285 285.031 184.008C283.2 181.791 280.884 179.672 278.061 177.696C275.678 176.054 272.991 174.51 269.971 173.095Z" fill="white"/>
<path opacity="0.2" d="M269.971 173.095C268.011 172.18 265.968 171.347 263.864 170.59C261.336 169.69 258.71 168.895 256.016 168.229C237.853 163.719 216.482 164.498 199.704 170.303C197.214 171.158 194.83 172.134 192.567 173.216C190.804 174.056 189.116 174.964 187.519 175.941C184.765 177.621 182.411 179.414 180.459 181.291C178.196 183.456 176.463 185.718 175.259 188.049C173.458 191.493 172.8 195.065 173.254 198.591C173.549 200.922 174.336 203.246 175.608 205.493C175.895 206.008 176.221 206.523 176.561 207.03C178.135 209.383 180.254 211.654 182.911 213.788H182.918C183.804 214.499 184.757 215.203 185.764 215.884C186.778 216.565 187.845 217.231 188.98 217.874C190.289 218.624 191.674 219.335 193.142 220.024C194.928 220.864 196.79 221.628 198.705 222.324C200.037 222.816 201.399 223.27 202.799 223.694C223.209 229.915 248.796 228.984 267.36 221.318C268.624 220.796 269.858 220.243 271.054 219.66C272.643 218.888 274.156 218.056 275.609 217.17C277.002 216.323 278.288 215.445 279.469 214.544C280.423 213.826 281.308 213.084 282.118 212.335C282.935 211.593 283.692 210.829 284.381 210.057C286.439 207.756 287.922 205.349 288.853 202.897C289.05 202.368 289.232 201.838 289.383 201.308C290.026 198.985 290.185 196.631 289.852 194.3C289.353 190.774 287.741 187.285 285.031 184.008C283.2 181.791 280.884 179.672 278.061 177.696C275.678 176.054 272.991 174.51 269.971 173.095Z" fill="white"/>
<path opacity="0.15" d="M207.059 224.875C205.606 224.511 204.168 224.118 202.76 223.694C201.368 223.27 200.005 222.816 198.673 222.324C196.759 221.628 194.897 220.856 193.111 220.024C191.65 219.335 190.258 218.623 188.949 217.874C187.814 217.231 186.747 216.565 185.732 215.884C184.726 215.203 183.78 214.507 182.887 213.788H182.879C180.223 211.661 178.112 209.391 176.53 207.03C176.189 206.522 175.871 206.008 175.576 205.493C174.305 203.238 173.518 200.922 173.223 198.591C172.769 195.065 173.427 191.493 175.228 188.049C176.439 185.718 178.172 183.456 180.427 181.291C182.387 179.414 184.741 177.621 187.488 175.941C188.911 175.07 190.409 174.268 191.961 173.511L207.059 224.875Z" fill="white"/>
<path opacity="0.15" d="M180.957 212.123C179.186 210.488 177.718 208.785 176.545 207.03C176.204 206.523 175.886 206.008 175.591 205.493C174.32 203.238 173.533 200.922 173.238 198.591C172.859 195.678 173.26 192.734 174.418 189.858L180.957 212.123Z" fill="white"/>
<path d="M260.034 179.006C242.59 170.908 216.579 171.506 200.596 180.126C199.915 180.489 199.249 180.875 198.605 181.268C182.864 190.963 184.855 205.66 203.04 214.098C221.226 222.544 248.727 221.53 264.469 211.843C265.112 211.449 265.725 211.04 266.308 210.632C280.021 200.96 277.478 187.103 260.034 179.006Z" fill="#F7E300"/>
<path opacity="0.4" d="M260.034 179.006C242.59 170.908 216.579 171.506 200.596 180.126C199.915 180.489 199.249 180.875 198.605 181.268C182.864 190.963 184.855 205.66 203.04 214.098C221.226 222.544 248.727 221.53 264.469 211.843C265.112 211.449 265.725 211.04 266.308 210.632C280.021 200.96 277.478 187.103 260.034 179.006Z" fill="#443F80"/>
<path d="M258.763 179.785C258.203 179.528 257.627 179.271 257.045 179.036C240.426 172.096 216.731 172.906 201.966 180.86C201.83 180.936 201.701 181.004 201.565 181.079C201.05 181.359 200.551 181.654 200.059 181.95C197.069 183.789 194.746 185.817 193.089 187.951C189.138 193.021 188.904 198.675 192.211 203.79C194.156 206.787 197.327 209.603 201.701 212.002C202.518 212.456 203.381 212.895 204.297 213.318C205.129 213.704 205.984 214.075 206.855 214.416C208.686 215.142 210.593 215.778 212.561 216.315C226.327 220.114 243.006 219.494 255.607 214.734C257.408 214.053 259.133 213.288 260.745 212.433C261.517 212.032 262.259 211.601 262.978 211.162C263.591 210.783 264.181 210.397 264.734 210.004C264.893 209.89 265.052 209.784 265.195 209.663C268.873 206.969 271.257 203.949 272.377 200.839C274.284 195.534 272.529 189.949 267.261 185.219C265.067 183.229 262.221 181.39 258.763 179.785Z" fill="#F7E300"/>
<path opacity="0.5" d="M258.763 179.785C258.203 179.528 257.627 179.271 257.045 179.036C240.426 172.096 216.731 172.906 201.966 180.86C201.83 180.936 201.701 181.004 201.565 181.079C201.05 181.359 200.551 181.654 200.059 181.95C197.069 183.789 194.746 185.817 193.089 187.951C189.138 193.021 188.904 198.675 192.211 203.79C194.156 206.787 197.327 209.603 201.701 212.002C202.518 212.456 203.381 212.895 204.297 213.318C205.129 213.704 205.984 214.075 206.855 214.416C208.686 215.142 210.593 215.778 212.561 216.315C226.327 220.114 243.006 219.494 255.607 214.734C257.408 214.053 259.133 213.288 260.745 212.433C261.517 212.032 262.259 211.601 262.978 211.162C263.591 210.783 264.181 210.397 264.734 210.004C264.893 209.89 265.052 209.784 265.195 209.663C268.873 206.969 271.257 203.949 272.377 200.839C274.284 195.534 272.529 189.949 267.261 185.219C265.067 183.229 262.221 181.39 258.763 179.785Z" fill="#443F80"/>
<path d="M257.067 183.925C257.65 184.167 258.225 184.417 258.785 184.674C262.236 186.278 265.081 188.117 267.306 190.108C270.379 192.87 272.248 195.92 272.899 199.038C272.778 199.643 272.611 200.241 272.399 200.839C271.279 203.949 268.903 206.969 265.218 209.663C265.066 209.777 264.915 209.89 264.756 210.004C264.203 210.39 263.613 210.783 263 211.162C262.281 211.608 261.532 212.032 260.768 212.433C259.148 213.288 257.43 214.052 255.629 214.734C243.021 219.501 226.341 220.114 212.583 216.315C210.615 215.77 208.701 215.142 206.877 214.416C205.999 214.068 205.151 213.704 204.319 213.318C203.411 212.895 202.548 212.456 201.723 212.002C197.349 209.603 194.178 206.787 192.233 203.79C191.219 202.224 190.545 200.612 190.197 198.977C190.621 196.889 191.582 194.823 193.126 192.84C194.783 190.706 197.107 188.677 200.096 186.838C200.588 186.536 201.087 186.248 201.602 185.968C201.738 185.892 201.867 185.824 202.003 185.749C216.753 177.787 240.448 176.985 257.067 183.925Z" fill="#F7E300"/>
<path opacity="0.25" d="M257.067 183.925C257.65 184.167 258.225 184.417 258.785 184.674C262.236 186.278 265.081 188.117 267.306 190.108C270.379 192.87 272.248 195.92 272.899 199.038C272.778 199.643 272.611 200.241 272.399 200.839C271.279 203.949 268.903 206.969 265.218 209.663C265.066 209.777 264.915 209.89 264.756 210.004C264.203 210.39 263.613 210.783 263 211.162C262.281 211.608 261.532 212.032 260.768 212.433C259.148 213.288 257.43 214.052 255.629 214.734C243.021 219.501 226.341 220.114 212.583 216.315C210.615 215.77 208.701 215.142 206.877 214.416C205.999 214.068 205.151 213.704 204.319 213.318C203.411 212.895 202.548 212.456 201.723 212.002C197.349 209.603 194.178 206.787 192.233 203.79C191.219 202.224 190.545 200.612 190.197 198.977C190.621 196.889 191.582 194.823 193.126 192.84C194.783 190.706 197.107 188.677 200.096 186.838C200.588 186.536 201.087 186.248 201.602 185.968C201.738 185.892 201.867 185.824 202.003 185.749C216.753 177.787 240.448 176.985 257.067 183.925Z" fill="#443F80"/>
<path d="M288.815 202.898C282.2 217.602 263.704 223.467 248.614 226.116C225.683 229.408 200.725 226.646 182.993 213.599L183.031 213.621C178.21 209.807 174.101 204.744 173.23 198.584C173.972 204.812 177.953 210.072 182.781 213.962L182.751 213.939C197.031 225.011 216.784 228.59 235.711 228.061C254.789 226.956 280.172 221.825 288.815 202.898Z" fill="#F5F5F5"/>
<path d="M207.507 207.393C213.985 210.11 220.327 208.937 226.253 206.833L224.694 208.437L224.701 215.165C226.056 215.49 227.403 215.695 228.712 215.816C231.096 216.02 233.434 215.907 235.682 215.551C239.67 214.93 243.371 213.568 246.534 211.979L252.241 214.378L259.952 209.633L259.945 202.905L258.499 202.285L258.189 202.156C258.302 201.672 258.355 201.149 258.348 200.582C258.34 200.393 258.325 200.219 258.302 200.052C258.204 199.22 258.378 195.428 258.348 193.862C258.34 193.672 258.325 193.498 258.302 193.332C258.075 191.455 256.509 189.767 253.323 188.435C253.323 188.42 253.323 188.42 253.323 188.42C249.925 187.013 246.474 186.717 243.129 187.066C242.849 187.096 242.546 187.141 242.259 187.172L242.16 187.179C241.857 187.225 241.555 187.277 241.252 187.323C240.987 187.368 240.722 187.414 240.457 187.474C240.344 187.505 240.23 187.512 240.14 187.542C239.935 187.58 239.723 187.618 239.534 187.671C237.839 188.057 236.197 188.572 234.615 189.116C233.911 189.366 233.207 189.631 232.511 189.904L234.547 187.785L234.539 181.057C227.986 179.808 220.978 180.867 214.091 184.235L208.385 181.859L200.771 186.725L200.779 193.453L202.565 194.195C202.444 194.626 202.383 195.05 202.399 195.466V195.519C202.459 196.563 202.361 201.013 202.406 202.194V202.247C202.505 204.23 204.124 205.985 207.507 207.393Z" fill="#F7E300"/>
<path opacity="0.15" d="M258.331 194.172C258.346 195.89 258.202 199.28 258.293 200.052C258.308 200.234 258.331 200.4 258.339 200.589C258.354 201.149 258.286 201.672 258.172 202.171L254.07 200.446C254.078 200.438 258.218 198.44 258.331 194.172Z" fill="#443F80"/>
<path opacity="0.45" d="M216.92 194.066C215.209 193.347 214.922 192.015 218.07 189.987C221.445 187.845 224.919 187.293 227.863 188.027L234.538 181.072L234.53 187.792L232.517 189.911C232.441 189.934 232.381 189.964 232.305 189.994C231.215 190.411 230.148 190.85 229.142 191.266C228.733 191.447 228.332 191.621 227.938 191.773C225.085 192.991 222.936 193.869 221.203 194.248C220.106 194.505 219.167 194.588 218.282 194.452C217.813 194.391 217.351 194.255 216.92 194.066Z" fill="#443F80"/>
<path opacity="0.2" d="M202.542 194.194L200.764 193.445L200.771 186.725L206.455 189.109C204.336 190.872 202.981 192.59 202.542 194.194Z" fill="#443F80"/>
<path opacity="0.15" d="M252.233 207.643L259.937 202.905L259.944 209.633L252.225 214.386L246.534 211.979C243.355 213.576 239.655 214.938 235.667 215.551C233.419 215.907 231.08 216.02 228.697 215.824C227.387 215.687 226.048 215.498 224.693 215.165L224.686 208.437C226.04 208.77 227.395 208.967 228.689 209.096C231.088 209.3 233.411 209.179 235.659 208.823C239.647 208.21 243.348 206.856 246.526 205.251L252.233 207.643Z" fill="#443F80"/>
<path opacity="0.2" d="M246.533 211.979C243.892 213.636 240.925 214.825 237.875 215.521C234.825 216.187 231.654 216.384 228.695 215.816C231.76 215.763 234.765 215.438 237.746 214.756C239.237 214.431 240.706 214.007 242.166 213.546C243.634 213.084 245.072 212.532 246.533 211.979Z" fill="#443F80"/>
<path opacity="0.35" d="M202.389 202.247V202.209C202.344 201.021 202.442 196.578 202.382 195.519C202.503 197.509 204.107 199.257 207.49 200.665C215.013 203.798 222.331 201.74 229.028 199.053C235.242 196.541 239.76 193.861 243.4 195.375C245.678 196.336 245.027 197.842 242.545 199.431C238.564 201.982 234.182 201.8 231.798 201.127L226.258 206.833L226.236 206.84C220.31 208.937 213.968 210.095 207.498 207.385C204.115 205.985 202.51 204.237 202.389 202.247Z" fill="#443F80"/>
<path d="M227.871 194.762L227.863 188.034L234.531 181.072L234.538 187.8L227.871 194.762Z" fill="#F7E300"/>
<path opacity="0.15" d="M227.871 194.762L227.863 188.034L234.531 181.072L234.538 187.8L227.871 194.762Z" fill="#443F80"/>
<path d="M200.764 186.733L206.47 189.116L202.55 194.202L200.764 193.46V186.733Z" fill="#F7E300"/>
<path opacity="0.45" d="M200.764 186.733L206.47 189.116L202.55 194.202L200.764 193.46V186.733Z" fill="#443F80"/>
<path d="M258.491 202.292L254.079 200.438C254.079 200.438 258.415 198.342 258.332 193.869C258.324 193.68 258.309 193.506 258.287 193.339C258.06 191.463 256.493 189.775 253.307 188.443C253.307 188.428 253.307 188.428 253.307 188.428C249.909 187.02 246.458 186.725 243.113 187.073C242.833 187.103 242.53 187.149 242.243 187.179L242.144 187.187C241.842 187.232 241.539 187.285 241.236 187.33C240.971 187.376 240.706 187.421 240.442 187.482C240.328 187.512 240.214 187.52 240.124 187.55C239.919 187.588 239.707 187.626 239.518 187.679C237.823 188.065 236.181 188.579 234.599 189.124C233.827 189.396 233.055 189.684 232.306 189.987C231.216 190.411 230.142 190.85 229.128 191.273C228.711 191.455 228.318 191.614 227.924 191.78C225.071 192.999 222.929 193.862 221.189 194.248C220.092 194.497 219.153 194.58 218.275 194.452C217.798 194.384 217.344 194.255 216.905 194.073C215.188 193.354 214.9 192.015 218.056 189.987C221.423 187.838 224.897 187.277 227.849 188.027L234.516 181.064C227.962 179.816 220.954 180.875 214.068 184.243L208.361 181.866L200.748 186.733L206.454 189.109C203.73 191.349 202.292 193.521 202.368 195.473V195.526C202.481 197.502 204.101 199.257 207.483 200.665C214.983 203.806 222.316 201.747 229.006 199.053C235.227 196.533 239.738 193.862 243.385 195.383C245.656 196.336 245.005 197.842 242.515 199.439C238.55 201.982 234.168 201.8 231.769 201.134L224.67 208.437C226.025 208.763 227.372 208.967 228.681 209.088C231.065 209.292 233.403 209.179 235.651 208.823C239.639 208.203 243.34 206.84 246.503 205.251L252.21 207.65L259.921 202.905L258.491 202.292Z" fill="#F7E300"/>
<path opacity="0.1" d="M258.491 202.292L254.079 200.438C254.079 200.438 258.415 198.342 258.332 193.869C258.324 193.68 258.309 193.506 258.287 193.339C258.06 191.463 256.493 189.775 253.307 188.443C253.307 188.428 253.307 188.428 253.307 188.428C249.909 187.02 246.458 186.725 243.113 187.073C242.833 187.103 242.53 187.149 242.243 187.179L242.144 187.187C241.842 187.232 241.539 187.285 241.236 187.33C240.971 187.376 240.706 187.421 240.442 187.482C240.328 187.512 240.214 187.52 240.124 187.55C239.919 187.588 239.707 187.626 239.518 187.679C237.823 188.065 236.181 188.579 234.599 189.124C233.827 189.396 233.055 189.684 232.306 189.987C231.216 190.411 230.142 190.85 229.128 191.273C228.711 191.455 228.318 191.614 227.924 191.78C225.071 192.999 222.929 193.862 221.189 194.248C220.092 194.497 219.153 194.58 218.275 194.452C217.798 194.384 217.344 194.255 216.905 194.073C215.188 193.354 214.9 192.015 218.056 189.987C221.423 187.838 224.897 187.277 227.849 188.027L234.516 181.064C227.962 179.816 220.954 180.875 214.068 184.243L208.361 181.866L200.748 186.733L206.454 189.109C203.73 191.349 202.292 193.521 202.368 195.473V195.526C202.481 197.502 204.101 199.257 207.483 200.665C214.983 203.806 222.316 201.747 229.006 199.053C235.227 196.533 239.738 193.862 243.385 195.383C245.656 196.336 245.005 197.842 242.515 199.439C238.55 201.982 234.168 201.8 231.769 201.134L224.67 208.437C226.025 208.763 227.372 208.967 228.681 209.088C231.065 209.292 233.403 209.179 235.651 208.823C239.639 208.203 243.34 206.84 246.503 205.251L252.21 207.65L259.921 202.905L258.491 202.292Z" fill="white"/>
<path d="M207.498 200.665C210.291 201.732 213.348 202.239 216.428 202.058C219.516 201.914 222.581 201.157 225.547 200.128C228.537 199.144 231.405 197.827 234.334 196.624C235.802 196.034 237.293 195.474 238.844 195.118C240.388 194.785 242.03 194.77 243.408 195.383C242 194.838 240.388 194.929 238.882 195.322C237.368 195.708 235.908 196.298 234.455 196.919C231.564 198.175 228.673 199.5 225.676 200.521C222.679 201.52 219.554 202.3 216.421 202.375C214.862 202.413 213.303 202.315 211.797 202.027C210.298 201.732 208.86 201.255 207.498 200.665Z" fill="white"/>
<path d="M252.233 207.65V214.378L246.527 211.979L246.52 205.259L252.233 207.65Z" fill="#F7E300"/>
<path opacity="0.35" d="M252.233 207.65V214.378L246.527 211.979L246.52 205.259L252.233 207.65Z" fill="#443F80"/>
<path d="M259.937 202.905L252.256 206.901L246.52 205.259L252.233 207.65L259.937 202.905Z" fill="#FAFAFA"/>
<path d="M214.083 184.25L208.415 182.57L200.764 186.733L208.377 181.874L214.083 184.25Z" fill="#FAFAFA"/>
<path opacity="0.15" d="M234.531 181.072C233.35 180.845 232.154 180.724 230.951 180.648L231.89 183.834L234.531 181.072Z" fill="white"/>
<path opacity="0.15" d="M207.756 200.763C211.079 202.103 214.371 202.436 217.587 202.148L212.085 183.418L208.369 181.866L203.178 185.181L204.033 188.095L206.462 189.109C205.834 189.631 205.274 190.146 204.782 190.653L207.756 200.763Z" fill="white"/>
<path opacity="0.15" d="M252.149 187.989C250.264 187.345 248.365 187.028 246.48 186.96L252.504 207.484L257.045 204.691L256.039 201.27L254.071 200.438C254.071 200.438 254.722 200.12 255.517 199.477L252.149 187.989Z" fill="white"/>
<path opacity="0.15" d="M242.144 187.179C241.841 187.224 241.539 187.277 241.236 187.323C240.971 187.368 240.706 187.414 240.441 187.474C240.328 187.504 240.214 187.512 240.123 187.542C239.919 187.58 239.707 187.618 239.518 187.671C237.823 188.057 236.181 188.571 234.599 189.116C234.243 189.237 233.895 189.381 233.547 189.51L235.537 196.291C238.602 195.08 241.16 194.444 243.385 195.375C245.655 196.329 245.005 197.835 242.515 199.431C240.699 200.597 238.799 201.172 237.036 201.407L238.996 208.097C241.705 207.378 244.24 206.379 246.503 205.243L248.66 206.144L243.052 187.05C242.78 187.081 242.492 187.126 242.227 187.156L242.144 187.179Z" fill="white"/>
<path d="M275.919 180.504L282.329 180.481V193.604C282.329 195.156 282.125 196.715 281.701 198.258C281.549 198.788 281.375 199.318 281.171 199.848C280.24 202.3 278.757 204.699 276.698 207.007C276.01 207.779 275.253 208.543 274.436 209.285C273.626 210.034 272.74 210.776 271.787 211.495C270.606 212.395 269.32 213.273 267.927 214.121C266.474 215.006 264.961 215.839 263.371 216.61C262.176 217.193 260.95 217.746 259.678 218.268C241.114 225.934 215.527 226.865 195.117 220.644C193.724 220.22 192.362 219.766 191.023 219.274C189.108 218.578 187.246 217.806 185.46 216.974C184 216.285 182.607 215.574 181.305 214.824C180.17 214.181 179.103 213.515 178.089 212.834C177.083 212.153 176.137 211.457 175.244 210.738H175.236C172.58 208.611 170.468 206.341 168.886 203.98C168.546 203.473 168.228 202.958 167.933 202.443C166.662 200.188 165.874 197.872 165.579 195.542C165.481 194.807 165.443 194.073 165.443 193.339L165.436 180.936L171.301 180.913C171.77 180.398 172.262 179.899 172.784 179.392C174.744 177.515 177.098 175.721 179.845 174.041C181.442 173.065 183.129 172.157 184.893 171.317C187.155 170.235 189.539 169.258 192.029 168.403C208.815 162.599 230.186 161.819 248.342 166.33C251.043 166.996 253.669 167.79 256.189 168.691C258.301 169.447 260.344 170.28 262.297 171.196C265.316 172.611 268.003 174.155 270.349 175.797C272.506 177.295 274.352 178.87 275.919 180.504Z" fill="#F7E300"/>
<path opacity="0.15" d="M165.451 180.935L171.316 180.913C171.785 180.398 172.277 179.899 172.799 179.392C174.759 177.515 177.113 175.721 179.86 174.041C181.457 173.065 183.145 172.157 184.908 171.317C187.171 170.234 189.555 169.258 192.044 168.403C194.39 167.593 196.835 166.889 199.34 166.276L199.385 221.825C197.94 221.461 196.517 221.075 195.117 220.652C193.725 220.228 192.362 219.774 191.023 219.282C189.108 218.586 187.246 217.814 185.46 216.981C184 216.293 182.607 215.581 181.306 214.832C180.17 214.189 179.103 213.523 178.089 212.842C177.083 212.161 176.137 211.464 175.244 210.745H175.236C172.58 208.619 170.468 206.348 168.887 203.987C168.546 203.48 168.228 202.966 167.933 202.451C166.662 200.196 165.875 197.88 165.58 195.549C165.481 194.815 165.443 194.081 165.443 193.347L165.451 180.935Z" fill="white"/>
<path d="M262.313 157.165C260.353 156.249 258.31 155.417 256.206 154.66C253.678 153.759 251.052 152.965 248.358 152.299C230.195 147.788 208.823 148.568 192.045 154.372C189.556 155.227 187.172 156.204 184.909 157.286C183.146 158.126 181.458 159.034 179.861 160.01C177.107 161.69 174.753 163.484 172.8 165.361C170.538 167.525 168.805 169.788 167.601 172.119C165.8 175.562 165.142 179.134 165.596 182.661C165.891 184.992 166.678 187.315 167.949 189.563C168.237 190.077 168.562 190.592 168.903 191.099C170.477 193.453 172.596 195.723 175.252 197.857H175.26C176.145 198.569 177.099 199.272 178.105 199.954C179.12 200.635 180.187 201.301 181.322 201.944C182.631 202.693 184.016 203.404 185.484 204.093C187.27 204.933 189.132 205.698 191.047 206.394C192.378 206.886 193.741 207.34 195.141 207.764C215.551 213.984 241.138 213.054 259.702 205.387C260.966 204.865 262.2 204.313 263.395 203.73C264.985 202.958 266.498 202.126 267.951 201.24C269.344 200.392 270.63 199.515 271.811 198.614C272.764 197.895 273.65 197.153 274.46 196.404C275.277 195.663 276.034 194.898 276.722 194.126C278.781 191.826 280.264 189.419 281.195 186.967C281.392 186.437 281.573 185.908 281.725 185.378C282.368 183.054 282.527 180.701 282.194 178.37C281.694 174.843 280.083 171.355 277.373 168.078C275.542 165.86 273.226 163.741 270.403 161.766C268.019 160.124 265.333 158.58 262.313 157.165Z" fill="#F7E300"/>
<path opacity="0.1" d="M262.313 157.165C260.353 156.249 258.31 155.417 256.206 154.66C253.678 153.759 251.052 152.965 248.358 152.299C230.195 147.788 208.823 148.568 192.045 154.372C189.556 155.227 187.172 156.204 184.909 157.286C183.146 158.126 181.458 159.034 179.861 160.01C177.107 161.69 174.753 163.484 172.8 165.361C170.538 167.525 168.805 169.788 167.601 172.119C165.8 175.562 165.142 179.134 165.596 182.661C165.891 184.992 166.678 187.315 167.949 189.563C168.237 190.077 168.562 190.592 168.903 191.099C170.477 193.453 172.596 195.723 175.252 197.857H175.26C176.145 198.569 177.099 199.272 178.105 199.954C179.12 200.635 180.187 201.301 181.322 201.944C182.631 202.693 184.016 203.404 185.484 204.093C187.27 204.933 189.132 205.698 191.047 206.394C192.378 206.886 193.741 207.34 195.141 207.764C215.551 213.984 241.138 213.054 259.702 205.387C260.966 204.865 262.2 204.313 263.395 203.73C264.985 202.958 266.498 202.126 267.951 201.24C269.344 200.392 270.63 199.515 271.811 198.614C272.764 197.895 273.65 197.153 274.46 196.404C275.277 195.663 276.034 194.898 276.722 194.126C278.781 191.826 280.264 189.419 281.195 186.967C281.392 186.437 281.573 185.908 281.725 185.378C282.368 183.054 282.527 180.701 282.194 178.37C281.694 174.843 280.083 171.355 277.373 168.078C275.542 165.86 273.226 163.741 270.403 161.766C268.019 160.124 265.333 158.58 262.313 157.165Z" fill="white"/>
<path opacity="0.2" d="M262.313 157.165C260.353 156.249 258.31 155.417 256.206 154.66C253.678 153.759 251.052 152.965 248.358 152.299C230.195 147.788 208.823 148.568 192.045 154.372C189.556 155.227 187.172 156.204 184.909 157.286C183.146 158.126 181.458 159.034 179.861 160.01C177.107 161.69 174.753 163.484 172.8 165.361C170.538 167.525 168.805 169.788 167.601 172.119C165.8 175.562 165.142 179.134 165.596 182.661C165.891 184.992 166.678 187.315 167.949 189.563C168.237 190.077 168.562 190.592 168.903 191.099C170.477 193.453 172.596 195.723 175.252 197.857H175.26C176.145 198.569 177.099 199.272 178.105 199.954C179.12 200.635 180.187 201.301 181.322 201.944C182.631 202.693 184.016 203.404 185.484 204.093C187.27 204.933 189.132 205.698 191.047 206.394C192.378 206.886 193.741 207.34 195.141 207.764C215.551 213.984 241.138 213.054 259.702 205.387C260.966 204.865 262.2 204.313 263.395 203.73C264.985 202.958 266.498 202.126 267.951 201.24C269.344 200.392 270.63 199.515 271.811 198.614C272.764 197.895 273.65 197.153 274.46 196.404C275.277 195.663 276.034 194.898 276.722 194.126C278.781 191.826 280.264 189.419 281.195 186.967C281.392 186.437 281.573 185.908 281.725 185.378C282.368 183.054 282.527 180.701 282.194 178.37C281.694 174.843 280.083 171.355 277.373 168.078C275.542 165.86 273.226 163.741 270.403 161.766C268.019 160.124 265.333 158.58 262.313 157.165Z" fill="white"/>
<path opacity="0.15" d="M199.4 208.952C197.947 208.588 196.51 208.195 195.102 207.771C193.709 207.347 192.347 206.893 191.015 206.401C189.101 205.705 187.239 204.933 185.453 204.101C183.992 203.412 182.6 202.701 181.291 201.951C180.155 201.308 179.088 200.642 178.074 199.961C177.068 199.28 176.122 198.584 175.229 197.865H175.221C172.565 195.738 170.453 193.468 168.872 191.107C168.531 190.6 168.213 190.085 167.918 189.57C166.647 187.315 165.86 184.999 165.565 182.668C165.11 179.142 165.769 175.57 167.57 172.126C168.781 169.796 170.514 167.533 172.769 165.368C174.729 163.492 177.083 161.698 179.83 160.018C181.253 159.148 182.751 158.345 184.303 157.589L199.4 208.952Z" fill="white"/>
<path opacity="0.15" d="M173.299 196.192C171.528 194.558 170.06 192.855 168.887 191.099C168.546 190.592 168.228 190.078 167.933 189.563C166.662 187.308 165.875 184.992 165.579 182.661C165.201 179.747 165.602 176.803 166.76 173.928L173.299 196.192Z" fill="white"/>
<path d="M252.376 163.075C234.932 154.978 208.921 155.575 192.938 164.195C192.256 164.559 191.59 164.944 190.947 165.338C175.206 175.032 177.196 189.729 195.382 198.167C213.568 206.613 241.069 205.599 256.81 195.912C257.454 195.519 258.067 195.11 258.649 194.701C272.362 185.03 269.82 171.18 252.376 163.075Z" fill="#F7E300"/>
<path opacity="0.4" d="M252.376 163.075C234.932 154.978 208.921 155.575 192.938 164.195C192.256 164.559 191.59 164.944 190.947 165.338C175.206 175.032 177.196 189.729 195.382 198.167C213.568 206.613 241.069 205.599 256.81 195.912C257.454 195.519 258.067 195.11 258.649 194.701C272.362 185.03 269.82 171.18 252.376 163.075Z" fill="#443F80"/>
<path d="M251.104 163.862C250.544 163.605 249.969 163.348 249.387 163.113C232.767 156.173 209.072 156.983 194.308 164.937C194.171 165.013 194.043 165.081 193.906 165.156C193.392 165.436 192.892 165.732 192.4 166.027C189.411 167.866 187.088 169.894 185.43 172.028C181.48 177.099 181.245 182.752 184.553 187.868C186.498 190.865 189.668 193.68 194.043 196.079C194.86 196.533 195.723 196.972 196.638 197.396C197.471 197.782 198.326 198.152 199.196 198.493C201.028 199.219 202.935 199.855 204.903 200.392C218.669 204.192 235.348 203.571 247.949 198.811C249.75 198.13 251.475 197.365 253.087 196.51C253.859 196.109 254.601 195.678 255.32 195.239C255.933 194.86 256.523 194.474 257.075 194.081C257.234 193.967 257.393 193.861 257.537 193.74C261.215 191.046 263.599 188.027 264.719 184.916C266.626 179.611 264.87 174.026 259.603 169.296C257.408 167.306 254.563 165.459 251.104 163.862Z" fill="#F7E300"/>
<path opacity="0.5" d="M251.104 163.862C250.544 163.605 249.969 163.348 249.387 163.113C232.767 156.173 209.072 156.983 194.308 164.937C194.171 165.013 194.043 165.081 193.906 165.156C193.392 165.436 192.892 165.732 192.4 166.027C189.411 167.866 187.088 169.894 185.43 172.028C181.48 177.099 181.245 182.752 184.553 187.868C186.498 190.865 189.668 193.68 194.043 196.079C194.86 196.533 195.723 196.972 196.638 197.396C197.471 197.782 198.326 198.152 199.196 198.493C201.028 199.219 202.935 199.855 204.903 200.392C218.669 204.192 235.348 203.571 247.949 198.811C249.75 198.13 251.475 197.365 253.087 196.51C253.859 196.109 254.601 195.678 255.32 195.239C255.933 194.86 256.523 194.474 257.075 194.081C257.234 193.967 257.393 193.861 257.537 193.74C261.215 191.046 263.599 188.027 264.719 184.916C266.626 179.611 264.87 174.026 259.603 169.296C257.408 167.306 254.563 165.459 251.104 163.862Z" fill="#443F80"/>
<path d="M249.409 167.994C249.991 168.237 250.567 168.486 251.127 168.744C254.578 170.348 257.423 172.187 259.648 174.177C262.721 176.94 264.59 179.989 265.241 183.107C265.12 183.713 264.953 184.311 264.741 184.909C263.621 188.019 261.245 191.039 257.559 193.733C257.408 193.846 257.257 193.96 257.098 194.073C256.545 194.459 255.955 194.853 255.342 195.231C254.623 195.678 253.874 196.101 253.109 196.503C251.49 197.358 249.772 198.122 247.971 198.803C235.363 203.571 218.683 204.184 204.925 200.385C202.957 199.84 201.043 199.212 199.219 198.485C198.341 198.137 197.493 197.774 196.661 197.388C195.753 196.964 194.89 196.525 194.065 196.071C189.691 193.672 186.52 190.857 184.575 187.86C183.561 186.293 182.887 184.681 182.539 183.047C182.963 180.958 183.924 178.892 185.468 176.909C187.125 174.775 189.449 172.747 192.438 170.908C192.93 170.605 193.429 170.318 193.944 170.038C194.08 169.962 194.209 169.894 194.345 169.818C209.095 161.864 232.79 161.055 249.409 167.994Z" fill="#F7E300"/>
<path opacity="0.25" d="M249.409 167.994C249.991 168.237 250.567 168.486 251.127 168.744C254.578 170.348 257.423 172.187 259.648 174.177C262.721 176.94 264.59 179.989 265.241 183.107C265.12 183.713 264.953 184.311 264.741 184.909C263.621 188.019 261.245 191.039 257.559 193.733C257.408 193.846 257.257 193.96 257.098 194.073C256.545 194.459 255.955 194.853 255.342 195.231C254.623 195.678 253.874 196.101 253.109 196.503C251.49 197.358 249.772 198.122 247.971 198.803C235.363 203.571 218.683 204.184 204.925 200.385C202.957 199.84 201.043 199.212 199.219 198.485C198.341 198.137 197.493 197.774 196.661 197.388C195.753 196.964 194.89 196.525 194.065 196.071C189.691 193.672 186.52 190.857 184.575 187.86C183.561 186.293 182.887 184.681 182.539 183.047C182.963 180.958 183.924 178.892 185.468 176.909C187.125 174.775 189.449 172.747 192.438 170.908C192.93 170.605 193.429 170.318 193.944 170.038C194.08 169.962 194.209 169.894 194.345 169.818C209.095 161.864 232.79 161.055 249.409 167.994Z" fill="#443F80"/>
<path d="M281.156 186.967C274.542 201.672 256.046 207.537 240.956 210.185C218.025 213.477 193.066 210.715 175.335 197.668L175.373 197.691C170.552 193.877 166.443 188.814 165.572 182.653C166.314 188.882 170.295 194.141 175.123 198.031L175.093 198.009C189.373 209.08 209.125 212.66 228.053 212.13C247.131 211.033 272.514 205.902 281.156 186.967Z" fill="#F5F5F5"/>
<path d="M199.847 191.47C206.325 194.187 212.667 193.014 218.592 190.91L217.033 192.514L217.041 199.242C218.396 199.567 219.743 199.772 221.052 199.893C223.436 200.097 225.774 199.984 228.022 199.628C232.01 199.007 235.711 197.645 238.874 196.056L244.58 198.455L252.292 193.71L252.285 186.982L250.839 186.361L250.529 186.233C250.642 185.748 250.703 185.226 250.688 184.666C250.68 184.477 250.665 184.303 250.642 184.137C250.544 183.304 250.718 179.513 250.688 177.946C250.68 177.757 250.665 177.583 250.642 177.416C250.415 175.539 248.849 173.852 245.663 172.52C245.663 172.505 245.663 172.505 245.663 172.505C242.265 171.097 238.814 170.802 235.469 171.15C235.189 171.18 234.886 171.226 234.598 171.256L234.5 171.264C234.197 171.309 233.895 171.362 233.592 171.407C233.327 171.453 233.062 171.498 232.797 171.559C232.684 171.589 232.57 171.597 232.479 171.627C232.275 171.665 232.063 171.703 231.874 171.755C230.179 172.141 228.537 172.656 226.955 173.201C226.251 173.451 225.547 173.716 224.851 173.988L226.887 171.869L226.879 165.141C220.325 163.892 213.318 164.952 206.431 168.32L200.725 165.943L193.111 170.81L193.119 177.537L194.905 178.279C194.784 178.71 194.723 179.134 194.738 179.55V179.603C194.799 180.648 194.701 185.098 194.746 186.278V186.331C194.844 188.306 196.464 190.055 199.847 191.47Z" fill="#F7E300"/>
<path opacity="0.15" d="M250.673 178.249C250.688 179.967 250.544 183.357 250.635 184.129C250.65 184.311 250.673 184.477 250.68 184.666C250.696 185.226 250.627 185.749 250.514 186.248L246.412 184.523C246.42 184.515 250.559 182.509 250.673 178.249Z" fill="#443F80"/>
<path opacity="0.45" d="M209.254 178.143C207.543 177.424 207.256 176.092 210.404 174.064C213.779 171.922 217.253 171.37 220.197 172.104L226.872 165.149L226.864 171.869L224.851 173.988C224.775 174.011 224.715 174.041 224.639 174.071C223.549 174.488 222.482 174.926 221.476 175.343C221.067 175.524 220.666 175.698 220.272 175.85C217.419 177.068 215.27 177.946 213.537 178.324C212.44 178.582 211.501 178.665 210.616 178.529C210.154 178.461 209.692 178.324 209.254 178.143Z" fill="#443F80"/>
<path opacity="0.2" d="M194.882 178.271L193.104 177.522L193.111 170.802L198.795 173.186C196.676 174.942 195.321 176.659 194.882 178.271Z" fill="#443F80"/>
<path opacity="0.15" d="M244.574 191.72L252.278 186.982L252.286 193.71L244.567 198.463L238.876 196.056C235.697 197.653 231.997 199.015 228.008 199.628C225.761 199.984 223.422 200.097 221.038 199.9C219.729 199.764 218.39 199.575 217.035 199.242L217.027 192.514C218.382 192.847 219.737 193.044 221.031 193.173C223.43 193.377 225.753 193.256 228.001 192.9C231.989 192.287 235.69 190.933 238.868 189.328L244.574 191.72Z" fill="#443F80"/>
<path opacity="0.2" d="M238.875 196.048C236.233 197.706 233.267 198.894 230.217 199.59C227.167 200.256 223.996 200.453 221.037 199.885C224.102 199.832 227.107 199.507 230.088 198.826C231.579 198.5 233.047 198.077 234.508 197.615C235.976 197.153 237.414 196.601 238.875 196.048Z" fill="#443F80"/>
<path opacity="0.35" d="M194.731 186.316V186.278C194.686 185.09 194.784 180.648 194.724 179.588C194.845 181.579 196.449 183.327 199.832 184.734C207.354 187.867 214.673 185.809 221.37 183.122C227.583 180.61 232.101 177.931 235.741 179.444C238.019 180.406 237.369 181.912 234.886 183.501C230.906 186.051 226.524 185.869 224.14 185.196L218.6 190.902L218.578 190.91C212.652 193.006 206.31 194.164 199.839 191.455C196.457 190.055 194.852 188.306 194.731 186.316Z" fill="#443F80"/>
<path d="M220.213 178.831L220.205 172.111L226.872 165.149L226.88 171.869L220.213 178.831Z" fill="#F7E300"/>
<path opacity="0.15" d="M220.213 178.831L220.205 172.111L226.872 165.149L226.88 171.869L220.213 178.831Z" fill="#443F80"/>
<path d="M193.104 170.81L198.81 173.186L194.89 178.279L193.104 177.53V170.81Z" fill="#F7E300"/>
<path opacity="0.45" d="M193.104 170.81L198.81 173.186L194.89 178.279L193.104 177.53V170.81Z" fill="#443F80"/>
<path d="M250.833 186.362L246.421 184.507C246.421 184.507 250.757 182.411 250.674 177.939C250.666 177.749 250.651 177.575 250.628 177.409C250.401 175.532 248.835 173.844 245.649 172.512C245.649 172.497 245.649 172.497 245.649 172.497C242.251 171.09 238.8 170.794 235.455 171.143C235.175 171.173 234.872 171.218 234.584 171.249L234.486 171.256C234.183 171.302 233.881 171.355 233.578 171.4C233.313 171.445 233.048 171.491 232.783 171.551C232.67 171.582 232.556 171.589 232.465 171.619C232.261 171.657 232.049 171.695 231.86 171.748C230.165 172.134 228.523 172.649 226.941 173.194C226.169 173.466 225.397 173.754 224.648 174.056C223.558 174.48 222.483 174.919 221.469 175.343C221.053 175.524 220.66 175.683 220.266 175.85C217.413 177.068 215.271 177.931 213.531 178.317C212.433 178.567 211.495 178.65 210.617 178.521C210.14 178.453 209.686 178.325 209.247 178.143C207.529 177.424 207.242 176.084 210.398 174.056C213.765 171.907 217.239 171.347 220.19 172.096L226.858 165.134C220.304 163.885 213.296 164.945 206.409 168.312L200.703 165.936L193.09 170.802L198.796 173.178C196.072 175.418 194.634 177.59 194.709 179.543V179.596C194.823 181.571 196.442 183.327 199.825 184.735C207.325 187.875 214.658 185.809 221.348 183.123C227.569 180.602 232.08 177.931 235.727 179.452C237.998 180.406 237.347 181.912 234.857 183.509C230.891 186.051 226.51 185.87 224.111 185.204L217.012 192.507C218.359 192.832 219.714 193.036 221.023 193.158C223.407 193.362 225.745 193.248 227.993 192.893C231.981 192.272 235.682 190.91 238.845 189.321L244.551 191.72L252.263 186.975L250.833 186.362Z" fill="#F7E300"/>
<path opacity="0.1" d="M250.833 186.362L246.421 184.507C246.421 184.507 250.757 182.411 250.674 177.939C250.666 177.749 250.651 177.575 250.628 177.409C250.401 175.532 248.835 173.844 245.649 172.512C245.649 172.497 245.649 172.497 245.649 172.497C242.251 171.09 238.8 170.794 235.455 171.143C235.175 171.173 234.872 171.218 234.584 171.249L234.486 171.256C234.183 171.302 233.881 171.355 233.578 171.4C233.313 171.445 233.048 171.491 232.783 171.551C232.67 171.582 232.556 171.589 232.465 171.619C232.261 171.657 232.049 171.695 231.86 171.748C230.165 172.134 228.523 172.649 226.941 173.194C226.169 173.466 225.397 173.754 224.648 174.056C223.558 174.48 222.483 174.919 221.469 175.343C221.053 175.524 220.66 175.683 220.266 175.85C217.413 177.068 215.271 177.931 213.531 178.317C212.433 178.567 211.495 178.65 210.617 178.521C210.14 178.453 209.686 178.325 209.247 178.143C207.529 177.424 207.242 176.084 210.398 174.056C213.765 171.907 217.239 171.347 220.19 172.096L226.858 165.134C220.304 163.885 213.296 164.945 206.409 168.312L200.703 165.936L193.09 170.802L198.796 173.178C196.072 175.418 194.634 177.59 194.709 179.543V179.596C194.823 181.571 196.442 183.327 199.825 184.735C207.325 187.875 214.658 185.809 221.348 183.123C227.569 180.602 232.08 177.931 235.727 179.452C237.998 180.406 237.347 181.912 234.857 183.509C230.891 186.051 226.51 185.87 224.111 185.204L217.012 192.507C218.359 192.832 219.714 193.036 221.023 193.158C223.407 193.362 225.745 193.248 227.993 192.893C231.981 192.272 235.682 190.91 238.845 189.321L244.551 191.72L252.263 186.975L250.833 186.362Z" fill="white"/>
<path d="M199.84 184.742C202.632 185.809 205.69 186.316 208.77 186.135C211.858 185.991 214.923 185.226 217.889 184.205C220.871 183.221 223.747 181.904 226.676 180.701C228.144 180.11 229.635 179.55 231.186 179.195C232.73 178.862 234.372 178.847 235.749 179.46C234.342 178.915 232.73 179.006 231.224 179.399C229.71 179.785 228.25 180.375 226.797 180.996C223.906 182.252 221.015 183.577 218.018 184.598C215.021 185.597 211.895 186.377 208.762 186.452C207.203 186.49 205.644 186.392 204.138 186.104C202.64 185.802 201.202 185.332 199.84 184.742Z" fill="white"/>
<path d="M244.566 191.727L244.573 198.447L238.867 196.056L238.859 189.328L244.566 191.727Z" fill="#F7E300"/>
<path opacity="0.35" d="M244.566 191.727L244.573 198.447L238.867 196.056L238.859 189.328L244.566 191.727Z" fill="#443F80"/>
<path d="M252.277 186.982L244.596 190.97L238.859 189.328L244.566 191.727L252.277 186.982Z" fill="#FAFAFA"/>
<path d="M206.423 168.327L200.755 166.64L193.104 170.81L200.717 165.943L206.423 168.327Z" fill="#FAFAFA"/>
<path opacity="0.15" d="M226.873 165.149C225.692 164.922 224.496 164.801 223.293 164.725L224.231 167.911L226.873 165.149Z" fill="white"/>
<path opacity="0.15" d="M200.098 184.84C203.42 186.18 206.712 186.513 209.929 186.225L204.427 167.495L200.711 165.943L195.52 169.258L196.375 172.172L198.804 173.186C198.176 173.708 197.616 174.223 197.124 174.73L200.098 184.84Z" fill="white"/>
<path opacity="0.15" d="M244.491 172.058C242.606 171.415 240.707 171.097 238.822 171.029L244.846 191.553L249.387 188.76L248.38 185.34L246.413 184.515C246.413 184.515 247.064 184.197 247.858 183.554L244.491 172.058Z" fill="white"/>
<path opacity="0.15" d="M234.486 171.256C234.183 171.301 233.88 171.354 233.578 171.4C233.313 171.445 233.048 171.49 232.783 171.551C232.669 171.581 232.556 171.589 232.465 171.619C232.261 171.657 232.049 171.695 231.86 171.748C230.165 172.134 228.522 172.648 226.941 173.193C226.585 173.314 226.237 173.458 225.889 173.587L227.879 180.368C230.944 179.157 233.502 178.521 235.727 179.452C237.997 180.405 237.346 181.911 234.857 183.508C233.04 184.674 231.141 185.249 229.377 185.483L231.338 192.173C234.047 191.454 236.582 190.456 238.845 189.32L241.002 190.221L235.394 171.127C235.121 171.157 234.834 171.203 234.569 171.233L234.486 171.256Z" fill="white"/>
<path d="M270.13 163.824L276.54 163.802V176.924C276.54 178.476 276.336 180.035 275.912 181.579C275.76 182.108 275.586 182.638 275.382 183.168C274.451 185.62 272.968 188.019 270.909 190.327C270.221 191.099 269.464 191.863 268.647 192.605C267.837 193.354 266.951 194.096 265.998 194.815C264.817 195.715 263.531 196.593 262.138 197.441C260.685 198.326 259.172 199.159 257.582 199.931C256.387 200.513 255.161 201.066 253.889 201.588C235.325 209.254 209.738 210.185 189.328 203.964C187.935 203.541 186.573 203.087 185.233 202.595C183.319 201.898 181.457 201.126 179.671 200.294C178.21 199.605 176.818 198.894 175.516 198.145C174.381 197.501 173.314 196.835 172.3 196.154C171.293 195.473 170.347 194.777 169.454 194.058H169.447C166.791 191.931 164.679 189.661 163.097 187.3C162.757 186.793 162.439 186.278 162.144 185.764C160.872 183.508 160.085 181.193 159.79 178.862C159.692 178.128 159.654 177.394 159.654 176.66L159.646 164.256L165.512 164.233C165.981 163.718 166.473 163.211 166.995 162.712C168.955 160.835 171.309 159.042 174.056 157.361C175.653 156.385 177.34 155.477 179.103 154.637C181.366 153.555 183.75 152.579 186.24 151.723C203.026 145.919 224.397 145.139 242.553 149.65C245.254 150.316 247.88 151.11 250.4 152.011C252.512 152.768 254.555 153.6 256.508 154.516C259.527 155.931 262.214 157.475 264.56 159.117C266.717 160.608 268.563 162.19 270.13 163.824Z" fill="#F7E300"/>
<path opacity="0.15" d="M159.662 164.248L165.527 164.225C165.996 163.711 166.488 163.204 167.01 162.704C168.97 160.828 171.324 159.034 174.071 157.354C175.668 156.378 177.356 155.469 179.119 154.629C181.382 153.547 183.766 152.571 186.255 151.716C188.601 150.906 191.046 150.202 193.551 149.589L193.596 205.137C192.151 204.774 190.728 204.388 189.328 203.964C187.935 203.541 186.573 203.087 185.234 202.595C183.319 201.898 181.457 201.126 179.671 200.294C178.211 199.605 176.818 198.894 175.517 198.145C174.381 197.501 173.314 196.835 172.3 196.154C171.294 195.473 170.348 194.777 169.455 194.058H169.447C166.791 191.931 164.679 189.661 163.098 187.3C162.757 186.793 162.439 186.278 162.144 185.764C160.873 183.508 160.086 181.193 159.791 178.862C159.692 178.128 159.654 177.394 159.654 176.66L159.662 164.248Z" fill="white"/>
<path d="M256.522 140.485C254.562 139.569 252.519 138.737 250.415 137.98C247.887 137.08 245.261 136.285 242.567 135.619C224.404 131.108 203.032 131.888 186.254 137.693C183.765 138.548 181.381 139.524 179.118 140.606C177.355 141.446 175.667 142.354 174.07 143.331C171.315 145.011 168.962 146.804 167.009 148.681C164.747 150.845 163.014 153.108 161.81 155.439C160.009 158.883 159.351 162.455 159.805 165.981C160.1 168.312 160.887 170.635 162.158 172.883C162.446 173.398 162.771 173.912 163.112 174.419C164.686 176.773 166.805 179.043 169.461 181.177H169.469C170.354 181.889 171.308 182.593 172.314 183.274C173.329 183.955 174.396 184.621 175.531 185.264C176.84 186.013 178.225 186.725 179.693 187.413C181.479 188.253 183.341 189.018 185.256 189.714C186.587 190.206 187.95 190.66 189.35 191.084C209.76 197.305 235.347 196.374 253.911 188.708C255.175 188.185 256.409 187.633 257.604 187.05C259.194 186.278 260.707 185.446 262.16 184.56C263.553 183.713 264.839 182.835 266.02 181.934C266.973 181.215 267.859 180.474 268.669 179.724C269.486 178.983 270.243 178.218 270.931 177.447C272.99 175.146 274.473 172.739 275.404 170.287C275.601 169.758 275.782 169.228 275.934 168.698C276.577 166.375 276.736 164.021 276.403 161.69C275.903 158.164 274.292 154.675 271.582 151.398C269.751 149.181 267.435 147.062 264.612 145.086C262.236 143.444 259.549 141.9 256.522 140.485Z" fill="#F7E300"/>
<path opacity="0.1" d="M256.522 140.485C254.562 139.569 252.519 138.737 250.415 137.98C247.887 137.08 245.261 136.285 242.567 135.619C224.404 131.108 203.032 131.888 186.254 137.693C183.765 138.548 181.381 139.524 179.118 140.606C177.355 141.446 175.667 142.354 174.07 143.331C171.315 145.011 168.962 146.804 167.009 148.681C164.747 150.845 163.014 153.108 161.81 155.439C160.009 158.883 159.351 162.455 159.805 165.981C160.1 168.312 160.887 170.635 162.158 172.883C162.446 173.398 162.771 173.912 163.112 174.419C164.686 176.773 166.805 179.043 169.461 181.177H169.469C170.354 181.889 171.308 182.593 172.314 183.274C173.329 183.955 174.396 184.621 175.531 185.264C176.84 186.013 178.225 186.725 179.693 187.413C181.479 188.253 183.341 189.018 185.256 189.714C186.587 190.206 187.95 190.66 189.35 191.084C209.76 197.305 235.347 196.374 253.911 188.708C255.175 188.185 256.409 187.633 257.604 187.05C259.194 186.278 260.707 185.446 262.16 184.56C263.553 183.713 264.839 182.835 266.02 181.934C266.973 181.215 267.859 180.474 268.669 179.724C269.486 178.983 270.243 178.218 270.931 177.447C272.99 175.146 274.473 172.739 275.404 170.287C275.601 169.758 275.782 169.228 275.934 168.698C276.577 166.375 276.736 164.021 276.403 161.69C275.903 158.164 274.292 154.675 271.582 151.398C269.751 149.181 267.435 147.062 264.612 145.086C262.236 143.444 259.549 141.9 256.522 140.485Z" fill="white"/>
<path opacity="0.2" d="M256.522 140.485C254.562 139.569 252.519 138.737 250.415 137.98C247.887 137.08 245.261 136.285 242.567 135.619C224.404 131.108 203.032 131.888 186.254 137.693C183.765 138.548 181.381 139.524 179.118 140.606C177.355 141.446 175.667 142.354 174.07 143.331C171.315 145.011 168.962 146.804 167.009 148.681C164.747 150.845 163.014 153.108 161.81 155.439C160.009 158.883 159.351 162.455 159.805 165.981C160.1 168.312 160.887 170.635 162.158 172.883C162.446 173.398 162.771 173.912 163.112 174.419C164.686 176.773 166.805 179.043 169.461 181.177H169.469C170.354 181.889 171.308 182.593 172.314 183.274C173.329 183.955 174.396 184.621 175.531 185.264C176.84 186.013 178.225 186.725 179.693 187.413C181.479 188.253 183.341 189.018 185.256 189.714C186.587 190.206 187.95 190.66 189.35 191.084C209.76 197.305 235.347 196.374 253.911 188.708C255.175 188.185 256.409 187.633 257.604 187.05C259.194 186.278 260.707 185.446 262.16 184.56C263.553 183.713 264.839 182.835 266.02 181.934C266.973 181.215 267.859 180.474 268.669 179.724C269.486 178.983 270.243 178.218 270.931 177.447C272.99 175.146 274.473 172.739 275.404 170.287C275.601 169.758 275.782 169.228 275.934 168.698C276.577 166.375 276.736 164.021 276.403 161.69C275.903 158.164 274.292 154.675 271.582 151.398C269.751 149.181 267.435 147.062 264.612 145.086C262.236 143.444 259.549 141.9 256.522 140.485Z" fill="white"/>
<path opacity="0.15" d="M249.014 190.509C247.41 191.038 245.76 191.53 244.08 191.969L226.795 133.091C228.649 133.242 230.496 133.432 232.327 133.681L249.014 190.509Z" fill="white"/>
<path opacity="0.3" d="M259.42 141.945C260.184 142.354 260.918 142.778 261.637 143.202C261.872 143.345 262.114 143.489 262.349 143.633C262.591 143.784 262.825 143.928 263.06 144.08C263.575 144.412 264.089 144.745 264.574 145.094C267.396 147.069 269.72 149.188 271.544 151.405C274.253 154.682 275.865 158.171 276.364 161.698C276.697 164.028 276.538 166.382 275.895 168.705C275.744 169.235 275.57 169.765 275.365 170.295C274.435 172.747 272.951 175.146 270.893 177.454C270.636 177.741 270.363 178.021 270.091 178.309L259.42 141.945Z" fill="#F7E300"/>
<path d="M246.585 146.395C229.141 138.298 203.13 138.896 187.147 147.515C186.465 147.879 185.799 148.265 185.156 148.658C169.415 158.353 171.405 173.049 189.591 181.488C207.777 189.933 235.278 188.919 251.019 179.232C251.663 178.839 252.276 178.43 252.858 178.022C266.571 168.35 264.036 154.493 246.585 146.395Z" fill="#F7E300"/>
<path opacity="0.4" d="M246.585 146.395C229.141 138.298 203.13 138.896 187.147 147.515C186.465 147.879 185.799 148.265 185.156 148.658C169.415 158.353 171.405 173.049 189.591 181.488C207.777 189.933 235.278 188.919 251.019 179.232C251.663 178.839 252.276 178.43 252.858 178.022C266.571 168.35 264.036 154.493 246.585 146.395Z" fill="#443F80"/>
<path d="M245.321 147.175C244.761 146.918 244.186 146.66 243.603 146.426C226.984 139.486 203.289 140.296 188.524 148.25C188.388 148.325 188.259 148.393 188.123 148.469C187.609 148.749 187.109 149.044 186.617 149.339C183.628 151.178 181.305 153.207 179.647 155.341C175.697 160.411 175.462 166.064 178.769 171.18C180.714 174.177 183.885 176.992 188.259 179.391C189.077 179.845 189.94 180.284 190.855 180.708C191.688 181.094 192.543 181.465 193.413 181.806C195.245 182.532 197.152 183.168 199.119 183.705C212.885 187.504 229.565 186.884 242.165 182.123C243.967 181.442 245.692 180.678 247.304 179.823C248.076 179.422 248.818 178.99 249.537 178.551C250.15 178.173 250.74 177.787 251.292 177.393C251.451 177.28 251.61 177.174 251.754 177.053C255.432 174.359 257.816 171.339 258.936 168.229C260.843 162.924 259.087 157.339 253.82 152.609C251.618 150.618 248.772 148.779 245.321 147.175Z" fill="#F7E300"/>
<path opacity="0.5" d="M245.321 147.175C244.761 146.918 244.186 146.66 243.603 146.426C226.984 139.486 203.289 140.296 188.524 148.25C188.388 148.325 188.259 148.393 188.123 148.469C187.609 148.749 187.109 149.044 186.617 149.339C183.628 151.178 181.305 153.207 179.647 155.341C175.697 160.411 175.462 166.064 178.769 171.18C180.714 174.177 183.885 176.992 188.259 179.391C189.077 179.845 189.94 180.284 190.855 180.708C191.688 181.094 192.543 181.465 193.413 181.806C195.245 182.532 197.152 183.168 199.119 183.705C212.885 187.504 229.565 186.884 242.165 182.123C243.967 181.442 245.692 180.678 247.304 179.823C248.076 179.422 248.818 178.99 249.537 178.551C250.15 178.173 250.74 177.787 251.292 177.393C251.451 177.28 251.61 177.174 251.754 177.053C255.432 174.359 257.816 171.339 258.936 168.229C260.843 162.924 259.087 157.339 253.82 152.609C251.618 150.618 248.772 148.779 245.321 147.175Z" fill="#443F80"/>
<path d="M243.618 151.315C244.2 151.557 244.776 151.806 245.336 152.064C248.787 153.668 251.632 155.507 253.857 157.498C256.93 160.26 258.799 163.31 259.45 166.428C259.329 167.033 259.162 167.631 258.95 168.229C257.83 171.339 255.454 174.359 251.768 177.053C251.617 177.166 251.466 177.28 251.307 177.393C250.754 177.779 250.164 178.173 249.551 178.551C248.832 178.998 248.083 179.422 247.318 179.823C245.699 180.678 243.981 181.442 242.18 182.123C229.572 186.891 212.892 187.504 199.134 183.705C197.166 183.16 195.251 182.532 193.428 181.806C192.55 181.457 191.702 181.094 190.87 180.708C189.962 180.284 189.099 179.845 188.274 179.391C183.9 176.992 180.729 174.177 178.784 171.18C177.77 169.614 177.096 168.002 176.748 166.367C177.172 164.278 178.133 162.212 179.677 160.23C181.334 158.095 183.658 156.067 186.647 154.228C187.139 153.925 187.638 153.638 188.153 153.358C188.289 153.282 188.418 153.214 188.554 153.138C203.304 145.177 226.999 144.375 243.618 151.315Z" fill="#F7E300"/>
<path opacity="0.25" d="M243.618 151.315C244.2 151.557 244.776 151.806 245.336 152.064C248.787 153.668 251.632 155.507 253.857 157.498C256.93 160.26 258.799 163.31 259.45 166.428C259.329 167.033 259.162 167.631 258.95 168.229C257.83 171.339 255.454 174.359 251.768 177.053C251.617 177.166 251.466 177.28 251.307 177.393C250.754 177.779 250.164 178.173 249.551 178.551C248.832 178.998 248.083 179.422 247.318 179.823C245.699 180.678 243.981 181.442 242.18 182.123C229.572 186.891 212.892 187.504 199.134 183.705C197.166 183.16 195.251 182.532 193.428 181.806C192.55 181.457 191.702 181.094 190.87 180.708C189.962 180.284 189.099 179.845 188.274 179.391C183.9 176.992 180.729 174.177 178.784 171.18C177.77 169.614 177.096 168.002 176.748 166.367C177.172 164.278 178.133 162.212 179.677 160.23C181.334 158.095 183.658 156.067 186.647 154.228C187.139 153.925 187.638 153.638 188.153 153.358C188.289 153.282 188.418 153.214 188.554 153.138C203.304 145.177 226.999 144.375 243.618 151.315Z" fill="#443F80"/>
<path d="M275.367 170.287C268.753 184.992 250.257 190.857 235.167 193.506C212.236 196.798 187.277 194.035 169.546 180.988L169.584 181.011C164.763 177.197 160.654 172.134 159.783 165.974C160.525 172.202 164.506 177.462 169.334 181.352L169.304 181.329C183.584 192.401 203.336 195.98 222.264 195.451C241.342 194.346 266.725 189.222 275.367 170.287Z" fill="#F5F5F5"/>
<path d="M194.058 174.783C200.536 177.499 206.878 176.326 212.803 174.222L211.244 175.827L211.252 182.555C212.607 182.88 213.954 183.084 215.263 183.206C217.647 183.41 219.985 183.296 222.233 182.941C226.221 182.32 229.922 180.958 233.085 179.369L238.791 181.768L246.503 177.023L246.495 170.295L245.05 169.674L244.74 169.546C244.853 169.061 244.914 168.539 244.899 167.971C244.891 167.782 244.876 167.608 244.853 167.442C244.755 166.609 244.929 162.818 244.899 161.251C244.891 161.062 244.876 160.888 244.853 160.721C244.626 158.845 243.06 157.157 239.874 155.825C239.874 155.81 239.874 155.81 239.874 155.81C236.476 154.402 233.025 154.107 229.68 154.455C229.4 154.486 229.097 154.531 228.809 154.561L228.711 154.569C228.408 154.614 228.106 154.667 227.803 154.713C227.538 154.758 227.273 154.803 227.008 154.864C226.895 154.894 226.781 154.902 226.69 154.932C226.486 154.97 226.274 155.008 226.085 155.061C224.39 155.447 222.747 155.961 221.166 156.506C220.462 156.756 219.758 157.021 219.062 157.293L221.098 155.174L221.09 148.446C214.536 147.198 207.528 148.257 200.642 151.625L194.936 149.249L187.322 154.115L187.33 160.843L189.116 161.584C188.995 162.016 188.934 162.439 188.949 162.856V162.909C189.01 163.953 188.912 168.403 188.957 169.583V169.636C189.055 171.619 190.675 173.375 194.058 174.783Z" fill="#F7E300"/>
<path opacity="0.15" d="M244.882 161.562C244.897 163.279 244.753 166.67 244.844 167.442C244.859 167.623 244.882 167.79 244.889 167.979C244.904 168.539 244.836 169.061 244.723 169.561L240.621 167.835C240.629 167.828 244.768 165.83 244.882 161.562Z" fill="#443F80"/>
<path opacity="0.45" d="M203.47 161.463C201.76 160.744 201.472 159.412 204.621 157.384C207.996 155.242 211.47 154.69 214.413 155.424L221.088 148.469L221.081 155.189L219.068 157.308C218.992 157.331 218.931 157.361 218.856 157.392C217.766 157.808 216.699 158.247 215.692 158.663C215.284 158.845 214.883 159.019 214.489 159.17C211.636 160.388 209.487 161.266 207.754 161.645C206.656 161.902 205.718 161.985 204.833 161.849C204.371 161.781 203.902 161.645 203.47 161.463Z" fill="#443F80"/>
<path opacity="0.2" d="M189.093 161.584L187.314 160.835L187.322 154.115L193.005 156.499C190.886 158.262 189.539 159.98 189.093 161.584Z" fill="#443F80"/>
<path opacity="0.15" d="M238.783 175.032L246.487 170.295L246.495 177.023L238.776 181.775L233.085 179.369C229.906 180.966 226.206 182.328 222.217 182.941C219.97 183.296 217.631 183.41 215.247 183.213C213.938 183.077 212.599 182.888 211.244 182.555L211.236 175.827C212.591 176.16 213.946 176.357 215.24 176.485C217.639 176.69 219.962 176.569 222.21 176.213C226.198 175.6 229.899 174.245 233.077 172.641L238.783 175.032Z" fill="#443F80"/>
<path opacity="0.2" d="M233.084 179.369C230.442 181.026 227.476 182.214 224.426 182.91C221.376 183.576 218.205 183.773 215.246 183.206C218.311 183.153 221.316 182.827 224.297 182.146C225.788 181.821 227.256 181.397 228.717 180.935C230.185 180.474 231.631 179.921 233.084 179.369Z" fill="#443F80"/>
<path opacity="0.35" d="M188.94 169.636V169.598C188.895 168.41 188.993 163.968 188.933 162.908C189.054 164.899 190.658 166.647 194.041 168.055C201.563 171.188 208.881 169.129 215.579 166.443C221.792 163.93 226.31 161.251 229.95 162.765C232.228 163.726 231.578 165.232 229.095 166.821C225.115 169.371 220.733 169.19 218.349 168.516L212.809 174.222L212.787 174.23C206.861 176.326 200.519 177.484 194.048 174.775C190.666 173.375 189.061 171.627 188.94 169.636Z" fill="#443F80"/>
<path d="M214.422 162.152L214.414 155.424L221.089 148.461V155.189L214.422 162.152Z" fill="#F7E300"/>
<path opacity="0.15" d="M214.422 162.152L214.414 155.424L221.089 148.461V155.189L214.422 162.152Z" fill="#443F80"/>
<path d="M187.314 154.122L193.021 156.506L189.108 161.592L187.322 160.85L187.314 154.122Z" fill="#F7E300"/>
<path opacity="0.45" d="M187.314 154.122L193.021 156.506L189.108 161.592L187.322 160.85L187.314 154.122Z" fill="#443F80"/>
<path d="M245.042 169.682L240.63 167.828C240.63 167.828 244.966 165.731 244.883 161.259C244.875 161.07 244.86 160.895 244.837 160.729C244.61 158.852 243.044 157.165 239.858 155.833C239.858 155.817 239.858 155.817 239.858 155.817C236.46 154.41 233.009 154.115 229.664 154.463C229.384 154.493 229.081 154.538 228.793 154.569L228.695 154.576C228.392 154.622 228.09 154.675 227.787 154.72C227.522 154.766 227.257 154.811 226.992 154.871C226.879 154.902 226.765 154.909 226.674 154.94C226.47 154.977 226.258 155.015 226.069 155.068C224.374 155.454 222.732 155.969 221.15 156.514C220.378 156.786 219.606 157.074 218.857 157.376C217.767 157.8 216.692 158.239 215.678 158.663C215.262 158.845 214.869 159.004 214.475 159.17C211.622 160.388 209.48 161.251 207.74 161.637C206.642 161.887 205.704 161.97 204.826 161.841C204.349 161.773 203.895 161.645 203.456 161.463C201.738 160.744 201.451 159.405 204.607 157.376C207.974 155.227 211.448 154.667 214.399 155.416L221.067 148.454C214.513 147.205 207.505 148.265 200.618 151.632L194.912 149.256L187.299 154.122L193.005 156.499C190.281 158.739 188.843 160.911 188.918 162.863V162.916C189.032 164.891 190.651 166.647 194.034 168.055C201.534 171.195 208.867 169.137 215.557 166.443C221.778 163.923 226.289 161.251 229.936 162.772C232.207 163.726 231.556 165.232 229.066 166.829C225.1 169.372 220.719 169.19 218.32 168.524L211.221 175.827C212.568 176.152 213.923 176.357 215.232 176.478C217.616 176.682 219.954 176.569 222.202 176.213C226.19 175.592 229.891 174.23 233.054 172.641L238.76 175.04L246.472 170.295L245.042 169.682Z" fill="#F7E300"/>
<path opacity="0.1" d="M245.042 169.682L240.63 167.828C240.63 167.828 244.966 165.731 244.883 161.259C244.875 161.07 244.86 160.895 244.837 160.729C244.61 158.852 243.044 157.165 239.858 155.833C239.858 155.817 239.858 155.817 239.858 155.817C236.46 154.41 233.009 154.115 229.664 154.463C229.384 154.493 229.081 154.538 228.793 154.569L228.695 154.576C228.392 154.622 228.09 154.675 227.787 154.72C227.522 154.766 227.257 154.811 226.992 154.871C226.879 154.902 226.765 154.909 226.674 154.94C226.47 154.977 226.258 155.015 226.069 155.068C224.374 155.454 222.732 155.969 221.15 156.514C220.378 156.786 219.606 157.074 218.857 157.376C217.767 157.8 216.692 158.239 215.678 158.663C215.262 158.845 214.869 159.004 214.475 159.17C211.622 160.388 209.48 161.251 207.74 161.637C206.642 161.887 205.704 161.97 204.826 161.841C204.349 161.773 203.895 161.645 203.456 161.463C201.738 160.744 201.451 159.405 204.607 157.376C207.974 155.227 211.448 154.667 214.399 155.416L221.067 148.454C214.513 147.205 207.505 148.265 200.618 151.632L194.912 149.256L187.299 154.122L193.005 156.499C190.281 158.739 188.843 160.911 188.918 162.863V162.916C189.032 164.891 190.651 166.647 194.034 168.055C201.534 171.195 208.867 169.137 215.557 166.443C221.778 163.923 226.289 161.251 229.936 162.772C232.207 163.726 231.556 165.232 229.066 166.829C225.1 169.372 220.719 169.19 218.32 168.524L211.221 175.827C212.568 176.152 213.923 176.357 215.232 176.478C217.616 176.682 219.954 176.569 222.202 176.213C226.19 175.592 229.891 174.23 233.054 172.641L238.76 175.04L246.472 170.295L245.042 169.682Z" fill="white"/>
<path d="M194.049 168.062C196.841 169.129 199.899 169.636 202.979 169.455C206.067 169.311 209.132 168.554 212.098 167.525C215.08 166.541 217.956 165.224 220.884 164.021C222.353 163.431 223.844 162.871 225.395 162.515C226.939 162.182 228.581 162.167 229.958 162.78C228.551 162.235 226.939 162.326 225.433 162.719C223.919 163.105 222.459 163.696 221.006 164.316C218.115 165.572 215.224 166.897 212.227 167.919C209.23 168.917 206.104 169.697 202.971 169.773C201.412 169.811 199.853 169.712 198.347 169.425C196.849 169.122 195.419 168.653 194.049 168.062Z" fill="white"/>
<path d="M238.782 175.04V181.768L233.076 179.369V172.648L238.782 175.04Z" fill="#F7E300"/>
<path opacity="0.35" d="M238.782 175.04V181.768L233.076 179.369V172.648L238.782 175.04Z" fill="#443F80"/>
<path d="M246.488 170.302L238.807 174.291L233.078 172.648L238.784 175.04L246.488 170.302Z" fill="#FAFAFA"/>
<path d="M200.634 151.64L194.966 149.96L187.314 154.122L194.928 149.264L200.634 151.64Z" fill="#FAFAFA"/>
<path opacity="0.15" d="M221.089 148.461C219.909 148.234 218.713 148.113 217.51 148.038L218.448 151.224L221.089 148.461Z" fill="white"/>
<path opacity="0.15" d="M194.315 168.153C197.637 169.493 200.929 169.826 204.146 169.538L198.644 150.808L194.928 149.256L189.736 152.571L190.592 155.484L193.021 156.499C192.393 157.021 191.833 157.535 191.341 158.042L194.315 168.153Z" fill="white"/>
<path opacity="0.15" d="M238.707 155.378C236.823 154.735 234.923 154.417 233.039 154.349L239.063 174.873L243.604 172.081L242.605 168.653L240.637 167.82C240.637 167.82 241.288 167.502 242.083 166.859L238.707 155.378Z" fill="white"/>
<path opacity="0.15" d="M228.703 154.569C228.4 154.614 228.097 154.667 227.794 154.712C227.53 154.758 227.265 154.803 227 154.864C226.886 154.894 226.773 154.902 226.682 154.932C226.478 154.97 226.266 155.008 226.077 155.061C224.381 155.446 222.739 155.961 221.157 156.506C220.802 156.627 220.454 156.771 220.105 156.899L222.096 163.68C225.161 162.469 227.719 161.834 229.944 162.765C232.214 163.718 231.563 165.224 229.073 166.821C227.257 167.986 225.358 168.562 223.594 168.796L225.554 175.486C228.264 174.767 230.799 173.768 233.062 172.633L235.219 173.534L229.611 154.44C229.338 154.47 229.051 154.516 228.786 154.546L228.703 154.569Z" fill="white"/>
<path d="M284.772 148.87L291.182 148.848V161.97C291.182 163.522 290.978 165.081 290.554 166.624C290.403 167.154 290.229 167.684 290.024 168.214C289.093 170.666 287.61 173.065 285.552 175.373C284.863 176.145 284.106 176.909 283.289 177.651C282.479 178.4 281.594 179.142 280.64 179.861C279.46 180.761 278.173 181.639 276.781 182.487C275.327 183.372 273.814 184.205 272.225 184.977C271.029 185.559 269.803 186.112 268.532 186.634C249.968 194.3 224.381 195.231 203.97 189.01C202.578 188.586 201.215 188.132 199.876 187.64C197.961 186.944 196.099 186.172 194.313 185.34C192.853 184.651 191.46 183.94 190.151 183.191C189.016 182.547 187.949 181.881 186.935 181.2C185.928 180.519 184.982 179.823 184.089 179.104H184.082C181.425 176.977 179.314 174.707 177.732 172.346C177.392 171.839 177.074 171.324 176.779 170.81C175.507 168.554 174.72 166.239 174.425 163.908C174.327 163.174 174.289 162.439 174.289 161.705L174.281 149.302L180.146 149.279C180.616 148.764 181.107 148.257 181.63 147.758C183.59 145.881 185.943 144.087 188.69 142.407C190.287 141.431 191.975 140.523 193.738 139.683C196.001 138.601 198.385 137.632 200.875 136.769C217.66 130.965 239.032 130.185 257.187 134.696C259.889 135.362 262.515 136.156 265.035 137.057C267.147 137.814 269.19 138.646 271.142 139.562C274.162 140.977 276.849 142.521 279.195 144.163C281.359 145.654 283.206 147.236 284.772 148.87Z" fill="#F7E300"/>
<path opacity="0.15" d="M174.304 149.302L180.169 149.279C180.639 148.764 181.13 148.257 181.653 147.758C183.613 145.881 185.966 144.087 188.713 142.407C190.31 141.431 191.998 140.523 193.761 139.683C196.024 138.601 198.408 137.632 200.898 136.769C203.244 135.959 205.688 135.256 208.193 134.643L208.239 190.191C206.793 189.827 205.37 189.442 203.97 189.018C202.578 188.594 201.216 188.14 199.876 187.648C197.961 186.952 196.1 186.18 194.314 185.347C192.853 184.659 191.461 183.947 190.151 183.198C189.016 182.555 187.949 181.889 186.935 181.208C185.928 180.527 184.982 179.83 184.089 179.111H184.082C181.426 176.985 179.314 174.714 177.732 172.353C177.392 171.846 177.074 171.332 176.779 170.817C175.507 168.562 174.72 166.246 174.425 163.915C174.327 163.181 174.289 162.447 174.289 161.713L174.304 149.302Z" fill="white"/>
<path d="M271.165 125.531C269.205 124.615 267.161 123.783 265.057 123.026C262.53 122.125 259.904 121.331 257.21 120.665C239.047 116.154 217.675 116.934 200.897 122.738C198.407 123.594 196.023 124.57 193.761 125.652C191.997 126.492 190.31 127.4 188.713 128.376C185.958 130.056 183.604 131.85 181.652 133.727C179.389 135.891 177.656 138.154 176.453 140.485C174.652 143.928 173.993 147.5 174.447 151.027C174.742 153.358 175.53 155.681 176.801 157.929C177.089 158.444 177.414 158.958 177.754 159.465C179.329 161.819 181.448 164.089 184.104 166.223H184.112C184.997 166.935 185.951 167.639 186.957 168.32C187.971 169.001 189.038 169.667 190.173 170.31C191.483 171.059 192.868 171.771 194.336 172.459C196.122 173.299 197.983 174.064 199.898 174.76C201.23 175.252 202.592 175.706 203.992 176.13C224.403 182.35 249.99 181.42 268.554 173.753C269.818 173.231 271.051 172.679 272.247 172.096C273.836 171.324 275.35 170.492 276.803 169.606C278.195 168.759 279.482 167.881 280.662 166.98C281.616 166.261 282.501 165.52 283.311 164.77C284.129 164.029 284.885 163.264 285.574 162.492C287.632 160.192 289.116 157.785 290.047 155.333C290.243 154.803 290.425 154.274 290.576 153.744C291.22 151.421 291.379 149.067 291.046 146.736C290.546 143.209 288.934 139.721 286.225 136.444C284.393 134.226 282.078 132.107 279.255 130.132C276.871 128.49 274.184 126.946 271.165 125.531Z" fill="#F7E300"/>
<path opacity="0.1" d="M271.165 125.531C269.205 124.615 267.161 123.783 265.057 123.026C262.53 122.125 259.904 121.331 257.21 120.665C239.047 116.154 217.675 116.934 200.897 122.738C198.407 123.594 196.023 124.57 193.761 125.652C191.997 126.492 190.31 127.4 188.713 128.376C185.958 130.056 183.604 131.85 181.652 133.727C179.389 135.891 177.656 138.154 176.453 140.485C174.652 143.928 173.993 147.5 174.447 151.027C174.742 153.358 175.53 155.681 176.801 157.929C177.089 158.444 177.414 158.958 177.754 159.465C179.329 161.819 181.448 164.089 184.104 166.223H184.112C184.997 166.935 185.951 167.639 186.957 168.32C187.971 169.001 189.038 169.667 190.173 170.31C191.483 171.059 192.868 171.771 194.336 172.459C196.122 173.299 197.983 174.064 199.898 174.76C201.23 175.252 202.592 175.706 203.992 176.13C224.403 182.35 249.99 181.42 268.554 173.753C269.818 173.231 271.051 172.679 272.247 172.096C273.836 171.324 275.35 170.492 276.803 169.606C278.195 168.759 279.482 167.881 280.662 166.98C281.616 166.261 282.501 165.52 283.311 164.77C284.129 164.029 284.885 163.264 285.574 162.492C287.632 160.192 289.116 157.785 290.047 155.333C290.243 154.803 290.425 154.274 290.576 153.744C291.22 151.421 291.379 149.067 291.046 146.736C290.546 143.209 288.934 139.721 286.225 136.444C284.393 134.226 282.078 132.107 279.255 130.132C276.871 128.49 274.184 126.946 271.165 125.531Z" fill="white"/>
<path opacity="0.2" d="M271.165 125.531C269.205 124.615 267.161 123.783 265.057 123.026C262.53 122.125 259.904 121.331 257.21 120.665C239.047 116.154 217.675 116.934 200.897 122.738C198.407 123.594 196.023 124.57 193.761 125.652C191.997 126.492 190.31 127.4 188.713 128.376C185.958 130.056 183.604 131.85 181.652 133.727C179.389 135.891 177.656 138.154 176.453 140.485C174.652 143.928 173.993 147.5 174.447 151.027C174.742 153.358 175.53 155.681 176.801 157.929C177.089 158.444 177.414 158.958 177.754 159.465C179.329 161.819 181.448 164.089 184.104 166.223H184.112C184.997 166.935 185.951 167.639 186.957 168.32C187.971 169.001 189.038 169.667 190.173 170.31C191.483 171.059 192.868 171.771 194.336 172.459C196.122 173.299 197.983 174.064 199.898 174.76C201.23 175.252 202.592 175.706 203.992 176.13C224.403 182.35 249.99 181.42 268.554 173.753C269.818 173.231 271.051 172.679 272.247 172.096C273.836 171.324 275.35 170.492 276.803 169.606C278.195 168.759 279.482 167.881 280.662 166.98C281.616 166.261 282.501 165.52 283.311 164.77C284.129 164.029 284.885 163.264 285.574 162.492C287.632 160.192 289.116 157.785 290.047 155.333C290.243 154.803 290.425 154.274 290.576 153.744C291.22 151.421 291.379 149.067 291.046 146.736C290.546 143.209 288.934 139.721 286.225 136.444C284.393 134.226 282.078 132.107 279.255 130.132C276.871 128.49 274.184 126.946 271.165 125.531Z" fill="white"/>
<path d="M261.229 131.441C243.785 123.344 217.774 123.941 201.791 132.561C201.11 132.925 200.444 133.311 199.801 133.704C184.06 143.398 186.05 158.095 204.235 166.533C222.421 174.979 249.923 173.965 265.664 164.278C266.307 163.885 266.92 163.476 267.503 163.067C281.216 153.396 278.673 139.539 261.229 131.441Z" fill="#F7E300"/>
<path opacity="0.4" d="M261.229 131.441C243.785 123.344 217.774 123.941 201.791 132.561C201.11 132.925 200.444 133.311 199.801 133.704C184.06 143.398 186.05 158.095 204.235 166.533C222.421 174.979 249.923 173.965 265.664 164.278C266.307 163.885 266.92 163.476 267.503 163.067C281.216 153.396 278.673 139.539 261.229 131.441Z" fill="#443F80"/>
<path d="M258.262 136.36C258.845 136.603 259.42 136.852 259.98 137.11C263.431 138.714 266.277 140.553 268.502 142.543C271.574 145.306 273.443 148.355 274.094 151.473C273.973 152.079 273.807 152.677 273.595 153.275C272.475 156.385 270.098 159.405 266.413 162.099C266.262 162.212 266.11 162.326 265.951 162.439C265.399 162.825 264.809 163.219 264.196 163.597C263.477 164.044 262.727 164.467 261.963 164.869C260.351 165.724 258.626 166.488 256.824 167.169C244.216 171.937 227.537 172.55 213.778 168.751C211.811 168.206 209.896 167.578 208.072 166.851C207.194 166.503 206.347 166.14 205.514 165.754C204.606 165.33 203.743 164.891 202.918 164.437C198.544 162.038 195.373 159.223 193.428 156.226C192.414 154.659 191.741 153.048 191.393 151.413C191.816 149.324 192.778 147.258 194.321 145.275C195.979 143.141 198.302 141.113 201.291 139.274C201.783 138.971 202.283 138.684 202.797 138.404C202.934 138.328 203.062 138.26 203.198 138.184C217.948 130.23 241.643 129.421 258.262 136.36Z" fill="#F7E300"/>
<path opacity="0.25" d="M258.262 136.36C258.845 136.603 259.42 136.852 259.98 137.11C263.431 138.714 266.277 140.553 268.502 142.543C271.574 145.306 273.443 148.355 274.094 151.473C273.973 152.079 273.807 152.677 273.595 153.275C272.475 156.385 270.098 159.405 266.413 162.099C266.262 162.212 266.11 162.326 265.951 162.439C265.399 162.825 264.809 163.219 264.196 163.597C263.477 164.044 262.727 164.467 261.963 164.869C260.351 165.724 258.626 166.488 256.824 167.169C244.216 171.937 227.537 172.55 213.778 168.751C211.811 168.206 209.896 167.578 208.072 166.851C207.194 166.503 206.347 166.14 205.514 165.754C204.606 165.33 203.743 164.891 202.918 164.437C198.544 162.038 195.373 159.223 193.428 156.226C192.414 154.659 191.741 153.048 191.393 151.413C191.816 149.324 192.778 147.258 194.321 145.275C195.979 143.141 198.302 141.113 201.291 139.274C201.783 138.971 202.283 138.684 202.797 138.404C202.934 138.328 203.062 138.26 203.198 138.184C217.948 130.23 241.643 129.421 258.262 136.36Z" fill="#443F80"/>
<path d="M290.01 155.333C283.396 170.038 264.9 175.903 249.809 178.551C226.879 181.843 201.92 179.081 184.188 166.034L184.226 166.057C179.405 162.243 175.296 157.18 174.426 151.02C175.167 157.248 179.148 162.508 183.976 166.397L183.946 166.375C198.227 177.447 217.979 181.026 236.906 180.496C255.985 179.391 281.367 174.268 290.01 155.333Z" fill="#F5F5F5"/>
<path d="M180.245 248.766L186.655 248.744V261.866C186.655 263.418 186.451 264.977 186.027 266.521C185.876 267.05 185.702 267.58 185.497 268.11C184.566 270.562 183.083 272.961 181.025 275.269C180.336 276.041 179.587 276.805 178.762 277.547C177.952 278.296 177.067 279.038 176.113 279.757C174.932 280.657 173.646 281.535 172.253 282.383C170.8 283.268 169.287 284.101 167.698 284.873C166.502 285.455 165.276 286.008 164.004 286.53C145.44 294.196 119.853 295.127 99.4429 288.906C98.0504 288.483 96.6882 288.029 95.3487 287.537C93.434 286.84 91.5723 286.068 89.7863 285.236C88.3257 284.547 86.9332 283.836 85.6315 283.087C84.4964 282.443 83.4293 281.777 82.4152 281.096C81.4087 280.415 80.4627 279.719 79.5697 279H79.5621C76.9058 276.873 74.7944 274.603 73.2127 272.242C72.8721 271.735 72.5543 271.22 72.2591 270.706C70.9877 268.45 70.2007 266.135 69.9055 263.804C69.8071 263.07 69.7693 262.336 69.7693 261.602L69.7617 249.198L75.6268 249.175C76.096 248.66 76.5879 248.153 77.1101 247.654C79.0702 245.777 81.4238 243.984 84.1709 242.303C85.7678 241.327 87.4554 240.419 89.2187 239.579C91.4815 238.497 93.8654 237.521 96.3552 236.665C113.141 230.861 134.512 230.081 152.668 234.592C155.369 235.258 157.996 236.052 160.516 236.953C162.627 237.71 164.67 238.542 166.623 239.458C169.642 240.873 172.329 242.417 174.675 244.059C176.832 245.55 178.679 247.132 180.245 248.766Z" fill="#F7E300"/>
<path opacity="0.15" d="M69.7771 249.198L75.6422 249.175C76.1114 248.66 76.6033 248.153 77.1255 247.654C79.0856 245.777 81.4392 243.983 84.1863 242.303C85.7831 241.327 87.4708 240.419 89.2341 239.579C91.4969 238.497 93.8808 237.52 96.3706 236.665C98.7166 235.856 101.161 235.152 103.666 234.539L103.711 290.087C102.266 289.724 100.843 289.338 99.4432 288.914C98.0507 288.49 96.6884 288.036 95.3489 287.544C93.4343 286.848 91.5726 286.076 89.7866 285.243C88.326 284.555 86.9335 283.843 85.6318 283.094C84.4966 282.451 83.4295 281.785 82.4154 281.104C81.4089 280.423 80.4629 279.726 79.5699 279.008H79.5624C76.906 276.881 74.7946 274.611 73.2129 272.249C72.8724 271.742 72.5545 271.228 72.2594 270.713C70.988 268.458 70.2009 266.142 69.9058 263.811C69.8074 263.077 69.7695 262.343 69.7695 261.609L69.7771 249.198Z" fill="white"/>
<path d="M166.637 225.427C164.677 224.511 162.634 223.679 160.53 222.922C158.002 222.022 155.376 221.227 152.682 220.561C134.519 216.05 113.148 216.83 96.3697 222.635C93.8799 223.49 91.496 224.466 89.2332 225.548C87.4699 226.388 85.7823 227.296 84.1854 228.273C81.4307 229.953 79.0771 231.746 77.1246 233.623C74.8618 235.787 73.1288 238.05 71.9255 240.381C70.1243 243.825 69.4659 247.397 69.92 250.923C70.2151 253.254 71.0022 255.577 72.2736 257.825C72.5612 258.34 72.8866 258.854 73.2272 259.361C74.8013 261.715 76.9203 263.985 79.5766 266.12H79.5842C80.4696 266.831 81.4232 267.535 82.4297 268.216C83.4438 268.897 84.5109 269.563 85.646 270.206C86.9553 270.955 88.3402 271.667 89.8084 272.355C91.5944 273.195 93.4561 273.96 95.3707 274.656C96.7027 275.148 98.0649 275.602 99.465 276.026C119.876 282.247 145.462 281.316 164.026 273.65C165.29 273.127 166.524 272.575 167.72 271.992C169.309 271.22 170.822 270.388 172.275 269.502C173.668 268.655 174.954 267.777 176.135 266.876C177.089 266.157 177.974 265.416 178.784 264.667C179.601 263.925 180.358 263.16 181.047 262.389C183.105 260.088 184.588 257.681 185.519 255.229C185.716 254.7 185.898 254.17 186.049 253.64C186.692 251.317 186.851 248.963 186.518 246.632C186.019 243.106 184.407 239.617 181.697 236.34C179.866 234.123 177.55 232.004 174.727 230.028C172.351 228.386 169.665 226.842 166.637 225.427Z" fill="#F7E300"/>
<path opacity="0.1" d="M166.637 225.427C164.677 224.511 162.634 223.679 160.53 222.922C158.002 222.022 155.376 221.227 152.682 220.561C134.519 216.05 113.148 216.83 96.3697 222.635C93.8799 223.49 91.496 224.466 89.2332 225.548C87.4699 226.388 85.7823 227.296 84.1854 228.273C81.4307 229.953 79.0771 231.746 77.1246 233.623C74.8618 235.787 73.1288 238.05 71.9255 240.381C70.1243 243.825 69.4659 247.397 69.92 250.923C70.2151 253.254 71.0022 255.577 72.2736 257.825C72.5612 258.34 72.8866 258.854 73.2272 259.361C74.8013 261.715 76.9203 263.985 79.5766 266.12H79.5842C80.4696 266.831 81.4232 267.535 82.4297 268.216C83.4438 268.897 84.5109 269.563 85.646 270.206C86.9553 270.955 88.3402 271.667 89.8084 272.355C91.5944 273.195 93.4561 273.96 95.3707 274.656C96.7027 275.148 98.0649 275.602 99.465 276.026C119.876 282.247 145.462 281.316 164.026 273.65C165.29 273.127 166.524 272.575 167.72 271.992C169.309 271.22 170.822 270.388 172.275 269.502C173.668 268.655 174.954 267.777 176.135 266.876C177.089 266.157 177.974 265.416 178.784 264.667C179.601 263.925 180.358 263.16 181.047 262.389C183.105 260.088 184.588 257.681 185.519 255.229C185.716 254.7 185.898 254.17 186.049 253.64C186.692 251.317 186.851 248.963 186.518 246.632C186.019 243.106 184.407 239.617 181.697 236.34C179.866 234.123 177.55 232.004 174.727 230.028C172.351 228.386 169.665 226.842 166.637 225.427Z" fill="white"/>
<path opacity="0.2" d="M166.637 225.427C164.677 224.511 162.634 223.679 160.53 222.922C158.002 222.022 155.376 221.227 152.682 220.561C134.519 216.05 113.148 216.83 96.3697 222.635C93.8799 223.49 91.496 224.466 89.2332 225.548C87.4699 226.388 85.7823 227.296 84.1854 228.273C81.4307 229.953 79.0771 231.746 77.1246 233.623C74.8618 235.787 73.1288 238.05 71.9255 240.381C70.1243 243.825 69.4659 247.397 69.92 250.923C70.2151 253.254 71.0022 255.577 72.2736 257.825C72.5612 258.34 72.8866 258.854 73.2272 259.361C74.8013 261.715 76.9203 263.985 79.5766 266.12H79.5842C80.4696 266.831 81.4232 267.535 82.4297 268.216C83.4438 268.897 84.5109 269.563 85.646 270.206C86.9553 270.955 88.3402 271.667 89.8084 272.355C91.5944 273.195 93.4561 273.96 95.3707 274.656C96.7027 275.148 98.0649 275.602 99.465 276.026C119.876 282.247 145.462 281.316 164.026 273.65C165.29 273.127 166.524 272.575 167.72 271.992C169.309 271.22 170.822 270.388 172.275 269.502C173.668 268.655 174.954 267.777 176.135 266.876C177.089 266.157 177.974 265.416 178.784 264.667C179.601 263.925 180.358 263.16 181.047 262.389C183.105 260.088 184.588 257.681 185.519 255.229C185.716 254.7 185.898 254.17 186.049 253.64C186.692 251.317 186.851 248.963 186.518 246.632C186.019 243.106 184.407 239.617 181.697 236.34C179.866 234.123 177.55 232.004 174.727 230.028C172.351 228.386 169.665 226.842 166.637 225.427Z" fill="white"/>
<path d="M156.7 231.338C139.256 223.24 113.245 223.838 97.2618 232.458C96.5806 232.821 95.9147 233.207 95.2714 233.6C79.5302 243.295 81.5206 257.992 99.7062 266.43C117.892 274.876 145.393 273.861 161.135 264.175C161.778 263.781 162.391 263.372 162.974 262.964C176.687 253.292 174.151 239.435 156.7 231.338Z" fill="#F7E300"/>
<path opacity="0.4" d="M156.7 231.338C139.256 223.24 113.245 223.838 97.2618 232.458C96.5806 232.821 95.9147 233.207 95.2714 233.6C79.5302 243.295 81.5206 257.992 99.7062 266.43C117.892 274.876 145.393 273.861 161.135 264.175C161.778 263.781 162.391 263.372 162.974 262.964C176.687 253.292 174.151 239.435 156.7 231.338Z" fill="#443F80"/>
<path d="M153.735 236.257C154.318 236.499 154.893 236.749 155.453 237.006C158.904 238.61 161.749 240.449 163.974 242.44C167.047 245.202 168.916 248.252 169.567 251.37C169.446 251.975 169.279 252.573 169.067 253.171C167.947 256.281 165.571 259.301 161.886 261.995C161.734 262.109 161.583 262.222 161.424 262.336C160.871 262.722 160.281 263.115 159.668 263.493C158.949 263.94 158.2 264.364 157.436 264.765C155.816 265.62 154.098 266.384 152.297 267.065C139.689 271.833 123.009 272.446 109.251 268.647C107.283 268.102 105.369 267.474 103.545 266.748C102.667 266.4 101.819 266.036 100.987 265.65C100.079 265.226 99.216 264.788 98.3911 264.333C94.0169 261.934 90.8459 259.119 88.901 256.122C87.8869 254.556 87.2134 252.944 86.8652 251.309C87.289 249.22 88.2502 247.154 89.794 245.172C91.4514 243.037 93.7747 241.009 96.764 239.17C97.2559 238.868 97.7554 238.58 98.27 238.3C98.4062 238.224 98.5349 238.156 98.6711 238.081C113.421 230.127 137.116 229.317 153.735 236.257Z" fill="#F7E300"/>
<path opacity="0.25" d="M153.735 236.257C154.318 236.499 154.893 236.749 155.453 237.006C158.904 238.61 161.749 240.449 163.974 242.44C167.047 245.202 168.916 248.252 169.567 251.37C169.446 251.975 169.279 252.573 169.067 253.171C167.947 256.281 165.571 259.301 161.886 261.995C161.734 262.109 161.583 262.222 161.424 262.336C160.871 262.722 160.281 263.115 159.668 263.493C158.949 263.94 158.2 264.364 157.436 264.765C155.816 265.62 154.098 266.384 152.297 267.065C139.689 271.833 123.009 272.446 109.251 268.647C107.283 268.102 105.369 267.474 103.545 266.748C102.667 266.4 101.819 266.036 100.987 265.65C100.079 265.226 99.216 264.788 98.3911 264.333C94.0169 261.934 90.8459 259.119 88.901 256.122C87.8869 254.556 87.2134 252.944 86.8652 251.309C87.289 249.22 88.2502 247.154 89.794 245.172C91.4514 243.037 93.7747 241.009 96.764 239.17C97.2559 238.868 97.7554 238.58 98.27 238.3C98.4062 238.224 98.5349 238.156 98.6711 238.081C113.421 230.127 137.116 229.317 153.735 236.257Z" fill="#443F80"/>
<path d="M185.483 255.229C178.868 269.934 160.372 275.799 145.282 278.448C122.351 281.74 97.3925 278.977 79.661 265.93L79.6988 265.953C74.8781 262.139 70.7687 257.076 69.8984 250.916C70.6401 257.144 74.6208 262.404 79.4491 266.294L79.4188 266.271C93.6994 277.343 113.452 280.922 132.379 280.393C151.457 279.288 176.84 274.164 185.483 255.229Z" fill="#F5F5F5"/>
<path d="M395.651 187.156L367.729 187.927L367.178 167.955L395.1 167.185C400.59 167.033 405.256 171.356 405.411 176.941C405.465 182.339 401.141 187.005 395.651 187.156Z" fill="#CFC7FF"/>
<path d="M347.835 239.343L347.064 211.42L367.036 210.869L367.807 238.792C367.958 244.282 363.635 248.948 358.05 249.102C352.56 249.254 347.986 244.833 347.835 239.343Z" fill="#CFC7FF"/>
<path d="M317.546 240.179L316.775 212.256L336.747 211.705L337.518 239.628C337.669 245.118 333.346 249.784 327.761 249.938C322.366 250.087 317.697 245.669 317.546 240.179Z" fill="#CFC7FF"/>
<path d="M286.99 190.154L314.913 189.384L314.362 169.412L286.44 170.182C280.95 170.334 276.529 174.908 276.683 180.492C276.832 185.888 281.501 190.306 286.99 190.154Z" fill="#CFC7FF"/>
<path d="M342.476 230.492C319.002 231.14 299.357 212.642 298.707 189.073L297.816 156.796L383.004 154.446L383.895 186.723C384.545 210.292 365.95 229.844 342.476 230.492Z" fill="#CFC7FF"/>
<path d="M342.246 222.163C323.978 222.667 308.708 208.216 308.204 189.948L307.512 164.865L373.769 163.037L374.464 188.215C374.968 206.483 360.514 221.659 342.246 222.163Z" fill="#F7E300"/>
<path d="M341.259 186.384C375.551 185.438 402.584 156.871 401.638 122.578C400.692 88.2856 372.126 61.2527 337.833 62.1987C303.54 63.1447 276.507 91.7114 277.453 126.004C278.399 160.297 306.966 187.33 341.259 186.384Z" fill="#CFC7FF"/>
<path d="M381.027 99.9397C394.357 99.5719 404.865 88.4675 404.498 75.1372C404.13 61.8069 393.025 51.2987 379.695 51.6664C366.365 52.0342 355.857 63.1386 356.224 76.4689C356.592 89.7992 367.697 100.307 381.027 99.9397Z" fill="#CFC7FF"/>
<path d="M296.691 102.266C310.021 101.898 320.529 90.7934 320.162 77.4631C319.794 64.1328 308.69 53.6246 295.359 53.9923C282.029 54.36 271.521 65.4644 271.888 78.7947C272.256 92.125 283.361 102.633 296.691 102.266Z" fill="#CFC7FF"/>
<path d="M340.561 161.111C347.2 160.928 352.434 155.397 352.251 148.758C352.067 142.119 346.537 136.886 339.898 137.069C333.259 137.252 328.025 142.783 328.209 149.422C328.392 156.061 333.922 161.294 340.561 161.111Z" fill="#F7E300"/>
<path d="M174.484 250.798L124.573 250.996C120.323 251.001 116.845 247.595 116.798 243.307L116.651 212.772C116.641 208.537 120.054 205.075 124.356 205.033L174.268 204.835C178.517 204.83 181.995 208.236 182.042 212.524L182.182 243.104C182.192 247.339 178.779 250.801 174.484 250.798Z" fill="white"/>
<path d="M122.897 252.686C120.968 252.354 119.229 251.456 117.807 250.061C115.989 248.275 114.968 245.891 114.988 243.363L114.803 212.776C114.783 207.526 119.031 203.241 124.298 203.228L174.254 203.037C179.522 203.024 183.826 207.262 183.846 212.511L183.986 243.091C184.011 245.627 182.997 248.029 181.208 249.838C179.419 251.647 177.027 252.662 174.491 252.639L124.579 252.837C123.981 252.826 123.435 252.778 122.897 252.686ZM175.329 206.72C175.015 206.666 174.649 206.649 174.282 206.631L124.326 206.822C121.094 206.818 118.418 209.486 118.462 212.715L118.602 243.295C118.609 244.861 119.231 246.348 120.333 247.458C121.435 248.569 122.943 249.196 124.522 249.146L174.471 249C176.042 248.995 177.534 248.377 178.646 247.28C179.759 246.183 180.387 244.681 180.335 243.107L180.195 212.527C180.186 209.626 178.065 207.191 175.329 206.72Z" fill="#71D9CE"/>
<path d="M175.727 250.827L142.545 250.96C138.939 250.983 136.019 248.088 136.036 244.502L135.909 211.439C135.881 207.845 138.782 204.939 142.381 204.96L175.563 204.827C179.169 204.804 182.089 207.699 182.072 211.286L182.207 244.304C182.235 247.898 179.333 250.804 175.727 250.827Z" fill="white"/>
<path d="M141.146 252.652C137.244 251.98 134.267 248.615 134.234 244.514L134.061 211.443C134.072 209.236 134.897 207.123 136.453 205.596C138.017 204.025 140.108 203.142 142.323 203.155L175.505 203.023C180.084 202.983 183.83 206.711 183.876 211.274L184.048 244.345C184.038 246.552 183.212 248.665 181.656 250.191C180.093 251.763 178.001 252.645 175.787 252.632L142.604 252.765C142.096 252.769 141.595 252.729 141.146 252.652ZM176.348 206.711C176.079 206.665 175.802 206.663 175.525 206.662L142.351 206.749C141.101 206.764 139.909 207.25 139.067 208.117C138.18 208.977 137.696 210.182 137.712 211.427L137.885 244.498C137.903 247.078 139.995 249.141 142.584 249.126L175.766 248.994C177.016 248.979 178.208 248.493 179.05 247.626C179.937 246.766 180.421 245.561 180.405 244.316L180.232 211.245C180.205 208.986 178.546 207.09 176.348 206.711Z" fill="#71D9CE"/>
<path d="M149.164 240.411C146.786 238.391 145.483 235.497 145.352 231.701C145.303 230.911 145.302 229.576 145.288 227.779C145.274 225.982 145.273 224.647 145.329 223.782C145.444 220.167 146.677 217.296 149.095 215.319C151.521 213.298 154.788 212.295 158.903 212.268C161.679 212.239 164.094 212.701 166.207 213.571C168.267 214.478 169.878 215.583 170.971 217.014C172.072 218.4 172.656 219.835 172.724 221.319C172.723 221.595 172.64 221.811 172.422 222.003C172.249 222.204 172.001 222.299 171.769 222.305L165.021 222.34C164.744 222.338 164.519 222.3 164.355 222.18C164.191 222.059 164.027 221.939 163.879 221.729C163.508 220.929 162.981 220.24 162.205 219.647C161.43 219.053 160.369 218.778 158.977 218.815C155.603 218.832 153.874 220.559 153.782 224.041C153.734 224.861 153.75 226.106 153.742 227.762C153.735 229.417 153.788 230.715 153.784 231.542C153.939 235.204 155.704 237.027 159.123 237.017C160.784 237.027 162.155 236.573 163.132 235.728C164.108 234.884 164.601 233.634 164.571 231.926L164.567 231.143L160.684 231.165C160.363 231.156 160.101 231.065 159.863 230.84C159.625 230.615 159.528 230.368 159.537 230.048L159.516 226.685C159.525 226.364 159.616 226.104 159.841 225.866C160.067 225.629 160.314 225.534 160.636 225.543L171.679 225.511C172.001 225.52 172.262 225.611 172.501 225.836C172.739 226.062 172.835 226.308 172.826 226.629L172.84 231.647C172.836 234.085 172.287 236.2 171.149 237.983C170.011 239.765 168.388 241.143 166.334 242.078C164.234 243.005 161.838 243.513 159.025 243.489C154.828 243.456 151.541 242.43 149.164 240.411Z" fill="#F7E300"/>
<path d="M307.352 261.289L257.615 261.053C253.319 261.014 249.837 257.514 249.876 253.218L250.017 222.617C250.056 218.322 253.557 214.84 257.852 214.879L307.536 215.152C311.84 215.146 315.322 218.647 315.282 222.942L315.142 253.543C315.147 257.847 311.647 261.329 307.352 261.289Z" fill="white"/>
<path d="M255.876 262.727C256.414 262.825 257.004 262.886 257.558 262.894L307.294 263.13C312.616 263.124 316.951 258.868 316.99 253.555L317.13 222.954C317.161 217.685 312.86 213.343 307.547 213.304L257.81 213.067C252.497 213.028 248.199 217.337 248.16 222.651L248.019 253.252C248.012 255.841 249.01 258.243 250.81 260.05C252.22 261.462 253.95 262.378 255.876 262.727ZM307.354 259.486L257.618 259.25C256.046 259.242 254.543 258.599 253.407 257.468C252.271 256.336 251.664 254.838 251.679 253.222L251.82 222.621C251.815 219.335 254.518 216.68 257.803 216.675L307.532 216.956C310.818 216.951 313.518 219.661 313.478 222.939L313.337 253.54C313.343 256.825 310.64 259.481 307.354 259.486Z" fill="#71D9CE"/>
<path d="M306.985 261.27L290.207 261.186C285.724 261.159 282.087 257.491 282.114 253.009L282.267 223.104C282.294 218.621 285.961 214.984 290.444 215.011L307.214 215.14C311.697 215.167 315.334 218.834 315.307 223.317L315.162 253.177C315.127 257.705 311.468 261.297 306.985 261.27Z" fill="#71D9CE"/>
<path d="M288.422 262.852C289.005 262.957 289.595 263.018 290.194 263.034L306.972 263.118C312.473 263.145 316.938 258.681 316.956 253.226L317.109 223.321C317.125 220.687 316.106 218.142 314.224 216.274C312.343 214.406 309.851 213.352 307.216 213.337L290.438 213.253C284.938 213.226 280.436 217.637 280.409 223.137L280.256 253.042C280.232 255.721 281.259 258.221 283.141 260.089C284.587 261.554 286.452 262.494 288.422 262.852ZM306.987 259.466L290.209 259.382C288.503 259.35 286.955 258.699 285.738 257.507C284.565 256.322 283.884 254.718 283.908 253.057L284.061 223.153C284.089 219.688 286.913 216.869 290.386 216.852L307.21 216.944C308.871 216.968 310.463 217.627 311.681 218.82C312.854 220.004 313.534 221.608 313.51 223.269L313.357 253.174C313.321 256.684 310.497 259.502 306.987 259.466Z" fill="#71D9CE"/>
<path d="M203.343 272.502L216.595 224.563C217.758 220.427 222.048 217.983 226.183 219.146L255.679 227.295C259.815 228.458 262.259 232.748 261.096 236.883L247.822 284.762C246.7 288.917 242.41 291.361 238.275 290.198L208.779 282.049C204.624 280.927 202.18 276.637 203.343 272.502Z" fill="white"/>
<path d="M215.435 222.447C215.2 222.94 214.987 223.494 214.834 224.026L201.582 271.965C200.194 277.102 203.166 282.4 208.284 283.829L237.78 291.979C242.857 293.388 248.174 290.374 249.603 285.257L262.856 237.317C264.285 232.2 261.252 226.923 256.134 225.494L226.638 217.345C224.141 216.66 221.561 216.995 219.346 218.259C217.614 219.249 216.277 220.679 215.435 222.447ZM205.083 272.977L218.335 225.038C218.754 223.523 219.768 222.241 221.158 221.441C222.547 220.641 224.152 220.447 225.708 220.885L255.204 229.035C258.377 229.89 260.232 233.194 259.376 236.366L246.083 284.286C245.227 287.458 241.904 289.354 238.751 288.458L209.255 280.309C206.083 279.453 204.228 276.15 205.083 272.977Z" fill="#CFC7FF"/>
<path d="M203.458 272.154L207.933 255.983C209.133 251.664 213.625 249.114 217.944 250.314L246.765 258.293C251.084 259.493 253.634 263.985 252.434 268.304L247.918 284.455C246.718 288.774 242.227 291.324 237.907 290.124L209.127 282.165C204.767 280.945 202.259 276.473 203.458 272.154Z" fill="#CFC7FF"/>
<path d="M206.792 253.825C206.537 254.359 206.324 254.913 206.152 255.487L201.677 271.657C200.211 276.959 203.349 282.437 208.61 283.884L237.431 291.863C239.969 292.567 242.692 292.25 244.987 290.924C247.283 289.597 248.953 287.468 249.657 284.929L254.132 268.759C255.598 263.457 252.52 257.957 247.219 256.491L218.397 248.512C215.818 247.788 213.137 248.125 210.841 249.451C209.048 250.463 207.653 252.017 206.792 253.825ZM205.197 272.628L209.672 256.458C210.15 254.819 211.183 253.497 212.653 252.634C214.103 251.812 215.83 251.575 217.427 252.033L246.248 260.012C249.584 260.946 251.565 264.41 250.672 267.766L246.178 283.978C245.72 285.575 244.667 286.939 243.197 287.802C241.747 288.624 240.02 288.861 238.423 288.403L209.602 280.424C206.224 279.47 204.244 276.006 205.197 272.628Z" fill="#CFC7FF"/>
<path d="M70.5167 226.578L127.289 215.027C127.289 215.027 129.203 214.281 132.231 221.788C135.258 229.248 140.819 256.356 140.819 256.356C140.819 256.356 139.671 262.313 133.75 263.589C127.83 264.864 82.718 274.259 82.718 274.259C82.718 274.259 72.9508 277.852 70.868 268.274C68.7851 258.696 65.6895 231.355 65.6895 231.355L70.5167 226.578Z" fill="white"/>
<path d="M84.9631 265.014C84.567 264.785 84.3146 264.503 84.154 264.072L73.1323 236.137C73.0821 236.091 73.0787 235.994 73.0269 235.899C72.9699 235.658 73.0098 235.414 73.1951 235.165C73.3319 234.918 73.5689 234.764 73.8094 234.707L79.7298 233.432C80.5966 233.256 81.1379 233.479 81.4039 234.149L87.8043 250.656L88.8393 240.095C88.9055 239.22 89.3244 238.72 90.0943 238.548L93.5129 237.845C94.2828 237.673 94.876 237.991 95.2908 238.753L100.514 247.978L99.601 230.308C99.5874 229.921 99.674 229.627 99.861 229.426C100.048 229.225 100.333 229.07 100.814 228.956L106.735 227.681C107.024 227.622 107.268 227.662 107.468 227.849C107.667 227.987 107.821 228.224 107.878 228.465L107.936 228.754L109.284 258.775C109.299 259.211 109.216 259.602 108.937 259.951C108.658 260.301 108.279 260.556 107.797 260.622L103.224 261.607C102.743 261.721 102.354 261.686 102.008 261.504C101.662 261.323 101.46 261.087 101.304 260.802L94.1054 249.173L92.3008 262.67C92.2643 263.011 92.1292 263.307 91.8972 263.606C91.6653 263.905 91.333 264.111 90.852 264.225L86.3278 265.208C85.7967 265.276 85.3591 265.242 84.9631 265.014Z" fill="#71D9CE"/>
<path d="M80.1314 276.533C75.9173 276.681 72.082 273.809 71.1553 269.525L63.8305 235.01C63.3612 232.699 63.7621 230.308 65.0519 228.371C66.34 226.386 68.3284 225.007 70.6398 224.537L105.2 217.114C107.511 216.645 109.902 217.046 111.839 218.335C113.824 219.623 115.203 221.612 115.673 223.923L123.048 258.485C123.517 260.797 123.116 263.187 121.826 265.124C120.538 267.109 118.55 268.489 116.238 268.958L81.6763 276.333C81.1954 276.447 80.6643 276.514 80.1314 276.533ZM106.881 220.789C106.591 220.799 106.302 220.858 106.013 220.917L71.4508 228.292C70.1515 228.58 69.0145 229.347 68.3255 230.438C67.5879 231.531 67.345 232.898 67.6332 234.197L75.0082 268.759C75.588 271.455 78.2183 273.157 80.9137 272.577L115.476 265.202C116.775 264.914 117.912 264.146 118.601 263.055C119.339 261.962 119.582 260.596 119.293 259.296L111.918 224.734C111.63 223.435 110.863 222.298 109.772 221.609C108.879 221.058 107.85 220.755 106.881 220.789Z" fill="#CFC7FF"/>
<path d="M81.1878 276.301C79.1049 276.375 77.0968 275.815 75.3105 274.665C73.0278 273.193 71.4444 270.921 70.9148 268.273L64.1145 236.261C62.9515 230.773 66.447 225.364 71.9349 224.201L123.971 213.107C129.459 211.944 134.868 215.44 136.031 220.927L142.829 252.891C143.992 258.379 140.497 263.788 135.009 264.951L82.9732 276.044C82.397 276.21 81.769 276.281 81.1878 276.301ZM125.846 216.775C125.507 216.787 125.121 216.849 124.735 216.912L72.7476 228.003C69.3774 228.704 67.1682 232.079 67.9172 235.448L74.7158 267.411C75.0644 269.048 76.0358 270.469 77.4262 271.39C78.8165 272.311 80.5255 272.639 82.1604 272.242L134.196 261.148C137.567 260.448 139.776 257.072 139.027 253.704L132.228 221.74C131.588 218.707 128.849 216.67 125.846 216.775Z" fill="#CFC7FF"/>
</svg>
