<svg width="43" height="32" viewBox="0 0 43 32" fill="none" xmlns="http://www.w3.org/2000/svg">
<path d="M4.63201 29.2415C2.26244 26.6819 0.990234 23.8111 0.990234 19.1574C0.990234 10.9685 6.64269 3.62887 14.8626 0L16.917 3.2241C9.24462 7.44491 7.74466 12.9221 7.14651 16.3755C8.38191 15.7251 9.9992 15.4981 11.5843 15.6479C15.7345 16.0386 19.0059 19.5037 19.0059 23.8111C19.0059 25.9829 18.1575 28.0658 16.6475 29.6015C15.1375 31.1372 13.0894 32 10.9539 32C9.77296 31.9895 8.60584 31.7402 7.5205 31.2666C6.43515 30.7931 5.45328 30.1047 4.63201 29.2415V29.2415ZM27.6375 29.2415C25.268 26.6819 23.9958 23.8111 23.9958 19.1574C23.9958 10.9685 29.6482 3.62887 37.8681 0L39.9225 3.2241C32.2502 7.44491 30.7502 12.9221 30.152 16.3755C31.3874 15.7251 33.0047 15.4981 34.5898 15.6479C38.74 16.0386 42.0114 19.5037 42.0114 23.8111C42.0114 25.9829 41.1631 28.0658 39.653 29.6015C38.143 31.1372 36.095 32 33.9595 32C32.7785 31.9895 31.6114 31.7402 30.526 31.2666C29.4407 30.7931 28.4588 30.1047 27.6375 29.2415V29.2415Z" fill="#E07C6E"/>
</svg>