<svg width="24" height="24" viewBox="0 0 24 24" fill="none" xmlns="http://www.w3.org/2000/svg">
<path d="M18.0041 14.3202C17.7495 14.5712 17.6324 14.9342 17.6905 15.2902L18.5646 20.2102C18.6383 20.6272 18.4653 21.0492 18.1221 21.2902C17.7858 21.5402 17.3385 21.5702 16.9717 21.3702L12.6168 19.0602C12.4654 18.9782 12.2972 18.9342 12.1252 18.9292H11.8587C11.7663 18.9432 11.6758 18.9732 11.5932 19.0192L7.23731 21.3402C7.02198 21.4502 6.77812 21.4892 6.53919 21.4502C5.95709 21.3382 5.5687 20.7742 5.66408 20.1792L6.53919 15.2592C6.5972 14.9002 6.48019 14.5352 6.22553 14.2802L2.67494 10.7802C2.37799 10.4872 2.27475 10.0472 2.41044 9.65024C2.54219 9.25424 2.87847 8.96524 3.28456 8.90024L8.17142 8.17924C8.5431 8.14024 8.86954 7.91024 9.0367 7.57024L11.1901 3.08024C11.2412 2.98024 11.3071 2.88824 11.3867 2.81024L11.4752 2.74024C11.5214 2.68824 11.5745 2.64524 11.6335 2.61024L11.7407 2.57024L11.9078 2.50024H12.3218C12.6915 2.53924 13.017 2.76424 13.1871 3.10024L15.369 7.57024C15.5263 7.89724 15.8321 8.12424 16.1851 8.17924L21.0719 8.90024C21.4849 8.96024 21.83 9.25024 21.9667 9.65024C22.0955 10.0512 21.9844 10.4912 21.6816 10.7802L18.0041 14.3202Z" fill="#71D9CE"/>
</svg>
