<?xml version="1.0" encoding="UTF-8" standalone="no"?>
<!DOCTYPE svg PUBLIC "-//W3C//DTD SVG 1.1//EN" "http://www.w3.org/Graphics/SVG/1.1/DTD/svg11.dtd">
<svg width="100%" height="100%" viewBox="0 0 477 436" version="1.1" xmlns="http://www.w3.org/2000/svg" xmlns:xlink="http://www.w3.org/1999/xlink" xml:space="preserve" xmlns:serif="http://www.serif.com/" style="fill-rule:evenodd;clip-rule:evenodd;stroke-linejoin:round;stroke-miterlimit:2;">
    <g transform="matrix(1,0,0,1,-955,-124)">
        <path d="M1354.69,404.121C1332.65,459.231 1259.14,494.568 1163.37,451.916C1077.76,413.786 1035.24,338.458 1060.51,272.573C1085.78,206.688 1172.9,179.642 1255.77,210.59C1345.11,243.931 1381.38,337.349 1354.69,404.121Z" style="fill:white;fill-rule:nonzero;"/>
        <path d="M1245.17,474.528C1218.84,474.528 1190.46,468.099 1161.86,455.374C1119.83,436.664 1086.18,407.934 1067.12,374.548C1047.96,340.941 1044.37,304.274 1057.01,271.243C1069.6,238.345 1097.49,213.649 1135.44,201.678C1172.95,189.84 1216.18,191.791 1257.1,207.043C1301.13,223.448 1335.44,255.326 1353.75,296.737C1369.76,332.916 1371.4,372.553 1358.19,405.54C1347.5,432.186 1325.96,453.246 1297.49,464.818C1281.49,471.291 1263.84,474.528 1245.17,474.528ZM1186.65,201.545C1169.71,201.545 1153.17,203.984 1137.66,208.861C1101.92,220.122 1075.76,243.222 1064.01,273.903C1052.17,304.762 1055.59,339.167 1073.59,370.779C1091.86,402.791 1124.27,430.413 1164.88,448.458C1211.88,469.385 1257.94,472.666 1294.65,457.769C1321.21,446.995 1341.3,427.442 1351.18,402.702C1363.6,371.622 1362.05,334.113 1346.84,299.796C1329.37,260.247 1296.56,229.832 1254.44,214.093C1232.05,205.757 1208.99,201.545 1186.65,201.545Z" style="fill:rgb(112,217,206);fill-rule:nonzero;"/>
        <path d="M1143.6,321.211C1143.6,312.831 1136.81,306.092 1128.48,306.092C1124.22,305.959 1120.01,307.777 1116.29,307.333C1112.56,306.89 1110.57,305.383 1106.09,303.121L1106.04,303.121C1104.14,302.19 1102.01,301.658 1099.79,301.658C1091.9,301.658 1085.52,308.043 1085.52,315.935C1085.52,317.043 1085.65,318.107 1085.91,319.171L1085.91,319.304C1087.95,329.236 1096.56,339.079 1112.07,340.054C1127.28,340.985 1136.24,334.468 1138.1,332.96C1138.1,332.96 1138.14,332.96 1138.14,332.916C1138.37,332.739 1138.45,332.65 1138.45,332.65C1141.56,329.812 1143.6,325.778 1143.6,321.211Z" style="fill:rgb(216,111,205);fill-rule:nonzero;"/>
        <path d="M1189.49,335.62C1215.59,335.62 1236.75,314.46 1236.75,288.357C1236.75,262.254 1215.59,241.094 1189.49,241.094C1163.38,241.094 1142.22,262.254 1142.22,288.357C1142.22,314.46 1163.38,335.62 1189.49,335.62Z" style="fill:white;fill-rule:nonzero;"/>
        <path d="M1179.42,309.905C1197.32,309.905 1211.83,295.394 1211.83,277.495C1211.83,259.595 1197.32,245.084 1179.42,245.084C1161.52,245.084 1147.01,259.595 1147.01,277.495C1147.01,295.394 1161.52,309.905 1179.42,309.905Z" style="fill:rgb(68,63,128);fill-rule:nonzero;"/>
        <path d="M1084.41,297.579C1110.51,297.579 1131.67,276.419 1131.67,250.316C1131.67,224.213 1110.51,203.053 1084.41,203.053C1058.3,203.053 1037.14,224.213 1037.14,250.316C1037.14,276.419 1058.3,297.579 1084.41,297.579Z" style="fill:white;fill-rule:nonzero;"/>
        <path d="M1074.39,271.864C1092.29,271.864 1106.8,257.353 1106.8,239.453C1106.8,221.554 1092.29,207.043 1074.39,207.043C1056.49,207.043 1041.98,221.554 1041.98,239.453C1041.98,257.353 1056.49,271.864 1074.39,271.864Z" style="fill:rgb(68,63,128);fill-rule:nonzero;"/>
        <path d="M1181.15,229.833C1179.2,229.833 1177.56,228.325 1177.38,226.374L1173.48,180.086C1173.3,178.003 1174.86,176.185 1176.94,176.007C1179.02,175.83 1180.84,177.382 1181.02,179.466L1184.92,225.754C1185.1,227.837 1183.55,229.655 1181.46,229.833L1181.15,229.833Z" style="fill:rgb(68,63,128);fill-rule:nonzero;"/>
        <path d="M1204.16,229.832C1203.41,229.832 1202.7,229.611 1202.08,229.212C1200.75,228.325 1200.13,226.729 1200.53,225.177L1212.76,174.721C1213.25,172.682 1215.29,171.441 1217.33,171.928C1219.37,172.416 1220.61,174.455 1220.12,176.495L1210.32,216.93L1243.62,192.678C1245.31,191.436 1247.66,191.836 1248.9,193.52C1250.14,195.205 1249.74,197.555 1248.05,198.796L1206.47,229.123C1205.71,229.566 1204.92,229.832 1204.16,229.832Z" style="fill:rgb(68,63,128);fill-rule:nonzero;"/>
        <path d="M1070.26,201.59C1068.36,201.59 1066.72,200.171 1066.5,198.22L1061.57,152.553C1061.35,150.469 1062.86,148.607 1064.94,148.385C1067.03,148.164 1068.89,149.671 1069.11,151.755L1074.03,197.422C1074.25,199.506 1072.75,201.368 1070.66,201.59L1070.26,201.59Z" style="fill:rgb(68,63,128);fill-rule:nonzero;"/>
        <path d="M1047.65,210.812C1047.25,210.812 1046.85,210.768 1046.5,210.634L1005.93,197.422C1003.94,196.757 1002.87,194.629 1003.49,192.678C1004.16,190.683 1006.29,189.619 1008.24,190.239L1038.43,200.082L1020.47,173.303C1019.32,171.574 1019.76,169.224 1021.49,168.071C1023.22,166.918 1025.57,167.362 1026.73,169.091L1050.8,204.915C1051.69,206.245 1051.64,208.019 1050.67,209.304C1049.96,210.28 1048.81,210.812 1047.65,210.812Z" style="fill:rgb(68,63,128);fill-rule:nonzero;"/>
        <path d="M1114.69,324.891C1113.36,324.891 1111.98,324.802 1110.52,324.581C1100.68,323.073 1095.89,316.378 1095.71,316.112C1094.52,314.383 1094.96,312.033 1096.64,310.836C1098.33,309.639 1100.68,310.038 1101.88,311.767C1102.05,311.989 1105.16,316.156 1111.63,317.132C1118.46,318.152 1123.11,315.447 1123.29,315.358C1125.06,314.294 1127.37,314.871 1128.48,316.644C1129.54,318.418 1129.01,320.723 1127.24,321.832C1127.01,321.876 1122.09,324.891 1114.69,324.891Z" style="fill:rgb(68,63,128);fill-rule:nonzero;"/>
        <path d="M1310.17,301.791C1343.25,301.791 1370.07,274.973 1370.07,241.892C1370.07,208.81 1343.25,181.992 1310.17,181.992C1277.09,181.992 1250.27,208.81 1250.27,241.892C1250.27,274.973 1277.09,301.791 1310.17,301.791Z" style="fill:white;fill-rule:nonzero;"/>
        <path d="M1310.17,305.604C1275.06,305.604 1246.5,277.051 1246.5,241.936C1246.5,206.821 1275.06,178.268 1310.17,178.268C1345.29,178.268 1373.84,206.821 1373.84,241.936C1373.84,277.051 1345.29,305.604 1310.17,305.604ZM1310.17,185.761C1279.22,185.761 1254.04,210.945 1254.04,241.892C1254.04,272.839 1279.22,298.022 1310.17,298.022C1341.12,298.022 1366.3,272.839 1366.3,241.892C1366.3,210.945 1341.12,185.761 1310.17,185.761Z" style="fill:rgb(112,217,206);fill-rule:nonzero;"/>
        <path d="M1236.75,414.895C1256.93,414.895 1273.28,398.538 1273.28,378.361C1273.28,358.184 1256.93,341.827 1236.75,341.827C1216.57,341.827 1200.21,358.184 1200.21,378.361C1200.21,398.538 1216.57,414.895 1236.75,414.895Z" style="fill:rgb(112,217,206);fill-rule:nonzero;"/>
        <path d="M1335.49,450.098C1350.89,450.098 1363.38,437.613 1363.38,422.21C1363.38,406.808 1350.89,394.323 1335.49,394.323C1320.09,394.323 1307.6,406.808 1307.6,422.21C1307.6,437.613 1320.09,450.098 1335.49,450.098Z" style="fill:rgb(247,227,0);fill-rule:nonzero;"/>
        <path d="M1328.66,361.557C1336.1,361.557 1342.14,355.523 1342.14,348.079C1342.14,340.635 1336.1,334.601 1328.66,334.601C1321.22,334.601 1315.18,340.635 1315.18,348.079C1315.18,355.523 1321.22,361.557 1328.66,361.557Z" style="fill:rgb(68,63,128);fill-rule:nonzero;"/>
        <path d="M1133.71,177.825C1148.57,177.825 1160.62,165.776 1160.62,150.913C1160.62,136.049 1148.57,124 1133.71,124C1118.85,124 1106.8,136.049 1106.8,150.913C1106.8,165.776 1118.85,177.825 1133.71,177.825Z" style="fill:rgb(112,217,206);fill-rule:nonzero;"/>
        <g>
            <path d="M1054.7,417.245C1064.52,417.245 1072.48,409.285 1072.48,399.466C1072.48,389.646 1064.52,381.687 1054.7,381.687C1044.88,381.687 1036.92,389.646 1036.92,399.466C1036.92,409.285 1044.88,417.245 1054.7,417.245Z" style="fill:rgb(112,217,206);fill-rule:nonzero;"/>
            <path d="M1021.85,468.631C1036.12,468.631 1047.7,457.058 1047.7,442.783C1047.7,428.507 1036.12,416.934 1021.85,416.934C1007.57,416.934 996,428.507 996,442.783C996,457.058 1007.57,468.631 1021.85,468.631Z" style="fill:rgb(112,217,206);fill-rule:nonzero;"/>
            <path d="M999.281,430.191C1006.24,418.176 1015.15,408.023 1022.47,400.707C1029.79,393.391 1042.38,383.017 1051.91,381.953C1061.44,380.888 1071.82,404.254 1071.82,404.254C1071.82,404.254 1071.02,407.136 1068.4,410.816C1065.79,414.496 1060.38,422.255 1055.5,431.388C1051.64,438.526 1048.72,449.877 1042.6,458.256C1038.08,464.464 1025.44,461.715 1015.91,456.66C1006.38,451.606 999.281,430.191 999.281,430.191Z" style="fill:rgb(112,217,206);fill-rule:nonzero;"/>
        </g>
        <g transform="matrix(-0.489578,-0.87196,-0.87196,0.489578,2020.19,1137.91)">
            <path d="M1054.7,417.245C1064.52,417.245 1072.48,409.285 1072.48,399.466C1072.48,389.646 1064.52,381.687 1054.7,381.687C1044.88,381.687 1036.92,389.646 1036.92,399.466C1036.92,409.285 1044.88,417.245 1054.7,417.245Z" style="fill:rgb(247,227,0);fill-rule:nonzero;"/>
            <path d="M1021.85,468.631C1036.12,468.631 1047.7,457.058 1047.7,442.783C1047.7,428.507 1036.12,416.934 1021.85,416.934C1007.57,416.934 996,428.507 996,442.783C996,457.058 1007.57,468.631 1021.85,468.631Z" style="fill:rgb(247,227,0);fill-rule:nonzero;"/>
            <path d="M999.281,430.191C1006.24,418.176 1015.15,408.023 1022.47,400.707C1029.79,393.391 1042.38,383.017 1051.91,381.953C1061.44,380.888 1071.82,404.254 1071.82,404.254C1071.82,404.254 1071.02,407.136 1068.4,410.816C1065.79,414.496 1060.38,422.255 1055.5,431.388C1051.64,438.526 1048.72,449.877 1042.6,458.256C1038.08,464.464 1025.44,461.715 1015.91,456.66C1006.38,451.606 999.281,430.191 999.281,430.191Z" style="fill:rgb(247,227,0);fill-rule:nonzero;"/>
        </g>
        <path d="M1330.7,503.214C1342.13,503.214 1351.4,493.944 1351.4,482.509C1351.4,471.073 1342.13,461.803 1330.7,461.803C1319.26,461.803 1309.99,471.073 1309.99,482.509C1309.99,493.944 1319.26,503.214 1330.7,503.214Z" style="fill:rgb(112,217,206);fill-rule:nonzero;"/>
        <path d="M1310.26,486.144C1310.7,489.248 1312.88,501.041 1316.29,514.254C1319.93,528.397 1324.63,544.137 1330.7,552.96C1342.14,569.675 1378.98,547.728 1378.98,537.309C1378.98,523.254 1371.22,510.042 1364.79,498.16C1358.37,486.277 1351.05,470.183 1340.68,464.33C1328.48,457.503 1308.84,475.814 1310.26,486.144Z" style="fill:rgb(112,217,206);fill-rule:nonzero;"/>
        <path d="M1189.49,246.813C1212.41,246.813 1231.07,265.479 1231.07,288.402C1231.07,311.324 1212.41,329.99 1189.49,329.99C1166.56,329.99 1147.9,311.324 1147.9,288.402C1147.9,265.479 1166.56,246.813 1189.49,246.813ZM1189.49,241.138C1163.42,241.138 1142.27,262.287 1142.27,288.357C1142.27,314.427 1163.42,335.62 1189.53,335.62C1215.65,335.62 1236.79,314.472 1236.79,288.357C1236.79,262.243 1215.6,241.138 1189.49,241.138Z" style="fill:rgb(68,63,128);fill-rule:nonzero;"/>
        <path d="M1084.41,208.728C1107.33,208.728 1126,227.394 1126,250.316C1126,273.238 1107.33,291.904 1084.41,291.904C1061.49,291.904 1042.82,273.238 1042.82,250.316C1042.82,227.394 1061.49,208.728 1084.41,208.728ZM1084.41,203.097C1058.29,203.097 1037.14,224.246 1037.14,250.36C1037.14,276.475 1058.29,297.624 1084.41,297.624C1110.52,297.624 1131.67,276.475 1131.67,250.36C1131.67,224.246 1110.52,203.097 1084.41,203.097Z" style="fill:rgb(68,63,128);fill-rule:nonzero;"/>
        <circle cx="1406" cy="213" r="26" style="fill:rgb(247,227,0);"/>
        <circle cx="963" cy="364" r="8" style="fill:rgb(245,226,76);"/>
    </g>
</svg>
