<?xml version="1.0" encoding="UTF-8" standalone="no"?>
<!DOCTYPE svg PUBLIC "-//W3C//DTD SVG 1.1//EN" "http://www.w3.org/Graphics/SVG/1.1/DTD/svg11.dtd">
<svg width="100%" height="100%" viewBox="0 0 401 348" version="1.1" xmlns="http://www.w3.org/2000/svg" xmlns:xlink="http://www.w3.org/1999/xlink" xml:space="preserve" xmlns:serif="http://www.serif.com/" style="fill-rule:evenodd;clip-rule:evenodd;stroke-linejoin:round;stroke-miterlimit:2;">
    <g transform="matrix(1,0,0,1,-29,-124)">
        <path d="M187.039,281.468C210.155,281.468 228.895,262.729 228.895,239.613C228.895,216.497 210.155,197.757 187.039,197.757C163.923,197.757 145.184,216.497 145.184,239.613C145.184,262.729 163.923,281.468 187.039,281.468Z" style="fill:white;fill-rule:nonzero;"/>
        <path d="M187.04,282.823C163.208,282.823 143.83,263.444 143.83,239.613C143.83,215.781 163.208,196.403 187.04,196.403C210.871,196.403 230.249,215.781 230.249,239.613C230.249,263.444 210.871,282.823 187.04,282.823ZM187.04,201.519C166.037,201.519 148.945,218.61 148.945,239.613C148.945,260.616 166.037,277.707 187.04,277.707C208.043,277.707 225.134,260.616 225.134,239.613C225.134,218.61 208.043,201.519 187.04,201.519Z" style="fill:rgb(112,217,206);fill-rule:nonzero;"/>
        <path d="M149.877,367.556C166.096,408.238 220.589,428.7 282.124,406.222C341.913,384.407 367.821,325.911 349.165,277.316C330.509,228.72 270.208,207.265 213.969,228.208C153.307,250.806 130.258,318.299 149.877,367.556Z" style="fill:white;fill-rule:nonzero;"/>
        <path d="M232.204,418.048C220.258,418.048 208.794,416.393 198.232,413.023C173.889,405.32 155.865,389.492 147.5,368.52C137.179,342.642 138.202,312.19 150.298,284.929C162.545,257.336 184.842,236.333 213.067,225.831C240.9,215.45 270.569,214.909 296.537,224.297C322.776,233.745 342.304,252.281 351.572,276.443C360.629,300.064 359.637,326.152 348.804,349.954C336.587,376.764 313.207,397.617 282.997,408.66C265.905,414.889 248.633,418.048 232.204,418.048ZM257.721,222.732C243.458,222.732 228.924,225.35 214.842,230.616C187.911,240.636 166.667,260.676 154.992,287.005C143.468,313.003 142.475,342.04 152.254,366.624C160.048,386.152 176.928,400.897 199.767,408.148C223.839,415.761 252.756,414.227 281.221,403.846C310.138,393.314 332.465,373.394 344.11,347.817C354.371,325.28 355.303,300.576 346.758,278.279C338.032,255.53 319.586,238.078 294.762,229.141C283.057,224.868 270.509,222.732 257.721,222.732Z" style="fill:rgb(112,217,206);fill-rule:nonzero;"/>
        <path d="M211.835,316.343C210.421,316.343 209.277,315.2 209.277,313.785C209.277,294.678 224.804,279.151 243.911,279.151C255.165,279.151 265.757,284.658 272.256,293.866C273.069,295.039 272.798,296.634 271.624,297.446C270.451,298.259 268.856,297.988 268.044,296.814C262.507,288.961 253.48,284.267 243.911,284.267C227.632,284.267 214.423,297.506 214.423,313.755C214.393,315.2 213.249,316.343 211.835,316.343Z" style="fill:rgb(68,63,128);fill-rule:nonzero;"/>
        <path d="M342.967,296.002C341.974,296.002 341.011,295.4 340.59,294.438C340.139,293.354 339.597,292.301 339.025,291.278C338.454,290.255 337.792,289.262 337.1,288.329C331.352,280.626 322.205,276.173 312.636,276.444C301.322,276.744 291.031,283.635 286.458,294.016C285.886,295.31 284.382,295.882 283.088,295.31C281.794,294.738 281.222,293.234 281.794,291.94C287.18,279.784 299.246,271.689 312.546,271.328C323.8,271.027 334.542,276.233 341.282,285.29C342.095,286.403 342.877,287.547 343.539,288.75C344.231,289.954 344.863,291.218 345.375,292.482C345.916,293.776 345.314,295.28 344.02,295.852C343.629,295.942 343.298,296.002 342.967,296.002Z" style="fill:rgb(68,63,128);fill-rule:nonzero;"/>
        <path d="M337.249,273.344C336.768,273.344 336.286,273.223 335.865,272.923C334.661,272.17 334.33,270.576 335.083,269.372L352.144,242.862C352.896,241.659 354.491,241.328 355.695,242.08C356.898,242.832 357.229,244.427 356.477,245.631L339.416,272.14C338.904,272.923 338.092,273.344 337.249,273.344Z" style="fill:rgb(68,63,128);fill-rule:nonzero;"/>
        <path d="M380.008,283.665L379.948,283.665L349.557,282.853C348.474,282.823 347.541,282.131 347.18,281.108C346.849,280.085 347.18,278.971 347.992,278.279L371.914,259.051C373.027,258.149 374.622,258.329 375.525,259.443C376.398,260.556 376.247,262.151 375.134,263.053L356.658,277.888L380.069,278.49C381.483,278.52 382.596,279.693 382.566,281.108C382.536,282.552 381.392,283.665 380.008,283.665Z" style="fill:rgb(68,63,128);fill-rule:nonzero;"/>
        <path d="M210.449,282.823C209.817,282.823 209.186,282.582 208.674,282.131L185.835,260.405C184.812,259.442 184.782,257.818 185.745,256.764C186.708,255.741 188.333,255.711 189.386,256.674L212.225,278.399C213.248,279.362 213.278,280.987 212.315,282.04C211.803,282.582 211.111,282.823 210.449,282.823Z" style="fill:rgb(68,63,128);fill-rule:nonzero;"/>
        <path d="M170.76,305.781C169.617,305.781 168.594,305.029 168.293,303.886C167.932,302.532 168.744,301.117 170.098,300.726L197.089,293.444L171.512,281.438C170.219,280.837 169.677,279.302 170.279,278.038C170.881,276.744 172.415,276.203 173.679,276.805L205.575,291.79C206.538,292.241 207.139,293.264 207.049,294.347C206.959,295.43 206.207,296.333 205.153,296.604L171.422,305.721C171.212,305.751 170.971,305.781 170.76,305.781Z" style="fill:rgb(68,63,128);fill-rule:nonzero;"/>
        <path d="M300.841,318.51C299.728,312.853 295.545,311.378 290.369,311.98C287.962,312.251 284.743,312.853 281.613,312.973C276.829,313.154 274.993,312.161 270.209,313.394C265.244,314.688 263.108,319.051 264.01,324.437C264.341,326.423 265.094,329.252 267.892,332.772C272.075,338.038 278.333,341.679 284.803,341.198C291.934,340.686 296.568,335.872 299.096,330.034C301.082,325.491 301.322,320.917 300.841,318.51ZM287.812,328.74C285.705,330.847 282.666,331.539 279.537,330.305C277.762,329.613 276.227,327.868 275.505,326.754C274.602,325.37 274.181,324.167 274.361,323.053C274.662,321.398 276.498,321.428 278.905,321.428C281.312,321.428 284.833,321.338 287.36,320.827C289.647,320.345 290.61,320.676 290.971,321.94C291.393,323.595 289.798,326.754 287.812,328.74Z" style="fill:rgb(216,111,205);fill-rule:nonzero;"/>
        <path d="M224.651,365.24C235.104,365.24 243.578,356.766 243.578,346.313C243.578,335.86 235.104,327.386 224.651,327.386C214.198,327.386 205.725,335.86 205.725,346.313C205.725,356.766 214.198,365.24 224.651,365.24Z" style="fill:rgb(112,217,206);fill-rule:nonzero;"/>
        <path d="M179.907,344.056C184.959,344.056 189.055,339.961 189.055,334.909C189.055,329.857 184.959,325.761 179.907,325.761C174.855,325.761 170.76,329.857 170.76,334.909C170.76,339.961 174.855,344.056 179.907,344.056Z" style="fill:rgb(68,63,128);fill-rule:nonzero;"/>
        <path d="M220.26,464.778C230.779,464.778 239.307,456.251 239.307,445.731C239.307,435.212 230.779,426.684 220.26,426.684C209.741,426.684 201.213,435.212 201.213,445.731C201.213,456.251 209.741,464.778 220.26,464.778Z" style="fill:rgb(68,63,128);fill-rule:nonzero;"/>
        <path d="M173.679,440.195C181.473,440.195 187.791,433.876 187.791,426.082C187.791,418.288 181.473,411.97 173.679,411.97C165.885,411.97 159.566,418.288 159.566,426.082C159.566,433.876 165.885,440.195 173.679,440.195Z" style="fill:rgb(112,217,206);fill-rule:nonzero;"/>
        <path d="M144.552,472C155.902,472 165.103,462.799 165.103,451.448C165.103,440.098 155.902,430.897 144.552,430.897C133.201,430.897 124,440.098 124,451.448C124,462.799 133.201,472 144.552,472Z" style="fill:rgb(112,217,206);fill-rule:nonzero;"/>
        <path d="M152.616,470.345C162.575,465.591 167.631,460.927 173.318,454.969C181.833,446.062 185.925,436.975 187.37,429.483C188.814,421.99 171.422,412.873 171.422,412.873C171.422,412.873 169.165,412.662 166.939,413.685C163.689,415.19 157.791,418.831 150.75,423.134C142.385,428.249 135.675,431.8 131.372,435.651C124.812,441.489 125.835,453.073 125.835,453.073C129.205,460.957 152.616,470.345 152.616,470.345Z" style="fill:rgb(112,217,206);fill-rule:nonzero;"/>
        <path d="M354.312,405.531C364.001,405.531 371.855,397.677 371.855,387.988C371.855,378.3 364.001,370.446 354.312,370.446C344.624,370.446 336.77,378.3 336.77,387.988C336.77,397.677 344.624,405.531 354.312,405.531Z" style="fill:rgb(112,217,206);fill-rule:nonzero;"/>
        <path d="M270.148,208.53C280.235,208.53 288.412,200.352 288.412,190.265C288.412,180.177 280.235,172 270.148,172C260.06,172 251.883,180.177 251.883,190.265C251.883,200.352 260.06,208.53 270.148,208.53Z" style="fill:rgb(112,217,206);fill-rule:nonzero;"/>
        <path d="M349.617,359.372C363.975,359.372 375.615,347.733 375.615,333.374C375.615,319.016 363.975,307.376 349.617,307.376C335.259,307.376 323.619,319.016 323.619,333.374C323.619,347.733 335.259,359.372 349.617,359.372Z" style="fill:rgb(247,227,0);fill-rule:nonzero;"/>
        <circle cx="53" cy="165" r="24" style="fill:rgb(138,214,206);"/>
        <circle cx="409.382" cy="144.382" r="20.382" style="fill:white;"/>
        <g transform="matrix(0.258196,-0.966093,0.966093,0.258196,-387.841,1314.94)">
            <path d="M1054.7,417.245C1064.52,417.245 1072.48,409.285 1072.48,399.466C1072.48,389.646 1064.52,381.687 1054.7,381.687C1044.88,381.687 1036.92,389.646 1036.92,399.466C1036.92,409.285 1044.88,417.245 1054.7,417.245Z" style="fill:rgb(247,227,0);fill-rule:nonzero;"/>
            <path d="M1021.85,468.631C1036.12,468.631 1047.7,457.058 1047.7,442.783C1047.7,428.507 1036.12,416.934 1021.85,416.934C1007.57,416.934 996,428.507 996,442.783C996,457.058 1007.57,468.631 1021.85,468.631Z" style="fill:rgb(247,227,0);fill-rule:nonzero;"/>
            <path d="M999.281,430.191C1006.24,418.176 1015.15,408.023 1022.47,400.707C1029.79,393.391 1042.38,383.017 1051.91,381.953C1061.44,380.888 1071.82,404.254 1071.82,404.254C1071.82,404.254 1071.02,407.136 1068.4,410.816C1065.79,414.496 1060.38,422.255 1055.5,431.388C1051.64,438.526 1048.72,449.877 1042.6,458.256C1038.08,464.464 1025.44,461.715 1015.91,456.66C1006.38,451.606 999.281,430.191 999.281,430.191Z" style="fill:rgb(247,227,0);fill-rule:nonzero;"/>
        </g>
    </g>
</svg>
