<svg width="1439" height="141" viewBox="0 0 1439 141" fill="none" xmlns="http://www.w3.org/2000/svg">
<path fill-rule="evenodd" clip-rule="evenodd" d="M1439 69.949V141H0V137.43C0 137.43 92.5674 105.664 158 92.5C242.5 75.5 306.183 64.7471 367.5 60C445 54 534.466 59.5471 589 67.5C646 75.8125 688 70.5 732.5 59C751.879 53.9919 768.887 49.0789 787.282 43.7649C811.129 36.8765 837.306 29.3147 874 20C937.98 3.75879 995 0 1028.5 0C1068.5 0 1129.38 0.391846 1183 8C1257 18.5 1293.37 26.4666 1348 42C1380.69 51.2954 1417.09 62.8511 1439 69.949Z" fill="#CDC8FB"/>
</svg>
